<?xml version="1.0" encoding="utf-8"?><svg width="144" height="72" viewBox="0 0 144 72" xmlns="http://www.w3.org/2000/svg" xmlns:xlink="http://www.w3.org/1999/xlink"><svg viewBox="0 0 72 72" width="72" height="72" id="1F343" xmlns="http://www.w3.org/2000/svg"><path fill="#b1cc33" d="M28.919 27.91c8.152-6.829 20.773-4.925 20.773-4.925s-.6 12.836-8.624 19.455-20.774 4.925-20.774 4.925.473-12.627 8.625-19.455z"/><g fill="none" stroke="#000" stroke-linecap="round" stroke-linejoin="round" stroke-width="2"><path d="M29.63 27.91c8.152-6.829 20.773-4.925 20.773-4.925s-.599 12.836-8.624 19.455-20.774 4.925-20.774 4.925.473-12.627 8.625-19.455zM54.086 38.543a10.246 10.246 0 01-1.58 4.74 11.317 11.317 0 01-7.901 4.741M58.826 41.703a10.245 10.245 0 01-1.58 4.74 11.317 11.317 0 01-7.901 4.741M17.74 30.642a10.245 10.245 0 011.58-4.741 11.317 11.317 0 017.902-4.741M13 27.481a10.245 10.245 0 011.58-4.74A11.317 11.317 0 0122.481 18M18 50l2.901-2.976"/></g></svg><svg viewBox="0 0 72 72" width="72" height="72" id="1F342" x="72" xmlns="http://www.w3.org/2000/svg"><path fill="#a57939" d="M55.732 36.689c5.432 6.231 4.132 16.317 4.132 16.317s-9.931-.223-15.363-6.454-4.132-16.317-4.132-16.317 10.046.069 15.363 6.454z"/><path fill="#e27022" d="M19.762 22.361C26.154 17.008 36.05 18.5 36.05 18.5s-.47 10.065-6.762 15.254S13 37.616 13 37.616s.37-9.9 6.762-15.255z"/><g fill="none" stroke="#000" stroke-linecap="round" stroke-linejoin="round" stroke-width="2"><path d="M19.762 22.361C26.154 17.008 36.05 18.5 36.05 18.5s-.47 10.065-6.762 15.254S13 37.616 13 37.616s.37-9.9 6.762-15.255zM55.732 36.689c5.432 6.231 4.132 16.317 4.132 16.317s-9.931-.223-15.363-6.454-4.132-16.317-4.132-16.317 10.046.069 15.363 6.454z"/></g></svg></svg>