<?xml version="1.0" encoding="utf-8"?><svg width="144" height="144" viewBox="0 0 144 144" xmlns="http://www.w3.org/2000/svg" xmlns:xlink="http://www.w3.org/1999/xlink"><svg viewBox="0 0 72 72" width="72" height="72" id="2B8F" xmlns="http://www.w3.org/2000/svg"><path fill="#3f3f3f" d="M50.166 50.524l9.6-10.4 4.1 3.8-16.5 17.8-16.5-17.8 4.1-3.8 9.6 9.98-.004-14.694c0-9.805-3.999-15.24-14.522-15.24-10.708 0-14.21 6.761-14.21 15.24v22.799h-5.38V35.38c0-12.4 6.315-20.59 19.59-20.59 13.5 0 20.125 8.09 20.125 20.59z"/><path fill="none" stroke="#000" stroke-linecap="round" stroke-linejoin="round" stroke-width="2" d="M50.166 50.524l9.6-10.4 4.1 3.8-16.5 17.8-16.5-17.8 4.1-3.8 9.6 9.98-.004-14.694c0-9.805-3.999-15.24-14.522-15.24-10.708 0-14.21 6.761-14.21 15.24v22.799h-5.38V35.38c0-12.4 6.315-20.59 19.59-20.59 13.5 0 20.125 8.09 20.125 20.59z"/></svg><svg viewBox="0 0 72 72" width="72" height="72" id="2B0D" x="72" xmlns="http://www.w3.org/2000/svg"><path fill="#3f3f3f" d="M52.509 48.279l-4.1-3.7-8.6 9.2V17.478l8.6 9.2 4.1-3.7-15.8-16.7-15.8 16.7 4.1 3.7 8.6-9.2v36.301l-8.6-9.2-4.1 3.7 15.8 16.7 15.8-16.7z"/><path fill="none" stroke="#000" stroke-linecap="round" stroke-linejoin="round" stroke-width="2" d="M52.509 48.279l-4.1-3.7-8.6 9.2V17.478l8.6 9.2 4.1-3.7-15.8-16.7-15.8 16.7 4.1 3.7 8.6-9.2v36.301l-8.6-9.2-4.1 3.7 15.8 16.7 15.8-16.7z"/></svg><svg viewBox="0 0 72 72" width="72" height="72" id="2B0C" y="72" xmlns="http://www.w3.org/2000/svg"><path fill="#3f3f3f" d="M48.341 19.828l-3.7 4.1 9.2 8.6H17.54l9.2-8.6-3.7-4.1-16.7 15.8 16.7 15.8 3.7-4.1-9.2-8.6h36.301l-9.2 8.6 3.7 4.1 16.7-15.8-16.7-15.8z"/><path fill="none" stroke="#000" stroke-linecap="round" stroke-linejoin="round" stroke-width="2" d="M48.341 19.828l-3.7 4.1 9.2 8.6H17.54l9.2-8.6-3.7-4.1-16.7 15.8 16.7 15.8 3.7-4.1-9.2-8.6h36.301l-9.2 8.6 3.7 4.1 16.7-15.8-16.7-15.8z"/></svg><svg viewBox="0 0 72 72" width="72" height="72" id="25A1" x="72" y="72" xmlns="http://www.w3.org/2000/svg"><path fill="#FFA7C0" stroke="#FFA7C0" stroke-linecap="round" stroke-linejoin="round" stroke-miterlimit="10" stroke-width="2" d="M16 4h40v64H16z"/><g fill="none" stroke="#000" stroke-linecap="round" stroke-linejoin="round" stroke-miterlimit="10" stroke-width="2"><path d="M16 10.958h40v50H16zM56 10.958l-40 50M16 10.958l40 50"/></g></svg></svg>