<?xml version="1.0" encoding="utf-8"?><svg width="720" height="720" viewBox="0 0 720 720" xmlns="http://www.w3.org/2000/svg" xmlns:xlink="http://www.w3.org/1999/xlink"><svg viewBox="0 0 72 72" width="72" height="72" id="E269" x="72" xmlns="http://www.w3.org/2000/svg"><g fill="#D0CFCE"><path d="M27 36v5l4 4h31l5-2 1-4v-7l-2-4-4-1H48v6h12l2 1v5l-2 1H35l-2-2v-2h-6z"/><path d="M45 36v-5l-4-4H10l-5 2-1 4v7l2 4 4 1h14v-6H12l-2-1v-5l2-1h25l2 2v2h6z"/></g><g fill="none" stroke="#000" stroke-linecap="round" stroke-linejoin="round" stroke-miterlimit="10" stroke-width="2"><path d="M49.042 27H62c3.3 0 6 2.7 6 6v6c0 3.3-2.7 6-6 6H33c-3.3 0-6-2.7-6-6v-2"/><path d="M49 33h11c1.105 0 2 .737 2 1.647v2.706c0 .91-.895 1.647-2 1.647H35c-1.104 0-2-.738-2-1.647v-.374"/><path d="M22.988 45H10c-3.3 0-6-2.7-6-6v-6c0-3.3 2.7-6 6-6h29c3.3 0 6 2.7 6 6v2"/><path d="M23 39H12c-1.105 0-2-.737-2-1.647v-2.706c0-.91.895-1.647 2-1.647h25c1.104 0 2 .738 2 1.647v.346"/></g></svg><svg viewBox="0 0 72 72" width="72" height="72" id="E268" x="288" y="432" xmlns="http://www.w3.org/2000/svg"><path fill="#D0CFCE" d="M32 50.08H21.92V40h-3.84v10.08H8v3.84h10.08V64h3.84V53.92H32z"/><path fill="#92D3F5" d="M61.395 57a.962.962 0 01-.962-.962v-.885c0-4.282-4.324-7.512-8.321-7.687-5.969 4.82-12.015 4.82-17.983 0-3.997.175-8.321 3.405-8.321 7.687V57"/><path fill="#F1B31C" d="M57.83 46.215a.962.962 0 010-1.36c1.762-1.763 3.411-6.224 1.557-10.624-.426-1.004-.794-1.823-1.114-2.532-1.416-3.145-1.945-4.322-2.258-10.122-.342-6.35-5.987-6.806-6.227-6.823a.963.963 0 01-.662-.33c-.09-.1-2.317-2.553-6.967-2.553-5.965 0-11.005 3.253-12.257 7.912-.675 2.512-.608 4.255-.543 5.94.07 1.802.136 3.505-.732 5.733-.289.744-.612 1.476-.933 2.206-1.642 3.722-3.06 6.936-.124 11.34a.962.962 0 01-.8 1.495.966.966 0 01-.413-.102 28.771 28.771 0 003.275 2.523c1.371-.86 2.957-1.385 4.497-1.452 5.968 4.82 12.014 4.82 17.983 0 1.18.051 2.388.376 3.506.91a50.004 50.004 0 003.23-1.945.958.958 0 01-1.018-.216z"/><path fill="#FCEA2B" d="M33.502 29.27v.876c0 7.01 4.225 12.503 9.618 12.503s9.618-5.492 9.618-12.503c0-4.265-1.63-6.888-4.842-10.205-2.054 1.756-5.319 3.62-8.238 5.288-2.426 1.384-5.733 3.273-6.156 4.04zm-.02.039z"/><g><path d="M26.77 46.496a.96.96 0 01-.8-.428c-3.521-5.28-1.67-9.478-.036-13.182.31-.705.622-1.41.9-2.128.724-1.856.668-3.295.603-4.961-.067-1.743-.144-3.719.607-6.514 1.478-5.497 7.282-9.336 14.115-9.336 4.65 0 7.325 2.15 8.149 2.938 1.555.246 7.253 1.623 7.628 8.588.293 5.442.71 6.368 2.091 9.436.325.72.699 1.551 1.132 2.573 2.325 5.517.026 10.738-1.97 12.733a.961.961 0 11-1.36-1.36c1.763-1.763 3.412-6.224 1.558-10.624-.426-1.004-.794-1.823-1.114-2.532-1.416-3.145-1.945-4.321-2.258-10.122-.341-6.35-5.987-6.806-6.227-6.823a.963.963 0 01-.662-.33c-.089-.1-2.317-2.553-6.967-2.553-5.965 0-11.005 3.253-12.257 7.912-.675 2.512-.608 4.255-.542 5.94.07 1.802.135 3.505-.733 5.734-.289.743-.611 1.475-.933 2.205-1.642 3.722-3.06 6.936-.124 11.34a.962.962 0 01-.8 1.494z"/><path d="M35.412 46.03c5.294 4.234 10.45 4.144 15.75-.272a.96.96 0 01.615-.223c5.636.002 10.58 4.496 10.58 9.618v.885a.962.962 0 11-1.924 0v-.885c0-4.282-4.324-7.513-8.321-7.687-5.968 4.82-12.014 4.82-17.983 0 0 0-.483-.55-.02-1.192.465-.64 1.303-.245 1.303-.245zM48.891 29.184a1.924 1.924 0 11-3.848-.002 1.924 1.924 0 013.848.002M41.197 29.184a1.924 1.924 0 11-3.849-.002 1.924 1.924 0 013.849.002"/><path d="M43.12 44.573c-6.472 0-11.541-6.337-11.541-14.427v-.962c0-1.494 2.184-2.804 7.125-5.626 3.181-1.816 6.787-3.875 8.545-5.634a.961.961 0 011.36 0c3.926 3.925 6.053 7.036 6.053 12.222 0 8.09-5.07 14.427-11.542 14.427zm-9.618-15.304v.877c0 7.01 4.225 12.503 9.618 12.503s9.618-5.492 9.618-12.503c0-4.265-1.63-6.888-4.842-10.205-2.054 1.756-5.319 3.62-8.238 5.288-2.426 1.384-5.733 3.273-6.156 4.04zm-.02.04z"/><path d="M43.12 38.804c-1.107 0-2.215-.275-3.315-.825a.962.962 0 11.86-1.72c1.652.826 3.258.826 4.91 0a.962.962 0 01.861 1.72c-1.1.55-2.208.825-3.316.825z"/><path fill="none" stroke="#000" stroke-linecap="round" stroke-linejoin="round" stroke-miterlimit="10" stroke-width="2" d="M32 50.08H21.92V40h-3.84v10.08H8v3.84h10.08V64h3.84V53.92H32z"/></g></svg><svg viewBox="0 0 72 72" width="72" height="72" id="E267" y="72" xmlns="http://www.w3.org/2000/svg"><path fill="#FCEA2B" stroke="#FCEA2B" stroke-linecap="round" stroke-linejoin="round" stroke-miterlimit="10" stroke-width="1.8" d="M35.25 12l11.125 11.25V62H13V12z"/><path fill="#F1B31C" stroke="#F1B31C" stroke-linecap="round" stroke-linejoin="round" stroke-miterlimit="10" stroke-width="1.8" d="M15.688 62h-3.063 33.75V36.625L20.937 62z"/><path fill="#FFF" d="M34 49v5h5l24-24-5-5z"/><g fill="none" stroke="#000" stroke-linecap="round" stroke-linejoin="round" stroke-miterlimit="10" stroke-width="2"><path d="M46.375 31v-7.75h-11.25V12h-22.5v50h33.75v-9.833M35.125 12l11.25 11.25M41 30H18M28 24H18M41 36H18M28 42H18M28 48H18M28 54H18"/><path d="M34 49v5h5l24-24-5-5z"/></g></svg><svg viewBox="0 0 72 72" width="72" height="72" id="E266" x="72" y="72" xmlns="http://www.w3.org/2000/svg"><path fill="#FFF" d="M35 16h25v40H35z"/><path fill="#D0CFCE" d="M60.053 56V28L35 56"/><g fill="none" stroke="#000" stroke-linecap="round" stroke-linejoin="round" stroke-miterlimit="10" stroke-width="2"><path d="M35 16h25v40H35zM30 36H11M24 30l6 6M24 42l6-6"/></g></svg><svg viewBox="0 0 72 72" width="72" height="72" id="E265" x="144" xmlns="http://www.w3.org/2000/svg"><path fill="#FFF" d="M16 33h31v6H16zM16 21h39.986v6H16zM16 45h26v6H16z"/><path fill="#D0CFCE" d="M16 24h40v3H16zM16 36h31v3H16zM16.333 48h26v3h-26z"/><g fill="none" stroke="#000" stroke-linecap="round" stroke-linejoin="round" stroke-miterlimit="10" stroke-width="2"><path d="M16 21h40v6H16zM16 33h31v6H16zM16.333 45h26v6h-26z"/></g></svg><svg viewBox="0 0 72 72" width="72" height="72" id="E264" x="144" y="72" xmlns="http://www.w3.org/2000/svg"><path fill="#D0CFCE" d="M56 32.8H39.2V16h-6.4v16.8H16v6.4h16.8V56h6.4V39.2H56z"/><path fill="none" stroke="#000" stroke-linecap="round" stroke-linejoin="round" stroke-miterlimit="10" stroke-width="2" d="M56 32.8H39.2V16h-6.4v16.8H16v6.4h16.8V56h6.4V39.2H56z"/></svg><svg viewBox="0 0 72 72" width="72" height="72" id="E263" y="144" xmlns="http://www.w3.org/2000/svg"><g fill="#FCEA2B"><circle cx="36" cy="35" r="20.8"/><path d="M23.437 50.356C22.105 53.88 18.432 58.712 15 61c7.165 0 12.233-2.092 16-7.273"/></g><circle cx="26" cy="35.079" r="2.857"/><circle cx="36" cy="35.079" r="2.857"/><circle cx="46" cy="35.079" r="2.857"/><path fill="none" stroke="#000" stroke-linecap="round" stroke-linejoin="round" stroke-miterlimit="10" stroke-width="2" d="M23.437 50.356C22.105 53.88 18.432 58.712 15 61c7.165 0 12.233-2.092 16-7.273"/><path fill="none" stroke="#000" stroke-linecap="round" stroke-linejoin="round" stroke-miterlimit="10" stroke-width="2" d="M23.437 50.356C22.105 53.88 18.432 58.712 15 61c7.165 0 12.233-2.092 16-7.273"/><path fill="none" stroke="#000" stroke-linecap="round" stroke-miterlimit="10" stroke-width="2" d="M20.48 47.617A19.917 19.917 0 0116 35c0-11.046 8.954-20 20-20s20 8.954 20 20-8.954 20-20 20c-.37 0-.738-.01-1.104-.03"/></svg><svg viewBox="0 0 72 72" width="72" height="72" id="E262" x="72" y="144" xmlns="http://www.w3.org/2000/svg"><path fill="#FFF" d="M51.76 17H20.153v37.65c0 4.06 3.29 5.62 7.35 5.62H44.41c4.06 0 7.35-1.56 7.35-5.62V17zM31 16v-4h10v4"/><path fill="#9b9b9a" d="M51 37v20.621L48.3 60H33z"/><path fill="#FFF" d="M17 16h38v4H17z"/><g fill="none" stroke="#000" stroke-linecap="round" stroke-linejoin="round" stroke-miterlimit="10" stroke-width="2"><path d="M31 16v-4h10v4M51 25v31a4 4 0 01-4 4H25a4 4 0 01-4-4V25M17 16h38v4H17zM41 28.25V55M31 28.25V55"/></g></svg><svg viewBox="0 0 72 72" width="72" height="72" id="E261" x="144" y="144" xmlns="http://www.w3.org/2000/svg"><path fill="#D0CFCE" d="M24 18h36v7H24zM24 33h36v7H24zM24 48h36v7H24z"/><path fill="#9B9B9A" d="M12 48h7v7h-7zM12 33h7v7h-7zM12 18h7v7h-7z"/><g fill="none" stroke="#000" stroke-linecap="round" stroke-linejoin="round" stroke-miterlimit="10" stroke-width="2"><path d="M59 25H25a1 1 0 01-1-1v-5a1 1 0 011-1h34a1 1 0 011 1v5a1 1 0 01-1 1zM59 40H25a1 1 0 01-1-1v-5a1 1 0 011-1h34a1 1 0 011 1v5a1 1 0 01-1 1zM59 55H25a1 1 0 01-1-1v-5a1 1 0 011-1h34a1 1 0 011 1v5a1 1 0 01-1 1zM18 25h-5a1 1 0 01-1-1v-5a1 1 0 011-1h5a1 1 0 011 1v5a1 1 0 01-1 1zM18 40h-5a1 1 0 01-1-1v-5a1 1 0 011-1h5a1 1 0 011 1v5a1 1 0 01-1 1zM18 55h-5a1 1 0 01-1-1v-5a1 1 0 011-1h5a1 1 0 011 1v5a1 1 0 01-1 1z"/></g></svg><svg viewBox="0 0 72 72" width="72" height="72" id="E260" x="216" xmlns="http://www.w3.org/2000/svg"><path fill="#A57939" d="M57.922 59.715H14.078c-.55 0-1-.45-1-1V35.182c0-.55.45-1 1-1h43.844c.55 0 1 .45 1 1v23.533c0 .55-.45 1-1 1z"/><g fill="none" stroke="#000" stroke-linecap="round" stroke-linejoin="round" stroke-miterlimit="10" stroke-width="2"><path d="M57.922 59.715H14.078c-.55 0-1-.45-1-1V35.182c0-.55.45-1 1-1h43.844c.55 0 1 .45 1 1v23.533c0 .55-.45 1-1 1z"/><path d="M57.718 60.002H14.364a1.145 1.145 0 01-1.145-1.145V35.103c0-.632.513-1.145 1.145-1.145h43.355c.633 0 1.145.513 1.145 1.145v23.754c0 .633-.512 1.145-1.145 1.145zM13.443 47.011h45.366M40.028 38.97h-8.027M40.028 51.973h-8.027M36.047 9.125v18.87M42.202 21.874l-6.14 6.14M29.872 21.874l6.14 6.14"/></g></svg><svg viewBox="0 0 72 72" width="72" height="72" id="E25F" x="216" y="72" xmlns="http://www.w3.org/2000/svg"><circle cx="36.073" cy="35.952" r="22.77" fill="#B1CC33"/><g fill="none" stroke="#000" stroke-linecap="round" stroke-linejoin="round" stroke-miterlimit="10" stroke-width="2"><path d="M36.073 22.327v27.25M49.698 35.952h-27.25"/><circle cx="36.073" cy="35.952" r="23"/></g></svg><svg viewBox="0 0 72 72" width="72" height="72" id="E25E" x="216" y="144" xmlns="http://www.w3.org/2000/svg"><path fill="#D0CFCE" d="M17.129 59.738L16.06 34.74l.021-6.944L36.15 8.11l19.832 19.81-.004 15.438-.94 8.66-.115 7.72-13.136-.576.029-17.535h-11.59l-.076 17.535z"/><g fill="none" stroke="#000" stroke-linecap="round" stroke-linejoin="round" stroke-miterlimit="10" stroke-width="2"><path d="M41.99 59.95h11.992c.55 0 1-.45 1-1V34.014M17.058 34.013V58.95c0 .55.45 1 1 1h12.135"/><path d="M8.492 35.595L36.017 7.977l27.58 27.37M41.815 59.933V41.627h-11.59v18.306"/></g></svg><svg viewBox="0 0 72 72" width="72" height="72" id="E25D" y="216" xmlns="http://www.w3.org/2000/svg"><path fill="#FFF" d="M12.854 16.577h42.498v42.246H12.854z"/><path fill="#F4AA41" d="M32.775 39.406l4.719-1.782-2.937-2.937z"/><path fill="#A57939" d="M56.61 11.679l3.785 3.784-22.013 22.013-3.785-3.784z"/><g fill="none" stroke="#000" stroke-linecap="round" stroke-linejoin="round" stroke-miterlimit="10" stroke-width="2"><path d="M54.557 28.084v30.684c0 .55-.45 1-1 1H13.168c-.55 0-1-.45-1-1V18.379a1 1 0 011-1h31.023"/><path d="M38.053 37.749l21.46-21.461a1 1 0 000-1.415l-2.335-2.335a1 1 0 00-1.414 0l-21.462 21.46-2.625 6.387 6.376-2.636-3.75-3.75"/></g></svg><svg viewBox="0 0 72 72" width="72" height="72" id="E25C" x="72" y="216" xmlns="http://www.w3.org/2000/svg"><path fill="#D0CFCE" d="M58.231 54.809H14.125c-.892 0-1.622-.73-1.622-1.623V43.181c0-.893.73-1.623 1.622-1.623h44.106c.893 0 1.623.73 1.623 1.623v10.005c0 .893-.73 1.623-1.623 1.623z"/><circle cx="19.017" cy="48.289" r="1.934" fill="#92D3F5"/><g fill="none" stroke="#000" stroke-linecap="round" stroke-linejoin="round" stroke-miterlimit="10" stroke-width="2"><path d="M36.085 17.147v18.87M42.24 29.895l-6.14 6.14M29.91 29.895l6.14 6.14M56.896 54.978h-41.82c-1.65 0-3-1.35-3-3v-7.576c0-1.65 1.35-3 3-3h41.82c1.65 0 3 1.35 3 3v7.576c0 1.65-1.35 3-3 3z"/><circle cx="19.017" cy="48.289" r="2"/></g></svg><svg viewBox="0 0 72 72" width="72" height="72" id="E25B" x="144" y="216" xmlns="http://www.w3.org/2000/svg"><path fill="#D0CFCE" d="M12.802 24.086h34.882V59.03H12.802z"/><path fill="#FFF" d="M24.894 12.081h34.901v34.786H24.894z"/><g fill="none" stroke="#000" stroke-linecap="round" stroke-linejoin="round" stroke-miterlimit="10" stroke-width="2"><path d="M46.801 51.984v7.013c0 .55-.45 1-1 1h-33c-.55 0-1-.45-1-1v-33a1 1 0 011-1h7.082"/><path d="M58.802 46.997h-33c-.55 0-1-.45-1-1v-33a1 1 0 011-1h33c.55 0 1 .45 1 1v33c0 .55-.45 1-1 1z"/></g></svg><svg viewBox="0 0 72 72" width="72" height="72" id="E25A" x="216" y="216" xmlns="http://www.w3.org/2000/svg"><path fill="#FCEA2B" d="M55.625 48.824c0 11.975-7.161 18.39-16.25 18.39S22.76 69.433 22.76 36.063"/><path fill="none" d="M55.831 49.886v-12"/><path fill="#FCEA2B" d="M48.84 37.592a3.5 3.5 0 116.993.294M41.842 37.36a3.5 3.5 0 116.994.293M41.846 37.225a3.5 3.5 0 116.978.562M34.805 36.88a3.5 3.5 0 016.985.449M23.291 46.185c-5.867-7.62-6.744-10.687-5.354-12.03s5.694.784 7.037 2.175M27.805 14.509a3.5 3.5 0 117 0"/><path fill="none" d="M34.805 36.844V14.509M27.805 14.509v27.79M24.844 36.455l-1.958-2.213"/><path fill="#FCEA2B" d="M19.619 41.424c1.952 2.144 3.373 5.168 3.3 9.522"/><path fill="none" d="M17.851 39.105l1.821 2.38"/><path fill="#FCEA2B" d="M34.915 41.924l-7.063-1.967V14.174h6.953zM34.915 36.844h20.921V49.07H34.915zM27.805 40.065l-2.656-.995.51-3.186 2.163 2.93z"/><g><path d="M23.649 13.422a7.735 7.735 0 1112.06 6.414c-.78.527-.413-4.99-1.825-7.656-.823-1.554-3.493-.825-4.083-.825-1.51 0-1.337 9.37-2.527 8.621a7.73 7.73 0 01-3.625-6.554z"/><path fill="none" stroke="#000" stroke-linecap="round" stroke-linejoin="round" stroke-miterlimit="10" stroke-width="2" d="M55.816 50.774c0 9.089-7.367 16.456-16.456 16.456s-16.455-7.367-16.455-16.456M55.816 49.901v-12M48.824 37.607a3.5 3.5 0 116.994.294M41.827 37.374a3.5 3.5 0 116.994.294M41.831 37.24a3.5 3.5 0 116.978.562M34.79 36.896a3.5 3.5 0 016.985.448M17.836 39.12a3.5 3.5 0 115.035-4.863M27.79 14.524a3.5 3.5 0 117 0M34.789 36.859V14.524M27.79 14.524v27.791M24.829 36.471l-1.958-2.214M19.603 41.44c1.953 2.143 3.374 5.167 3.302 9.521M17.836 39.12l1.821 2.38"/></g></svg><svg viewBox="0 0 72 72" width="72" height="72" id="E259" x="288" xmlns="http://www.w3.org/2000/svg"><path fill="#FFF" d="M51.065 43.916V10.98H18.937v49.76h16.062"/><circle cx="43.167" cy="52.167" r="11.129" fill="#D0CFCE"/><g fill="none" stroke="#000" stroke-linecap="round" stroke-linejoin="round" stroke-miterlimit="10" stroke-width="2"><path d="M51.065 43.916V10.98H18.937v49.76h16.062M23.667 16.02H32M23.667 24.5h22M23.667 28.271h22M23.667 32.041h22M23.667 35.812h22M23.667 39.583h22M36.38 43.35H23.67M33.25 47.12h-9.58M32.12 50.89h-8.45"/><circle cx="43.167" cy="52.167" r="11.129"/><path d="M51.065 60.739l5.467 5.467M33.439 48.453h13.436M32.172 53.839h14.703"/></g></svg><svg viewBox="0 0 72 72" width="72" height="72" id="E258" x="288" y="72" xmlns="http://www.w3.org/2000/svg"><path fill="#D0CFCE" d="M19.8 43.388l-3.363 3.363 8.058 8.058 3.363-3.363M19.799 43.358L7.593 31.153 55.845 16l-15.61 47.794L27.87 51.431"/><path fill="#9B9B9A" d="M55.916 16.07l-26.17 36.38 10.267 10.267 15.903-46.646"/><g fill="none" stroke="#000" stroke-linecap="round" stroke-linejoin="round" stroke-miterlimit="10" stroke-width="2"><path d="M19.87 43.43L7.664 31.223 55.916 16.07l-15.61 47.794-12.364-12.363M19.87 43.459l-3.362 3.363 8.058 8.058 3.363-3.363"/></g></svg><svg viewBox="0 0 72 72" width="72" height="72" id="E257" x="288" y="144" xmlns="http://www.w3.org/2000/svg"><path fill="#fcea2b" d="M36 10.98H11v5.04l20.5 18.23v21.771l9 4.958V34.25L61 16.02v-5.04H36"/><path fill="#F1B31C" d="M36 57.193l3.268 1.682V33.908l20.5-18.325v-3.412h-10.25v3.854l-13.5 16.833z"/><g><path fill="none" stroke="#000" stroke-linecap="round" stroke-linejoin="round" stroke-miterlimit="10" stroke-width="2" d="M36 10.98H11v5.04l20.5 18.23v21.771l9 4.958V34.25L61 16.02v-5.04H36"/></g></svg><svg viewBox="0 0 72 72" width="72" height="72" id="E256" x="288" y="216" xmlns="http://www.w3.org/2000/svg"><path fill="#FCEA2B" d="M55.326 61.67c.47 0 .852-.559.852-1.247V6.71c0-.688-.381-1.247-.852-1.247H18.662c-.47 0-.852.559-.852 1.248V39.81l30.103 21.86h7.413z"/><path fill="#FCEA2B" d="M55.344 60.367c.46 0 .834-.546.834-1.218V6.683c0-.673-.373-1.219-.834-1.219H19.446c-.46 0-.833.546-.833 1.219v53.684h36.731z"/><path fill="#FCEA2B" d="M18.613 6.683c0-.673.373-1.219.834-1.219h35.897c.46 0 .834.546.834 1.219v52.466c0 .672-.373 1.218-.834 1.218"/><path fill="#F1B31C" d="M51.18 66.452H15.284c-.46 0-.834-.545-.834-1.218V12.768c0-.673.374-1.218.834-1.218H51.18c.46 0 .833.545.833 1.218v52.466c0 .673-.373 1.218-.834 1.218z"/><g fill="none" stroke="#000" stroke-linejoin="round" stroke-width="2"><path stroke-linecap="round" stroke-miterlimit="10" d="M18.613 6.683c0-.673.373-1.219.834-1.219h35.897c.46 0 .834.546.834 1.219v52.466c0 .672-.373 1.218-.834 1.218"/><path stroke-linecap="round" stroke-miterlimit="10" d="M51.18 66.452H15.284c-.46 0-.834-.545-.834-1.218V12.768c0-.673.374-1.218.834-1.218H51.18c.46 0 .833.545.833 1.218v52.466c0 .673-.373 1.218-.834 1.218zM12.356 20.501h7.272M12.356 27.864h7.272M11 35.319h7.272M18.272 42.683H11M11 50.046h7.272M11 57.41h7.272"/><path stroke-linecap="round" d="M42.818 45.637s0-.743-.371-2.23c-.45-1.8-1.487-2.972-3.716-2.972h-8.174c-2.229 0-3.265 1.172-3.715 2.973-.372 1.486-.372 2.229-.372 2.229"/><path d="M30.929 33.004c0 1.384.2 2.902.743 3.716.691 1.038 1.864 1.486 2.972 1.486 1.15 0 2.28-.449 2.972-1.486.543-.814.744-2.332.744-3.716 0-1.038-.372-4.458-3.716-4.458s-3.715 2.729-3.715 4.458z"/></g></svg><svg viewBox="0 0 72 72" width="72" height="72" id="E255" y="288" xmlns="http://www.w3.org/2000/svg"><path fill="#9B9B9A" d="M23.825 9.208h32.128v47.765H23.825z"/><path fill="#FFF" d="M19.936 13.097h32.128v47.765H19.936z"/><g fill="none" stroke="#000" stroke-linecap="round" stroke-linejoin="round" stroke-miterlimit="10" stroke-width="2"><path d="M52.06 56.97h3.89V9.21H23.82v3.89"/><path d="M19.936 13.097h32.128v47.765H19.936zM31.171 37.021h9.658M36 41.85v-9.658"/></g></svg><svg viewBox="0 0 72 72" width="72" height="72" id="E254" x="72" y="288" xmlns="http://www.w3.org/2000/svg"><g fill="#9B9B9A"><path d="M58.37 30.524c-5.651-5.651-13.458-9.146-22.081-9.146-8.637 0-16.455 3.506-22.108 9.172l-3.813-3.763c6.624-6.65 15.792-10.767 25.92-10.767 10.103 0 19.25 4.095 25.87 10.716l-3.788 3.788z"/><path d="M21.916 38.286a20.453 20.453 0 0114.638-6.142 20.449 20.449 0 0114.373 5.876l3.784-3.792a25.788 25.788 0 00-18.157-7.44 25.793 25.793 0 00-18.425 7.71l3.787 3.788z"/><path d="M43.352 45.596a9.77 9.77 0 00-6.798-2.74 9.774 9.774 0 00-7.062 3.005l-3.814-3.814a15.114 15.114 0 0110.876-4.6 15.11 15.11 0 0110.61 4.332l-3.812 3.817z"/><circle cx="36.289" cy="52.605" r="2.672"/></g><g fill="none" stroke="#000" stroke-linecap="round" stroke-linejoin="round" stroke-miterlimit="10" stroke-width="2"><path d="M58.37 30.524c-5.651-5.651-13.458-9.146-22.081-9.146-8.637 0-16.455 3.506-22.108 9.172l-3.813-3.763c6.624-6.65 15.792-10.767 25.92-10.767 10.103 0 19.25 4.095 25.87 10.716l-3.788 3.788z"/><path d="M21.916 38.286a20.453 20.453 0 0114.638-6.142 20.449 20.449 0 0114.373 5.876l3.784-3.792a25.788 25.788 0 00-18.157-7.44 25.793 25.793 0 00-18.425 7.71l3.787 3.788z"/><path d="M43.352 45.596a9.77 9.77 0 00-6.798-2.74 9.774 9.774 0 00-7.062 3.005l-3.814-3.814a15.114 15.114 0 0110.876-4.6 15.11 15.11 0 0110.61 4.332l-3.812 3.817z"/><circle cx="36.289" cy="52.605" r="2.672"/></g></svg><svg viewBox="0 0 72 72" width="72" height="72" id="E253" x="144" y="288" xmlns="http://www.w3.org/2000/svg"><g fill="none" stroke="#000" stroke-linecap="round" stroke-linejoin="round" stroke-miterlimit="10" stroke-width="2"><circle cx="50" cy="22" r="5"/><circle cx="22" cy="38" r="5"/><circle cx="50" cy="50" r="5"/><path d="M27 40l18 8M45 25L27 35"/></g></svg><svg viewBox="0 0 72 72" width="72" height="72" id="E252" x="216" y="288" xmlns="http://www.w3.org/2000/svg"><g fill="none" stroke="#000" stroke-linecap="round" stroke-linejoin="round" stroke-miterlimit="10" stroke-width="2"><path d="M36.5 17v32.761M27.805 41.645L36.5 50.31l8.695-8.665M27.5 55h18"/></g></svg><svg viewBox="0 0 72 72" width="72" height="72" id="E251" x="288" y="288" xmlns="http://www.w3.org/2000/svg"><g fill="none" stroke="#000" stroke-linecap="round" stroke-linejoin="round" stroke-miterlimit="10" stroke-width="2"><path d="M36.5 50.31V17.549M45.195 25.665L36.5 17l-8.695 8.665M27.5 55h18"/></g></svg><svg viewBox="0 0 72 72" width="72" height="72" id="E250" x="360" xmlns="http://www.w3.org/2000/svg"><g fill="none" stroke="#000" stroke-linecap="round" stroke-linejoin="round" stroke-miterlimit="10" stroke-width="2"><path d="M16 26h40M16 36h40M16 46h40"/></g></svg><svg viewBox="0 0 72 72" width="72" height="72" id="E24F" x="360" y="72" xmlns="http://www.w3.org/2000/svg"><g fill="none" stroke="#000" stroke-linecap="round" stroke-linejoin="round" stroke-miterlimit="10" stroke-width="2"><path d="M46.815 33.428L55 25.214 46.815 17"/><path d="M32.329 54.498c-8.087 0-14.642-6.556-14.642-14.642s6.555-14.642 14.642-14.642h21.73"/></g></svg><svg viewBox="0 0 72 72" width="72" height="72" id="E24E" x="360" y="144" xmlns="http://www.w3.org/2000/svg"><g fill="none" stroke="#000" stroke-linecap="round" stroke-linejoin="round" stroke-miterlimit="10" stroke-width="2"><path d="M17.5 17.5l37 37M54.5 17.5l-37 37"/></g></svg><svg viewBox="0 0 72 72" width="72" height="72" id="E24D" x="360" y="216" xmlns="http://www.w3.org/2000/svg"><path fill="none" stroke="#000" stroke-linecap="round" stroke-linejoin="round" stroke-miterlimit="10" stroke-width="2" d="M46.196 16.205l-19.392 19.46 19.392 19.46"/></svg><svg viewBox="0 0 72 72" width="72" height="72" id="E24C" x="360" y="288" xmlns="http://www.w3.org/2000/svg"><circle cx="36" cy="36" transform="rotate(-45.001 36 36)" fill="#FCEA2B" r="25"/><path fill="#F1B31C" d="M37.405 57.829a54.578 54.578 0 01-3.511 3.2c7.054.544 14.305-1.873 19.713-7.281 9.802-9.802 9.834-25.662.07-35.426-.166-.166-.348-.307-.519-.469.502 14.392-4.744 28.967-15.753 39.976z"/><g><circle cx="36" cy="36" r="25" fill="none" stroke="#000" stroke-linecap="round" stroke-linejoin="round" stroke-miterlimit="10" stroke-width="2"/></g></svg><svg viewBox="0 0 72 72" width="72" height="72" id="E24B" y="360" xmlns="http://www.w3.org/2000/svg"><circle cx="46.5" cy="39.5" transform="rotate(-45.001 46.5 39.5)" fill="#FCEA2B" r="17.5"/><path fill="#F1B31C" d="M47.56 54.703a37.912 37.912 0 01-2.448 2.23c4.93.39 9.992-1.288 13.762-5.059 6.835-6.834 6.835-17.914 0-24.748-.116-.117-.244-.216-.363-.329.37 10.055-3.275 20.23-10.95 27.906z"/><circle cx="19" cy="54" transform="rotate(-45.001 19 54)" fill="#FCEA2B" r="8"/><path fill="#F1B31C" d="M19.485 60.95c-.36.36-.736.698-1.12 1.02a7.977 7.977 0 006.292-2.313 8 8 0 000-11.314c-.053-.053-.112-.098-.166-.15a17.093 17.093 0 01-5.006 12.757z"/><circle cx="18" cy="21" transform="rotate(-45.001 18 21)" fill="#FCEA2B" r="11"/><path fill="#F1B31C" d="M18.667 30.556c-.496.496-1.012.96-1.54 1.402 3.1.245 6.281-.81 8.651-3.18 4.296-4.296 4.296-11.26 0-15.556-.073-.074-.153-.136-.228-.207.233 6.32-2.059 12.716-6.883 17.541z"/><g fill="none" stroke="#000" stroke-linecap="round" stroke-linejoin="round" stroke-miterlimit="10" stroke-width="2"><circle cx="19" cy="54" r="8"/><circle cx="46.5" cy="39.5" r="17.5"/><circle cx="18" cy="21" r="11"/></g></svg><svg viewBox="0 0 72 72" width="72" height="72" id="E24A" x="72" y="360" xmlns="http://www.w3.org/2000/svg"><g fill="#FCEA2B"><ellipse cx="20" cy="26.021" rx="13.8" ry="13.82" stroke="#FCEA2B" stroke-miterlimit="10" stroke-width="2"/><path d="M18.398 39.91C15.244 44.248 11 46 5 46c2.874-1.916 5.748-5.668 6.864-8.617l6.534 2.527z"/><circle cx="52" cy="41.28" r="13.8" stroke="#FCEA2B" stroke-miterlimit="10" stroke-width="2"/><path d="M53.602 55.19C56.756 59.528 61 61.28 67 61.28c-2.874-1.916-5.748-5.668-6.864-8.617l-6.534 2.527z"/></g><circle cx="13" cy="26" r="2"/><circle cx="20" cy="26" r="2"/><circle cx="27" cy="26" r="2"/><path fill="none" stroke="#000" stroke-linecap="round" stroke-linejoin="round" stroke-miterlimit="10" stroke-width="2" d="M11.864 37.383C10.748 40.333 7.874 44.084 5 46c6 0 10.244-1.752 13.398-6.09"/><path fill="none" stroke="#000" stroke-linecap="round" stroke-miterlimit="10" stroke-width="2" d="M22.275 39.816C28.925 38.73 34 32.957 34 26c0-7.732-6.268-14-14-14S6 18.268 6 26c0 3.334 1.165 6.395 3.11 8.8"/><circle cx="59" cy="41.28" r="2"/><circle cx="52" cy="41.28" r="2"/><circle cx="45" cy="41.28" r="2"/><path fill="none" stroke="#000" stroke-linecap="round" stroke-linejoin="round" stroke-miterlimit="10" stroke-width="2" d="M60.136 52.663c1.116 2.95 3.99 6.701 6.864 8.617-6 0-10.244-1.752-13.398-6.09"/><path fill="none" stroke="#000" stroke-linecap="round" stroke-miterlimit="10" stroke-width="2" d="M49.725 55.096C43.075 54.01 38 48.237 38 41.28c0-7.732 6.268-14 14-14s14 6.268 14 14c0 3.334-1.165 6.395-3.11 8.8"/></svg><svg viewBox="0 0 72 72" width="72" height="72" id="E249" x="144" y="360" xmlns="http://www.w3.org/2000/svg"><g fill="#FCEA2B"><circle cx="21" cy="17" r="3"/><circle cx="55.992" cy="26.324" r="3"/><circle cx="29.993" cy="47.008" r="3"/><path d="M15.437 27.104l3.081-2.714 4.834-.198 2.969 2.827.684 3.98-12.081-.008zM50.491 36.43l3.082-2.714 4.834-.198 2.968 2.827.685 3.98-12.082-.007zM24.485 57.112l3.081-2.714 4.835-.198 2.968 2.827.684 3.98-12.08-.008z"/></g><g fill="none" stroke="#000" stroke-miterlimit="10" stroke-width="2"><circle cx="21" cy="17" r="3"/><path stroke-linecap="round" stroke-linejoin="round" d="M15 30s1-4.311 3-5.311 4-1 6 0S27 30 27 30"/><circle cx="55.992" cy="26.324" r="3"/><path stroke-linecap="round" stroke-linejoin="round" d="M49.992 39.324s1-4.311 3-5.311 4-1 6 0 3 5.31 3 5.31"/><circle cx="29.993" cy="47.008" r="3"/><path stroke-linecap="round" stroke-linejoin="round" d="M23.993 60.008s1-4.311 3-5.311 4-1 6 0 3 5.31 3 5.31M52.552 20.136C48.333 15.159 42.035 12 35 12c-2.77 0-5.424.49-7.883 1.387M39.433 57.573c8.213-1.604 14.862-7.577 17.427-15.402M12.087 32.988A23.274 23.274 0 0012 35c0 7.974 4.058 15 10.222 19.127"/></g></svg><svg viewBox="0 0 72 72" width="72" height="72" id="E248" x="216" y="360" xmlns="http://www.w3.org/2000/svg"><path fill="#D0CFCE" d="M15.042 14.976a4 4 0 00-4 4V30.76l-.002 4.531c0 .28.328.434.543.253l5.026-4.39a1 1 0 01.644-.234h30.956a4 4 0 004-4v-7.944a4 4 0 00-4-4H15.042z"/><path fill="#9B9B9A" d="M60.51 60.544a.33.33 0 00.542-.252l-.002-4.27h.001V44.076a4 4 0 00-4-4H24.103a4 4 0 00-4 4v7.944a4 4 0 004 4h30.858a1 1 0 01.644.235l4.905 4.288z"/><g><path fill="none" stroke="#000" stroke-miterlimit="10" stroke-width="2" d="M15.042 14.976a4 4 0 00-4 4V30.76l-.002 4.531c0 .28.328.434.543.253l5.026-4.39a1 1 0 01.644-.234h30.956a4 4 0 004-4v-7.944a4 4 0 00-4-4H15.042zM60.51 60.544a.33.33 0 00.542-.252l-.002-4.27h.001V44.076a4 4 0 00-4-4H24.103a4 4 0 00-4 4v7.944a4 4 0 004 4h30.858a1 1 0 01.644.235l4.905 4.288z"/><circle cx="31.997" cy="48.059" r="2"/><circle cx="40.008" cy="48.059" r="2"/><circle cx="48.02" cy="48.059" r="2"/></g></svg><svg viewBox="0 0 72 72" width="72" height="72" id="E247" x="288" y="360" xmlns="http://www.w3.org/2000/svg"><path fill="#D0CFCE" d="M35.67 60.98C10.08 54.96 11 16.06 11 16.06c4.75.05 25-5.08 25-5.08v.09s20.25 5.12 25 5.08c0 0 .25 38.81-25.33 44.83z"/><path fill="#9B9B9A" d="M46.556 13.587S53 44 36 60c0 0 16-1 22-25s0-19 0-19l-11.444-2.413"/><path fill="#61B2E4" d="M26.644 32.83l9.165 14.01 14.704-24.265-5.103 2.492-9.57 15.791-5.964-9.118z"/><g fill="none" stroke="#000" stroke-linecap="round" stroke-linejoin="round" stroke-miterlimit="10" stroke-width="2"><path d="M36 10.98s-20.254 5.128-25 5.085c0 0-.917 38.893 24.667 44.914M35.667 60.98C61.25 54.957 61 16.15 61 16.15c-4.746.044-25-5.085-25-5.085"/><path d="M26.644 32.83l9.165 14.01 14.704-24.265-5.103 2.492-9.57 15.791-5.964-9.118z"/></g></svg><svg viewBox="0 0 72 72" width="72" height="72" id="E246" x="360" y="360" xmlns="http://www.w3.org/2000/svg"><path fill="#9B9B9A" d="M16.05 54.946a3.008 3.008 0 01-3.008-3.009v-8.862l-.002-3.407c0-.211.247-.326.408-.19l3.78 3.3a.752.752 0 00.484.177h23.28A3.008 3.008 0 0144 45.963v5.974a3.008 3.008 0 01-3.008 3.008H16.05z"/><path fill="#D0CFCE" d="M58.647 32.468a.25.25 0 00.41-.191V20.018a3.024 3.024 0 00-3.024-3.024H31.122a3.024 3.024 0 00-3.024 3.024v6.006a3.024 3.024 0 003.024 3.024h23.33c.178 0 .35.063.487.178l3.708 3.242z"/><g fill="#FCEA2B"><circle cx="13.02" cy="20.122" r="3"/><circle cx="59.08" cy="42.036" r="3"/><path d="M7.456 30.226l3.082-2.714 4.834-.198 2.968 2.828.685 3.98-12.081-.008zM53.58 52.143l3.081-2.714 4.834-.198 2.969 2.827.684 3.98-12.081-.008z"/></g><g fill="none" stroke="#000" stroke-miterlimit="10" stroke-width="2"><circle cx="13.02" cy="20.122" r="3"/><path stroke-linecap="round" stroke-linejoin="round" d="M7.02 33.122s1-4.31 3-5.31 4-1 6 0 3 5.31 3 5.31"/><circle cx="59.08" cy="42.036" r="3"/><path stroke-linecap="round" stroke-linejoin="round" d="M53.08 55.036s1-4.31 3-5.31 4-1 6 0 3 5.31 3 5.31"/><path d="M16.05 54.946a3.008 3.008 0 01-3.008-3.009v-8.862l-.002-3.407c0-.211.247-.326.408-.19l3.78 3.3a.752.752 0 00.484.177h23.28A3.008 3.008 0 0144 45.963v5.974a3.008 3.008 0 01-3.008 3.008H16.05h0zM58.647 32.468a.25.25 0 00.41-.191v-3.229h0v-9.03a3.024 3.024 0 00-3.024-3.024H31.122a3.024 3.024 0 00-3.024 3.024v6.006a3.024 3.024 0 003.024 3.024h23.33c.178 0 .35.063.487.178l3.708 3.242z"/></g></svg><svg viewBox="0 0 72 72" width="72" height="72" id="E245" x="432" xmlns="http://www.w3.org/2000/svg"><path fill="#d0cfce" d="M20.945 45.98h30.04c5.513 0 9.98-4.469 9.98-9.98 0-5.512-4.468-9.98-9.98-9.98h-30.04c-5.511 0-9.98 4.468-9.98 9.98 0 5.511 4.469 9.98 9.98 9.98z"/><circle cx="50.965" cy="36" r="10.001" fill="#b1cc33"/><path fill="#5c9e31" d="M43.962 43.072c3.905 3.905 10.238 3.905 14.143 0s3.906-10.238 0-14.144"/><g fill="none" stroke="#000" stroke-linecap="round" stroke-linejoin="round" stroke-miterlimit="10" stroke-width="2"><path d="M20.945 45.98h30.04c5.513 0 9.98-4.469 9.98-9.98v0c0-5.512-4.468-9.98-9.98-9.98h-30.04c-5.511 0-9.98 4.468-9.98 9.98v0c0 5.511 4.469 9.98 9.98 9.98z"/><circle cx="50.965" cy="36" r="10.001"/><path d="M43.962 43.072c3.905 3.905 10.238 3.905 14.143 0s3.906-10.238 0-14.144"/></g></svg><svg viewBox="0 0 72 72" width="72" height="72" id="E244" x="432" y="72" xmlns="http://www.w3.org/2000/svg"><path fill="#61B2E4" d="M12.013 16.02c0 7.5 5 13.75 5 13.75s5-6.25 5-13.75"/><circle cx="17.013" cy="16.019" r="5" fill="#92D3F5"/><path fill="#D22F27" d="M50.013 44.02c0 7.5 5 13.75 5 13.75s5-6.25 5-13.75"/><circle cx="55.013" cy="44.019" r="5" fill="#EA5A47"/><g fill="none" stroke="#000" stroke-miterlimit="10" stroke-width="2"><path stroke-linecap="round" stroke-linejoin="round" d="M12.013 16.02c0 7.5 5 13.75 5 13.75s5-6.25 5-13.75"/><circle cx="17.013" cy="16.019" r="5"/><path stroke-linecap="round" stroke-linejoin="round" d="M50.013 44.02c0 7.5 5 13.75 5 13.75s5-6.25 5-13.75"/><circle cx="55.013" cy="44.019" r="5"/><path stroke-linecap="round" stroke-linejoin="round" d="M17 33s16 0 17 14 16 14 21 14M31.971 21.741l12.058 10.518M43.547 25.204l.482 7.055M36.974 32.74l7.055-.481"/></g></svg><svg viewBox="0 0 72 72" width="72" height="72" id="E243" x="432" y="144" xmlns="http://www.w3.org/2000/svg"><g fill="none" stroke="#000" stroke-linecap="round" stroke-linejoin="round" stroke-miterlimit="10" stroke-width="2"><path d="M8.042 29h56M8.042 26v8M64.042 26v8M36.042 26v8M22.042 26v6M50.042 26v6M8.008 45.905h0a1.916 1.916 0 01-1.915-1.915v-3.17c0-1.057.858-1.915 1.915-1.915h0c1.059 0 1.916.858 1.916 1.916v3.169a1.916 1.916 0 01-1.915 1.915zM61.833 40.612a2.151 2.151 0 012.107-1.717h0c.594 0 1.131.24 1.52.63.606.605.55 1.61-.018 2.251l-3.652 4.119h4.3M35.12 40.412l1.939-1.451v7"/></g></svg><svg viewBox="0 0 72 72" width="72" height="72" id="E242" x="432" y="216" xmlns="http://www.w3.org/2000/svg"><path fill="#D0CFCE" d="M36 65.02s-3.091-5.973-13.872-26.891C20 34 17.31 30.422 17.31 25.605c0-10.322 8.367-18.689 18.688-18.689v8.028s-10.458.52-10.458 10.398S36 36.098 36 36.098V65.02z"/><path fill="#D0CFCE" d="M35.974 65.017S38.972 59 49.846 38.125c2.063-3.961 4.817-7.706 4.817-12.524 0-10.322-8.367-18.689-18.688-18.689l-.284 8.032s11.177.267 11.008 10.735-11.008 10.418-11.008 10.418l.283 28.92z"/><path fill="#9B9B9A" d="M36.828 7.547s9.75 4.036 11.839 15.286C50.706 33.813 39.5 53 36.5 62.667S54.691 28 54.691 28s.465-20.719-17.863-20.453z"/><g fill="none" stroke="#000" stroke-linecap="round" stroke-linejoin="round" stroke-miterlimit="10" stroke-width="2"><circle cx="36.001" cy="25.521" r="10.577"/><path d="M36 65.02s-3.091-5.973-13.872-26.891C20 34 17.31 30.422 17.31 25.605c0-10.322 8.367-18.689 18.688-18.689M36.002 65.017S39 59 49.874 38.125c2.064-3.961 4.817-7.706 4.817-12.524 0-10.322-8.367-18.689-18.688-18.689"/></g></svg><svg viewBox="0 0 72 72" width="72" height="72" id="E241" x="432" y="288" xmlns="http://www.w3.org/2000/svg"><path fill="#d0cfce" d="M51.098 45.98h-30.04c-5.512 0-9.98-4.469-9.98-9.98 0-5.512 4.468-9.98 9.98-9.98h30.04c5.512 0 9.98 4.468 9.98 9.98 0 5.511-4.468 9.98-9.98 9.98z"/><circle cx="20.923" cy="36" r="10.001" fill="#ea5a47"/><path fill="#ea5a47" d="M27.521 28.446c4.09 3.713 4.395 10.038.682 14.127s-10.038 4.394-14.127.681"/><g fill="none" stroke="#000" stroke-linecap="round" stroke-linejoin="round" stroke-miterlimit="10" stroke-width="2"><path d="M51.098 45.98h-30.04c-5.512 0-9.98-4.469-9.98-9.98v0c0-5.512 4.468-9.98 9.98-9.98h30.04c5.512 0 9.98 4.468 9.98 9.98v0c0 5.511-4.468 9.98-9.98 9.98z"/><circle cx="20.923" cy="36" r="10.001"/><path d="M27.521 28.446c4.09 3.713 4.395 10.038.682 14.127s-10.038 4.394-14.127.681"/></g></svg><svg viewBox="0 0 72 72" width="72" height="72" id="E240" x="432" y="360" xmlns="http://www.w3.org/2000/svg"><path fill="#d0cfce" d="M54.574 12.77L35.5 40.334l-10.333-10v4.917l10.708 10.5 18.699-27.125z"/><g fill="none" stroke="#000" stroke-linecap="round" stroke-linejoin="round" stroke-miterlimit="10" stroke-width="2"><path d="M52.084 28.991A17.944 17.944 0 0153.5 36c0 9.941-8.059 18-18 18s-18-8.059-18-18 8.059-18 18-18c3.267 0 6.33.87 8.971 2.392"/><path d="M54.574 12.77L35.5 40.334l-10.333-10v4.917l10.708 10.5 18.699-27.125z"/></g></svg><svg viewBox="0 0 72 72" width="72" height="72" id="E20B" y="432" xmlns="http://www.w3.org/2000/svg"><path fill="#D0CFCE" d="M46.958 12.625l3.157 5.185v36.968h-8.198l.288-34.019zM25.18 12.875l-3.425 4.805v36.967l8.308-.366-.43-33.261z"/><path fill="#F4AA41" d="M28.315 57.438s1.26-31.898 1.01-39.897c-.24-7.628 6.64-11.465 6.64-11.465s6.88 3.837 6.64 11.465c-.25 7.999 1.01 39.897 1.01 39.897h-15.3z"/><path fill="#FFF" d="M39.51 59.87l16.098-1.253c.186-3.174-3.268-6.958-3.268-6.958-8.25-5.937-9.583-9.42-9.583-9.42l-3.417-9.182M32.43 59.841l-16.038-1.224c-.185-3.174 3.268-6.958 3.268-6.958 8.25-5.937 9.583-9.42 9.583-9.42l3.417-9.182"/><path fill="#FFF" d="M40.03 65.778c-.01.067-.01.104-.01.104h-8.11s0-.037-.01-.113c-.05-.675-.27-4.18.53-5.928-.02-6.725-.06-29 .51-34.007.66-5.918 3.02-6.792 3.02-6.792s2.37.874 3.04 6.792c.56 5.016.53 27.339.51 34.036.78 1.757.56 5.253.52 5.908z"/><g fill="none" stroke="#000" stroke-linecap="round" stroke-linejoin="round" stroke-miterlimit="10" stroke-width="1.949"><path d="M45.43 17.26l2.27-4.12 2.41 4.67v32.17M21.75 50.09V17.68l2.42-4.67 2.27 4.12M43.09 42.86c-.31-9.52-.63-20.96-.49-25.32.24-7.63-6.64-11.46-6.64-11.46s-6.88 3.83-6.64 11.46c.14 4.38-.18 15.9-.49 25.45.31-.49.41-.75.41-.75l3.36-9.01v-.01c.07-3.32.18-6.01.34-7.39.66-5.91 3.02-6.79 3.02-6.79s2.37.88 3.04 6.79c.15 1.36.26 3.99.34 7.23.18 7.54.19 18.41.17 24.38"/><path d="M40.173 59.813l15.435-1.196c.185-3.174-3.268-6.958-3.268-6.958-8.25-5.937-9.583-9.42-9.583-9.42l-3.417-9.182M32.43 57.44c-.02-5.92-.01-16.68.17-24.21l-3.36 9.01s-.1.26-.41.75V43M32.66 33.06l-.06.16v.01M28.83 43c-.73 1.16-2.61 3.61-7.08 7.09-.64.5-1.34 1.03-2.09 1.57 0 0-3.45 3.78-3.27 6.96l15.44 1.19"/><path d="M40.03 65.78c-.01.06-.01.1-.01.1h-8.11s0-.04-.01-.11c-.05-.68-.27-4.18.53-5.93v-2.4c-.02-5.92-.01-16.68.17-24.21v-.01c.07-3.32.18-6.01.34-7.39.66-5.91 3.02-6.79 3.02-6.79s2.37.88 3.04 6.79c.15 1.36.26 3.99.34 7.23.18 7.54.19 18.41.17 24.38v2.43c.78 1.76.56 5.25.52 5.91z"/></g></svg><svg viewBox="0 0 72 72" width="72" height="72" id="E20A" x="72" y="432" xmlns="http://www.w3.org/2000/svg"><path fill="#d0cfce" d="M37.489 32.657H34.22l-1.34 29.861h5.806l-1.197-29.861z"/><path fill="#b1cc33" d="M6.076 63.44h30.041v2.587H6.076z"/><path fill="#5c9e31" d="M35.844 63.452h30.267v2.587H35.844z"/><path fill="#d0cfce" d="M30.082 19.143a38.395 38.395 0 016.043-.944h.015a24.333 24.333 0 015.416.944 1.26 1.26 0 01.173.065 17.6 17.6 0 01-1.44 11.133c-.266.51-.517.911-.705 1.204a28.72 28.72 0 00-3.679.098h-.031a28.119 28.119 0 00-2.959.402 1.156 1.156 0 01-.641-.434l-.048-.065c-1.017-1.52-3.271-5.773-2.144-12.403z"/><path fill="#9b9b9a" d="M35.853 18.832v43.07h3.112l-1.333-29.256 2.062-1.112 2.018-2.005.457-4.93-.534-5.468s-6.057-.3-5.782-.3z"/><g><path fill="#d22f27" d="M35.868 8.588c-.804 0-1.455-.448-1.455-1V5.75c0-.553.651-1 1.456-1s1.454.447 1.454 1v1.837c0 .552-.65 1-1.455 1z"/><path fill="#d0cfce" d="M34.413 7.447h2.913v2.048h-2.913zM34.413 11.459h2.913v2.048h-2.913z"/><path fill="#d22f27" d="M34.413 13.447h2.913v2.048h-2.913zM34.413 9.435h2.913v2.048h-2.913z"/></g><g><rect x="32.66" y="15.16" rx=".887" ry=".887" width="6.858" height="4.837"/><path fill="none" stroke="#000" stroke-linecap="round" stroke-linejoin="round" stroke-width="2" d="M37.489 32.657H34.22l-1.34 29.861h5.806l-1.197-29.861zM29.935 19.143a16.383 16.383 0 0011.766 0s.051.025.118.061a24.71 24.71 0 01-1.013 11.227 4.895 4.895 0 01-1.12 1.629c-.052-.022.042 0 .042 0"/><path fill="none" stroke="#000" stroke-linecap="round" stroke-linejoin="round" stroke-width="2" d="M41.801 19.143a16.383 16.383 0 01-11.766 0s-.05.025-.118.061a24.712 24.712 0 001.013 11.227 4.898 4.898 0 001.121 1.629c.051-.022-.043 0-.043 0M41.384 27.535s-6.01 2.786-10.855 0M39.694 32.103a12.729 12.729 0 01-7.707-.064M42.013 23.143s-6.186 2.66-12.1-.133"/><path fill="none" stroke="#000" stroke-miterlimit="10" stroke-width="1.6" d="M37.631 7.747V5.818c0-.629-.706-1.137-1.58-1.137s-1.58.508-1.58 1.137v11.886h3.163V7.747z"/><path fill="none" stroke="#000" stroke-linecap="round" stroke-linejoin="round" stroke-width="2" d="M5.135 62.528h61.962v4.5H5.135z"/><ellipse cx="35.832" cy="18.92" rx="6.777" ry="1.704"/></g></svg><svg viewBox="0 0 72 72" width="72" height="72" id="E209" x="144" y="432" xmlns="http://www.w3.org/2000/svg"><path fill="#3f3f3f" d="M38 18v-3h-1v-2h-2v2h-1v3h-1v8h6v-8h-1zM20 38h9v-6h.049l3.475-4 1.142-1.314h-2.295l-9.258 5.143a13.341 13.341 0 01-1.028 3.085 4.99 4.99 0 01-3.086 2.057H18V38zM50.914 34.914a13.344 13.344 0 01-1.028-3.085l-9.257-5.143h-2.295L39.476 28l3.475 4H43v6h11v-1.029a4.99 4.99 0 01-3.086-2.057z"/><path fill="#e67a94" d="M43 38l2-6h-2.049l-3.475-4L36 24l-3.476 4-3.475 4H27l2 6h-9v22h32V38h-9z"/><path fill="#d0cfce" d="M20 51h32v10H20z"/><circle cx="36" cy="32" r="2" fill="#fff"/><rect x="34" y="52" rx="1.409" width="5" height="8" fill="#a57939"/><g fill="none" stroke="#000" stroke-width="2"><path stroke-linecap="round" stroke-linejoin="round" d="M39 26v-8h-1v-3h-1v-2h-2v2h-1v3h-1v8"/><rect x="34" y="52" rx="1.409" width="5" height="8" stroke-linecap="round" stroke-linejoin="round"/><path stroke-linecap="round" stroke-linejoin="round" d="M36 8v5M33.65 42.085v2.113M36.65 42.085v2.113M39.65 42.085v2.113M33.65 47.085v2.113M36.65 47.085v2.113M39.65 47.085v2.113M23.65 41.085v2.113M26.65 41.085v2.113M23.65 46.085v2.113M26.65 46.085v2.113M45.65 41.085v2.113M48.65 41.085v2.113M45.65 46.085v2.113M48.65 46.085v2.113M33.65 37.085v2.113M36.65 37.085v2.113M39.65 37.085v2.113M23.65 53.085v2.113M26.65 53.085v2.113M45.65 53.085v2.113M48.65 53.085v2.113M43 38l2-6h-2.049l-3.475-4L36 24l-3.476 4-3.475 4H27l2 6h-9v22h32V38h-9z"/><circle cx="36" cy="32" r="2" stroke-miterlimit="10"/><path stroke-linecap="round" stroke-linejoin="round" d="M33.666 26.686h-2.295l-9.258 5.143a13.341 13.341 0 01-1.028 3.085 4.99 4.99 0 01-3.086 2.057H18V38h2M52 38h2v-1.029a4.99 4.99 0 01-3.086-2.057 13.344 13.344 0 01-1.028-3.085l-9.257-5.143h-2.295"/></g></svg><svg viewBox="0 0 72 72" width="72" height="72" id="E208" x="216" y="432" xmlns="http://www.w3.org/2000/svg"><path fill="#ea5a47" d="M37.116 11.241l4.417 5.809 4.417 5.81H28.282l4.417-5.81 4.417-5.809z"/><path fill="#d22f27" d="M46.949 18.484l-2.871-.049-2.871-.049 1.478-2.513 1.478-2.514 1.393 2.562 1.393 2.563z"/><path fill="#d0cfce" d="M40.602 18.764l3.268 2.38.08 1.688 2.098-.101-.202-4.221"/><path fill="#d0cfce" stroke="#d0cfce" stroke-miterlimit="10" stroke-width="2" d="M39.167 13.353h-3.334L35 15.114v8.802h5v-8.802l-.833-1.761z"/><path fill="#d22f27" d="M40.998 14.283l-3.57-.061-3.571-.061 1.838-3.08L37.532 8l1.733 3.141 1.733 3.142z"/><path fill="#9b9b9a" d="M26 22.86h10.5V63H26z"/><path fill="#d0cfce" d="M36.5 22.86H47V63H36.5z"/><path fill="#9b9b9a" d="M31.25 18H28.1l-1.05 1.2V24h4.2v-2.4l1.05-2.4-1.05-1.2z"/><path fill="#d22f27" d="M33.484 17.449l-3.489-.06-3.488-.059 1.795-3.01 1.796-3.009 1.693 3.069 1.693 3.069z"/><g fill="none" stroke="#000" stroke-linejoin="round" stroke-width="2"><path stroke-linecap="round" d="M46.949 18.484l-2.871-.049-2.871-.049 1.478-2.513 1.478-2.514 1.393 2.562 1.393 2.563zM40.7 19.691v-4.489l-1.05-1.849h-4.2l-1.05 1.849v4.489"/><path stroke-linecap="round" d="M40.998 14.283l-3.57-.061-3.571-.061 1.838-3.08L37.532 8l1.733 3.141 1.733 3.142zM26 22.86h10.5V63H26zM36.5 22.86H47V63H36.5zM39.65 27.085v2.113M42.8 37.648v2.113M39.65 50.324v2.113M27.05 17.579v4.225"/><path d="M33.484 17.449l-3.489-.06-3.488-.059 1.795-3.01 1.796-3.009 1.693 3.069 1.693 3.069z"/><path stroke-linecap="round" d="M45.95 22.86v-4.225M30.2 37.648v2.113M33.35 50.324v2.113M37.55 17.579h.01"/></g></svg><svg viewBox="0 0 72 72" width="72" height="72" id="E207" xmlns="http://www.w3.org/2000/svg"><path fill="#9b9b9a" d="M20 40h35v11H20z"/><path fill="#fcea2b" d="M46 18l13 4-3 20-5 5-3-5-2-24z"/><path fill="#fcea2b" d="M15 17l4 14-1 16 30-5-2-24z"/><g fill="none" stroke="#000" stroke-linecap="round" stroke-linejoin="round" stroke-width="2"><path d="M15 17l4 14-1 16 30-5-2-24zM19 31l27-13M48 42L19 31M46 18l10 24M54 51H20v-4"/><path d="M46 18l13 4-3 20-5 5-3-5-2-24zM46 18l10 24"/></g></svg><svg viewBox="0 0 72 72" width="72" height="72" id="E206" x="360" y="432" xmlns="http://www.w3.org/2000/svg"><path fill="#61B2E4" d="M12.069 12.235h48.338v47.864H12.069z"/><g fill="none" stroke="#000" stroke-linecap="round" stroke-linejoin="round" stroke-miterlimit="10" stroke-width="2"><path d="M59.177 59.927l-46 .146a1 1 0 01-1.003-.997l-.147-46a1 1 0 01.997-1.003l46-.146a1 1 0 011.003.997l.146 46a1 1 0 01-.996 1.003zM19.062 27.048L36.036 18M53.062 26.952L36.036 18"/><path d="M30.023 53.008v-22h8.389a5.48 5.48 0 015.479 5.48h0a5.48 5.48 0 01-5.48 5.479h-8.388"/></g></svg><svg viewBox="0 0 72 72" width="72" height="72" id="E205" x="432" y="432" xmlns="http://www.w3.org/2000/svg"><path fill="#d0cfce" d="M36.16 48.889l-.018 2.586s-3.098.077-5.355 3.693a14.11 14.11 0 00-1.615 6.581l-10.54-.245s6.834-3.138 8.882-6.753a52.382 52.382 0 002.616-5.958"/><path fill="#9b9b9a" d="M36.122 48.449l-.004 3.026s3.098.077 5.355 3.693a14.111 14.111 0 011.615 6.581l10.54-.245s-6.834-3.137-8.882-6.753a53.732 53.732 0 01-2.697-6.17"/><path fill="#b1cc33" d="M5.96 63.44h30.041v2.587H5.96z"/><path fill="#5c9e31" d="M36 63.44h30.041v2.587H36z"/><path fill="#d0cfce" d="M36.111 42.528H30.13L36 19.286l.111 4.938v18.304z"/><path fill="#9b9b9a" d="M40.931 42.528h-4.82l-.036-21.647 1.068 4.647 3.788 17z"/><path fill="#d0cfce" d="M36.178 48.012h-7.595l-.578-4.113 8.173-.012v4.125z"/><path fill="#9b9b9a" d="M43.031 48.012h-6.853v-4.077h7.862l-1.009 4.077z"/><g fill="none" stroke="#000" stroke-width="2"><path stroke-linecap="round" stroke-linejoin="round" d="M27.44 43.224h17.12l-1.041 5.5H28.385l-.945-5.5zM5.019 62.528h61.962v4.5H5.019z"/><path stroke-miterlimit="10" d="M29.786 62.028c0-5.314 2.845-9.622 6.356-9.622s6.356 4.308 6.356 9.622"/><path stroke-linecap="round" stroke-linejoin="round" d="M42.877 49.528a17.042 17.042 0 003.03 5.826 25.029 25.029 0 008.354 6.674M28.832 49.353a17.874 17.874 0 01-3.364 7.001 18.536 18.536 0 01-7.691 5.538M31.14 42.594a156.778 156.778 0 004.484-25.802q.356-4.034.495-7.857"/><path stroke-linecap="round" stroke-linejoin="round" d="M41.028 42.594a156.768 156.768 0 01-4.483-25.802q-.357-4.034-.495-7.857"/></g></svg><svg viewBox="0 0 72 72" width="72" height="72" id="E204" x="504" xmlns="http://www.w3.org/2000/svg"><path fill="#D0CFCE" d="M22 19h28v34H22z"/><path fill="#FFF" d="M29 53l19-34H22v34z"/><g fill="none" stroke="#000" stroke-linecap="round" stroke-linejoin="round" stroke-miterlimit="10" stroke-width="2"><path d="M22 19h28v34H22zM16 61V11M36 49V23M56 61V11"/></g></svg><svg viewBox="0 0 72 72" width="72" height="72" id="E203" x="504" y="72" xmlns="http://www.w3.org/2000/svg"><path fill="#FFF" d="M49 41.711L36 30 23 41.711V61h26z"/><path fill="#FFF" d="M31.028 42.624l-9.083-8.501-6.945-5.2-8 7.207V48h16M49 59h17V46.388l-9.152-8.026-9.807 8.335M41.6 35v-9.624L36 20l-5.6 5.376V35"/><path fill="#D0CFCE" d="M49 61V42L32 61M23 48v-7.667L15.333 48M66 59V47L56 59"/><g><path d="M36 20.763c-.579 0-1.049-.47-1.049-1.048v-9.43a1.048 1.048 0 012.097 0v9.43c0 .579-.469 1.048-1.048 1.048z"/><path d="M39.824 15.157h-7.647a1.048 1.048 0 010-2.097h7.647a1.048 1.048 0 010 2.097z"/><path fill="none" stroke="#000" stroke-linecap="round" stroke-linejoin="round" stroke-miterlimit="10" stroke-width="2" d="M49 41.711L36 30 23 41.711V61h26zM23 36.13l-8-7.207-8 7.207V48h16M49 59h17V46.388l-8.5-7.657-4.643 4.126"/><path fill="none" stroke="#000" stroke-linecap="round" stroke-linejoin="round" stroke-miterlimit="10" stroke-width="2" d="M41.6 35v-9.624L36 20l-5.6 5.376V35"/></g></svg><svg viewBox="0 0 72 72" width="72" height="72" id="E202" x="504" y="144" xmlns="http://www.w3.org/2000/svg"><path fill="#9B9B9A" d="M62 27v33H21v-9h10v-8l9.565.068L42 35h9l1-8z"/><g fill="none" stroke="#000" stroke-linecap="round" stroke-linejoin="round" stroke-miterlimit="10" stroke-width="2"><path d="M61 27H51M51 35v-8M51 35H41M41 43v-8M41 43H31M31 51v-8M31 51H21M21 59v-8M21 59H11M16.397 39.63l22.627-22.628M30.539 17.002h8.485M39.024 25.487v-8.485M16.397 31.144v8.486M24.882 39.63h-8.485"/></g></svg><svg viewBox="0 0 72 72" width="72" height="72" id="E201" x="504" y="216" xmlns="http://www.w3.org/2000/svg"><g fill="#FCEA2B"><circle cx="51.905" cy="16.914" r="4.002"/><path d="M52.26 26.163l-3.344 9.37-1.277 1.832 3.664 6.219.94.85 1.911 4.255.421 16.927s-.496 3.126-4.338 2.11l-1.503-15.444-6.508-6.73-6.89 6.254-13.651 6.762-1.841-2.032 6.063-4.508 5.302-3.651 4.096-6.445 4.603-10 4.73-8.953 3.715-.953 2.794 2.096 1.112 2.041z"/></g><g fill="none" stroke="#000" stroke-linecap="round" stroke-linejoin="round" stroke-miterlimit="10" stroke-width="2"><path d="M51.563 13.93a3.002 3.002 0 00-2.661 2.981 3.002 3.002 0 002.575 2.97M50.697 66.817l-1.585-13.014c-.133-1.092-.878-2.622-1.656-3.4l-3.171-3.171a53.387 53.387 0 00-2.95-2.695l-2.928-2.44c-.845-.704-1.536-2.18-1.536-3.28h0c0-1.1.43-2.79.957-3.756l5.043-9.244M48.023 35.177l-.576 1.32c-.317.726-.093 2.08.497 3.008l3.42 5.372"/><path d="M36.87 39.818l-5.852 8.361c-.631.901-1.922 2.096-2.87 2.655L21.426 54.8c-.947.559-1.497 1.691-1.222 2.516.275.825 1.332 1.158 2.35.74l8.467-3.48c1.017-.417 2.522-1.357 3.344-2.088l7.506-6.672M42.87 25.817c2-4 4.36-4.232 6.032-3.583 1.638.637 2.415 2.238 2.369 3.834M47.751 26.916l3.666 5.485M54.978 4.866V66.84M14.225 20.9h19.373M29.084 16.076l4.816 4.815M29.084 25.745L33.9 20.93"/></g></svg><svg viewBox="0 0 72 72" width="72" height="72" id="E200" x="504" y="288" xmlns="http://www.w3.org/2000/svg"><path fill="#D0CFCE" d="M22.4 29.1s-.7-.4-1.2-5h7s-.3 3.9-1.4 5"/><path fill="#A57939" d="M16 29.1h40v3.8H16zM64 16h4v40h-4zM34 33h4v23h-4zM44 37.5h4V56h-4z"/><path fill="#A57939" d="M44 37.1h20v4H44zM4 16h4v40H4zM24 37.5h4V56h-4z"/><path fill="#A57939" d="M8 37.1h20v4H8z"/><g fill="none" stroke="#000" stroke-linecap="round" stroke-linejoin="round" stroke-miterlimit="10" stroke-width="2"><path d="M22.4 29.1s-.7-.4-1.2-5h7s-.3 3.9-1.4 5M16 29.1h40v3.8H16zM64 16h4v40h-4zM34 33h4v23h-4zM44 37.5V56h4V41.1"/><path d="M44 37.1h20v4H44zM23 19.4s.6-2 0-4M25.8 19.4s.6-1.8 0-3.5M4 16h4v40H4zM28 37.5V56h-4V41.1"/><path d="M8 37.1h20v4H8z"/></g></svg><svg viewBox="0 0 72 72" width="72" height="72" id="E1D7" x="504" y="360" xmlns="http://www.w3.org/2000/svg"><path fill="#9B9B9A" stroke="#9B9B9A" stroke-miterlimit="10" stroke-width="2" d="M52 38v14H20v-8h-4v11.035c0 .533.432.965.965.965h38.07a.965.965 0 00.965-.965V38h-4z"/><path fill="#EA5A47" stroke="#EA5A47" stroke-miterlimit="10" stroke-width="2" d="M17.155 16c-.638 0-1.155.517-1.155 1.155V28h4v-8h32v14h4V17.155c0-.638-.517-1.155-1.155-1.155h-37.69z"/><circle cx="18" cy="36" r="8" fill="#FFF"/><g fill="none" stroke="#000" stroke-linecap="round" stroke-linejoin="round" stroke-miterlimit="10" stroke-width="2"><path d="M16 28.25V16h40v14.5M56 38v18H16V43.75"/><path d="M20 28.25V20h32v14M52 41.5V52H20v-8.25"/><circle cx="18" cy="36" r="8"/><path d="M23.657 30.343L12.343 41.657M12.343 30.343l11.314 11.314M49 34h10M44 38h20"/></g></svg><svg viewBox="0 0 72 72" width="72" height="72" id="E1D6" x="504" y="432" xmlns="http://www.w3.org/2000/svg"><path fill="#92D3F5" d="M51 53H5l12-34h46z"/><path fill="#61B2E4" d="M15.25 53H51l7.92-22.44z"/><g fill="none" stroke="#000" stroke-linecap="round" stroke-linejoin="round" stroke-miterlimit="10" stroke-width="2"><path d="M51 53H5l12-34h46zM40 19L28 53M58.502 31.756L66 53"/></g></svg><svg viewBox="0 0 72 72" width="72" height="72" id="E1D5" y="504" xmlns="http://www.w3.org/2000/svg"><path fill="#FFF" d="M21 30h6v12h-6z"/><circle cx="41" cy="36" r="15" fill="#FFF"/><path fill="#D0CFCE" d="M30.4 46.6C33.1 49.3 36.9 51 41 51c8.3 0 15-6.7 15-15 0-3.6-1.3-6.9-3.4-9.5-.3-.4-.7-.8-1.1-1.2"/><g><path fill="none" stroke="#000" stroke-linecap="round" stroke-linejoin="round" stroke-miterlimit="10" stroke-width="2" d="M21 32h-5M21 36h-5M21 40h-5M27 41.4v.6h-6V30h6v.6"/><circle cx="41" cy="36" r="15" fill="none" stroke="#000" stroke-linecap="round" stroke-linejoin="round" stroke-miterlimit="10" stroke-width="2"/><circle cx="41" cy="36" r="4"/></g><g fill="#E27022"><path d="M20.005 30.99v2.02h-4.04c-.606 0-1.01-.505-1.01-1.01s.404-1.01 1.01-1.01h4.04zM20.005 34.99v2.02h-4.04c-.606 0-1.01-.505-1.01-1.01s.404-1.01 1.01-1.01h4.04zM20.005 38.99v2.02h-4.04c-.606 0-1.01-.505-1.01-1.01s.404-1.01 1.01-1.01h4.04z"/></g></svg><svg viewBox="0 0 72 72" width="72" height="72" id="E1D4" x="72" y="504" xmlns="http://www.w3.org/2000/svg"><path fill="none" stroke="#E27022" stroke-linecap="round" stroke-linejoin="round" stroke-miterlimit="10" stroke-width="2" d="M16 36h-5M61 36h-5"/><path fill="#D22F27" d="M16 35.94h40V40H16z"/><path fill="#EA5A47" d="M16 32h40v4H16z"/><g fill="none" stroke="#000" stroke-linecap="round" stroke-linejoin="round" stroke-miterlimit="10" stroke-width="2"><path d="M16 32h40v8H16zM16 36h-5M61 36h-5"/></g><g fill="#E27022"><path d="M15 37.05h-4a1.05 1.05 0 110-2.1h4M57 34.95h4a1.05 1.05 0 110 2.1h-4"/></g></svg><svg viewBox="0 0 72 72" width="72" height="72" id="E1D3" x="144" y="504" xmlns="http://www.w3.org/2000/svg"><path fill="#5C9E31" d="M8 56h55v-5l4-4.096V28l-4-4v-8H8z"/><path fill="#5C9E31" d="M63 56v-5l4-4.096V28l-4-4v-8h-6.833"/><path fill="#B1CC33" d="M31.333 56H8V16h48.167zM6 22h2v9H6z"/><path fill="#B1CC33" d="M29 46h28v4H29zM24 22h33v4H24z"/><g fill="none" stroke="#000" stroke-linecap="round" stroke-linejoin="round" stroke-miterlimit="10" stroke-width="2"><path d="M8 22v-6h55v8l4 4v18.904L63 51v5H8V31"/><path d="M29 46h28v4H29zM24 22h33v4H24zM18 30v-8H5v9h6.125M14 50h4v-4h-4"/></g></svg><svg viewBox="0 0 72 72" width="72" height="72" id="E1D2" x="216" y="504" xmlns="http://www.w3.org/2000/svg"><path fill="#9B9B9A" d="M32.6 50.1c1 1.8 2.1 2.9 3.4 2.9 3.3 0 6-7.6 6-17 0-4.6-.6-8.8-1.7-11.8"/><path fill="#D0CFCE" d="M40.3 24.2C39.2 21 37.7 19 36 19c-3.3 0-6 7.6-6 17 0 5.9 1 11 2.6 14.1"/><circle cx="56" cy="56" r="10" fill="#FFF"/><circle cx="16" cy="56" r="10" fill="#FFF"/><circle cx="16" cy="16" r="10" fill="#FFF"/><circle cx="56" cy="16" r="10" fill="#FFF"/><g fill="none" stroke="#000" stroke-linecap="round" stroke-linejoin="round" stroke-miterlimit="10" stroke-width="2"><ellipse cx="36" cy="36" rx="6" ry="17"/><circle cx="56" cy="56" r="10"/><path d="M42 42l6.9 6.9"/><circle cx="16" cy="56" r="10"/><path d="M30 42l-6.9 6.9"/><circle cx="16" cy="16" r="10"/><path d="M30 30l-6.9-6.9"/><circle cx="56" cy="16" r="10"/><path d="M42 30l6.9-6.9M60.4 51.6l-8.8 8.8M11.6 51.6l8.8 8.8M11.6 20.4l8.8-8.8M60.4 20.4l-8.8-8.8"/></g><g fill="none" stroke="#9B9B9A" stroke-linecap="round" stroke-linejoin="round" stroke-miterlimit="10" stroke-width="2.1"><path d="M60.4 51.6l-8.8 8.8M11.6 51.6l8.8 8.8M11.6 20.4l8.8-8.8M60.4 20.4l-8.8-8.8"/></g></svg><svg viewBox="0 0 72 72" width="72" height="72" id="E1D1" x="288" y="504" xmlns="http://www.w3.org/2000/svg"><path fill="#FFF" d="M4 24h64v24H4z"/><path fill="#D0CFCE" d="M59 24h9v24H32z"/><path fill="none" stroke="#000" stroke-linecap="round" stroke-linejoin="round" stroke-miterlimit="10" stroke-width="2" d="M4 24h64v24H4z"/><path d="M41 44H9c-.6 0-1-.4-1-1V29c0-.6.4-1 1-1h32c.6 0 1 .4 1 1v14c0 .6-.4 1-1 1zM63 44h-8c-.6 0-1-.4-1-1V29c0-.6.4-1 1-1h8c.6 0 1 .4 1 1v14c0 .6-.4 1-1 1zM49.3 40.3v-.7c0-.6-.4-1-1-1h-.7c-.6 0-1 .4-1 1v.7c0 .6-.4 1-1 1H45c-.6 0-1 .4-1 1v.7c0 .6.4 1 1 1h6c.6 0 1-.4 1-1v-.7c0-.6-.4-1-1-1h-.7c-.5 0-1-.4-1-1zM51 34h-6c-.6 0-1-.4-1-1v-4c0-.6.4-1 1-1h6c.6 0 1 .4 1 1v4c0 .6-.4 1-1 1z"/><g fill="#3F3F3F"><path d="M41 44H9c-.6 0-1-.4-1-1V29c0-.6.4-1 1-1h32c.6 0 1 .4 1 1v14c0 .6-.4 1-1 1zM63 44h-8c-.6 0-1-.4-1-1V29c0-.6.4-1 1-1h8c.6 0 1 .4 1 1v14c0 .6-.4 1-1 1zM49.3 40.3v-.7c0-.6-.4-1-1-1h-.7c-.6 0-1 .4-1 1v.7c0 .6-.4 1-1 1H45c-.6 0-1 .4-1 1v.7c0 .6.4 1 1 1h6c.6 0 1-.4 1-1v-.7c0-.6-.4-1-1-1h-.7c-.5 0-1-.4-1-1zM51 34h-6c-.6 0-1-.4-1-1v-4c0-.6.4-1 1-1h6c.6 0 1 .4 1 1v4c0 .6-.4 1-1 1z"/></g></svg><svg viewBox="0 0 72 72" width="72" height="72" id="E1D0" x="360" y="504" xmlns="http://www.w3.org/2000/svg"><circle cx="36" cy="32" r="5" fill="#3F3F3F"/><path fill="#D0CFCE" d="M34 62h4l-2-25z"/><path fill="#9B9B9A" d="M36 37l2 25h-2.02L36 37"/><g fill="none" stroke="#000" stroke-linecap="round" stroke-linejoin="round" stroke-miterlimit="10" stroke-width="2"><circle cx="36" cy="32" r="5"/><path d="M35 38l-2 25h6l-2-25"/><path d="M42.265 50.985C50.239 48.355 56 40.855 56 32c0-11.046-8.954-20-20-20s-20 8.954-20 20c0 8.855 5.761 16.354 13.735 18.985"/><path d="M41.588 45.913C47.102 43.696 51 38.307 51 32c0-8.284-6.716-15-15-15s-15 6.716-15 15c0 6.307 3.898 11.696 9.412 13.913"/><path d="M40.895 40.715A9.992 9.992 0 0046 32c0-5.523-4.477-10-10-10s-10 4.477-10 10c0 3.743 2.06 7 5.105 8.715"/></g></svg><svg viewBox="0 0 72 72" width="72" height="72" id="E1CF" x="432" y="504" xmlns="http://www.w3.org/2000/svg"><path fill="#D0CFCE" d="M53.908 63.031H18.01a1 1 0 01-1-1V13.068a1 1 0 011-1h35.9a1 1 0 011 1V62.03a1 1 0 01-1 1z"/><circle cx="36.024" cy="45.016" r="12" fill="#FFF"/><path fill="#92D3F5" d="M24.024 45.016c0 6.627 5.373 12 12 12s12-5.373 12-12"/><path fill="#9B9B9A" d="M17 17.009h16v9.95H17z"/><circle cx="36.024" cy="45.016" r="7" fill="#D0CFCE"/><path fill="#61B2E4" d="M29.024 45.016a7 7 0 1014 0"/><g><circle cx="36.024" cy="45.016" r="12" fill="none" stroke="#000" stroke-miterlimit="10" stroke-width="2"/><circle cx="36.024" cy="45.016" r="7" fill="none" stroke="#000" stroke-miterlimit="10" stroke-width="2"/><path fill="none" stroke="#000" stroke-linecap="round" stroke-linejoin="round" stroke-miterlimit="10" stroke-width="2" d="M53.908 63.031H18.01a1 1 0 01-1-1V13.068a1 1 0 011-1h35.9a1 1 0 011 1V62.03a1 1 0 01-1 1z"/><path fill="none" stroke="#000" stroke-linecap="round" stroke-linejoin="round" stroke-miterlimit="10" stroke-width="2" d="M17 17.009h16v9.95H17zM37 19h7M37 23h7M23 21h4"/><circle cx="49" cy="21" r="2"/></g></svg><svg viewBox="0 0 72 72" width="72" height="72" id="E1CE" x="504" y="504" xmlns="http://www.w3.org/2000/svg"><path fill="#9B9B9A" d="M29 4h14v18H29zM29 50h14v18H29z"/><circle cx="36" cy="36" r="15" fill="#3F3F3F"/><path fill="#92D3F5" d="M28 28h6v6h-6z"/><path fill="#EA5A47" d="M38 28h6v6h-6z"/><path fill="#92D3F5" d="M38 38h6v6h-6z"/><path fill="#B399C8" d="M28 38h6v6h-6z"/><g><circle cx="36" cy="36" r="15" fill="none" stroke="#000" stroke-linecap="round" stroke-linejoin="round" stroke-miterlimit="10" stroke-width="2"/><path fill="none" stroke="#000" stroke-linecap="round" stroke-linejoin="round" stroke-miterlimit="10" stroke-width="2" d="M29 22V5M43 22V5M29 67V50M43 67V50M33 34h-4a1 1 0 01-1-1v-4a1 1 0 011-1h4a1 1 0 011 1v4a1 1 0 01-1 1zM43 34h-4a1 1 0 01-1-1v-4a1 1 0 011-1h4a1 1 0 011 1v4a1 1 0 01-1 1zM43 44h-4a1 1 0 01-1-1v-4a1 1 0 011-1h4a1 1 0 011 1v4a1 1 0 01-1 1zM33 44h-4a1 1 0 01-1-1v-4a1 1 0 011-1h4a1 1 0 011 1v4a1 1 0 01-1 1z"/><circle cx="36" cy="66" r="2"/></g></svg><svg viewBox="0 0 72 72" width="72" height="72" id="E1CD" x="576" xmlns="http://www.w3.org/2000/svg"><g fill="#9B9B9A"><path d="M36.022 12.932c-12.696 0-22.988 10.291-22.988 22.987s10.292 22.988 22.988 22.988 22.987-10.292 22.987-22.988-10.292-22.987-22.987-22.987zm0 37.951c-8.265 0-14.965-6.7-14.965-14.964s6.7-14.964 14.965-14.964 14.964 6.7 14.964 14.964-6.7 14.964-14.964 14.964z"/><path d="M31.529 7.661h8.982v11.19h-8.982zM31.529 53.069h8.982v11.19h-8.982zM18.869 31.41v8.983H7.679V31.41zM64.309 31.41v8.982h-11.19V31.41z"/></g><g fill="none" stroke="#000" stroke-linecap="round" stroke-linejoin="round" stroke-miterlimit="10" stroke-width="2"><path d="M58.874 31.433c-1.784-9.063-9.333-16.482-18.373-18.332M40.502 58.816c9.127-1.79 16.577-9.298 18.373-18.423M13.12 40.393c1.783 9.116 9.316 16.61 18.422 18.423M31.542 13.101c-9.07 1.805-16.604 9.267-18.422 18.332"/><circle cx="36.022" cy="35.919" r="15"/><path d="M31.542 13.101V8.66M40.502 13.101V8.66M31.542 63.258v-4.442M40.502 63.258v-4.442M58.874 31.433h4.442M58.874 40.393h4.442M8.679 31.433h4.441M8.679 40.393h4.441"/></g></svg><svg viewBox="0 0 72 72" width="72" height="72" id="E1CC" x="576" y="72" xmlns="http://www.w3.org/2000/svg"><path fill="#D0CFCE" d="M13.353 8.12h44.879v55.438H13.353z"/><path fill="#FFF" d="M58.231 25.747L40.604 8.119H19.936l-.022.022 38.317 38.317z"/><path fill="#3F3F3F" d="M17.881 13.037H54.04v41.439H17.881z"/><path fill="#9B9B9A" d="M54.04 42.266V21.555l-8.518-8.518H24.81z"/><g><path fill="none" stroke="#000" stroke-linecap="round" stroke-linejoin="round" stroke-miterlimit="10" stroke-width="2" d="M13.47 62.54V9.166c0-.55.45-1 1-1h43.044c.55 0 1 .45 1 1v53.372c0 .55-.45 1-1 1H14.47c-.55 0-1-.45-1-1z"/><circle cx="35.992" cy="59.084" r="2"/><path fill="none" stroke="#000" stroke-linecap="round" stroke-linejoin="round" stroke-miterlimit="10" stroke-width="2" d="M17.881 13.037H54.04v41.439H17.881z"/></g></svg><svg viewBox="0 0 72 72" width="72" height="72" id="E1CB" x="576" y="144" xmlns="http://www.w3.org/2000/svg"><path fill="#9B9B9A" d="M10.25 50.857h10.625v4.231H10.25z"/><path fill="#D0CFCE" d="M51 17.084h10.625v4.231H51z"/><g fill="none" stroke="#000" stroke-linecap="round" stroke-linejoin="round" stroke-miterlimit="10" stroke-width="2"><path d="M21 53.276h35.564s6.436 0 6.436-9.193-6.115-9.193-6.115-9.193H17.577s-5.85 0-5.85-8.303 5.85-7.354 5.85-7.354h33.219"/><path d="M10.25 50.857h10.625v4.231H10.25zM51 17.084h10.625v4.231H51z"/></g></svg><svg viewBox="0 0 72 72" width="72" height="72" id="E1CA" x="576" y="216" xmlns="http://www.w3.org/2000/svg"><path fill="#FCEA2B" d="M45.1 52.5C45 56.6 44 63.3 44 63.3l-17.2.1.1-5.8s-.2-11.2-5.3-15.5c-10.3-8.6-7.6-26.7 3.7-31.2C36.5 6.4 47.6 9.7 51 14.7s.6 9.2.6 9.2-.8 1.5 1.1 4.6S57.6 39 57.6 39l-4.1 1.4s2 9.5-.8 10.9-8.7.8-13.2-.6"/><path fill="#9B9B9A" d="M59.2 18v15.7H44.7s-8.7-7.5 0-16.2h14.5v.5z"/><path fill="#9B9B9A" d="M44.8 22H14.5s-2 6.1 0 8.1h30.1l.2-8.1z"/><path fill="none" d="M54.5 17.6v16.2M55.9 17.6v16.2M57.4 17.6v16.2"/><path d="M54.8 17.6h4.6v16.5h-4.6z"/><g fill="none" stroke="#000" stroke-miterlimit="10" stroke-width="2"><path stroke-linecap="round" stroke-linejoin="round" d="M55.4 33.8c1.2 2.7 2.2 5.2 2.2 5.2l-4.1 1.4s2 9.5-.8 10.9-8.7.8-13.2-.5M15.9 22c1.4-5 4.6-9.3 9.4-11.1C36.5 6.4 47.6 9.7 51 14.7c.7 1 1.1 2 1.4 2.9"/><path stroke-linecap="round" stroke-linejoin="round" d="M15.3 30.1c.5 4.5 2.6 8.9 6.3 12 5.1 4.3 5.3 15.5 5.3 15.5v5.8h17.2s1-6.8 1.1-10.8M59.2 18v15.7H44.7s-8.7-7.5 0-16.2h14.5v.5z"/><path stroke-linecap="round" stroke-linejoin="round" d="M41.6 22H14.5s-2 6.1 0 8.1H42"/><path d="M54.8 17.6v16"/></g></svg><svg viewBox="0 0 72 72" width="72" height="72" id="E1C9" x="576" y="288" xmlns="http://www.w3.org/2000/svg"><path fill="#EA5A47" d="M19.95 25.538s-2.58 1.549-3.155 4.096 0 5.336 0 5.336-4.046 1.669-4.046 6.918 3.413 6.733 3.413 6.733.04 6.195 3.859 9.536c3.819 3.341 7.826 3.357 7.826 3.357s2.084 4.408 8.215 4.408 8.216-4.408 8.216-4.408 4.15-.606 7.826-3.357c3.676-2.75 3.575-9.536 3.575-9.536s3.697-1.483 3.697-6.733-4.047-6.917-4.047-6.917.577-2.79 0-5.337-3.155-4.096-3.155-4.096"/><path fill="#EA5A47" d="M55.448 33.428c0-10.719-8.69-13.738-19.408-13.738s-19.408 3.02-19.408 13.738 8.69 19.408 19.408 19.408 19.408-8.69 19.408-19.408z"/><path fill="#D22F27" d="M36.657 65.908s5.248-3.67 4.905-12.111c2.257-2.348 2.957-5.503.907-9.337 3.463-4.936 3.103-10.276-1.04-14.324 1.707-2.464.814-4.598-1.116-6.201 0 0 5.555 2.724 9.81-1.171 0 0 8.943 6.43 5.206 12.207 0 0 9.874 6.673.35 13.65 0 0 1.391 10.635-11.16 12.85 0 0-3.304 3.74-7.862 4.437z"/><path fill="#B1CC33" d="M55.78 11.262c-4.27 19.927-17.375 13.133-19.156 9.629-1.78-3.505-.06-17.458 19.156-9.63z"/><path fill="#B1CC33" d="M16.344 11.262c4.27 19.927 17.375 13.133 19.156 9.629 1.78-3.505.06-17.458-19.156-9.63z"/><g fill="none" stroke="#000" stroke-linecap="round" stroke-linejoin="round" stroke-miterlimit="10" stroke-width="2"><path d="M55.78 11.262c-4.27 19.927-17.375 13.133-19.156 9.629-1.78-3.505-.06-17.458 19.156-9.63zM45.572 15.294c-3.13 1.202-7.139 3.135-8.915 5.655"/><path d="M16.344 11.262c4.27 19.927 17.375 13.133 19.156 9.629 1.78-3.505.06-17.458-19.156-9.63zM26.552 15.294c3.131 1.202 7.139 3.135 8.915 5.655"/><path d="M19.95 25.538s-2.58 1.549-3.155 4.096 0 5.336 0 5.336-4.046 1.669-4.046 6.918 3.413 6.733 3.413 6.733.04 6.195 3.859 9.536c3.819 3.341 7.826 3.357 7.826 3.357s2.084 4.408 8.215 4.408 8.216-4.408 8.216-4.408 4.15-.606 7.826-3.357c3.676-2.75 3.575-9.536 3.575-9.536s3.697-1.483 3.697-6.733-4.047-6.917-4.047-6.917.577-2.79 0-5.337-3.155-4.096-3.155-4.096M42.243 29.475s-2.616 2.767-5.844 2.767M30.332 29.475s2.616 2.767 5.844 2.767M50.062 39.524c0 2.892-2.482 5.236-5.543 5.236M38.763 39.524c0 2.892 2.482 5.236 5.543 5.236M33.883 39.524c0 2.892-2.482 5.236-5.544 5.236M22.583 39.524c0 2.892 2.482 5.236 5.544 5.236M41.905 53.862c-1.044 1.389-3.16 2.339-5.601 2.339M30.341 53.692c.995 1.48 3.183 2.509 5.722 2.509M30.29 54.05c0 1.24-.769 2.359-1.998 3.144M41.965 54.05c0 1.353.913 2.56 2.341 3.348M23.411 42.672c0 2.366-1.661 4.365-3.942 5.014M25.012 29.44c0 3.095-2.482 5.605-5.544 5.605M46.373 29.44c0 3.095 2.482 5.605 5.544 5.605M49.251 42.672c0 2.26 1.516 4.185 3.64 4.92"/></g></svg><svg viewBox="0 0 72 72" width="72" height="72" id="E1C8" x="576" y="360" xmlns="http://www.w3.org/2000/svg"><path fill="#9B9B9A" d="M16.564 17.064h37.685l3.125 10.847h2.758v14.086H56.96l-6.572 14.982h-31.16L13.255 42.77h-2.206V26.532h2.206z"/><circle cx="25.388" cy="29.275" r="5.883" fill="#D0CFCE"/><circle cx="27.41" cy="46.11" r="4.044" fill="#D0CFCE"/><circle cx="44.322" cy="36.023" r="7.85" fill="#D0CFCE"/><path fill="#FFF" d="M20.75 15.944c0-1.595 1.175-2.888 2.625-2.888S26 14.35 26 15.944M28.625 15.944c0-1.595 1.175-2.888 2.625-2.888s2.625 1.293 2.625 2.888M36.5 15.944c0-1.595 1.175-2.888 2.625-2.888s2.625 1.293 2.625 2.888M44.375 15.944c0-1.595 1.175-2.888 2.625-2.888s2.625 1.293 2.625 2.888"/><g fill="none" stroke="#000" stroke-linecap="round" stroke-linejoin="round" stroke-miterlimit="10" stroke-width="2"><path d="M16.564 17.064h37.685l3.125 10.847h2.758v14.086H56.96l-6.572 14.982h-31.16L13.255 42.77h-2.206V26.532h2.206z"/><circle cx="25.388" cy="29.275" r="5.883"/><circle cx="27.41" cy="46.11" r="4.044"/><circle cx="44.322" cy="36.023" r="7.85"/><path d="M25.388 23.392l18.934 4.781M19.505 29.275s2.252 14.997 3.86 18.444c1.609 3.446 4.045 2.435 4.045 2.435 4.044-.367 20.91-7.384 20.91-7.384M20.75 15.944c0-1.595 1.175-2.888 2.625-2.888S26 14.35 26 15.944M28.625 15.944c0-1.595 1.175-2.888 2.625-2.888s2.625 1.293 2.625 2.888M36.5 15.944c0-1.595 1.175-2.888 2.625-2.888s2.625 1.293 2.625 2.888M44.375 15.944c0-1.595 1.175-2.888 2.625-2.888s2.625 1.293 2.625 2.888"/></g></svg><svg viewBox="0 0 72 72" width="72" height="72" id="E1C7" x="576" y="432" xmlns="http://www.w3.org/2000/svg"><path fill="#92d3f5" d="M31.388 26.718s9.237-1.82 8.422-9.197c-1.354-12.26-1.468-10.423-1.468-10.423l-5.529 1.01S36 21.702 31.388 26.718z"/><path fill="#92d3f5" d="M34.542 7.036c-8.147 0-14.75 7.496-14.75 16.743v16.388h29.5"/><path fill="#d0cfce" d="M26.833 44.5h4v22.095h-4zM41.333 44.5h4v16.479h-4z"/><path fill="#61b2e4" d="M34.542 7.563s15.323.549 15.904 13.875c.967 22.145.067 18.919.067 18.919l-9.326-.19s1.438-25.042-6.645-32.605z"/><path fill="#61b2e4" d="M43.333 40.792h11.833v3.083H43.333z"/><path fill="#92d3f5" d="M16.335 40.792h26.998v3.083H16.335z"/><g fill="none" stroke="#000" stroke-linecap="round" stroke-linejoin="round" stroke-miterlimit="10" stroke-width="2"><path d="M34.542 7.036c-8.147 0-14.75 7.496-14.75 16.743v16.388h29.5M26.833 44.5h4v22.095h-4zM41.333 44.5h4v16.479h-4zM35.25 7.036c8.146 0 14.75 7.496 14.75 16.743v7.388M16 44.5h40v-4.333H16z"/></g></svg><svg viewBox="0 0 72 72" width="72" height="72" id="E1C6" x="576" y="504" xmlns="http://www.w3.org/2000/svg"><path fill="#9B9B9A" d="M6.808 55.158L22.07 33.412l8.59 8.59 15.983-15.981 19.077 29.854H6.28z"/><g fill="none" stroke="#000" stroke-linecap="round" stroke-linejoin="round" stroke-miterlimit="10" stroke-width="2"><path d="M6.808 55.158L22.07 33.412l8.59 8.59 15.983-15.981 19.077 29.854H6.28z"/><path d="M38 17.021h22.021A7.979 7.979 0 0168 25v24.235H4V25a7.979 7.979 0 017.979-7.979h21.938L36 21.625l2-4.604z"/><path d="M8.208 24.125v-3H11M15.52 21.125h3v2.792M18.52 28.438v3h-2.79M11.208 31.438h-3v-2.792"/><circle cx="13.229" cy="26.146" r="2.021"/><path d="M62.837 26.021H40.642M67.859 26.021h-5.022M67.859 29.238h-5.022M67.859 32.456h-5.022M67.859 35.673h-5.022M67.859 38.891h-5.022M67.859 42.108h-5.022M67.859 45.325h-5.022M46.571 49.235V20.06"/></g></svg><svg viewBox="0 0 72 72" width="72" height="72" id="E1C5" y="576" xmlns="http://www.w3.org/2000/svg"><path fill="#D0CFCE" d="M37.297 16.773h-2.472c-5.876 0-10.684 4.808-10.684 10.684V44.39c0 5.876 4.808 10.684 10.684 10.684h2.472c5.876 0 10.684-4.808 10.684-10.684V27.457c0-5.876-4.808-10.684-10.684-10.684z"/><path fill="#3F3F3F" d="M36.061 22.112a2.08 2.08 0 00-2.074 2.074v5.834a2.08 2.08 0 002.074 2.073 2.08 2.08 0 002.074-2.073v-5.834a2.08 2.08 0 00-2.074-2.074z"/><path fill="#9B9B9A" d="M35.136 18.177c3.027 1.299 5.904 3.163 6.239 7.873.388 5.455-1.63 15.669-2.28 20.857-.453 3.627-2.247 5.307-4.63 7.21-1.2.961 5.267.844 7.93-.713 2.286-1.336 4.5-3.629 4.527-2.904l.323-25.805s-.937-6.937-8.566-6.94c0 0-7.652-.393-3.543.422z"/><g fill="none" stroke="#000" stroke-linecap="round" stroke-linejoin="round" stroke-miterlimit="10" stroke-width="2"><path d="M38.83 54.501h-5.537c-4.97 0-9.035-4.065-9.035-9.034V26.38c0-4.969 4.066-9.034 9.035-9.034h5.536c4.97 0 9.035 4.065 9.035 9.034v19.087c0 4.969-4.066 9.034-9.035 9.034z"/><path d="M36.145 32.155h-.168a2.035 2.035 0 01-2.03-2.03V24.08c0-1.116.914-2.029 2.03-2.029h.168c1.116 0 2.03.913 2.03 2.03v6.046c0 1.116-.914 2.03-2.03 2.03z"/></g></svg><svg viewBox="0 0 72 72" width="72" height="72" id="E1C4" x="72" y="576" xmlns="http://www.w3.org/2000/svg"><path fill="#D0CFCE" d="M33.1 58h-3c-.6 0-1-.4-1-1V37c0-.6.4-1 1-1h3c.6 0 1 .4 1 1v20c0 .6-.5 1-1 1z"/><path fill="#9B9B9A" d="M38.4 35.4c1.7-2.9.7-6.5-2.2-8.2s-6.5-.7-8.2 2.2-.7 6.5 2.2 8.2 6.5.7 8.2-2.2"/><path fill="#FFF" d="M17.515 23.408l5-8.66 31.175 18-5 8.66z"/><path fill="#D0CFCE" d="M17.514 23.409l5-8.66 31.175 18-5 8.66z"/><path fill="#9B9B9A" d="M42.1 37.6L22.5 14.8l-5 8.6z"/><g><path fill="none" stroke="#000" stroke-linecap="round" stroke-linejoin="round" stroke-miterlimit="10" stroke-width="2" d="M30 36.4V57M34.1 39.4V57M28.8 29.9c-1.3 2.2-.7 4.9 1.2 6.4"/><path fill="none" stroke="#000" stroke-linecap="round" stroke-linejoin="round" stroke-miterlimit="10" stroke-width="1.99996" d="M17.515 23.408l5-8.66 31.175 18-5 8.66z"/><path fill="none" stroke="#000" stroke-linecap="round" stroke-linejoin="round" stroke-miterlimit="10" stroke-width="1.99996" d="M17.515 23.408l5-8.66 31.175 18-5 8.66z"/><path d="M52.7 34.5c1.4.8 1.9 2.7 1.1 4.1s-2.7 1.9-4.1 1.1l3-5.2z"/></g><g><path fill="#D22F27" d="M54.2 37.1c0 1.7-1.4 3-3 3-.2 0-.4 0-.6-.1l2.9-5c.4.6.7 1.3.7 2.1z"/></g></svg><svg viewBox="0 0 72 72" width="72" height="72" id="E1C3" x="144" y="576" xmlns="http://www.w3.org/2000/svg"><path fill="#9B9B9A" d="M39.938 46.844l18.012-12.45 5.657 5.656-12.513 18.013"/><path fill="#D0CFCE" d="M51.538 60C49.718 51.987 42.564 46 34 46s-15.717 5.987-17.538 14h35.076z"/><g fill="none" stroke="#000" stroke-linecap="round" stroke-miterlimit="10" stroke-width="2"><path d="M10 60h48M51.538 60C49.718 51.987 42.564 46 34 46s-15.717 5.987-17.538 14h35.076z"/><path stroke-linejoin="round" d="M39.938 46.844l18.012-12.45 5.657 5.656-12.513 18.013"/></g></svg><svg viewBox="0 0 72 72" width="72" height="72" id="E1C2" x="216" y="576" xmlns="http://www.w3.org/2000/svg"><path fill="#ea5a47" d="M64.8 44l-1.1-.6c-.4-.2-.6-.6-.5-1 .3-1.9.5-8.5-9.7-11.5-.2-.1-.4-.1-.6-.1l-19.6.1c-.4 0-.8.1-1.1.3l-10.3 6.9c-.2.1-.4.2-.6.2-1.9-.1-3.7.1-5.6.4-5.4 1.1-7.6 4-8.4 5.5-.2.3-.2.7-.2 1 .1 2.4-1.5 5.1.9 7.3l19.4-.1 20.4-.5 16.1-.2c.9-.1 2.4-1.4 2.8-2.2 1.7-2.7-1.7-5.4-1.9-5.5z"/><path fill="#9b9b9a" d="M17.3 46.4c-2.2 0-4 1.8-4 4s1.8 4 4 4 4-1.8 4-4-1.8-4-4-4zM57.1 46.4c-2.2 0-4 1.8-4 4s1.8 4 4 4 4-1.8 4-4-1.8-4-4-4z"/><path fill="#92d3f5" d="M56.1 39.3V35c0-.9-.8-1.7-1.7-1.7H33.2c-.1 0-.2 0-.2.1l-8 5.7c-.2.1-.2.4-.1.6.1.1.2.2.3.2 5.6 0 27.2-.2 30.4-.1.3 0 .5-.2.5-.5 0 .1 0 .1 0 0z"/><path fill="#fcea2b" d="M8.9 40.5l4 1.6-2.1 2.9-5 .1z"/><g fill="none" stroke="#000" stroke-linecap="round" stroke-linejoin="round" stroke-width="2"><path d="M47.6 51l-20.6.4M8.1 51.4c-.9-.2-1.7-.5-1.8-1-.1-1-.3-3.8-.3-5.1 0-.5.1-1.1.4-1.5 1.1-2 4.8-6.8 14.9-6.4l10.3-6.9c.5-.3 1.1-.5 1.6-.5l19.6-.1c.3 0 .6 0 .9.1 2.2.6 11.7 4 10.4 12.6l1.1.6c.5.2.9.7 1 1.2.4 1.4.3 2.9-.2 4.3"/><path d="M24.9 39.9l30.2-.2v-4.5"/><circle cx="17.3" cy="50.4" r="5"/><circle cx="57.1" cy="50.4" r="5"/><path d="M12.3 42.9l-1.8 2.2-3.7-.1M18.267 27.863c1.686-4.7 5.609-8.502 10.815-9.811a15.469 15.469 0 0112.975 2.552"/><path d="M14.182 26.854c1.956-6.006 6.862-10.905 13.44-12.56 5.937-1.493 11.926-.013 16.393 3.5"/><path d="M22.217 28.734a11.484 11.484 0 017.841-6.803 11.477 11.477 0 019.627 1.894"/></g></svg><svg viewBox="0 0 72 72" width="72" height="72" id="E1C1" x="288" y="576" xmlns="http://www.w3.org/2000/svg"><path fill="#d0cfce" d="M11 16.083h50v39.833H11z"/><g fill="none" stroke="#000" stroke-linecap="round" stroke-linejoin="round" stroke-miterlimit="10" stroke-width="2"><path d="M11 16.001h50v39.998H11z"/><path d="M16.329 16.48v4.374H11h50M28.833 30.395l-6.927 6.927M28.833 44.317l-6.927-6.928M38.184 28.152L32.809 46.25M42.159 44.252l6.927-6.928M42.159 30.33l6.927 6.927"/></g></svg><svg viewBox="0 0 72 72" width="72" height="72" id="E1C0" x="360" y="576" xmlns="http://www.w3.org/2000/svg"><path fill="#D0CFCE" d="M11 15.959h50v39.998H11z"/><path fill="#3F3F3F" d="M14.984 24.988h8v11.083h-8z"/><path fill="#9B9B9A" d="M56.43 51.905H31.902V25.5H56.43v13.972z"/><g fill="none" stroke="#000" stroke-linecap="round" stroke-linejoin="round" stroke-miterlimit="10" stroke-width="2"><path d="M11 15.959h50v39.998H11zM12.058 20.813h48.068M27.25 55.324V20.813"/><path d="M14.984 24.988h8v11.083h-8zM56.43 51.905H31.902V25.5H56.43v13.972zM14.893 42.78h5.098M14.893 46.78h8.308M14.893 50.78h5.098M31.902 51.905L56.43 25.5M31.902 25.5L56.43 51.905"/></g></svg><svg viewBox="0 0 72 72" width="72" height="72" id="E281" x="432" y="576" xmlns="http://www.w3.org/2000/svg"><path fill="#FCEA2B" d="M36 13c-12.682 0-23 10.318-23 23s10.318 23 23 23 23-10.318 23-23-10.318-23-23-23z"/><circle cx="36" cy="36" r="23" fill="none" stroke="#000" stroke-miterlimit="10" stroke-width="2"/><path fill="none" stroke="#000" stroke-linecap="round" stroke-linejoin="round" stroke-miterlimit="10" stroke-width="2" d="M47.472 24.583c-.449.296-2.431 1.53-5.06 1.08-2.134-.365-3.451-1.627-3.884-2.081M24.528 24.583c.449.296 2.431 1.53 5.06 1.08 2.134-.365 3.451-1.627 3.884-2.081"/><path stroke="#000" stroke-miterlimit="10" stroke-width="2" d="M41 45c0 2.21-2.79 4-5 4s-5-1.79-5-4 2.79-3 5-3 5 .79 5 3z"/><path d="M30 31a3.001 3.001 0 01-6 0c0-1.655 1.345-3 3-3s3 1.345 3 3M48 31a3.001 3.001 0 01-6 0c0-1.655 1.345-3 3-3s3 1.345 3 3"/></svg><svg viewBox="0 0 72 72" width="72" height="72" id="E280" x="504" y="576" xmlns="http://www.w3.org/2000/svg"><path fill="#FCEA2B" d="M36 13.2c-12.572 0-22.8 10.228-22.8 22.8 0 12.572 10.228 22.8 22.8 22.8 12.572 0 22.8-10.228 22.8-22.8 0-12.572-10.228-22.8-22.8-22.8z"/><path fill="#FFF" d="M31.58 31.346a4.464 4.464 0 11-4.463-4.463c2.462 0 4.463 2.001 4.463 4.464M49.58 31.346a4.464 4.464 0 11-4.463-4.463c2.462 0 4.463 2.001 4.463 4.464"/><g><circle cx="36" cy="36" r="23" fill="none" stroke="#000" stroke-miterlimit="10" stroke-width="2"/><path fill="none" stroke="#000" stroke-miterlimit="10" stroke-width="2" d="M31.78 31.463A4.464 4.464 0 1127.317 27c2.463 0 4.463 2 4.463 4.463"/><path d="M29.317 31.925a2 2 0 11-4.001-.001 2 2 0 014.001.001"/><path fill="none" stroke="#000" stroke-miterlimit="10" stroke-width="2" d="M49.78 31.463A4.464 4.464 0 1145.317 27c2.462 0 4.463 2 4.463 4.463"/><path d="M47.317 31.925a2 2 0 11-4.001-.001 2 2 0 014.001.001M22.855 31c0-2.462 2-4.463 4.462-4.463s4.463 2 4.463 4.463"/><path d="M40.855 31c0-2.462 2-4.463 4.462-4.463s4.463 2 4.463 4.463"/><path fill="none" stroke="#000" stroke-linecap="round" stroke-linejoin="round" stroke-miterlimit="10" stroke-width="2" d="M29 43c1.284-.638 3.985-1.03 6.842-.998 2.624.03 4.99.414 6.158.998"/></g></svg><svg viewBox="0 0 72 72" width="72" height="72" id="E184" x="576" y="576" xmlns="http://www.w3.org/2000/svg"><path fill="#A57939" d="M54 49c-1-2 4-5 4-8 0-1.6-1-6-5-7-1.725-.432-3.981-1.442-6.166-1.313-9.522.563-15.209 2.938-18.834 2-.969-.25-8.813-8-9.375-8.687l-3.5-3.406-.46 3.698C11.496 28.416 11 30 6 34c-.553.442 1.315 2.172 2 2 4-1 8-1 8-1s1.897 6.183 2 8c.113 1.997 0 6 1 7 1.581 1.581 3 2 3 2l-3 6c-.633 1.265-.353 2.647 0 3 2 2 8 4 8 4l1-3s-5-2-5-3c0-1.129 4-4 5-6 0 0 6.56-.402 9-1 1.69-.414 7.038-2.797 10.613-4.432 1.782 2.58 4.178 5.71 4.178 6.432l-4 5 2 1s5-4 6-5c.354-.353.191-1.538 0-2-.541-1.307-1.158-2.735-1.791-4z"/><path fill="#6A462F" d="M48 49s-2.143 6.79-3 9c-.89 2.296-2 8-2 8l4.167-1.167 2.417-4.917-1.25-.166v-2.584l2.916-3.041M56 35h2c3 0 7 3 6 7-.728 2.91-4.126 5.583.874 10.583 0 0 .709 2.834-2.041 2.042 0 0-2.379-.927-3.375-4.083-1.75-5.542 1.651-8.183 1-10.209-.375-1.166-2.334-1.125-2.334-1.125M21.281 52.125l-1.093 2.938c-.625.218-4.422 1.535-4.282 2.718C16.125 59.625 15 65 15 65l-2 1s-2-8-2-9c0-.79 0-2 1-3s6-4 6-4"/><g fill="#FCEA2B"><circle cx="28.386" cy="13.063" r="2.969"/><path d="M34 28l1 3-6.795 8-.097 2.326 4.478 7.939 3.13-1.649-2.137-7.938L42 35l2-4-8.527-12.316-4.757.808.638 5.92L24 28.219s.813 1.719 1.938 1.531 6-.969 7.25-2.25L34 28z"/></g><g fill="none" stroke="#000" stroke-miterlimit="10" stroke-width="2"><circle cx="28.386" cy="13.063" r="2.969"/><path stroke-linecap="round" stroke-linejoin="round" d="M25 28l5.077-1.45a2.005 2.005 0 001.373-2.473l-.9-3.154a1.818 1.818 0 011.41-2.315l1.08-.216c1.077-.216 2.473.348 3.099 1.252l6.722 9.711c.626.905.737 2.45.245 3.434l-.211.422c-.493.984-1.682 2.226-2.643 2.76l-5.504 3.057c-.96.535-1.394 1.8-.963 2.81l1.847 4.323c.432 1.01.016 2.29-.923 2.839-.94.55-2.151.216-2.691-.742l-2.927-5.19c-.54-.958-.961-2.265-.935-2.905.028-.64.632-1.848 1.344-2.687l4.205-4.952c.712-.838 1.07-2.199.795-3.024L34 28"/><path stroke-linecap="round" stroke-linejoin="round" d="M27 35c-1-1-3.451-4.45-6-7-1-1-3-2-3-2l-2-3M46 40s-1 3 0 5c1.188 2.377 5.791 8 5.791 9L49 57s-1.138.748-1.124 1.376C47.917 60.293 49.791 60 49.791 60s6.378-5.564 6.209-6c-.51-1.32-1.367-3.735-2-5-1-2 4-5 4-8 0-1.6-1-6-5-7-1.725-.432-3.773-.491-5.958-.349M24 64c-1.8-.76-3.957-1.957-5-3-.353-.353-.633-1.735 0-3l3-6s-1.419-.419-3-2c-1-1-.887-5.003-1-7-.102-1.817-2-8-2-8s-4 0-8 1c-.685.172-2.553-1.558-2-2 5-4 5-4 8-6M26 61l1.23 1.166a1.69 1.69 0 01.042 2.397c-.655.675-1.657.825-2.23.332L24 64"/><path stroke-linecap="round" stroke-linejoin="round" d="M47 48s-7.385 3.36-10 4c-2.44.598-9 1-9 1-4 4-5 6-5 6s1.629 1.342 3 2M48 49s-2.143 6.79-3 9c-.47 1.213-.618 1.922-1.542 3.958-.824 1.816-.91 2.118-.91 2.118-.302 1.059.127 2.149.952 2.424.825.275 1.9-.307 2.389-1.292l1.048-2.114M15 62v2c0 1.1-.675 2-1.5 2s-1.5-.7-1.5-1.557v-2.401M18 50s-5 3-6 4-1 2.21-1 3c0 .518.483 2.853 1 5.042M56 35h2c3 0 7 3 6 7-.728 2.91-5 6 0 11M15 58v4"/></g></svg><svg viewBox="0 0 72 72" width="72" height="72" id="E183" x="648" xmlns="http://www.w3.org/2000/svg"><path fill="#3F3F3F" d="M59.402 58.136c.299-.732 0-1.552 0-1.552l-3.088-13.713s-7.305-4.462-9.272-5.18l.022 9.259c.006.304-.478 1.071-.712 1.266l-.783 3.072-.002 4.274c-.046.325-.134 2.435-.402 2.581l14.237-.007zM30.858 56.236l-.532-4.674-.97-3.629c-.265-.205-.156-1.478-.131-1.811l.116-10.363c-2.671 1.108-10.376 4.284-11.77 5.9-1.569 1.816-4.346 9.923-5.482 14.342-.072.278.128 2.01-.106 2.14l18.868-.008c-.282-.154.04-1.554.007-1.897z"/><path fill="#EA5A47" d="M40.93 44.304c0-.438-.343-1.202-.41-1.691-.222-.001-3.845.063-4.2 0-.31.28-.988 2.461-.988 3.066 0 .982.893 2.64 1.168 3.07.137.213-1.168 7.584-1.168 7.584-.056.31-.155 1.663-.41 1.803h6.459l-1.786-9.995s1.335-2.541 1.335-3.837z"/><path fill="#FFF" d="M35.085 56.367l1.163-8.659c-.377-.662-.9-3.695-.898-3.714.034-.78.605-.872.97-1.381-1.287-.632-6.812-6.605-6.979-6.854 0 0-1.073 13.326-1.251 13.19l1.241 2.708c-.053-.55 1.597 6.47 1.597 6.471l3.97.008c-.073-.04.165-1.647.187-1.77z"/><path fill="#D22F27" d="M40.974 55.86l-1.338-7.517c-.061-.297.421-.931.615-1.164.325-.397.954-1.447.954-2.417 0-.655-1.278-1.965-1.522-2.175-.135.005-.891.316-.906.316.066.489.26 1.709.26 2.146 0 1.296-.841 3.036-.841 3.036l1.087 10.058 2.098-.007c-.25-.136-.345-1.976-.407-2.276zM41.915 58.002z"/><path fill="#FFF" d="M46.213 39.82c-.271.276-5.056 2.927-5.248 2.975.221.439-.047.918-.035 1.509 0 .01-.472 2.941-.95 3.613l1.16 7.733c.025.123.471 2.44.387 2.486l3.561.007s1.932-6.845 1.854-6.298l.992-4.078c-.182.151-1.721-7.947-1.721-7.947z"/><g><path fill="#FCEA2B" d="M54.222 15.293a5 5 0 01-4.187.264c-3.029-1.27-6.474-3.82-10.58-4.834-2.849-.7-6.005-.811-8.979 1.267-2.518 1.754-5.229 8.09-4.64 13.479 0 0 .947-2.771 2.89-.291l.6 2.725a19.034 19.034 0 01-.229-3.1c.138-.815.387-.87 1.16-2.545 1.122-2.431.958-3.65.313-4.268.2.052.376.1.51.146 2.97.974 3.671 1.442 4.53 1.734 2.363.801 7.612 1.372 11.53.957-.091.077-.168.13-.219.14.755 2.297 1.59 5.517 1.68 7.989.022.413 2.025.132 2.025.132.036-1.038.003-4.917-.232-9.01 2.542-1.145 3.828-4.785 3.828-4.785z"/></g><g><path fill="#F1B31C" d="M44.718 41.356a10.902 10.902 0 003.842-7.539 41.7 41.7 0 00.164-6.986 17.079 17.079 0 00-.139-1.53 16.353 16.353 0 00-.2-1.11c-.023-.111-.04-.224-.064-.335-.106-.46-.23-.915-.374-1.364l-.008-.026c-.15-.466-.32-.926-.51-1.38a30.994 30.994 0 01-.931.044 38.209 38.209 0 01-2.575-.004 44.85 44.85 0 01-.79-.033l-.028-.001c-.493-.026-.98-.06-1.46-.101-.104-.009-.208-.017-.31-.027a46.938 46.938 0 01-1.724-.191 39.175 39.175 0 01-1.064-.156 33.704 33.704 0 01-.571-.096l-.308-.055a26.317 26.317 0 01-.788-.16l-.17-.04c-.206-.048-.401-.095-.587-.145l-.193-.051a11.793 11.793 0 01-.624-.189c-.35-.118-1.503-.502-1.92-.684a.073.073 0 01-.004-.001c-.47-.177-2.293-1.146-2.302-1.06-.007.072-.981 5.089-1.178 5.445-.229.413-2.148.618-2.933.371-.028-.008-.769.868-.79.895l-.052.07c-.033.05-.066.103-.098.158l-.007.013a2.389 2.389 0 00-.096.19v.002a8.287 8.287 0 00.132 2.193c.006.032.018.062.025.094.068.326.15.648.257.964.12.35.263.694.43 1.028.26.44.594.643.98.878.51.31 1.208.734 1.44 1.748 1.37 5.974 5.537 10.687 9.487 10.728a9.857 9.857 0 006.041-1.557z"/></g><g><path fill="none" stroke="#000" stroke-linecap="round" stroke-linejoin="round" stroke-width="2" d="M47.54 38.189c1.81.623 6.21 2.31 8.356 4.628 2.968 3.205 3.479 13.024 3.534 14.32M12.089 57.137c.303-1.177 3.406-13.074 5.481-15.478 1.938-2.246 10.925-5.9 10.925-5.9l1.526.181M45.952 51.704l-.769 5.433M30.858 57.137l-.532-5.575M20.315 57.137v-9.811M53.505 57.137v-8.921M44.114 47.326l2.91.607-.202-9.13"/><path fill="none" stroke="#000" stroke-linecap="round" stroke-linejoin="round" stroke-width="2" d="M31.14 47.326l-2.439.83.955-13.288M39.683 42.587s1.314.755 1.314 2.308-1.402 3.246-1.402 3.246l1.85 8.996M34.946 57.137l1.624-8.981s-1.15-1.78-1.15-3.284 1.51-2.467 1.51-2.467M50.354 20.576c.353 3.562.705 8.402.115 8.784l-1.148.75"/><path fill="none" stroke="#000" stroke-linecap="round" stroke-linejoin="round" stroke-width="2" d="M46.921 20.967a16.02 16.02 0 011.47 6.057 38.288 38.288 0 01-.15 6.433 10.783 10.783 0 01-3.865 7.534 9.795 9.795 0 01-6.057 1.6c-4.079-.043-8.179-4.6-9.522-10.453-.23-1.006-1.316-.801-2.1-2.143a8.402 8.402 0 01-.862-4.525"/><circle cx="43.199" cy="26.436" r="2"/><circle cx="35.149" cy="26.436" r="2"/><path fill="none" stroke="#000" stroke-linecap="round" stroke-linejoin="round" stroke-miterlimit="10" stroke-width="2" d="M50.035 15.557c-3.029-1.27-6.474-3.82-10.58-4.834-2.849-.7-6.005-.811-8.979 1.267-2.518 1.754-5.229 8.09-4.64 13.479 0 0 .947-2.771 2.89-.291l.6 2.725a19.034 19.034 0 01-.229-3.1c.138-.815.387-.87 1.16-2.545 1.122-2.431.958-3.65.313-4.268.2.052.376.1.51.146 2.97.974 3.671 1.442 4.53 1.734 3.088 1.047 11.113 1.707 14.641.277 2.64-1.068 3.971-4.854 3.971-4.854a5 5 0 01-4.187.264z"/><path fill="none" stroke="#000" stroke-linecap="round" stroke-linejoin="round" stroke-width="2" d="M39.72 33.137h0A1.57 1.57 0 0140.93 35l-.253 1.189a1.57 1.57 0 01-1.863 1.209h0a1.57 1.57 0 01-1.21-1.863l.252-1.19a1.572 1.572 0 011.864-1.208zM25.835 25.469s.948-2.771 2.891-.291l.6 2.725a19.034 19.034 0 01-.229-3.1c.138-.815.387-.87 1.16-2.545 1.122-2.431.958-3.65.313-4.268.2.052.376.1.51.146 2.326.974 3.671 1.442 4.53 1.734 3.088 1.047 11.113 1.707 14.641.277 2.64-1.068 3.971-4.854 3.971-4.854a5 5 0 01-4.187.264c-3.029-1.27-6.474-3.82-10.58-4.834-2.849-.7-6.005-.811-8.979 1.267-2.518 1.754-5.229 8.09-4.64 13.479"/></g></svg><svg viewBox="0 0 72 72" width="72" height="72" id="E182" x="648" y="72" xmlns="http://www.w3.org/2000/svg"><path fill="#A57939" d="M14.375 47.125s.23.076.44.248c1.5 1.23 1.333 2.94 1.333 2.94l1.328 1.468 4.524.594 4.75.188 6.375-.438 3.563 1.125 2.75-1.375s.062-5.844.718-5.844c.75 0 1.782 1.105 1.782 3.969 0 3.125-1.794 6.275-7.938 6-.457-.02.25 1.813.25 1.813l-.938 2.75-2 2.624L31 66.25l-.313.375s-.263.406-.843.406c-2.781 0-3.219-1.469-1.594-2.094.13-.05.375-1.75.375-1.75l-2-2.02-3.917.708-4.125.208.417 1.334-1.708 3.166s1.124.459-.459.459c-.374 0-2.04-.334-2.207-2.459l.624-3.209-1.208-2.041-.833-2-1.917-.5-4.124.624-1.375-1 1.75-1.75L9.219 52.5l3.241-2.168 1.915-3.207z"/><path fill="#6A462F" d="M13.583 59.71l1.667 1.664c-.125 1-2.071.821-2.146 1.647-.104 1.166.523.835.485 1.69-.082 1.842-2.435 1.769-3.03 1.187-.384-.376-.309-.792.149-2.147.843-2.493 2.354-4.25 2.354-4.25l.521.209z"/><g fill="#FCEA2B"><circle cx="54.969" cy="8.094" r="3"/><path d="M61.267 51.642L59.135 38.14l-.082-.005L60 37l-.611-7.335L60 30l-1.43-10.992C58.284 16.827 56.251 15 54.051 15H54c-2.2 0-4.2 1.83-4.446 4.017L49 23.98l.047.026L49 24l-.65 6.829-5.474 2.535-.709 1.013s.907 2.27 3.377 1.581l2.466-1.568-.06.64L46.013 66l2.16 1 5.976-21.01 3.374 8.655L65.166 65l3-2-6.9-11.358z"/></g><g fill="none" stroke="#000" stroke-miterlimit="10" stroke-width="2"><circle cx="54.969" cy="8.094" r="3"/><path stroke-linecap="round" stroke-linejoin="round" d="M49 35l-3.048 30.01c-.111 1.094.569 1.99 1.51 1.99s1.95-.868 2.238-1.93l5.486-20.115c.29-1.061 1.044-2.667 1.674-3.567l2.2-3.14c.63-.9 1.103-2.537 1.05-3.636l-.492-10.119"/><path stroke-linecap="round" stroke-linejoin="round" d="M59.135 38.14l1.82 11.526c.171 1.087.78 2.745 1.35 3.685l4.824 7.94c.57.94.363 2.16-.462 2.709-.825.55-2.034.276-2.688-.61l-5.268-7.135c-.653-.886-1.515-2.448-1.914-3.473l-2.203-5.653M59.925 29.581l-.633-10.546C59.16 16.839 57.252 15 55.052 15H55c-2.2 0-4.2 1.83-4.446 4.017l-.47 4.213"/><path stroke-linecap="round" stroke-linejoin="round" d="M55.167 20l-3.068 6.444c-.473.993-1.627 2.276-2.566 2.849l-7.595 4.644M13 57l5-5s17-6 23.938-18.063"/><path stroke-linecap="round" stroke-linejoin="round" d="M40 47c2 5-4 8-7 6-.771-.514-3.853-1.315-7-1l-8.328.328L16 51.312M27 58c0 2 1.25 4.501 1.25 4.501S28.633 63.735 28 65c-1 2 2 3 3 1s.832-3.664 1-4c.403-.807 1.999-1.917 2-4v-1M27 60c-2.041 2.001-4.625 2-8 2M14 59c-1.016.929-2 1-3 2s-1 3 0 4"/><path stroke-linecap="round" stroke-linejoin="round" d="M14 48l-1 2s-2.244.3-3 1c-.58.537-1 3-1 3s-2.878 1.593-3 2c-.094.313 1.293 2 2 2 1 0 4-1 4-1 2 0 2 3 3 4 .41.41 0 3-.334 3.959-.68 1.954 2.334 3.041 3.168.875C18.139 65.04 19 63 19 61"/></g></svg><svg viewBox="0 0 72 72" width="72" height="72" id="E181" x="648" y="144" xmlns="http://www.w3.org/2000/svg"><path fill="#A57939" d="M19.093 39.105s.625 1 1 2v3l4.125 6 2.875-2-2.801-5.855s-.926-1.031-1.459-1.27c-1.209-.542-2.001-.501-2.042-.542-.744-.745-.823-.896-1.073-1.271s-.281-1.125-.969-.469"/><g fill="#FCEA2B"><path d="M33.188 25.188L28.3 67h3.3l6.3-27h2.2l-.315 12.8L37.4 67h3.3l4.316-14 1.26-13.125-.526-12.813s3.438 15.188 4.688 16.375 2.874.47 2.874.47L48 21.436l-2.563-5.25-3.874-1.437-10.688 2.313-7 11.812-6.563 7.688s.16.835 2.563.75c1.75-.063 4.792-4.141 5.375-4.896 1.594-2.063 6.406-11.23 8.063-11.292.288-.01 0 3.5-.126 4.063z"/><circle cx="36.969" cy="8.094" r="3"/></g><g fill="none" stroke="#000" stroke-miterlimit="10" stroke-width="2"><circle cx="36.969" cy="8.094" r="3"/><path stroke-linecap="round" stroke-linejoin="round" d="M44 21l2.036 16.89c.132 1.091.153 2.88.048 3.976l-.877 9.143c-.105 1.096-.456 2.851-.78 3.902L41.289 65.09C40.965 66.139 39.958 67 39.051 67c-.908 0-1.5-.888-1.315-1.972l1.713-10.056c.185-1.084.359-2.871.386-3.971l.215-8.602c.027-1.1-.445-1.999-1.05-1.999s-1.307.876-1.56 1.947l-5.38 22.707C31.808 66.124 30.858 67 29.95 67c-.908 0-1.547-.894-1.42-1.986L33.5 22"/><path stroke-linecap="round" stroke-linejoin="round" d="M18 36l1.5-1c.825-.55 2.64-2.94 4.035-5.31l4.93-8.38C29.859 18.94 32.8 16.55 35 16s5.8-1 8-1 4.318 2.228 4.707 4.95l.586 4.1c.389 2.722 1.325 7.113 2.081 9.758L53 43M19 39s.625 1 1 2v3l4.125 6L27 48l-3.333-4.999"/></g></svg><svg viewBox="0 0 72 72" width="72" height="72" id="E148" x="648" y="216" xmlns="http://www.w3.org/2000/svg"><path fill="#f1b31c" d="M20.64 60.065c1.288-1.377 3.555-3.578 4.806-4.914-1.443.88-4.176 3.344-5.572 4.23a45.647 45.647 0 01-5.45-4.735 23.46 23.46 0 008.98-4.119 29.55 29.55 0 01-10.006 2.882A47.579 47.579 0 019.998 48c7.097 1.93 14.815-.912 19.579-5.875a89.68 89.68 0 004.104 2.23 3.18 3.18 0 011.605 1.895c1.733 4.63.723 8.712-2.413 12.38-1.312 1.535-3.269 3.883-4.997 4.923a33.7 33.7 0 01-7.236-3.488z"/><path fill="#a57939" d="M36.257 39.36l-2.572-1.489c.679-1.184 1.336-2.339 2-3.489q7.2-12.471 14.402-24.941c.098-.17.193-.343.3-.507a1.486 1.486 0 012.565 1.502c-.803 1.44-1.64 2.86-2.465 4.29L37.855 36.607c-.519.899-1.042 1.795-1.598 2.752z"/><path fill="#92d3f5" d="M35.026 44.42l-5.081-2.936c.53-.911 1.014-1.806 1.564-2.658a.924.924 0 011.3-.316q1.7.937 3.361 1.942a.931.931 0 01.374 1.287c-.462.903-.996 1.768-1.517 2.68z"/><path fill="#d0cfce" d="M10 18.463h18.227v8.332H10z"/><g><path fill="none" stroke="#000" stroke-linecap="round" stroke-linejoin="round" stroke-width="2" d="M20.64 60.065c1.288-1.377 3.555-3.578 4.806-4.914-1.443.88-4.176 3.344-5.572 4.23a45.647 45.647 0 01-5.45-4.735 23.46 23.46 0 008.98-4.119 29.55 29.55 0 01-10.006 2.882A47.579 47.579 0 019.998 48c7.097 1.93 14.815-.912 19.579-5.875a89.68 89.68 0 004.104 2.23 3.18 3.18 0 011.605 1.895c1.733 4.63.723 8.712-2.413 12.38-1.312 1.535-3.269 3.883-4.997 4.923a33.7 33.7 0 01-7.236-3.488z"/><path fill="none" stroke="#000" stroke-miterlimit="10" stroke-width="2" d="M36.257 39.36l-2.572-1.489c.679-1.184 1.336-2.339 2-3.489q7.2-12.471 14.402-24.941c.098-.17.193-.343.3-.507a1.486 1.486 0 012.565 1.502c-.803 1.44-1.64 2.86-2.465 4.29L37.855 36.607c-.519.899-1.042 1.795-1.598 2.752zM35.026 44.42l-5.081-2.936c.53-.911 1.014-1.806 1.564-2.658a.924.924 0 011.3-.316q1.7.937 3.361 1.942a.931.931 0 01.374 1.287c-.462.903-.996 1.768-1.517 2.68z"/><circle cx="32.93" cy="63.413" r="1.397"/><circle cx="36.147" cy="59.381" r="1.176"/><circle cx="36.147" cy="62.357" r=".934"/><path fill="none" stroke="#000" stroke-linecap="round" stroke-linejoin="round" stroke-width="2" d="M10 18.463h18.227v8.332H10zM11.785 18.463l7.309-7.64 7.278 7.64"/><circle cx="19.113" cy="13.969" r="1.047"/></g></svg><svg viewBox="0 0 72 72" width="72" height="72" id="E147" x="648" y="288" xmlns="http://www.w3.org/2000/svg"><rect x="4.7" y="20.147" rx="3.409" ry="3.409" width="62.599" height="38.705" fill="#d0cfce"/><rect x="31.396" y="10.599" rx="1.557" ry="1.557" width="9.003" height="15.673" fill="#9b9b9a"/><path fill="#9b9b9a" d="M17.403 30.65h37.703a5.747 5.747 0 015.748 5.748v14.304a2.918 2.918 0 01-2.919 2.919H12.783a2.918 2.918 0 01-2.918-2.919V38.19a7.539 7.539 0 017.538-7.538z"/><rect x="11.474" y="31.367" rx="2.918" ry="2.918" width="48" height="19.731" fill="#fff"/><g fill="none" stroke="#000" stroke-width="2"><path stroke-linecap="round" stroke-linejoin="round" d="M40.502 20.647H63.89a3.41 3.41 0 013.41 3.41v31.886a3.41 3.41 0 01-3.41 3.41H8.11a3.41 3.41 0 01-3.41-3.41V24.057a3.41 3.41 0 013.41-3.41h23.286"/><rect x="11.474" y="31.367" rx="2.918" ry="2.918" width="48" height="19.731" stroke-linecap="round" stroke-linejoin="round"/><path stroke-linecap="round" stroke-linejoin="round" d="M52.396 38.141h-4v7h4M48.396 41.641h3M34.396 45.141l-3-7-3 7M29.396 43.465h4M19.396 45.141v-7l5 7v-7M44.396 45.141v-7l-3 6-3-6v7"/><rect x="31.499" y="10.237" rx="1.557" ry="1.557" width="9.003" height="15.673" stroke-miterlimit="10"/></g></svg><svg viewBox="0 0 72 72" width="72" height="72" id="E146" x="648" y="360" xmlns="http://www.w3.org/2000/svg"><path fill="#fcea2b" d="M18.92 47.853a.8.8 0 01-.697-.405c-.234-.413-1.365-2.548-.671-4.01a8.51 8.51 0 00.568-2.588.824.824 0 01.843-.755.8.8 0 01.755.842 10 10 0 01-.721 3.188 3.93 3.93 0 00.618 2.534.8.8 0 01-.695 1.194z"/><path fill="#9b9b9a" d="M7.852 38.578c-.016-.593.002-1.968.002-1.968s.367-.05 5.915-.05c0 0-.182-8.294.108-8.643s11.12-.399 12.434-.407c1.248 0 17.32 2.883 18.846 2.937s5.045.209 11.98.418c0 .632.05 1.288 0 1.537-.762.056-1.587.106-12.048-.098l-17.37-.74s.134 2.428.224 3.687a95.585 95.585 0 0015.79 1.35c7.646 0 10.298-.047 13.405.1.02.569.037 1.205 0 1.836-2.23.155-9.107.104-14.006.045-5.659-.067-30.237-.002-30.994.033-.482.023.13-.086-4.286-.037z"/><path fill="none" d="M15.949 41.412c-.01.002 7.154 1.516 11.608-.287"/><path fill="#9b9b9a" d="M16.137 31.447c.311-.53 6.438-3.117 11.42 0 0 0 .042 8.947-.234 9.798-.004.011-.018.013-.03.01-1.199-.289-.076-1.344-5.48-1.515-4.81.23-5.817 1.032-5.864 1.672s-.123-9.436.188-9.965z"/><path fill="#d0cfce" d="M24.122 30.773s2.639.674 2.928 1.446c.002.77-.29 7.756-.29 7.756a6.143 6.143 0 00-2.73-.885z"/><path fill="#3f3f3f" d="M19.178 28.22l-.004 1.5-1.35.45c-.881.294-1.783.932-1.888 1.664-.3.656-.702.932-.718 1.309s-.008 5.121-.008 5.121-2.846-.02-3.596-.042a16.934 16.934 0 01-3.267-.145 6.414 6.414 0 01.01-.986 26.127 26.127 0 013.302-.03 11.593 11.593 0 002.75-.145c.216-.192-.065-8.164.136-8.35.357-.06 4.633-.346 4.633-.346z"/><path fill="none" d="M24.242 44.313s4.198 1.927 0 4.259c-1.183.657 0 1.93 0 1.93"/><path fill="#fcea2b" d="M22.939 51.348a.798.798 0 01-.587-.256 2.56 2.56 0 01-.718-1.945 1.688 1.688 0 01.916-1.23c.938-.521 1.468-1.053 1.454-1.458-.018-.5-.847-1.116-1.4-1.374a.8.8 0 01.668-1.454c.232.106 2.267 1.088 2.33 2.766.042 1.075-.724 2.057-2.275 2.919a.348.348 0 00-.116.087 1.23 1.23 0 00.314.601.8.8 0 01-.586 1.344z"/><g fill="none"><path stroke="#000" stroke-linecap="round" stroke-linejoin="round" stroke-width="1.6" d="M27.49 31.454h.07l17.53.85c10.46.2 11.28.15 12.05.1a15.28 15.28 0 000-1.54c-6.94-.21-10.46-.36-11.98-.42-1.53-.05-17.6-2.93-18.85-2.93-1.31 0-12.14.05-12.43.4s-.11 8.65-.11 8.65c-5.55 0-5.92.05-5.92.05s-.01 1.37 0 1.96c4.42-.04 4.35-.03 4.83-.05.16-.01 1.37-.01 3.23-.01"/><path stroke="#000" stroke-linecap="round" stroke-linejoin="round" stroke-width="1.6" d="M27.5 38.514c6.39.01 13 .04 15.63.07 4.9.06 11.78.11 14.01-.05.03-.63.02-1.26 0-1.83-3.11-.15-5.76-.1-13.41-.1a87.34 87.34 0 01-15.95-1.63"/><g stroke="#000" stroke-miterlimit="10" stroke-width="1.6"><path d="M19.646 41.914a18.582 18.582 0 007.91-.789M15.949 41.412c-.003 0 .935.128 2.066.319"/><path d="M16.137 31.447c.311-.53 6.438-3.117 11.42 0 0 0 .042 8.947-.234 9.798-.004.011-.018.013-.03.01-1.199-.289-.076-1.344-5.48-1.515-4.81.23-5.817 1.032-5.864 1.672s-.123-9.436.188-9.965z"/></g><path d="M24.116 31.132s2.645.315 2.934 1.087c.002.77-.172 7.584-.172 7.584a6.339 6.339 0 00-2.762-.881z"/><path stroke="#000" stroke-linecap="round" stroke-linejoin="round" stroke-width="1.6" d="M24.438 44.164s4.198 1.927 0 4.258c-1.183.657 0 1.931 0 1.931"/><path d="M23.76 52.395a.798.798 0 01-.586-.256 2.56 2.56 0 01-.718-1.946 1.688 1.688 0 01.916-1.23c.939-.521 1.468-1.052 1.454-1.458-.018-.5-.847-1.116-1.4-1.374a.8.8 0 01.668-1.454c.232.107 2.267 1.088 2.33 2.766.042 1.075-.724 2.057-2.275 2.919a.348.348 0 00-.116.088 1.23 1.23 0 00.314.6.8.8 0 01-.586 1.344z"/><path stroke="#000" stroke-linecap="round" stroke-linejoin="round" stroke-width="1.6" d="M20.39 40.83a9.259 9.259 0 01-.645 2.887c-.552 1.16.644 3.272.644 3.272"/></g></svg><svg viewBox="0 0 72 72" width="72" height="72" id="E144" x="648" y="432" xmlns="http://www.w3.org/2000/svg"><path fill="#FFF" d="M57.041 61.067H14.866a3.912 3.912 0 01-3.913-3.913V14.98a3.912 3.912 0 013.913-3.912H57.04a3.912 3.912 0 013.912 3.912v42.175a3.912 3.912 0 01-3.912 3.913z"/><path fill="#D0CFCE" d="M12.102 59.906A3.738 3.738 0 0014.75 61h42.5A3.75 3.75 0 0061 57.25v-42.5c0-1.036-.42-1.975-1.1-2.654l-47.798 47.81z"/><path fill="#D0CFCE" d="M25.401 46.615A14.953 14.953 0 0121 36c0-8.284 6.716-15 15-15 4.141 0 7.89 1.678 10.605 4.391L25.4 46.615z"/><path fill="#D0CFCE" d="M46.605 25.391A14.953 14.953 0 0151 36c0 8.284-6.716 15-15 15a14.953 14.953 0 01-10.599-4.385"/><g><path fill="none" stroke="#000" stroke-linecap="round" stroke-linejoin="round" stroke-miterlimit="10" stroke-width="2" d="M58 61H14a3 3 0 01-3-3V14a3 3 0 013-3h44a3 3 0 013 3v44a3 3 0 01-3 3z"/><path fill="none" stroke="#000" stroke-linecap="round" stroke-linejoin="round" stroke-miterlimit="10" stroke-width="2" d="M46.605 25.391A14.953 14.953 0 0151 36v0c0 8.284-6.716 15-15 15h0a14.953 14.953 0 01-10.599-4.385"/><circle cx="29.75" cy="36" r="3.75"/><circle cx="42.25" cy="36" r="3.75"/><circle cx="36" cy="36" r="15" fill="none" stroke="#000" stroke-linecap="round" stroke-linejoin="round" stroke-miterlimit="10" stroke-width="2"/></g></svg><svg viewBox="0 0 72 72" width="72" height="72" id="E143" x="648" y="504" xmlns="http://www.w3.org/2000/svg"><path fill="#EA5A47" d="M45 66H27V28h9l9-3z"/><path fill="#D22F27" d="M33 66l12-33v33z"/><path fill="#D0CFCE" d="M45 25v11H27v-8h9zM36 28v7"/><path fill="#F1B31C" d="M35 17.714C35 20.857 33.21 25 31 25s-4-4.143-4-7.286C27 11.887 31 9 31 6c0 3 4 5.429 4 11.714z"/><g fill="none" stroke="#000" stroke-linecap="round" stroke-linejoin="round" stroke-miterlimit="10" stroke-width="2"><path d="M45 66H27V28h9l9-3zM35 17.714C35 20.857 33.21 25 31 25s-4-4.143-4-7.286C27 11.887 31 9 31 6c0 3 4 5.429 4 11.714z"/><path d="M35 17.714C35 20.857 33.21 25 31 25s-4-4.143-4-7.286C27 11.887 31 9 31 6c0 3 4 5.429 4 11.714zM27 35h18M36 28v3"/></g></svg><svg viewBox="0 0 72 72" width="72" height="72" id="E142" x="648" y="576" xmlns="http://www.w3.org/2000/svg"><path fill="#B1CC33" d="M6 41h60v13H6z"/><path fill="#5C9E31" d="M42 41h24v13H31z"/><path fill="#92D3F5" d="M6 18h60v23H6z"/><path fill="#61B2E4" d="M61 18h5v23H42z"/><path fill="#D0CFCE" d="M22 43l11-11 11 11z"/><path fill="#D0CFCE" d="M28.546 43.046l16.5-16.5L60.75 42.25z"/><g fill="none" stroke="#000" stroke-linecap="round" stroke-linejoin="round" stroke-miterlimit="10" stroke-width="2"><path d="M6 18h60v36H6z"/><path d="M44 43H22l11-11 6.998 6.998M39.797 33.203L45 28l15 15H44"/></g></svg><svg viewBox="0 0 72 72" width="72" height="72" id="E141" y="648" xmlns="http://www.w3.org/2000/svg"><g fill="#61b2e4"><path d="M52.167 42.285H19.833V24.13c0-7.831 6.349-14.18 14.18-14.18h4.1c7.762 0 14.054 6.292 14.054 14.054v18.28zM61 55.02h-8.833V28h3.783A5.05 5.05 0 0161 33.05v21.97zM19.833 42.285h32.333v12.736H19.833z"/><path d="M52.167 42.285H19.833v-3.35a3.913 3.913 0 013.914-3.914H47.43a4.737 4.737 0 014.737 4.737v2.526z"/><path d="M11 55.02h8.833V28H16.05A5.05 5.05 0 0011 33.05v21.97z"/></g><path fill="none" stroke="#000" stroke-linecap="round" stroke-linejoin="round" stroke-miterlimit="10" stroke-width="2" d="M52.167 42.285H19.833V24.13c0-7.831 6.349-14.18 14.18-14.18h4.1c7.762 0 14.054 6.292 14.054 14.054v18.28zM61 55.02h-8.833V28h3.783A5.05 5.05 0 0161 33.05v21.97zM19.833 42.285h32.333v12.736H19.833z"/><path fill="none" stroke="#000" stroke-linecap="round" stroke-linejoin="round" stroke-miterlimit="10" stroke-width="2" d="M52.167 42.285H19.833v-3.35a3.913 3.913 0 013.914-3.914H47.43a4.737 4.737 0 014.737 4.737v2.526z"/><path fill="none" stroke="#000" stroke-linecap="round" stroke-linejoin="round" stroke-miterlimit="10" stroke-width="2" d="M11 55.02h8.833V28H16.05A5.05 5.05 0 0011 33.05v21.97z"/><circle cx="29.769" cy="18.709" r="1.167"/><circle cx="42.559" cy="18.709" r="1.167"/><circle cx="29.769" cy="27.438" r="1.167"/><circle cx="42.559" cy="27.438" r="1.167"/></svg><svg viewBox="0 0 72 72" width="72" height="72" id="E140" x="72" y="648" xmlns="http://www.w3.org/2000/svg"><path fill="#9B9B9A" d="M45.5 25.1h-3.75c0-3.18-2.57-5.75-5.75-5.75s-5.75 2.57-5.75 5.75H26.5c0-5.25 4.25-9.5 9.5-9.5s9.5 4.25 9.5 9.5z"/><path fill="#D0CFCE" d="M10.83 25.1H61V56H10.83z"/><path fill="#EA5A47" d="M38.92 36.76h4.874v6.584H38.92l.042-.042v4.875h-6.583v-4.876"/><path fill="#EA5A47" d="M32.336 43.344h-4.792V36.76h4.792l.042-.041v-4.792h6.583v4.792"/><g fill="none" stroke="#000" stroke-linecap="round" stroke-linejoin="round" stroke-miterlimit="10" stroke-width="2"><path d="M45.5 25.1h-3.75c0-3.18-2.57-5.75-5.75-5.75s-5.75 2.57-5.75 5.75H26.5c0-5.25 4.25-9.5 9.5-9.5s9.5 4.25 9.5 9.5z"/><path d="M30.25 25.1c0-3.18 2.57-5.75 5.75-5.75s5.75 2.57 5.75 5.75M10.83 25.1H61V56H10.83z"/><path d="M38.92 36.76h4.874v6.584H38.92l.042-.042v4.875h-6.583v-4.876"/><path d="M32.336 43.344h-4.792V36.76h4.792l.042-.041v-4.792h6.583v4.792"/></g></svg></svg>