<?xml version="1.0" encoding="utf-8"?><svg width="216" height="216" viewBox="0 0 216 216" xmlns="http://www.w3.org/2000/svg" xmlns:xlink="http://www.w3.org/1999/xlink"><svg viewBox="0 0 72 72" width="72" height="72" id="1F3F4-200D-2620-FE0F" xmlns="http://www.w3.org/2000/svg"><path fill="#61b2e4" d="M37 35v2h-2v-2h2m1-1h-4v4h4v-4z"/><path d="M5 17h62v38H5z"/><rect x="39.5" y="46.5" rx="1" width="2" height="3.5"/><path fill="#fff" d="M44.654 26.163a14.818 14.818 0 00-5.348-2.573l-.027-.088a10.87 10.87 0 00-2.934-.41 11.102 11.102 0 00-2.115.205 10.817 10.817 0 00-6.208 3.957 11.932 11.932 0 00.477 15.01l.068.068A4.494 4.494 0 0130 44.925v2.865a.538.538 0 01-.546.546 14.189 14.189 0 004.025 1.433c1.937.423 5.418-.026 7.705-.562-.062.264-.115.53-.184.793 1.389-.341 1.744-1.118 3.046-1.664a.62.62 0 01-.694-.546l-.087-2.797c0-.955 1.041-1.842 1.736-2.456.087-.068.173-.205.26-.273 5.208-4.708 4.948-11.667-.607-16.101z"/><path fill="#3f3f3f" d="M44.249 48.79a1 1 0 01-.999-.975l-.073-2.865a4.328 4.328 0 011.611-2.757l.27-.277a10.434 10.434 0 002.94-7.406 11.084 11.084 0 00-11.124-11.031 13.436 13.436 0 00-2.242.19 10.943 10.943 0 00-5.866 18.251c.767.805 1.732 1.817 1.732 3.004v2.866a1 1 0 01-2 0v-2.866c0-.386-.782-1.207-1.116-1.557l-.073-.077a12.943 12.943 0 016.961-21.587 15.461 15.461 0 012.604-.224 13.08 13.08 0 0113.123 13.007 12.415 12.415 0 01-3.485 8.804l-.305.311c-.28.282-1.024 1.032-1.03 1.323l.073 2.84a1 1 0 01-.974 1.026z"/><path fill="#3f3f3f" d="M32.438 51.063a.5.5 0 01-.5-.5v-2.728a.5.5 0 011 0v2.728a.5.5 0 01-.5.5zM35.438 51.063a.5.5 0 01-.5-.5v-2.728a.5.5 0 011 0v2.728a.5.5 0 01-.5.5zM38.438 51.063a.5.5 0 01-.5-.5v-2.728a.5.5 0 011 0v2.728a.5.5 0 01-.5.5zM41.438 51.063a.5.5 0 01-.5-.5v-2.728a.5.5 0 011 0v2.728a.5.5 0 01-.5.5zM35.373 44.806a.5.5 0 01-.445-.727l1.705-3.343a.498.498 0 01.43-.273.478.478 0 01.446.245l1.979 3.343a.5.5 0 01-.862.51L37.11 42l-1.292 2.534a.5.5 0 01-.445.272z"/><circle cx="32.439" cy="38.716" r="3" fill="#3f3f3f"/><circle cx="41.786" cy="38.716" r="3" fill="#3f3f3f"/><path fill="#fff" d="M50.608 26.095l1.638-1.638s1.296 1.228 2.25.955a1.89 1.89 0 001.365-2.046 2.466 2.466 0 00-3.001-1.774 2.739 2.739 0 00-.614-2.73 2.34 2.34 0 00-3.411.615C48.016 20.773 49.926 22 49.926 22l-1.5 1.501"/><path fill="#3f3f3f" d="M50.608 26.595a.5.5 0 01-.353-.854l1.636-1.637a.501.501 0 01.698-.01c.356.336 1.253.987 1.771.838a1.399 1.399 0 001.008-1.484 1.476 1.476 0 00-.622-.979 2.36 2.36 0 00-1.8-.385.5.5 0 01-.57-.621 2.265 2.265 0 00-.465-2.229 1.51 1.51 0 00-1.24-.363 2.107 2.107 0 00-1.416.877c-.54.856.928 1.823.943 1.833a.5.5 0 01.082.773l-1.501 1.501a.5.5 0 01-.707-.707l1.097-1.098a2.208 2.208 0 01-.758-2.84 3.122 3.122 0 012.122-1.33 2.522 2.522 0 012.043.608 3.058 3.058 0 01.886 2.559 3.264 3.264 0 011.88.619 2.47 2.47 0 011.016 1.638 2.371 2.371 0 01-1.723 2.59 2.962 2.962 0 01-2.36-.758l-1.313 1.312a.498.498 0 01-.354.147z"/><path fill="#fff" d="M23.821 43.97l-1.978 1.978a2.029 2.029 0 00-2.388-1.024 1.89 1.89 0 00-1.365 2.047 2.466 2.466 0 003.002 1.774 2.739 2.739 0 00.614 2.73 2.27 2.27 0 003.411-.615c.341-.75.137-1.57-.955-2.388l1.433-1.432"/><path fill="#3f3f3f" d="M23.12 52.5a2.616 2.616 0 01-1.745-.651 3.057 3.057 0 01-.885-2.558 3.264 3.264 0 01-1.88-.621 2.464 2.464 0 01-1.016-1.637 2.371 2.371 0 011.723-2.59 2.513 2.513 0 012.591.733l1.56-1.56a.5.5 0 01.707.707L22.196 46.3a.495.495 0 01-.425.141.502.502 0 01-.369-.257 1.524 1.524 0 00-1.81-.78 1.399 1.399 0 00-1.008 1.484 1.476 1.476 0 00.62.978 2.36 2.36 0 001.802.386.485.485 0 01.455.154.5.5 0 01.114.467 2.265 2.265 0 00.465 2.227 1.775 1.775 0 002.624-.452c.097-.214.399-.877-.802-1.776a.5.5 0 01-.053-.754l1.432-1.433a.5.5 0 01.707.707L24.9 48.441a2.187 2.187 0 01.672 2.626 2.64 2.64 0 01-1.867 1.371 2.867 2.867 0 01-.586.062z"/><g><path fill="#fff" d="M23.48 26.163l-1.706-1.706s-1.296 1.228-2.251.955a1.89 1.89 0 01-1.364-2.046 2.466 2.466 0 013.001-1.774 2.739 2.739 0 01.614-2.73 2.34 2.34 0 013.411.615C26.004 20.773 24.094 22 24.094 22c.204.205.818.75 1.637 1.638"/><path fill="#3f3f3f" d="M23.48 26.663a.498.498 0 01-.353-.146l-1.382-1.382a2.955 2.955 0 01-2.358.759 2.377 2.377 0 01-1.722-2.61 2.46 2.46 0 011.013-1.619 3.264 3.264 0 011.88-.619 3.053 3.053 0 01.882-2.555 2.52 2.52 0 012.047-.611 3.123 3.123 0 012.12 1.327 2.204 2.204 0 01-.747 2.834c.306.292.733.71 1.239 1.259a.5.5 0 11-.735.677c-.611-.662-1.105-1.129-1.4-1.408l-.223-.215a.5.5 0 01.082-.773c.014-.01 1.483-.977.94-1.837a2.105 2.105 0 00-1.413-.873 1.509 1.509 0 00-1.244.367 2.235 2.235 0 00-.462 2.225.5.5 0 01-.115.467.493.493 0 01-.455.155 2.352 2.352 0 00-1.8.384 1.467 1.467 0 00-.62.959 1.404 1.404 0 001.007 1.504c.508.149 1.413-.502 1.77-.838a.5.5 0 01.697.01l1.706 1.706a.5.5 0 01-.353.854z"/></g><g><path fill="#fff" d="M50.199 44.106c1.023.955 1.637 1.637 1.842 1.842a2.029 2.029 0 012.388-1.023 1.89 1.89 0 011.364 2.046 2.465 2.465 0 01-3.002 1.774 2.739 2.739 0 01-.614 2.73 2.27 2.27 0 01-3.411-.615c-.341-.75-.136-1.57.955-2.388L48.29 47.04"/><path fill="#3f3f3f" d="M50.765 52.5a2.869 2.869 0 01-.587-.061 2.641 2.641 0 01-1.865-1.368 2.19 2.19 0 01.67-2.63l-1.048-1.048a.5.5 0 01.707-.707l1.433 1.434a.5.5 0 01-.055.753c-1.199.9-.898 1.562-.8 1.78a1.776 1.776 0 002.627.445 2.261 2.261 0 00.46-2.224.5.5 0 01.115-.467.489.489 0 01.455-.154 2.372 2.372 0 001.802-.386 1.47 1.47 0 00.618-.958 1.402 1.402 0 00-1.006-1.504 1.526 1.526 0 00-1.81.78.5.5 0 01-.794.117l-.219-.227c-.292-.308-.837-.88-1.61-1.604a.5.5 0 11.682-.73 36.03 36.03 0 011.444 1.425 2.506 2.506 0 012.581-.723 2.376 2.376 0 011.72 2.61 2.459 2.459 0 01-1.012 1.617 3.271 3.271 0 01-1.88.62 3.054 3.054 0 01-.882 2.555 2.629 2.629 0 01-1.746.655z"/></g><g><path d="M67 56H5a1 1 0 01-1-1V17a1 1 0 011-1h62a1 1 0 011 1v38a1 1 0 01-1 1zM6 54h60V18H6z"/></g></svg><svg viewBox="0 0 72 72" width="72" height="72" id="1F3F3-FE0F-200D-26A7-FE0F" x="72" xmlns="http://www.w3.org/2000/svg"><path fill="#92d3f5" d="M6 46.8h60V54H6z"/><path fill="#ffa7c0" d="M6 39.6h60v7.2H6z"/><path fill="#fff" d="M6 32.4h60v7.2H6z"/><path fill="#ffa7c0" d="M6 25.2h60v7.2H6z"/><path fill="#92d3f5" d="M6 18h60v7.2H6z"/><g><path fill="none" stroke="#000" stroke-linecap="round" stroke-linejoin="round" stroke-width="2" d="M5 17h62v38H5z"/></g></svg><svg viewBox="0 0 72 72" width="72" height="72" id="1F3F3-FE0F-200D-1F308" y="72" xmlns="http://www.w3.org/2000/svg"><path fill="#b399c8" d="M5 48h62v6.2H5z"/><path fill="#92d3f5" d="M5 42h62v6H5z"/><path fill="#b1cc33" d="M5 36h62v6H5z"/><path fill="#fcea2b" d="M5 30h62v6H5z"/><path fill="#f4aa41" d="M5 24h62v6H5z"/><path fill="#ea5a47" d="M5 17.8h62V24H5z"/><g><path fill="none" stroke="#000" stroke-linecap="round" stroke-linejoin="round" stroke-width="2" d="M5 17h62v38H5z"/></g></svg><svg viewBox="0 0 72 72" width="72" height="72" id="1F3F3" x="72" y="72" xmlns="http://www.w3.org/2000/svg"><g fill="#FFF"><path d="M22.302 17.488c2.958-1.798 8.635-4.233 14.78-1.488 3.783 1.69 5.778 4.698 15.422 4.114A1.414 1.414 0 0154 21.524V36.65c0 .623-.434 1.077-.99 1.354-1.995.996-7.454.935-15.927-3.004-3.45-1.604-8.787-2.568-14.824 1.442"/><path d="M23.084 17.488C25.97 15.69 31.506 13.255 37.5 16c3.689 1.69 5.634 4.698 15.04 4.114.79-.049 1.46.597 1.46 1.41V36.65c0 .623-.423 1.077-.965 1.354C51.088 39 45.764 38.94 37.5 35c-3.365-1.604-8.57-2.568-14.458 1.442"/></g><g fill="none" stroke="#000" stroke-linecap="round" stroke-miterlimit="10" stroke-width="2"><path stroke-linejoin="round" d="M23.084 17.488C25.97 15.69 31.506 13.255 37.5 16c3.689 1.69 5.634 4.698 15.04 4.114.79-.049 1.46.597 1.46 1.41V36.65c0 .623-.423 1.077-.965 1.354C51.088 39 45.764 38.94 37.5 35c-3.365-1.604-8.57-2.568-14.458 1.442"/><path d="M19.327 12.875v46.96"/></g></svg><svg viewBox="0 0 72 72" width="72" height="72" id="1F3F4" x="144" xmlns="http://www.w3.org/2000/svg"><path d="M22.302 17.488c2.958-1.798 8.635-4.233 14.78-1.488 3.783 1.69 5.778 4.698 15.422 4.114A1.414 1.414 0 0154 21.524V36.65c0 .623-.434 1.077-.99 1.354-1.995.996-7.454.935-15.927-3.004-3.45-1.604-8.787-2.568-14.824 1.442"/><path fill="none" stroke="#000" stroke-linecap="round" stroke-linejoin="round" stroke-miterlimit="10" stroke-width="2" d="M23.084 17.488C25.97 15.69 31.506 13.255 37.5 16c3.689 1.69 5.634 4.698 15.04 4.114.79-.049 1.46.597 1.46 1.41V36.65c0 .623-.423 1.077-.965 1.354C51.088 39 45.764 38.94 37.5 35c-3.365-1.604-8.57-2.568-14.458 1.442"/><path fill="none" stroke="#000" stroke-linecap="round" stroke-miterlimit="10" stroke-width="2" d="M19.327 12.875v46.96"/></svg><svg viewBox="0 0 72 72" width="72" height="72" id="1F38C" x="144" y="72" xmlns="http://www.w3.org/2000/svg"><path fill="#fff" d="M6.84 25.478l19.85-9.489 6.47 13.533-19.85 9.489zM58.53 39.011l-19.848-9.489 6.47-13.533L65 25.478z"/><circle cx="20" cy="27.5" r="2.5"/><circle cx="51.841" cy="27.5" r="2.5"/><g><g fill="none" stroke="#000" stroke-linecap="round" stroke-linejoin="round" stroke-width="2"><path d="M46 56L27 16M6.84 25.478l19.85-9.489 6.47 13.533-19.85 9.489zM25.841 56l19-40M58.53 39.011l-19.848-9.489 6.47-13.533L65 25.478z"/></g></g><g fill="#d22f27"><circle cx="20" cy="27.5" r="2.5"/><circle cx="51.841" cy="27.5" r="2.5"/></g></svg><svg viewBox="0 0 72 72" width="72" height="72" id="1F6A9" y="144" xmlns="http://www.w3.org/2000/svg"><path fill="#d22f27" d="M67 24l-31 9.5L5 43V5l31 9.5L67 24z"/><g fill="none" stroke="#000" stroke-linecap="round" stroke-linejoin="round" stroke-width="2"><path d="M67 24l-31 9.5L5 43V5l31 9.5L67 24zM5 5v62"/></g></svg><svg viewBox="0 0 72 72" width="72" height="72" id="1F3C1" x="72" y="144" xmlns="http://www.w3.org/2000/svg"><g fill="#FFF"><path d="M22.358 17.268h6.002v6.002h-6.002zM28.36 33.893l-6.002 1.38v-6.002h6.002zM28.36 23.27h6.002v6.002H28.36zM34.361 17.268h6.002v6.002h-6.002zM28.36 14.987h6.002v2.281H28.36zM40.363 35.273l-6.002-1.451v-4.55h6.002zM40.363 23.27h6.002v6.002h-6.002zM46.365 20.269h6.002v3.001h-6.002zM46.365 29.271h6.002v6.002h-6.002z"/><path d="M52.367 23.27h1.744v6.002h-1.744zM40.363 35.273h6.002v1.931h-6.002zM52.367 35.273h2.113v2.404h-2.113z"/></g><path d="M22.358 23.27h6.002v6.002h-6.002zM28.36 17.268h6.002v6.002H28.36zM28.36 29.271h6.002v5.14H28.36zM28.36 17.268h-6.002l.684-.621 5.317-.62zM40.363 17.268h-6.002v-1.62l6.002.973z"/><path d="M34.361 23.27h6.002v6.002h-6.002zM46.365 23.27h-6.002v-4.624l6.002 1.321zM40.363 29.271h6.002v6.002h-6.002zM46.365 23.27h6.002v6.002h-6.002zM52.367 20.309h1.744v2.96h-1.744z"/><path d="M52.367 29.271h1.909v6.002h-1.909zM46.365 35.273h6.002v3.474h-6.002z"/><path fill="none" stroke="#000" stroke-linecap="round" stroke-linejoin="round" stroke-miterlimit="10" stroke-width="2" d="M23.084 17.488C25.97 15.69 31.506 13.255 37.5 16c3.689 1.69 5.634 4.698 15.04 4.114.79-.049 1.46.597 1.46 1.41V36.65c0 .623-.423 1.077-.965 1.354C51.088 39 45.764 38.94 37.5 35c-3.365-1.604-8.57-2.568-14.458 1.442"/><path fill="none" stroke="#000" stroke-linecap="round" stroke-miterlimit="10" stroke-width="2" d="M19.327 12.875v46.96"/></svg></svg>