<?xml version="1.0" encoding="utf-8"?><svg width="216" height="144" viewBox="0 0 216 144" xmlns="http://www.w3.org/2000/svg" xmlns:xlink="http://www.w3.org/1999/xlink"><svg viewBox="0 0 72 72" width="72" height="72" id="1F3F3" xmlns="http://www.w3.org/2000/svg"><g fill="#FFF"><path d="M22.302 17.488c2.958-1.798 8.635-4.233 14.78-1.488 3.783 1.69 5.778 4.698 15.422 4.114A1.414 1.414 0 0154 21.524V36.65c0 .623-.434 1.077-.99 1.354-1.995.996-7.454.935-15.927-3.004-3.45-1.604-8.787-2.568-14.824 1.442"/><path d="M23.084 17.488C25.97 15.69 31.506 13.255 37.5 16c3.689 1.69 5.634 4.698 15.04 4.114.79-.049 1.46.597 1.46 1.41V36.65c0 .623-.423 1.077-.965 1.354C51.088 39 45.764 38.94 37.5 35c-3.365-1.604-8.57-2.568-14.458 1.442"/></g><g fill="none" stroke="#000" stroke-linecap="round" stroke-miterlimit="10" stroke-width="2"><path stroke-linejoin="round" d="M23.084 17.488C25.97 15.69 31.506 13.255 37.5 16c3.689 1.69 5.634 4.698 15.04 4.114.79-.049 1.46.597 1.46 1.41V36.65c0 .623-.423 1.077-.965 1.354C51.088 39 45.764 38.94 37.5 35c-3.365-1.604-8.57-2.568-14.458 1.442"/><path d="M19.327 12.875v46.96"/></g></svg><svg viewBox="0 0 72 72" width="72" height="72" id="1F3F4" x="72" xmlns="http://www.w3.org/2000/svg"><path d="M22.302 17.488c2.958-1.798 8.635-4.233 14.78-1.488 3.783 1.69 5.778 4.698 15.422 4.114A1.414 1.414 0 0154 21.524V36.65c0 .623-.434 1.077-.99 1.354-1.995.996-7.454.935-15.927-3.004-3.45-1.604-8.787-2.568-14.824 1.442"/><path fill="none" stroke="#000" stroke-linecap="round" stroke-linejoin="round" stroke-miterlimit="10" stroke-width="2" d="M23.084 17.488C25.97 15.69 31.506 13.255 37.5 16c3.689 1.69 5.634 4.698 15.04 4.114.79-.049 1.46.597 1.46 1.41V36.65c0 .623-.423 1.077-.965 1.354C51.088 39 45.764 38.94 37.5 35c-3.365-1.604-8.57-2.568-14.458 1.442"/><path fill="none" stroke="#000" stroke-linecap="round" stroke-miterlimit="10" stroke-width="2" d="M19.327 12.875v46.96"/></svg><svg viewBox="0 0 72 72" width="72" height="72" id="1F38C" y="72" xmlns="http://www.w3.org/2000/svg"><path fill="#fff" d="M6.84 25.478l19.85-9.489 6.47 13.533-19.85 9.489zM58.53 39.011l-19.848-9.489 6.47-13.533L65 25.478z"/><circle cx="20" cy="27.5" r="2.5"/><circle cx="51.841" cy="27.5" r="2.5"/><g><g fill="none" stroke="#000" stroke-linecap="round" stroke-linejoin="round" stroke-width="2"><path d="M46 56L27 16M6.84 25.478l19.85-9.489 6.47 13.533-19.85 9.489zM25.841 56l19-40M58.53 39.011l-19.848-9.489 6.47-13.533L65 25.478z"/></g></g><g fill="#d22f27"><circle cx="20" cy="27.5" r="2.5"/><circle cx="51.841" cy="27.5" r="2.5"/></g></svg><svg viewBox="0 0 72 72" width="72" height="72" id="1F6A9" x="72" y="72" xmlns="http://www.w3.org/2000/svg"><path fill="#d22f27" d="M67 24l-31 9.5L5 43V5l31 9.5L67 24z"/><g fill="none" stroke="#000" stroke-linecap="round" stroke-linejoin="round" stroke-width="2"><path d="M67 24l-31 9.5L5 43V5l31 9.5L67 24zM5 5v62"/></g></svg><svg viewBox="0 0 72 72" width="72" height="72" id="1F3C1" x="144" xmlns="http://www.w3.org/2000/svg"><g fill="#FFF"><path d="M22.358 17.268h6.002v6.002h-6.002zM28.36 33.893l-6.002 1.38v-6.002h6.002zM28.36 23.27h6.002v6.002H28.36zM34.361 17.268h6.002v6.002h-6.002zM28.36 14.987h6.002v2.281H28.36zM40.363 35.273l-6.002-1.451v-4.55h6.002zM40.363 23.27h6.002v6.002h-6.002zM46.365 20.269h6.002v3.001h-6.002zM46.365 29.271h6.002v6.002h-6.002z"/><path d="M52.367 23.27h1.744v6.002h-1.744zM40.363 35.273h6.002v1.931h-6.002zM52.367 35.273h2.113v2.404h-2.113z"/></g><path d="M22.358 23.27h6.002v6.002h-6.002zM28.36 17.268h6.002v6.002H28.36zM28.36 29.271h6.002v5.14H28.36zM28.36 17.268h-6.002l.684-.621 5.317-.62zM40.363 17.268h-6.002v-1.62l6.002.973z"/><path d="M34.361 23.27h6.002v6.002h-6.002zM46.365 23.27h-6.002v-4.624l6.002 1.321zM40.363 29.271h6.002v6.002h-6.002zM46.365 23.27h6.002v6.002h-6.002zM52.367 20.309h1.744v2.96h-1.744z"/><path d="M52.367 29.271h1.909v6.002h-1.909zM46.365 35.273h6.002v3.474h-6.002z"/><path fill="none" stroke="#000" stroke-linecap="round" stroke-linejoin="round" stroke-miterlimit="10" stroke-width="2" d="M23.084 17.488C25.97 15.69 31.506 13.255 37.5 16c3.689 1.69 5.634 4.698 15.04 4.114.79-.049 1.46.597 1.46 1.41V36.65c0 .623-.423 1.077-.965 1.354C51.088 39 45.764 38.94 37.5 35c-3.365-1.604-8.57-2.568-14.458 1.442"/><path fill="none" stroke="#000" stroke-linecap="round" stroke-miterlimit="10" stroke-width="2" d="M19.327 12.875v46.96"/></svg></svg>