<?xml version="1.0" encoding="utf-8"?><svg width="288" height="216" viewBox="0 0 288 216" xmlns="http://www.w3.org/2000/svg" xmlns:xlink="http://www.w3.org/1999/xlink"><svg viewBox="0 0 72 72" width="72" height="72" id="1F463" x="72" xmlns="http://www.w3.org/2000/svg"><g fill="#3f3f3f"><path d="M20.02 47.72c-.98-6.527-8.532-22.96-8.477-24.99.159-5.812 11.99-9.897 12.91-6.264.288 1.133 3.103 4.632 1.434 8.267-3.016 6.569 2.844 15.95 5.016 20.55 1.22 2.848-1.218 5.988-4.224 6.661-3.006.673-5.888-.766-6.661-4.224z"/><circle cx="9.976" cy="18.17" r="1"/><circle cx="3.721" cy="18.65" transform="rotate(-27.29)" r="1"/><circle cx="6.459" cy="17.97" r="1" transform="rotate(-30)"/><circle cx="18.1" cy="11.11" r="1"/><path d="M50.18 59.72c.98-6.527 8.894-22.51 8.839-24.53-.159-5.812-12.35-10.35-13.27-6.717-.305 1.196-2.137 4.667-1.547 8.938 1.208 8.747-2.076 15.97-4.178 20.42-1.22 2.848.494 5.445 3.5 6.118 3.006.673 5.888-.766 6.661-4.224z"/><circle cx="60.62" cy="29.62" r="1"/><circle cx="2.941" cy="64.31" transform="rotate(-62.71)" r="1"/><circle cx="6.335" cy="60.32" transform="rotate(-60)" r="1"/><circle cx="52.01" cy="23.42" r="1"/><ellipse cx="52.24" cy="12.96" rx="1.561" ry="2.514" transform="matrix(.982 .1891 -.2732 .9619 0 0)"/><ellipse cx="20.5" cy="15.52" rx="1.561" ry="2.514" transform="matrix(.9675 -.2528 .1682 .9857 0 0)"/></g><g fill="none" stroke="#000" stroke-linecap="round" stroke-linejoin="round" stroke-miterlimit="10"><path stroke-width="2" d="M19.92 47.53c-.98-6.527-8.351-23.23-8.295-25.26.159-5.812 10.49-9.177 12.76-6.249.756.754 1.984 4.935 1.528 9.273-1.062 10.12 1.628 15.72 3.893 19.89 1.22 2.848-.222 5.898-3.228 6.571-3.006.673-5.888-.766-6.661-4.224z"/><circle cx="9.235" cy="18.07" r="1.04" transform="rotate(-1.534)" stroke-width="1.04"/><circle cx="3.285" cy="18.74" r="1.04" transform="rotate(-28.82)" stroke-width="1.04"/><circle cx="5.978" cy="18.35" r="1.04" transform="rotate(-31.53)" stroke-width="1.04"/><circle cx="17.66" cy="11.5" r="1.04" transform="rotate(-1.534)" stroke-width="1.04"/><path stroke-width="2" d="M50.09 59.53c.98-6.527 8.713-22.96 8.658-24.99-.159-5.812-10.79-9.193-12.81-6.392-1.142.898-1.935 5.439-1.647 9.219.66 8.697-1.694 14.58-3.913 19.27-1.22 2.848.041 6.441 3.047 7.114 3.006.673 5.888-.766 6.661-4.224z"/><circle cx="60.55" cy="29.94" r="1.04" stroke-width="1.04"/><circle cx="2.783" cy="64.35" r="1.04" transform="rotate(-62.71)" stroke-width="1.04"/><circle cx="6.263" cy="60.5" r="1.04" transform="rotate(-60)" stroke-width="1.04"/><circle cx="52.26" cy="23.39" r="1.04" stroke-width="1.04"/><ellipse cx="49.94" cy="18.91" rx="1.893" ry="2.332" transform="matrix(.9973 .07399 -.1025 .9947 0 0)" stroke-width="1.155"/><ellipse cx="20.93" cy="12.69" rx="1.888" ry="2.374" transform="rotate(-6.686) skewX(.831)" stroke-width="1.164"/></g></svg><svg viewBox="0 0 72 72" width="72" height="72" id="1FAC2" y="144" xmlns="http://www.w3.org/2000/svg"><g fill="#FCEA2B"><circle cx="35.287" cy="7.96" r="2.966"/><circle cx="29.571" cy="9.632" r="4.009"/><path d="M32.661 16.139s-.212-.047-.418 6.847c-.178 5.967-2.16 19.553-2.16 19.553l-3.076 9.664-3.616 8.394-3.385 5.973-2.422-1.162 2.456-11.38 1.294-6.105.796-11.048-.597-2.92-.166-.862.033-7.598 1.725-6.072 2.621-2.82 6.915-.465z"/><path d="M32.038 18.767s-.166-2.218 2.058-2.984c2.224-.767 3.676-.352 5.75-.174 2.43.09 2.603 3.08 2.603 3.08l.188 15.309-1.216 4.837 3.087 16.558 2.02 8.981-1.683 2.357-2.638-4.827-4.154-12.067-1.964-.113-4.098 15.829-2.357 1.234-1.403-1.796 2.301-19.645 1.506-26.579z"/></g><g fill="none" stroke="#000" stroke-miterlimit="10" stroke-width="2"><circle cx="35.287" cy="7.96" r="3"/><path stroke-linecap="round" stroke-linejoin="round" d="M30.18 12.574a3.001 3.001 0 01-1.291-5.86M32.536 30.634L28.313 64.88c-.134 1.091.526 1.985 1.467 1.985s1.949-.869 2.238-1.93l5.487-20.115c.29-1.062 1.043-2.667 1.674-3.568l2.199-3.139c.63-.9 1.104-2.537 1.05-3.636l-.492-10.12"/><path stroke-linecap="round" stroke-linejoin="round" d="M41.453 38.006l1.82 11.526c.172 1.086.524 2.85.783 3.92l2.422 10.006c.26 1.07-.204 2.394-1.029 2.944-.825.55-1.773.143-2.107-.905l-2.893-9.08a76.587 76.587 0 00-1.334-3.77l-2.203-5.652M41.937 24.359l-.457-5.385M37.148 20.042l-3.96 4.836c-.697.85-2.135 1.788-3.195 2.082L19.316 29.92M22.399 25.566l.896-5.377c.362-2.17 1.862-3.762 3.333-3.538 1.472.224 4.453.121 6.625-.23l9.117-1.472M22.172 39.734l.186-6.951M22.172 39.734l-1.06 9.76c-.066 1.699-.616 3.366-1.012 5.02l-2.382 9.95a1.844 1.844 0 001.663 2.27h0a1.844 1.844 0 001.829-1.12l4.872-13.756"/></g></svg><svg viewBox="0 0 72 72" width="72" height="72" id="1F465" y="72" xmlns="http://www.w3.org/2000/svg"><g fill="#D0CFCE"><path d="M63 61v-8c0-7-4-10-8-10H43c-2.784 0-5.564.506-7 3.75-1.125-3.313-4.216-4.703-7-4.703-5 0-5 .953-12 .953-4 0-8 3-8 10v8M15 26c0 4 .876 6.314 2 8 1.432 2.148 3.706 3 6 3 2.38 0 4.566-.852 6-3 1.123-1.685 2-4 2-8 0-2.148-1.077-9-8-9s-8 5.419-8 9zM41 26c0 4 .876 6.314 2 8 1.432 2.148 3.706 3 6 3 2.38 0 4.566-.852 6-3 1.123-1.685 2-4 2-8 0-2.148-1.077-9-8-9s-8 5.419-8 9z"/></g><g fill="none" stroke="#000" stroke-linejoin="round" stroke-width="2"><path stroke-linecap="round" d="M35 60v-7c0-7 4-10 8-10h12c4 0 8 3 8 10v7M9 60v-7c0-7 4-10 8-10h12c1.531 0 3.06.531 4.367 1.549"/><path d="M15 26c0 4 .876 6.314 2 8 1.432 2.148 3.706 3 6 3 2.38 0 4.566-.852 6-3 1.123-1.685 2-4 2-8 0-2.148-1.077-9-8-9s-8 5.419-8 9zM41 26c0 4 .876 6.314 2 8 1.432 2.148 3.706 3 6 3 2.38 0 4.566-.852 6-3 1.123-1.685 2-4 2-8 0-2.148-1.077-9-8-9s-8 5.419-8 9z"/></g></svg><svg viewBox="0 0 72 72" width="72" height="72" id="1F464" x="72" y="72" xmlns="http://www.w3.org/2000/svg"><g fill="#D0CFCE"><path d="M58 61s0-3-1-7c-1.21-4.846-4-8-10-8H25c-6 0-8.79 3.154-10 8-1 4-1 7-1 7h44zM26 26c0 3.725.54 7.809 2 10 1.861 2.793 5.018 4 8 4 3.096 0 6.137-1.207 8-4 1.46-2.191 2-6.275 2-10 0-2.793-1-12-10-12s-10 7.344-10 12z"/></g><g fill="none" stroke="#000" stroke-linejoin="round" stroke-width="2"><path stroke-linecap="round" d="M58 60s0-2-1-6c-1.21-4.846-4-8-10-8H25c-6 0-8.79 3.154-10 8-1 4-1 6-1 6"/><path d="M26 26c0 3.725.54 7.809 2 10 1.861 2.793 5.018 4 8 4 3.096 0 6.137-1.207 8-4 1.46-2.191 2-6.275 2-10 0-2.793-1-12-10-12s-10 7.344-10 12z"/></g></svg><svg viewBox="0 0 72 72" width="72" height="72" id="1F5E3" x="144" xmlns="http://www.w3.org/2000/svg"><g fill="#D0CFCE"><path d="M58 60.886s0-3-1-7c-1.21-4.846-4-8-10-8H25c-6 0-8.79 3.154-10 8-1 4-1 7-1 7M49 30.597c-1-3 3-3 2-5s-3-2.765-3-5c0-3-1-11-9-11-12.004 0-15 7.343-15 12 0 4.11 2.59 7.18 4 10 2 4 5.153 7.395 7 8.01 4.242 1.414 13 2.347 13-1.01 0-2 1-3.014 1-4l-3-2 3-2z"/></g><g fill="none" stroke="#000" stroke-linejoin="round" stroke-width="2"><path d="M49.273 31.214c-.096-.796-.743-2.11-.618-3.102 0 0 3.906-.713 2.359-2.726-.866-1.128-2.58-3.35-2.477-4.344C49 16.597 47 9.597 38 9.597c-11 0-14 7-14 12 0 5.808 2.988 8 4 11 1.441 4.272 5 7 11 8 3.944.657 10 1 9.398-3-.16-1.065.375-2.417.498-3.397l-2.85-1.377 3.227-1.61z"/><path stroke-linecap="round" d="M54 28.597l2-2M56 31.482h2M54 34l2 2M58 59.886s0-2-1-6c-1.21-4.846-6-8-12-8H28c-6 0-11.79 3.154-13 8-1 4-1 6-1 6"/></g></svg><svg viewBox="0 0 72 72" width="72" height="72" id="1F46A" x="144" y="72" xmlns="http://www.w3.org/2000/svg"><path fill="#92D3F5" d="M11 61V44.955C11 41.665 14.292 39 17.584 39c3.915 3.29 7.83 3.29 11.833 0h13.167c3.914 3.29 7.83 3.29 11.833 0 3.291 0 6.583 2.667 6.583 5.956V61"/><path fill="#B1CC33" d="M26.5 61v-2.533C26.5 56 29.002 54 31.504 54c2.975 2.467 5.95 2.467 8.992 0 2.502 0 5.004 2 5.004 4.467V61"/><g fill="#A57939"><path d="M37.127 38.999h5.457c3.914 3.29 7.83 3.29 11.833 0 1.27 0 2.538.4 3.619 1.076l.344-.163 1.7-2.038c1.957-2.222 1.578-5.904.422-8.66-1.6-3.734-2.045-3.734-2.311-8.535-.09-2.756-2.223-5.067-4.979-5.334 0 0-1.69-2.045-5.334-2.045-4.268 0-8.18 2.312-9.157 5.957-1.067 3.734.177 5.245-.89 8.09-.933 2.4-2.93 3.739-2.91 6.624.007.942.796 3.046 1.462 4.046l.744.982zM13.929 21.39c.533-7.734 6.4-7.823 9.335-7.379.266.09 1.067 0 1.333 0 5.334-.711 8.002 5.334 8.002 8.002 0 .978.225 3.365-1.108 4.699 0 0-3.249-3.721-3.427-5.855 0 0-10.135 3.823-10.846.533 0 0-.711 2.667-1.334 3.379 0 0-.328 2.044-.328 2.667 0 0-1.894-2.667-1.627-6.046z"/><path d="M33.636 42.272c.469 3.363 4.486-.871 4.486-.871.55 1.574 4.426 3.867 4.426 3.867 1.032-.955.526-2.852.372-3.513a5.12 5.12 0 00-5.808-4.115 6.447 6.447 0 01-1.032 0c-2.271-.337-6.03-.148-7.12 4.644-.532 2.338.624 2.984.624 2.984s3.764-5.059 4.052-2.996z"/></g><g fill="#FCEA2B"><path d="M41.12 26.814c0 5.334 3.38 9.335 7.38 9.335s7.38-4.001 7.38-9.336c0-3.378-1.335-5.334-4.002-8-2.667 2.666-10.668 6.045-10.668 7.378l-.09.623zM28.045 20.857S17.91 24.68 17.2 21.39c0 0-.711 2.667-1.334 3.379 0 0-.318 1.983-.327 2.635.459 5.148 3.841 9.2 7.943 9.2 4.286 0 7.782-4.427 7.98-9.903-.104-.12-3.24-3.746-3.416-5.844zM38.123 41.401s-4.018 4.234-4.487.87c-.258-1.846-3.294 2.005-3.929 2.835-.073.335-.123.566-.123.588a6.776 6.776 0 006.489 7.031 6.776 6.776 0 006.488-7.03c0-.03-.059-.227-.15-.51-.678-.414-3.8-2.383-4.288-3.784z"/></g><g><path fill="none" stroke="#000" stroke-miterlimit="10" stroke-width="2" d="M31.5 25.569v.644c0 5.7-3.586 10.39-8 10.39s-8-4.69-8-10.39v-.644"/><path fill="none" stroke="#000" stroke-linecap="round" stroke-linejoin="round" stroke-width="2" d="M13.929 21.39c.533-7.734 6.4-7.823 9.335-7.379.266.09 1.067 0 1.333 0 5.334-.711 8.002 5.334 8.002 8.002 0 .978.225 3.365-1.108 4.699 0 0-3.249-3.721-3.427-5.855 0 0-10.135 3.823-10.846.533 0 0-.711 2.667-1.334 3.379 0 0-.328 2.044-.328 2.667 0 0-1.894-2.667-1.627-6.046zM35.84 33.634c-.032-2.229 1.172-4.18 1.992-6.287 1.067-2.845-.178-4.356.889-8.09.978-3.645 4.89-5.957 9.157-5.957 3.645 0 5.334 2.045 5.334 2.045 2.756.267 4.89 2.578 4.979 5.334.267 4.801.711 4.801 2.311 8.535 1.062 2.533.773 5.366-.799 7.533"/><path fill="none" stroke="#000" stroke-linejoin="round" stroke-miterlimit="10" stroke-width="2" d="M41.12 26.814c0 5.334 3.38 9.335 7.38 9.335s7.38-4.001 7.38-9.336c0-3.378-1.335-5.334-4.002-8-2.667 2.666-10.668 6.045-10.668 7.378l-.09.623h0z"/><path d="M47.25 26.5c0 .714-.536 1.25-1.25 1.25s-1.25-.536-1.25-1.25.536-1.25 1.25-1.25 1.25.536 1.25 1.25M52.25 26.5c0 .714-.536 1.25-1.25 1.25s-1.25-.536-1.25-1.25.536-1.25 1.25-1.25 1.25.536 1.25 1.25"/><path fill="none" stroke="#000" stroke-linecap="round" stroke-linejoin="round" stroke-width="2" d="M46.633 31.533a3.968 3.968 0 003.734 0"/><path d="M22.25 26.5c0 .714-.536 1.25-1.25 1.25s-1.25-.536-1.25-1.25.536-1.25 1.25-1.25 1.25.536 1.25 1.25M27.25 26.5c0 .714-.536 1.25-1.25 1.25s-1.25-.536-1.25-1.25.536-1.25 1.25-1.25 1.25.536 1.25 1.25"/><path fill="none" stroke="#000" stroke-linecap="round" stroke-linejoin="round" stroke-width="2" d="M21.633 31.533a3.968 3.968 0 003.734 0"/><path fill="none" stroke="#000" stroke-linecap="round" stroke-linejoin="round" stroke-width="1.6" d="M26.5 60.2v-1.733C26.5 56 29.002 54 31.504 54c2.975 2.467 5.95 2.467 8.993 0 2.502 0 5.003 2 5.003 4.467V60.2"/><path d="M38.798 45.702a.9.9 0 11-.898-.84.87.87 0 01.898.84z"/><path fill="none" stroke="#000" stroke-linecap="round" stroke-linejoin="round" stroke-width="1.6" d="M34.664 49.186a2.093 2.093 0 002.672 0"/><path d="M34.1 44.862a.9.9 0 11-.898.84.87.87 0 01.898-.84z"/><path fill="none" stroke="#000" stroke-miterlimit="10" stroke-width="1.6" d="M42.55 45.268c.007.141.011.283.011.426a6.776 6.776 0 01-6.488 7.031 6.776 6.776 0 01-6.489-7.03c0-.096.002-.19.005-.285"/><path fill="none" stroke="#000" stroke-linecap="round" stroke-linejoin="round" stroke-width="1.6" d="M33.636 42.272c.47 3.363 4.487-.871 4.487-.871.549 1.574 4.425 3.867 4.425 3.867 1.033-.955.526-2.852.372-3.513a5.12 5.12 0 00-5.808-4.115 6.447 6.447 0 01-1.032 0c-2.27-.337-6.03-.148-7.12 4.644-.532 2.338.624 2.984.624 2.984s3.764-5.059 4.052-2.996z"/><path fill="none" stroke="#000" stroke-linecap="round" stroke-linejoin="round" stroke-miterlimit="10" stroke-width="2" d="M46.257 41.119c2.697.848 5.407.141 8.16-2.12 3.291 0 6.583 2.667 6.583 5.956V60M11 60V44.955C11 41.665 14.292 39 17.584 39c2.682 2.253 5.364 2.963 8.075 2.128"/></g></svg><svg viewBox="0 0 72 72" width="72" height="72" id="1F491" xmlns="http://www.w3.org/2000/svg"><path fill="#92D3F5" d="M38 61v-3.3c0-3.7 3.7-6.7 7.4-6.7 4.4 3.7 8.8 3.7 13.3 0 3.7 0 7.4 3 7.4 6.7V61M6 61v-3.3C6 54 9.7 51 13.4 51c4.4 3.7 8.8 3.7 13.3 0 3.7 0 7.4 3 7.4 6.7V61"/><path fill="#EA5A47" d="M36 11.7c1.1-2.4 4-3.4 6.3-2.2s3.3 4 2.2 6.4c-.1.3-.3.5-.4.7L36 27l-8.1-10.4c-.2-.2-.3-.5-.4-.7-1.1-2.4-.1-5.2 2.2-6.4s5.2-.2 6.3 2.2z"/><path fill="#A57939" d="M41.5 52.1c1.2-.7 2.5-1.1 3.9-1.1 4.4 3.7 8.8 3.7 13.3 0 1.4 0 2.8.4 4 1.2.9-.6 1.7-1.3 2.3-2.2 1.5-2 2-6.7.7-9.8-1.8-4.2-2.3-4.2-2.6-9.6-.1-3.1-2.5-5.7-5.6-6 0 0-1.9-2.3-6-2.3-4.8 0-9.2 2.6-10.3 6.7-1.2 4.2.2 5.9-1 9.1-1.4 3.6-3.6 8.4-1.4 11.9.4.6 1.3 1.4 2.7 2.1zM9.1 31.4c.6-8.7 7.2-8.8 10.5-8.3.3.1 1.2 0 1.5 0 6-.8 9 6 9 9 0 1.1 0 3.8-1.5 5.3 0 0-3.4-4.2-3.6-6.6 0 0-11.4 4.3-12.2.6 0 0-.8 3-1.5 3.8v3s-2.5-3-2.2-6.8z"/><g><path fill="#FCEA2B" d="M43.7 37.3c0 6 3.8 10.5 8.3 10.5s8.3-4.5 8.3-10.5c0-3.8-1.5-6-4.5-9-3 3-12 6.8-12 8.3l-.1.7zM25 30.8s-11.4 4.3-12.2.6c0 0-.8 3-1.5 3.8v3c.6 5.5 4.2 9.8 8.6 9.8 4.6 0 8.4-4.7 8.7-10.6-.3-.4-3.4-4.3-3.6-6.6z"/></g><g><path fill="none" stroke="#000" stroke-miterlimit="10" stroke-width="2" d="M28.6 36.1v.7c0 6.2-3.9 11.3-8.7 11.3s-8.7-5.1-8.7-11.3v-.7"/><path fill="none" stroke="#000" stroke-linecap="round" stroke-linejoin="round" stroke-width="2" d="M9.1 31.4c.6-8.7 7.2-8.8 10.5-8.3.3.1 1.2 0 1.5 0 6-.8 9 6 9 9 0 1.1 0 3.8-1.5 5.3 0 0-3.4-4.2-3.6-6.6 0 0-11.4 4.3-12.2.6 0 0-.8 3-1.5 3.8v3s-2.5-3-2.2-6.8zM36 11.7c1.1-2.4 4-3.4 6.3-2.2s3.3 4 2.2 6.4c-.1.3-.3.5-.4.7L36 27l-8.1-10.4c-.2-.2-.3-.5-.4-.7-1.1-2.4-.1-5.2 2.2-6.4s5.2-.2 6.3 2.2h0zM39.4 49.4c-3-4.5-.6-7.7.8-11.3 1.2-3.2-.2-4.9 1-9.1 1.1-4.1 5.5-6.7 10.3-6.7 4.1 0 6 2.3 6 2.3 3.1.3 5.5 2.9 5.6 6 .3 5.4.8 5.4 2.6 9.6 1.3 3.1.8 6.6-1.4 9.1"/><path fill="none" stroke="#000" stroke-linejoin="round" stroke-miterlimit="10" stroke-width="2" d="M43.7 37.5c0 6 3.8 10.5 8.3 10.5s8.3-4.5 8.3-10.5c0-3.8-1.5-6-4.5-9-3 3-12 6.8-12 8.3l-.1.7h0z"/><path fill="none" stroke="#000" stroke-linecap="round" stroke-linejoin="round" stroke-width="2" d="M38 60v-2.3c0-3.7 3.7-6.7 7.4-6.7 4.4 3.7 8.8 3.7 13.3 0 3.7 0 7.4 3 7.4 6.7V60M6 60v-2.3C6 54 9.7 51 13.4 51c4.4 3.7 8.8 3.7 13.3 0 3.7 0 7.4 3 7.4 6.7V60"/><path d="M56.2 37.2c0 .8-.6 1.4-1.4 1.4-.8 0-1.4-.6-1.4-1.4 0-.8.6-1.4 1.4-1.4.8 0 1.4.6 1.4 1.4M50.6 37.2c0 .8-.6 1.4-1.4 1.4s-1.4-.6-1.4-1.4c0-.8.6-1.4 1.4-1.4s1.4.6 1.4 1.4"/><path fill="none" stroke="#000" stroke-linecap="round" stroke-linejoin="round" stroke-width="2" d="M49.9 42.9c1.3.7 2.9.7 4.2 0"/><path d="M24.2 37.4c0 .8-.6 1.4-1.4 1.4s-1.4-.6-1.4-1.4c0-.8.6-1.4 1.4-1.4s1.4.7 1.4 1.4M18.6 37.4c0 .8-.6 1.4-1.4 1.4s-1.4-.6-1.4-1.4c0-.8.6-1.4 1.4-1.4s1.4.7 1.4 1.4"/><path fill="none" stroke="#000" stroke-linecap="round" stroke-linejoin="round" stroke-width="2" d="M17.9 43.2c1.3.7 2.9.7 4.2 0"/></g></svg><svg viewBox="0 0 72 72" width="72" height="72" id="1F48F" x="72" y="144" xmlns="http://www.w3.org/2000/svg"><path fill="#EA5A47" d="M36 14.7c1.1-2.4 4-3.4 6.3-2.2s3.3 4 2.2 6.4c-.1.3-.3.5-.4.7L36 30l-8.1-10.4c-.2-.2-.3-.5-.4-.7-1.1-2.4-.1-5.2 2.2-6.4s5.2-.2 6.3 2.2z"/><path fill="#A57939" d="M9.5 35.8c.6-8.8 7.3-8.9 10.6-8.3.3.1 1.2 0 1.5 0 6.1-.8 9.1 6.1 9.1 9.1 0 1.1 0 3.8-1.5 5.3 0 0-3.5-4.2-3.6-6.6 0 0-11.5 4.4-12.3.6 0 0-.8 3-1.5 3.8v3c0-.1-2.6-3.2-2.3-6.9zM38.7 55c-3-4.5-.6-8.8.8-12.3 1.2-3.2-.2-4.9 1-9.1 1.1-4.2 5.5-6.8 10.4-6.8 4.1 0 6.1 2.3 6.1 2.3 3.2.3 5.6 2.9 5.6 6.1.3 5.4.8 5.4 2.6 9.7 1.3 3.1.8 7.6-1.4 10.2"/><path fill="#FCEA2B" d="M25.6 35.3s-11.5 4.4-12.3.6c0 0-.735 2.752-1.413 3.685-.051.497-.087 1-.087 1.515 0 6.24 3.895 11.3 8.7 11.3 4.606 0 8.367-4.653 8.67-10.536-.3-.365-3.475-4.277-3.57-6.564zM43.2 41.9c0 6.1 3.8 10.6 8.3 10.6s8.3-4.5 8.3-10.6c0-3.8-1.5-6.1-4.5-9.1-3 3-12.1 6.8-12.1 8.3v.8z"/><g fill="none" stroke="#000" stroke-width="2"><path stroke-miterlimit="10" d="M29.2 40.2v.9c0 6.3-3.9 11.3-8.7 11.3s-8.7-5.1-8.7-11.3v-.7"/><path stroke-linecap="round" stroke-linejoin="round" d="M20.2 47.4c.6.7 1.4.7 2.1 0"/><path stroke-linecap="round" stroke-miterlimit="10" d="M22.5 41.8s1.5 1.5 3 0M14.9 41.1s1.5 1.5 3 0"/><path stroke-linecap="round" stroke-linejoin="round" d="M9.5 35.8c.6-8.8 7.3-8.9 10.6-8.3.3.1 1.2 0 1.5 0 6.1-.8 9.1 6.1 9.1 9.1 0 1.1 0 3.8-1.5 5.3 0 0-3.5-4.2-3.6-6.6 0 0-11.5 4.4-12.3.6 0 0-.8 3-1.5 3.8v3c0-.1-2.6-3.2-2.3-6.9zM36 14.7c1.1-2.4 4-3.4 6.3-2.2s3.3 4 2.2 6.4c-.1.3-.3.5-.4.7L36 30l-8.1-10.4c-.2-.2-.3-.5-.4-.7-1.1-2.4-.1-5.2 2.2-6.4s5.2-.2 6.3 2.2h0zM38.7 54c-3-4.5-.6-7.8.8-11.3 1.2-3.2-.2-4.9 1-9.1 1.1-4.2 5.5-6.8 10.4-6.8 4.1 0 6.1 2.3 6.1 2.3 3.2.3 5.6 2.9 5.6 6.1.3 5.4.8 5.4 2.6 9.7 1.3 3.1.8 6.6-1.4 9.2"/><path stroke-linejoin="round" stroke-miterlimit="10" d="M43.2 41.9c0 6.1 3.8 10.6 8.3 10.6s8.3-4.5 8.3-10.6c0-3.8-1.5-6.1-4.5-9.1-3 3-12.1 6.8-12.1 8.3v.8z"/><path stroke-linecap="round" stroke-linejoin="round" d="M49.2 47.4c.6.8 1.4.8 2.1 0"/><path stroke-linecap="round" stroke-miterlimit="10" d="M53.9 41.1s1.5 1.5 3 0M46.3 41.8s1.5 1.5 3 0"/></g></svg><svg viewBox="0 0 72 72" width="72" height="72" id="1F46C" x="144" y="144" xmlns="http://www.w3.org/2000/svg"><g fill="#FCEA2B"><circle cx="47" cy="11" r="3"/><path d="M52 23.6l1.9 38.2c.1 1.1-.7 1.8-1.5 1.8s-1.4-.6-1.5-1.3L48.2 39c-.1-.6-.5-1.1-1.2-1.1s-1.1.5-1.2 1.1l-2.7 23.3c-.1.7-.7 1.3-1.5 1.3s-1.6-.7-1.5-1.8L42 23.6"/><path d="M56 42.9c-3.3 0-5.5-18.3-9-18.3s-7.2 18.3-11 18.3c0 0 2.1-5.7 2.5-10.6.2-2.5.3-9.3.3-9.3.1-2.8 2.4-5 5.2-5h6c2.8 0 5.1 2.2 5.2 5l.8 19.9z"/><g><circle cx="25" cy="11" r="3"/><path d="M20 23.6l-1.9 38.2c-.1 1.1.7 1.8 1.5 1.8s1.4-.6 1.5-1.3L23.8 39c.1-.6.5-1.1 1.2-1.1s1.1.5 1.2 1.1l2.7 23.3c.1.7.7 1.3 1.5 1.3s1.6-.7 1.5-1.8L30 23.6"/><path d="M16.8 23c.1-2.8 2.4-5 5.2-5h6c2.8 0 5.1 2.2 5.2 5 0 0 .1 6.7.3 9.3.5 4.9 2.5 10.6 2.5 10.6-3.8 0-7.5-18.3-11-18.3s-5.7 18.3-9 18.3l.8-19.9z"/></g></g><g fill="none" stroke="#000" stroke-width="2"><circle cx="47" cy="11" r="3" stroke-miterlimit="10"/><path stroke-linecap="round" stroke-linejoin="round" d="M36 41.9s2.1-4.7 2.5-9.6c.2-2.5.3-9.3.3-9.3.1-2.8 2.4-5 5.2-5h6c2.8 0 5.1 2.2 5.2 5l.8 18.9"/><path stroke-linecap="round" stroke-linejoin="round" d="M52 23.6l1.9 38.2c.1 1.1-.7 1.8-1.5 1.8s-1.4-.6-1.5-1.3L48.2 39c-.1-.6-.5-1.1-1.2-1.1s-1.1.5-1.2 1.1l-2.7 23.3c-.1.7-.7 1.3-1.5 1.3s-1.6-.7-1.5-1.8L42 23.6"/><circle cx="25" cy="11" r="3" stroke-miterlimit="10"/><path stroke-linecap="round" stroke-linejoin="round" d="M16 41.9l.8-18.9c.1-2.8 2.4-5 5.2-5h6c2.8 0 5.1 2.2 5.2 5 0 0 .1 6.7.3 9.3.4 4.9 2.5 9.6 2.5 9.6"/><path stroke-linecap="round" stroke-linejoin="round" d="M20 23.6l-1.9 38.2c-.1 1.1.7 1.8 1.5 1.8s1.4-.6 1.5-1.3L23.8 39c.1-.6.5-1.1 1.2-1.1s1.1.5 1.2 1.1l2.7 23.3c.1.7.7 1.3 1.5 1.3s1.6-.7 1.5-1.8L30 23.6"/></g></svg><svg viewBox="0 0 72 72" width="72" height="72" id="1F46B" x="216" xmlns="http://www.w3.org/2000/svg"><g fill="#FCEA2B"><circle cx="47" cy="11" r="3"/><path d="M52 23.6l1.9 38.2c.1 1.1-.7 1.8-1.5 1.8s-1.4-.6-1.5-1.3L48.2 39c-.1-.6-.5-1.1-1.2-1.1s-1.1.5-1.2 1.1l-2.7 23.3c-.1.7-.7 1.3-1.5 1.3s-1.6-.7-1.5-1.8L42 23.6"/><path d="M56 42.9c-3.3 0-5.5-18.3-9-18.3s-7.2 18.3-11 18.3c0 0 2.1-5.7 2.5-10.6.2-2.5.3-9.3.3-9.3.1-2.8 2.4-5 5.2-5h6c2.8 0 5.1 2.2 5.2 5l.8 19.9z"/><g><circle cx="25" cy="11" r="3"/><path d="M30 24c-2.4 3.5-.7 6.1 0 8 .5 1.3.8 4.2.9 5.6.6 6 1 24.2 1 24.2.1 1.1-.7 1.8-1.5 1.8s-1.4-.6-1.5-1.3L26.2 39c-.1-.6-.5-1.1-1.2-1.1s-1.1.5-1.2 1.1l-2.7 23.3c-.1.7-.7 1.3-1.5 1.3s-1.6-.7-1.5-1.8c0 0 .5-18.1 1.1-24 .1-1.5.4-4.4.8-5.9.6-1.9 2.4-4.7 0-8"/><path d="M16.8 23c.1-2.8 2.4-5 5.2-5h6c2.8 0 5.1 2.2 5.2 5 0 0 .1 6.7.3 9.3.4 4.9 2.5 10.6 2.5 10.6-3.8 0-7.5-18.3-11-18.3s-5.7 18.3-9 18.3l.8-19.9z"/></g></g><g fill="none" stroke="#000" stroke-width="2"><circle cx="47" cy="11" r="3" stroke-miterlimit="10"/><circle cx="25" cy="11" r="3" stroke-miterlimit="10"/><path stroke-linecap="round" stroke-linejoin="round" d="M36 41.9s2.1-4.7 2.5-9.6c.2-2.5.3-9.3.3-9.3.1-2.8 2.4-5 5.2-5h6c2.8 0 5.1 2.2 5.2 5l.8 18.9M16 41.9l.8-18.9c.1-2.8 2.4-5 5.2-5h6c2.8 0 5.1 2.2 5.2 5 0 0 .1 6.7.3 9.3.4 4.9 2.5 9.6 2.5 9.6"/><path stroke-linecap="round" stroke-linejoin="round" d="M52 23.6l1.9 38.2c.1 1.1-.7 1.8-1.5 1.8s-1.4-.6-1.5-1.3L48.2 39c-.1-.6-.5-1.1-1.2-1.1s-1.1.5-1.2 1.1l-2.7 23.3c-.1.7-.7 1.3-1.5 1.3s-1.6-.7-1.5-1.8L42 23.6M30 24c-2.4 3.5-.7 6.1 0 8 .5 1.3.8 4.2.9 5.6.6 6 1 24.2 1 24.2.1 1.1-.7 1.8-1.5 1.8s-1.4-.6-1.5-1.3L26.2 39c-.1-.6-.5-1.1-1.2-1.1s-1.1.5-1.2 1.1l-2.7 23.3c-.1.7-.7 1.3-1.5 1.3s-1.6-.7-1.5-1.8c0 0 .5-18.1 1.1-24 .1-1.5.4-4.4.8-5.9.6-1.9 2.4-4.7 0-8"/></g></svg><svg viewBox="0 0 72 72" width="72" height="72" id="1F46D" x="216" y="72" xmlns="http://www.w3.org/2000/svg"><g fill="#FCEA2B"><circle cx="47" cy="11" r="3"/><path d="M52 24c-2.4 3.3-.6 6.1 0 8 .5 1.4.7 4.4.8 5.9.6 5.9 1.1 24 1.1 24 .1 1.1-.7 1.8-1.5 1.8s-1.4-.6-1.5-1.3l-2.7-23.3c-.1-.6-.5-1.1-1.2-1.1s-1.1.5-1.2 1.1l-2.7 23.3c-.1.7-.7 1.3-1.5 1.3s-1.6-.7-1.5-1.8c0 0 .4-18.2 1-24.2.1-1.4.4-4.3.9-5.6.6-1.9 2.3-4.5 0-8"/><path d="M56 42.9c-3.3 0-5.5-18.3-9-18.3s-7.2 18.3-11 18.3c0 0 2.1-5.7 2.5-10.6.2-2.5.3-9.3.3-9.3.1-2.8 2.4-5 5.2-5h6c2.8 0 5.1 2.2 5.2 5l.8 19.9z"/><g><circle cx="25" cy="11" r="3"/><path d="M30 24c-2.4 3.5-.7 6.1 0 8 .5 1.3.8 4.2.9 5.6.6 6 1 24.2 1 24.2.1 1.1-.7 1.8-1.5 1.8s-1.4-.6-1.5-1.3L26.2 39c-.1-.6-.5-1.1-1.2-1.1s-1.1.5-1.2 1.1l-2.7 23.3c-.1.7-.7 1.3-1.5 1.3s-1.6-.7-1.5-1.8c0 0 .5-18.1 1.1-24 .1-1.5.4-4.4.8-5.9.6-1.9 2.4-4.7 0-8"/><path d="M16.8 23c.1-2.8 2.4-5 5.2-5h6c2.8 0 5.1 2.2 5.2 5 0 0 .1 6.7.3 9.3.4 4.9 2.5 10.6 2.5 10.6-3.8 0-7.5-18.3-11-18.3s-5.7 18.3-9 18.3l.8-19.9z"/></g></g><g fill="none" stroke="#000" stroke-width="2"><circle cx="25" cy="11" r="3" stroke-miterlimit="10"/><path stroke-linecap="round" stroke-linejoin="round" d="M16 41.9l.8-18.9c.1-2.8 2.4-5 5.2-5h6c2.8 0 5.1 2.2 5.2 5 0 0 .1 6.7.3 9.3.4 4.9 2.5 9.6 2.5 9.6"/><path stroke-linecap="round" stroke-linejoin="round" d="M30 24c-2.4 3.5-.7 6.1 0 8 .5 1.3.8 4.2.9 5.6.6 6 1 24.2 1 24.2.1 1.1-.7 1.8-1.5 1.8s-1.4-.6-1.5-1.3L26.2 39c-.1-.6-.5-1.1-1.2-1.1s-1.1.5-1.2 1.1l-2.7 23.3c-.1.7-.7 1.3-1.5 1.3s-1.6-.7-1.5-1.8c0 0 .5-18.1 1.1-24 .1-1.5.4-4.4.8-5.9.6-1.9 2.4-4.7 0-8"/><circle cx="47" cy="11" r="3" stroke-miterlimit="10"/><path stroke-linecap="round" stroke-linejoin="round" d="M36 41.9s2.1-4.7 2.5-9.6c.2-2.5.3-9.3.3-9.3.1-2.8 2.4-5 5.2-5h6c2.8 0 5.1 2.2 5.2 5l.8 18.9"/><path stroke-linecap="round" stroke-linejoin="round" d="M52 24c-2.4 3.3-.6 6.1 0 8 .5 1.4.7 4.4.8 5.9.6 5.9 1.1 24 1.1 24 .1 1.1-.7 1.8-1.5 1.8s-1.4-.6-1.5-1.3l-2.7-23.3c-.1-.6-.5-1.1-1.2-1.1s-1.1.5-1.2 1.1l-2.7 23.3c-.1.7-.7 1.3-1.5 1.3s-1.6-.7-1.5-1.8c0 0 .4-18.2 1-24.2.1-1.4.4-4.3.9-5.6.6-1.9 2.3-4.5 0-8"/></g></svg><svg viewBox="0 0 72 72" width="72" height="72" id="1F6CC" x="216" y="144" xmlns="http://www.w3.org/2000/svg"><path fill="#A57939" d="M5 38h62v11H5z"/><path fill="#D0CFCE" d="M5 39v-4c0-1.65 1.35-3 3-3h56c1.65 0 3 1.35 3 3v4"/><path fill="#92D3F5" d="M22 32V22s.21-2.106 2-3c2-1 6 0 9-1 6.79-2.263 12.594 3.356 17 6 5 3 7 4.854 7 8M5.125 27.688S10 24 22 27v4L7 32l-.813 1.25-1.062-1.625L5 28l.125-.313z"/><g><path fill="#FCEA2B" d="M15.076 25.675a3 3 0 115.71.436"/></g><g fill="none" stroke="#000" stroke-linecap="round" stroke-linejoin="round" stroke-miterlimit="10" stroke-width="2"><path d="M5 38.083h62V49H5z"/><path d="M5 39v-4c0-1.65 1.35-3 3-3h56c1.65 0 3 1.35 3 3v4M5 55V17M67 27v28M15.076 25.675a3 3 0 115.71.436M22 32V22s.21-2.106 2-3c2-1 6 0 9-1 6.79-2.263 12.594 3.356 17 6 5 3 7 4.854 7 8M5.042 27.918C6.896 26.063 14.292 24.876 21 27"/></g></svg></svg>