<?xml version="1.0" encoding="utf-8"?><svg width="360" height="360" viewBox="0 0 360 360" xmlns="http://www.w3.org/2000/svg" xmlns:xlink="http://www.w3.org/1999/xlink"><svg viewBox="0 0 72 72" width="72" height="72" id="1F4A4" x="72" xmlns="http://www.w3.org/2000/svg"><g fill="none" stroke="#000" stroke-linecap="round" stroke-linejoin="round" stroke-miterlimit="10"><path stroke-width="6" d="M49 8h13.143L49 31h13.143M28.143 33.75H37l-8.857 15.5H37"/><path stroke-width="4.645" d="M9.143 52.5H16l-6.857 12H16"/></g></svg><svg viewBox="0 0 72 72" width="72" height="72" id="1F4AD" x="216" y="144" xmlns="http://www.w3.org/2000/svg"><g fill="#fff"><path d="M9.49 29.7c.584-5.492 5.509-9.471 11-8.887.881.094 1.717.31 2.508.611 1.407-7.636 8.471-13.02 16.32-12.19 6.705.713 11.91 5.74 13.14 12.03.386-.004.774.009 1.167.05 5.492.584 9.471 5.51 8.887 11a9.978 9.978 0 01-4.558 7.363c.066.888.066 1.792-.031 2.71-.876 8.237-8.263 14.21-16.5 13.33a14.934 14.934 0 01-9.072-4.365c-.827.659-1.757 2.187-2.758 2.56-5.451 1.262-10.61-.943-13.1-5.335-1.042-1.779-.545-3.895-.31-6.103.078-.74.242-1.449.469-2.126-4.57-1.322-7.676-5.758-7.156-10.65z"/><path d="M21.49 52.77c2.206 0 4 1.794 4 4s-1.794 4-4 4-4-1.794-4-4 1.794-4 4-4zM12.36 62.51c.625 0 1.135.509 1.135 1.135s-.51 1.135-1.135 1.135-1.135-.509-1.135-1.135.51-1.135 1.135-1.135z"/></g><path d="M21.49 62.77c3.309 0 6-2.691 6-6s-2.691-6-6-6-6 2.691-6 6 2.691 6 6 6zm0-10c2.206 0 4 1.794 4 4s-1.794 4-4 4-4-1.794-4-4 1.794-4 4-4zM12.36 66.78c1.728 0 3.135-1.406 3.135-3.135s-1.406-3.135-3.135-3.135-3.135 1.406-3.135 3.135 1.406 3.135 3.135 3.135zm0-4.27c.625 0 1.135.509 1.135 1.135s-.51 1.135-1.135 1.135-1.135-.509-1.135-1.135.51-1.135 1.135-1.135z"/><path fill="none" stroke="#000" stroke-linecap="round" stroke-linejoin="round" stroke-miterlimit="10" stroke-width="2" d="M17.49 48.58a9.957 9.957 0 01-.841-8.229c-4.57-1.322-7.676-5.758-7.156-10.65.583-5.492 5.509-9.471 11-8.887.88.094 1.717.31 2.508.611 1.407-7.636 8.47-13.02 16.32-12.19 6.706.713 11.91 5.74 13.14 12.03.385-.004.774.009 1.167.05 5.492.584 9.47 5.51 8.887 11a9.978 9.978 0 01-4.558 7.363c.066.888.066 1.792-.032 2.71-.875 8.237-8.263 14.21-16.5 13.33a14.934 14.934 0 01-9.072-4.365 10.05 10.05 0 01-2.758 1.56"/></svg><svg viewBox="0 0 72 72" width="72" height="72" id="1F5EF" y="72" xmlns="http://www.w3.org/2000/svg"><g fill="#fff"><path d="M22.65 48.79l-.011-.066-3.831 1.074-4.238.438c1.496-3.562 2.558-4.463 3.443-6.804L16.49 42.16l-4.23-.757 4.537-6.072-1.174-.516-5.692-3.404 5.74-2.934-1.58-6.87 8.109 2.923-.687-1.77-1.229-7.02 8.244 3.134.013-.05 2.21-8.463 4.83 7.048.866 1.447 1.58-2.69 3.689-6.183 2.125 7.784 1.057 1.714 7.88-3.814.165 8.7 2.16.181 6.17.682-3.451 4.889-1.506 1.763 5.328 4.767-5.831 3.767-.642-.096 3.936 6.957-7.99-.493c-.2 3.132-.094 6.04.42 9.12-1.57-2.327-3.84-3.338-6.284-4.676l-4.062 6.643c-1.371-2.13-2.831-4.205-4.135-6.378l-4.363 6.338c-1.141-2.316-2.048-4.207-3.545-6.32l-5.791 5.706-.71-8.43"/><path stroke="#fff" stroke-linecap="round" stroke-linejoin="round" stroke-width="2" d="M11.09 62.06l7.029-12.09c4.176-2.567 3.681-.37 4.1 4.022z"/></g><g fill="none" stroke="#000" stroke-linecap="round" stroke-linejoin="round"><path stroke-miterlimit="10" stroke-width="2.089" d="M22.64 48.72s-4.916.913-8.068 1.512c1.144-1.453 3.571-7.636 3.571-7.636l-6.667-1.413 5.324-5.855-7.653-4.136 6.529-2.717-2.367-7.087 8.895 3.14-2.702-9.007 8.244 3.134.013-.05 2.209-8.464c2.055 3.016 6.484 8.713 6.484 8.713s3.875-5.8 5.269-8.873c1.048 3.227 3.182 9.498 3.182 9.498l7.881-3.814.164 8.701 8.332.862-4.958 6.652 6.533 5.093-7.678 3.345s2.35 4.196 3.936 6.957l-8.778-.71s.694 6.256 1.208 9.337a573.504 573.504 0 00-7.071-4.892l-3.275 6.861-4.135-6.378-4.363 6.338c-1.141-2.316-3.545-6.32-3.545-6.32l-5.791 5.706z"/><path stroke-width="2" d="M20.38 55.31l-9.292 6.75 5.309-9.102"/></g></svg><svg viewBox="0 0 72 72" width="72" height="72" id="1F5E8" x="72" y="72" xmlns="http://www.w3.org/2000/svg"><path fill="#FFF" d="M54.88 49.128A22.887 22.887 0 0059 36c0-12.703-10.297-23-23-23S13 23.297 13 36s10.297 23 23 23c3.758 0 7.302-.907 10.435-2.505l4.814 2.052 5.728 2.443-1.084-6.132-1.012-5.73z"/><path fill="none" stroke="#000" stroke-linecap="round" stroke-linejoin="round" stroke-miterlimit="10" stroke-width="2" d="M54.88 49.128A22.887 22.887 0 0059 36c0-12.703-10.297-23-23-23S13 23.297 13 36s10.297 23 23 23c3.758 0 7.302-.907 10.435-2.505l4.814 2.052 5.728 2.443-1.084-6.132-1.012-5.73z"/></svg><svg viewBox="0 0 72 72" width="72" height="72" id="1F4AC" x="144" xmlns="http://www.w3.org/2000/svg"><g fill="#fff"><path d="M17.09 50.75A23.87 23.87 0 0112.002 36c0-13.23 10.77-24 24-24s24 10.77 24 24-10.77 24-24 24c-1.955 0-3.855-.24-5.676-.684-5.919-1.48-10.33-4.34-13.24-8.567z"/><circle cx="23.48" cy="54.97" r="5"/><circle cx="-15.8" cy="62.94" r="2.5" transform="scale(-1 1)"/></g><path fill="none" stroke="#000" stroke-linecap="round" stroke-miterlimit="10" stroke-width="2" d="M31.54 58.56c1.442.286 2.93.44 4.455.44 12.68 0 23-10.32 23-23s-10.32-23-23-23-23 10.32-23 23a22.87 22.87 0 004.187 13.21"/><circle cx="26.79" cy="36" r="2"/><circle cx="36" cy="36" r="2"/><circle cx="45.21" cy="36" r="2"/><circle cx="-4.026" cy="64.73" r="2.5" transform="scale(-1 1) rotate(10.539)" fill="none" stroke="#000" stroke-miterlimit="10" stroke-width="2"/><circle cx="-13.58" cy="57.88" r="4.981" transform="scale(-1 1) rotate(10.539)" fill="none" stroke="#000" stroke-miterlimit="10" stroke-width="2"/></svg><svg viewBox="0 0 72 72" width="72" height="72" id="1F4A3" x="144" y="72" xmlns="http://www.w3.org/2000/svg"><path fill="#9B9B9A" d="M39.11 21.888l7.778-7.778 11 11-7.778 7.778z"/><path fill="#3F3F3F" d="M46.034 22.212l4.478-4.478 7.377 7.377-5.367 5.367z"/><circle cx="31.769" cy="40.404" r="23" fill="#9B9B9A"/><path fill="#3F3F3F" d="M19.633 55.737c12.703 0 23-10.297 23-23a22.904 22.904 0 00-5.21-14.576C47.286 20.754 54.56 29.73 54.56 40.404c0 12.702-10.297 23-23 23-7.17 0-13.572-3.282-17.79-8.424 1.873.492 3.837.757 5.864.757z"/><g fill="none" stroke="#000" stroke-linecap="round" stroke-linejoin="round" stroke-miterlimit="10" stroke-width="2"><path d="M41.46 19.54l5.429-5.43 11 11-5.367 5.367"/><circle cx="31.769" cy="40.404" r="23"/><path d="M55.757 16.243l8.486-8.486"/></g></svg><svg viewBox="0 0 72 72" width="72" height="72" id="1F573" y="144" xmlns="http://www.w3.org/2000/svg"><ellipse cx="36" cy="36" rx="32.5" ry="13.5" fill="#3F3F3F"/><path fill="#9B9B9A" d="M36 32.5c13.52 0 25.107 3.303 30.005 8 1.605-1.54 2.495-3.228 2.495-5 0-7.18-14.55-13-32.5-13s-32.5 5.82-32.5 13c0 1.772.89 3.46 2.495 5 4.898-4.697 16.486-8 30.005-8z"/><g fill="none" stroke="#000" stroke-miterlimit="10" stroke-width="2"><ellipse cx="36" cy="36" rx="32.5" ry="13.5"/><path d="M36 32.5c13.52 0 25.107 3.303 30.005 8 1.605-1.54 2.495-3.228 2.495-5 0-7.18-14.55-13-32.5-13s-32.5 5.82-32.5 13c0 1.772.89 3.46 2.495 5 4.898-4.697 16.486-8 30.005-8z"/></g></svg><svg viewBox="0 0 72 72" width="72" height="72" id="1F4A8" x="72" y="144" xmlns="http://www.w3.org/2000/svg"><path fill="#61B2E4" d="M55.023 24.349c-.39 0-.775.022-1.155.058a8.034 8.034 0 00-11.529-4.697c-1.605-4.769-6.104-8.208-11.414-8.207-6.654.002-12.047 5.397-12.045 12.05 0 .55.05 1.088.121 1.62L4 31.496v11l14.889 5.884c0 .024-.004.047-.004.07.002 6.655 5.397 12.047 12.05 12.046 4.818-.001 8.962-2.837 10.889-6.923a7.986 7.986 0 004.37 1.297 8.032 8.032 0 007.877-6.475c.316.025.634.048.957.048 6.654-.002 12.046-5.397 12.045-12.05s-5.397-12.047-12.05-12.045z"/><path fill="#92D3F5" d="M55.486 24.349c-.39 0-.774.022-1.154.058a8.034 8.034 0 00-11.53-4.697c-1.604-4.769-6.103-8.208-11.414-8.207-6.653.002-12.046 5.397-12.045 12.05 0 .55.05 1.088.122 1.62l-3.978 1.692a12.093 12.093 0 015.852 6.846 8.034 8.034 0 0111.529 4.697c.38-.037.765-.06 1.155-.06 6.653 0 12.048 5.392 12.05 12.046 0 1.532-.297 2.992-.818 4.34.457.082.922.137 1.403.137a8.032 8.032 0 007.876-6.475c.317.025.634.048.958.048 6.653-.002 12.046-5.397 12.044-12.05s-5.396-12.047-12.05-12.045z"/><g fill="none" stroke="#000" stroke-linecap="round" stroke-linejoin="round" stroke-miterlimit="10" stroke-width="2"><path d="M5 42.273l14.352 6.108c0 .024-.003.047-.003.07.001 6.654 5.396 12.047 12.05 12.046 4.818-.001 8.962-2.837 10.889-6.923a7.986 7.986 0 004.37 1.297 8.032 8.032 0 007.876-6.475c.317.025.634.048.957.048 6.654-.002 12.047-5.397 12.045-12.05s-5.396-12.047-12.05-12.045c-.39 0-.774.022-1.154.058a8.034 8.034 0 00-11.53-4.696c-1.604-4.77-6.103-8.209-11.414-8.208-6.653.002-12.046 5.397-12.045 12.05 0 .55.05 1.089.122 1.62L5 31.327M5 25.497l9-4s-1-5 4-8M5 47.497l9 4s-1 5 4 8"/></g></svg><svg viewBox="0 0 72 72" width="72" height="72" id="1F4A6" x="144" y="144" xmlns="http://www.w3.org/2000/svg"><path fill="#61B2E4" d="M34.72 47.78c-1.529 3.035-4.173 5.48-7.63 6.623-3.458 1.142-7.039.752-10.063-.742a13.185 13.185 0 01-6.589-7.642c-1.804-5.463 1.952-14.527 4.665-21.06.44-1.105.87-2.128 1.24-3.095.874.555 1.828 1.122 2.828 1.712 6.07 3.633 14.475 8.643 16.29 14.14 1.142 3.459.753 7.039-.741 10.063zM58.359 19.136c1.28 2.471 1.634 5.4.732 8.242s-2.88 5.031-5.323 6.32a10.798 10.798 0 01-8.233.704c-4.491-1.425-8.703-8.268-11.735-13.205-.522-.822-.995-1.598-1.458-2.308a83.583 83.583 0 002.494-1.055c5.324-2.284 12.682-5.455 17.202-4.021 2.843.902 5.031 2.88 6.32 5.323zM59.115 51.03c-.055 2.013-.856 3.99-2.422 5.472-1.567 1.483-3.584 2.175-5.581 2.136a7.808 7.808 0 01-5.456-2.438c-2.343-2.474-2.611-8.279-2.802-12.464-.042-.703-.07-1.36-.114-1.971.608.077 1.263.141 1.947.206 4.169.419 9.935.988 12.293 3.479 1.483 1.566 2.175 3.583 2.136 5.58z"/><path fill="#92D3F5" d="M20.373 24.296l-1.202-.72c-1-.59-1.954-1.157-2.828-1.712-.37.967-.8 1.99-1.24 3.095-2.713 6.533-6.47 15.597-4.665 21.06a13.184 13.184 0 006.589 7.642c3.024 1.494 6.605 1.884 10.063.742a12.985 12.985 0 004.456-2.537c2.118-7.032-5.328-19.36-11.173-27.57zM35.88 17.387l-1.044.447a83.32 83.32 0 01-2.494 1.055c.463.71.936 1.486 1.458 2.309 3.032 4.936 7.244 11.78 11.735 13.205 2.842.902 5.799.557 8.233-.704 2.443-1.29 4.42-3.478 5.323-6.32.836-2.635.583-5.338-.477-7.688-4.748-2.67-15.344-2.682-22.734-2.304zM55.376 57.503c.238-6.028-7.426-12.516-11.66-15.627-.335-.035-.662-.071-.976-.111.044.611.072 1.268.114 1.97.19 4.186.459 9.99 2.802 12.465a7.809 7.809 0 005.456 2.438 7.919 7.919 0 004.264-1.135z"/><g fill="none" stroke="#000" stroke-linecap="round" stroke-linejoin="round" stroke-miterlimit="10" stroke-width="2"><path d="M34.72 47.78c-1.529 3.035-4.173 5.48-7.63 6.623-3.458 1.142-7.039.752-10.063-.742a13.185 13.185 0 01-6.589-7.642c-1.804-5.463 1.952-14.527 4.665-21.06.44-1.105.87-2.128 1.24-3.095.874.555 1.828 1.122 2.828 1.712 6.07 3.633 14.475 8.643 16.29 14.14 1.142 3.459.753 7.039-.741 10.063zM54.042 14.681a10.946 10.946 0 014.317 4.455c1.28 2.471 1.634 5.4.732 8.242s-2.88 5.031-5.323 6.32a10.798 10.798 0 01-8.233.704c-4.492-1.425-8.703-8.268-11.735-13.205-.522-.822-.995-1.598-1.458-2.308a83.583 83.583 0 002.494-1.055c2.374-1.018 5.153-2.213 7.904-3.098m9.645-.806c.582.206 1.135.459 1.657.751m-2.004-.868c.117.037.232.076.346.116m-2.375-.461a8.05 8.05 0 012.03.345m-2.469-.359c.148.002.295.006.44.014m-1.514.022c.366-.027.725-.04 1.074-.036m-2.129.148c.358-.049.71-.087 1.055-.112m-1.736.22c.229-.04.456-.076.681-.108m-2.23.432c.524-.127 1.04-.236 1.549-.325m-2.413.548c.29-.08.578-.154.864-.223m-1.297.345c.144-.042.289-.083.433-.122m-1.607.48c.392-.127.784-.247 1.174-.359M59.115 51.03c-.055 2.013-.856 3.99-2.422 5.472-1.567 1.483-3.584 2.175-5.581 2.136a7.808 7.808 0 01-5.456-2.438c-2.343-2.474-2.611-8.279-2.802-12.464-.042-.703-.07-1.36-.114-1.971.608.077 1.263.141 1.947.206 4.169.419 9.935.988 12.293 3.479 1.483 1.566 2.175 3.583 2.136 5.58z"/></g></svg><svg viewBox="0 0 72 72" width="72" height="72" id="1F4AB" x="216" xmlns="http://www.w3.org/2000/svg"><path fill="#fcea2b" d="M14.827 18.535c-.336-.226 80.195-10.75 29.962 39.444L32.69 48.48s47.75-18.573-17.863-29.945z"/><path fill="#f1b31c" d="M31.298 48.361l3.791 3.112c11.064-4.99 39.602-20.574-.447-33.844-10.641-.467-20.642.906-20.642.906 64.003 11.049 17.298 29.826 17.298 29.826z"/><path fill="#fcea2b" d="M35 30.403l4.944 10.018L51 42.028l-8 7.798 1.889 11.011L35 55.638l-9.889 5.2L27 49.825l-8-7.798 11.056-1.607z"/><g fill="none" stroke="#000" stroke-linecap="round" stroke-linejoin="round" stroke-miterlimit="10" stroke-width="2"><path d="M48.665 34.784c.72-5.455-6.509-11.55-33.838-16.249 0 0 72.994-9.998 34.807 33.068"/><path d="M35 30.403l4.944 10.018L51 42.028l-7 7.798 1.889 11.011L35 55.638l-9.889 5.2L27 49.825l-8-7.798 11.056-1.607z"/></g></svg><svg viewBox="0 0 72 72" width="72" height="72" id="1F4A5" x="216" y="72" xmlns="http://www.w3.org/2000/svg"><path fill="#fcea2b" d="M45.217 41.953l12.35-2.627-13.913-3.386a1 1 0 01-.336-1.792l7.44-5.19-9.583 2.319a1.001 1.001 0 01-1.212-1.186l3.077-14.016-6.588 10.097c-1.258-1.427-2.78-3.766-2.95-4.08L26.595 9.41a1.001 1.001 0 00-1.866.635l2.508 15.882-9.994-5.696a.999.999 0 00-1.303 1.458l7.317 10.036-12.704 2.259a1 1 0 00-.092 1.948l13.36 3.703-7.865 7.16a1 1 0 001.026 1.675l11.606-4.347c-.051 1.926-.109 3.513-.094 3.714l2.773 10.734 6.28-14.156a1 1 0 011.765-.12l6.059 9.78-.943-11.058a1.002 1.002 0 01.789-1.064z"/><path d="M30.555 63.641a1 1 0 01-.998-.929l-1.079-15.106a1 1 0 011.995-.143l.794 11.108 6.28-14.156a1 1 0 011.765-.12l6.059 9.78-.943-11.058a1.002 1.002 0 01.789-1.064l12.35-2.627-13.913-3.386a1 1 0 01-.336-1.792l7.44-5.19-9.583 2.319a1.001 1.001 0 01-1.212-1.186l3.077-14.016-7.311 11.206a1 1 0 11-1.675-1.092l10.297-15.784a1 1 0 011.814.76L42.26 28.956l13.196-3.193a1 1 0 01.808 1.792l-9.984 6.966 16.02 3.9a1 1 0 01-.028 1.95l-15.776 3.356 1.223 14.344a1 1 0 01-1.847.611l-7.264-11.726-7.139 16.09a1 1 0 01-.914.595z"/><path d="M16.63 48.535a1 1 0 01-.674-1.74l7.866-7.16-13.36-3.703a1 1 0 01.091-1.948l12.704-2.26L15.94 21.69a.999.999 0 011.304-1.458l9.994 5.696-2.509-15.883a1.001 1.001 0 011.867-.634l6.907 12.682a1 1 0 01-1.757.957l-4.138-7.598 1.93 12.22a.999.999 0 01-1.483 1.025l-7.752-4.42 5.514 7.564a.998.998 0 01-.633 1.573l-9.942 1.768 10.86 3.01a1 1 0 01.407 1.704l-5.335 4.856 7.613-2.873a1 1 0 11.705 1.871L16.982 48.47a.99.99 0 01-.352.065z"/></svg><svg viewBox="0 0 72 72" width="72" height="72" id="1F4A2" xmlns="http://www.w3.org/2000/svg"><g fill="#EA5A47"><path d="M36 16.54c-8.293 0-16.662-4.314-16.662-4.314-.978-.504-1.327-.137-.776.815 0 0 5.914 10.214 17.438 10.126 11.524.088 17.438-10.126 17.438-10.126.55-.952.202-1.319-.776-.815 0 0-8.369 4.314-16.662 4.314zM36 55.46c8.293 0 16.662 4.314 16.662 4.314.978.504 1.327.137.776-.815 0 0-5.914-10.214-17.438-10.126-11.524-.088-17.438 10.126-17.438 10.126-.55.952-.202 1.319.776.815 0 0 8.369-4.314 16.662-4.314zM55.46 36c0-8.293 4.314-16.662 4.314-16.662.504-.978.137-1.327-.815-.776 0 0-10.214 5.914-10.126 17.438-.088 11.524 10.126 17.438 10.126 17.438.952.55 1.319.202.815-.776 0 0-4.314-8.369-4.314-16.662zM16.54 36c0 8.293-4.314 16.662-4.314 16.662-.504.978-.137 1.327.815.776 0 0 10.214-5.914 10.126-17.438.088-11.524-10.126-17.438-10.126-17.438-.952-.55-1.319-.202-.815.776 0 0 4.314 8.369 4.314 16.662z"/></g><g fill="none" stroke="#000" stroke-linecap="round" stroke-miterlimit="10" stroke-width="2"><path d="M36 16.54c-8.293 0-16.662-4.314-16.662-4.314-.978-.504-1.327-.137-.776.815 0 0 5.914 10.214 17.438 10.126 11.524.088 17.438-10.126 17.438-10.126.55-.952.202-1.319-.776-.815 0 0-8.369 4.314-16.662 4.314zM36 55.46c8.293 0 16.662 4.314 16.662 4.314.978.504 1.327.137.776-.815 0 0-5.914-10.214-17.438-10.126-11.524-.088-17.438 10.126-17.438 10.126-.55.952-.202 1.319.776.815 0 0 8.369-4.314 16.662-4.314zM55.46 36c0-8.293 4.314-16.662 4.314-16.662.504-.978.137-1.327-.815-.776 0 0-10.214 5.914-10.126 17.438-.088 11.524 10.126 17.438 10.126 17.438.952.55 1.319.202.815-.776 0 0-4.314-8.369-4.314-16.662zM16.54 36c0 8.293-4.314 16.662-4.314 16.662-.504.978-.137 1.327.815.776 0 0 10.214-5.914 10.126-17.438.088-11.524-10.126-17.438-10.126-17.438-.952-.55-1.319-.202-.815.776 0 0 4.314 8.369 4.314 16.662z"/></g></svg><svg viewBox="0 0 72 72" width="72" height="72" id="1F4AF" y="216" xmlns="http://www.w3.org/2000/svg"><g fill="none" stroke="#000" stroke-linecap="round" stroke-linejoin="round" stroke-miterlimit="10" stroke-width="4"><path d="M59.183 46.059h-46M59.183 54.059h-46M32.983 37.005h0a6.279 6.279 0 01-6.279-6.28V20.339a6.28 6.28 0 016.28-6.279h0a6.28 6.28 0 016.278 6.28v10.387a6.279 6.279 0 01-6.279 6.279zM52.91 37.005h0a6.279 6.279 0 01-6.28-6.28V20.339a6.28 6.28 0 016.28-6.279h0a6.28 6.28 0 016.278 6.28v10.387a6.279 6.279 0 01-6.279 6.279zM12.984 18.885l6.353-4.759v22.946"/></g><g fill="none" stroke="#D22F27" stroke-linecap="round" stroke-linejoin="round" stroke-miterlimit="10" stroke-width="4.1"><path d="M59.183 46.059h-46M59.183 54.059h-46M32.983 37.005h0a6.279 6.279 0 01-6.279-6.28V20.339a6.28 6.28 0 016.28-6.279h0a6.28 6.28 0 016.278 6.28v10.387a6.279 6.279 0 01-6.279 6.279zM52.91 37.005h0a6.279 6.279 0 01-6.28-6.28V20.339a6.28 6.28 0 016.28-6.279h0a6.28 6.28 0 016.278 6.28v10.387a6.279 6.279 0 01-6.279 6.279zM12.984 18.885l6.353-4.759v22.946"/></g></svg><svg viewBox="0 0 72 72" width="72" height="72" id="1F90D" x="72" y="216" xmlns="http://www.w3.org/2000/svg"><path fill="#FFF" d="M59.5 25c0-6.904-5.596-12.5-12.5-12.5a12.497 12.497 0 00-11 6.56 12.497 12.497 0 00-11-6.56c-6.904 0-12.5 5.596-12.5 12.5 0 2.97 1.04 5.694 2.77 7.839l-.004.003L36 58.54l20.734-25.698-.004-.003A12.44 12.44 0 0059.5 25z"/><path fill="none" stroke="#000" stroke-linejoin="round" stroke-miterlimit="10" stroke-width="2" d="M59.5 25c0-6.904-5.596-12.5-12.5-12.5a12.497 12.497 0 00-11 6.56 12.497 12.497 0 00-11-6.56c-6.904 0-12.5 5.596-12.5 12.5 0 2.97 1.04 5.694 2.77 7.839l-.004.003L36 58.54l20.734-25.698-.004-.003A12.44 12.44 0 0059.5 25z"/></svg><svg viewBox="0 0 72 72" width="72" height="72" id="1F5A4" x="144" y="216" xmlns="http://www.w3.org/2000/svg"><path fill="#3F3F3F" d="M59.5 25c0-6.904-5.596-12.5-12.5-12.5a12.497 12.497 0 00-11 6.56 12.497 12.497 0 00-11-6.56c-6.904 0-12.5 5.596-12.5 12.5 0 2.97 1.04 5.694 2.77 7.839l-.004.003L36 58.54l20.734-25.698-.004-.003A12.44 12.44 0 0059.5 25z"/><path fill="none" stroke="#000" stroke-linejoin="round" stroke-miterlimit="10" stroke-width="2" d="M59.5 25c0-6.904-5.596-12.5-12.5-12.5a12.497 12.497 0 00-11 6.56 12.497 12.497 0 00-11-6.56c-6.904 0-12.5 5.596-12.5 12.5 0 2.97 1.04 5.694 2.77 7.839l-.004.003L36 58.54l20.734-25.698-.004-.003A12.44 12.44 0 0059.5 25z"/></svg><svg viewBox="0 0 72 72" width="72" height="72" id="1F90E" x="216" y="216" xmlns="http://www.w3.org/2000/svg"><path fill="#A57939" d="M59.5 25c0-6.904-5.596-12.5-12.5-12.5a12.497 12.497 0 00-11 6.56 12.497 12.497 0 00-11-6.56c-6.904 0-12.5 5.596-12.5 12.5 0 2.97 1.04 5.694 2.77 7.839l-.004.003L36 58.54l20.734-25.698-.004-.003A12.44 12.44 0 0059.5 25z"/><path fill="none" stroke="#000" stroke-linejoin="round" stroke-miterlimit="10" stroke-width="2" d="M59.5 25c0-6.904-5.596-12.5-12.5-12.5a12.497 12.497 0 00-11 6.56 12.497 12.497 0 00-11-6.56c-6.904 0-12.5 5.596-12.5 12.5 0 2.97 1.04 5.694 2.77 7.839l-.004.003L36 58.54l20.734-25.698-.004-.003A12.44 12.44 0 0059.5 25z"/></svg><svg viewBox="0 0 72 72" width="72" height="72" id="1F49C" x="288" xmlns="http://www.w3.org/2000/svg"><path fill="#B399C8" d="M59.5 25c0-6.904-5.596-12.5-12.5-12.5a12.497 12.497 0 00-11 6.56 12.497 12.497 0 00-11-6.56c-6.904 0-12.5 5.596-12.5 12.5 0 2.97 1.04 5.694 2.77 7.839l-.004.003L36 58.54l20.734-25.698-.004-.003A12.44 12.44 0 0059.5 25z"/><path fill="none" stroke="#000" stroke-linejoin="round" stroke-miterlimit="10" stroke-width="2" d="M59.5 25c0-6.904-5.596-12.5-12.5-12.5a12.497 12.497 0 00-11 6.56 12.497 12.497 0 00-11-6.56c-6.904 0-12.5 5.596-12.5 12.5 0 2.97 1.04 5.694 2.77 7.839l-.004.003L36 58.54l20.734-25.698-.004-.003A12.44 12.44 0 0059.5 25z"/></svg><svg viewBox="0 0 72 72" width="72" height="72" id="1F499" x="288" y="72" xmlns="http://www.w3.org/2000/svg"><path fill="#92D3F5" d="M59.5 25c0-6.904-5.596-12.5-12.5-12.5a12.497 12.497 0 00-11 6.56 12.497 12.497 0 00-11-6.56c-6.904 0-12.5 5.596-12.5 12.5 0 2.97 1.04 5.694 2.77 7.839l-.004.003L36 58.54l20.734-25.698-.004-.003A12.44 12.44 0 0059.5 25z"/><path fill="none" stroke="#000" stroke-linejoin="round" stroke-miterlimit="10" stroke-width="2" d="M59.5 25c0-6.904-5.596-12.5-12.5-12.5a12.497 12.497 0 00-11 6.56 12.497 12.497 0 00-11-6.56c-6.904 0-12.5 5.596-12.5 12.5 0 2.97 1.04 5.694 2.77 7.839l-.004.003L36 58.54l20.734-25.698-.004-.003A12.44 12.44 0 0059.5 25z"/></svg><svg viewBox="0 0 72 72" width="72" height="72" id="1F49A" x="288" y="144" xmlns="http://www.w3.org/2000/svg"><path fill="#B1CC33" d="M59.5 25c0-6.904-5.596-12.5-12.5-12.5a12.497 12.497 0 00-11 6.56 12.497 12.497 0 00-11-6.56c-6.904 0-12.5 5.596-12.5 12.5 0 2.97 1.04 5.694 2.77 7.839l-.004.003L36 58.54l20.734-25.698-.004-.003A12.44 12.44 0 0059.5 25z"/><path fill="none" stroke="#000" stroke-linejoin="round" stroke-miterlimit="10" stroke-width="2" d="M59.5 25c0-6.904-5.596-12.5-12.5-12.5a12.497 12.497 0 00-11 6.56 12.497 12.497 0 00-11-6.56c-6.904 0-12.5 5.596-12.5 12.5 0 2.97 1.04 5.694 2.77 7.839l-.004.003L36 58.54l20.734-25.698-.004-.003A12.44 12.44 0 0059.5 25z"/></svg><svg viewBox="0 0 72 72" width="72" height="72" id="1F49B" x="288" y="216" xmlns="http://www.w3.org/2000/svg"><path fill="#FCEA2B" d="M59.5 25c0-6.904-5.596-12.5-12.5-12.5a12.497 12.497 0 00-11 6.56 12.497 12.497 0 00-11-6.56c-6.904 0-12.5 5.596-12.5 12.5 0 2.97 1.04 5.694 2.77 7.839l-.004.003L36 58.54l20.734-25.698-.004-.003A12.44 12.44 0 0059.5 25z"/><path fill="none" stroke="#000" stroke-linejoin="round" stroke-miterlimit="10" stroke-width="2" d="M59.5 25c0-6.904-5.596-12.5-12.5-12.5a12.497 12.497 0 00-11 6.56 12.497 12.497 0 00-11-6.56c-6.904 0-12.5 5.596-12.5 12.5 0 2.97 1.04 5.694 2.77 7.839l-.004.003L36 58.54l20.734-25.698-.004-.003A12.44 12.44 0 0059.5 25z"/></svg><svg viewBox="0 0 72 72" width="72" height="72" id="1F9E1" y="288" xmlns="http://www.w3.org/2000/svg"><path fill="#F4AA41" d="M59.5 25c0-6.904-5.596-12.5-12.5-12.5a12.497 12.497 0 00-11 6.56 12.497 12.497 0 00-11-6.56c-6.904 0-12.5 5.596-12.5 12.5 0 2.97 1.04 5.694 2.77 7.839l-.004.003L36 58.54l20.734-25.698-.004-.003A12.44 12.44 0 0059.5 25z"/><path fill="none" stroke="#000" stroke-linejoin="round" stroke-miterlimit="10" stroke-width="2" d="M59.5 25c0-6.904-5.596-12.5-12.5-12.5a12.497 12.497 0 00-11 6.56 12.497 12.497 0 00-11-6.56c-6.904 0-12.5 5.596-12.5 12.5 0 2.97 1.04 5.694 2.77 7.839l-.004.003L36 58.54l20.734-25.698-.004-.003A12.44 12.44 0 0059.5 25z"/></svg><svg viewBox="0 0 72 72" width="72" height="72" id="2764" x="72" y="288" xmlns="http://www.w3.org/2000/svg"><path fill="#EA5A47" d="M59.5 25c0-6.904-5.596-12.5-12.5-12.5a12.497 12.497 0 00-11 6.56 12.497 12.497 0 00-11-6.56c-6.904 0-12.5 5.596-12.5 12.5 0 2.97 1.04 5.694 2.77 7.839l-.004.003L36 58.54l20.734-25.698-.004-.003A12.44 12.44 0 0059.5 25z"/><path fill="none" stroke="#000" stroke-linejoin="round" stroke-miterlimit="10" stroke-width="2" d="M59.5 25c0-6.904-5.596-12.5-12.5-12.5a12.497 12.497 0 00-11 6.56 12.497 12.497 0 00-11-6.56c-6.904 0-12.5 5.596-12.5 12.5 0 2.97 1.04 5.694 2.77 7.839l-.004.003L36 58.54l20.734-25.698-.004-.003A12.44 12.44 0 0059.5 25z"/></svg></svg>