<?xml version="1.0" encoding="utf-8"?><svg width="792" height="792" viewBox="0 0 792 792" xmlns="http://www.w3.org/2000/svg" xmlns:xlink="http://www.w3.org/1999/xlink"><svg viewBox="0 0 72 72" width="72" height="72" id="1F532" x="72" xmlns="http://www.w3.org/2000/svg"><path d="M16 16h40v40H16z"/><path fill="#fff" d="M25 26h21v21H25z"/><g fill="none" stroke="#000" stroke-linecap="round" stroke-linejoin="round" stroke-width="2"><path d="M16 16h40v40H16z"/><path d="M25 26h21v21H25z"/></g></svg><svg viewBox="0 0 72 72" width="72" height="72" id="1F533" x="288" y="504" xmlns="http://www.w3.org/2000/svg"><path fill="#fff" d="M16 16h40v40H16z"/><path d="M25 26h21v21H25z"/><path fill="none" stroke="#000" stroke-linecap="round" stroke-linejoin="round" stroke-width="2" d="M25 26h21v21H25z"/><g><path fill="none" stroke="#000" stroke-linecap="round" stroke-linejoin="round" stroke-width="2" d="M16 16h40v40H16z"/></g></svg><svg viewBox="0 0 72 72" width="72" height="72" id="1F518" y="72" xmlns="http://www.w3.org/2000/svg"><circle cx="36" cy="36" r="22" fill="#3F3F3F"/><circle cx="36" cy="36" r="12.756" fill="#9B9B9A"/><g fill="none" stroke="#000" stroke-miterlimit="10" stroke-width="2"><circle cx="36" cy="36" r="22"/><circle cx="36" cy="36" r="12.756"/></g></svg><svg viewBox="0 0 72 72" width="72" height="72" id="1F4A0" x="72" y="72" xmlns="http://www.w3.org/2000/svg"><path fill="#92d3f5" d="M12.065 36.5l24.218-24.217L60.5 36.5 36.283 60.718z"/><path fill="#e27022" d="M31.757 32.757h8.485v8.485h-8.485z"/><g fill="none" stroke="#000" stroke-linecap="round" stroke-linejoin="round" stroke-width="2"><path d="M32 33l-7.5-7.5M40 33l8.5-8.5M40 41l7.5 7.5M32 41l-7.5 7.5M12.065 36.5l24.218-24.217L60.5 36.5 36.283 60.718z"/><path d="M31.757 32.757h8.485v8.485h-8.485z"/></g></svg><svg viewBox="0 0 72 72" width="72" height="72" id="1F53B" x="144" xmlns="http://www.w3.org/2000/svg"><path fill="#EA5A47" d="M38.455 57.146L60.68 18.65c1.09-1.89-.273-4.252-2.455-4.252H13.774c-2.182 0-3.546 2.363-2.455 4.252l22.226 38.496c1.091 1.89 3.819 1.89 4.91 0z"/><path fill="none" stroke="#000" stroke-miterlimit="10" stroke-width="2" d="M38.455 57.146L60.68 18.65c1.09-1.89-.273-4.252-2.455-4.252H13.774c-2.182 0-3.546 2.363-2.455 4.252l22.226 38.496c1.091 1.89 3.819 1.89 4.91 0z"/></svg><svg viewBox="0 0 72 72" width="72" height="72" id="1F53A" x="144" y="72" xmlns="http://www.w3.org/2000/svg"><path fill="#EA5A47" d="M33.545 15.252L11.32 53.748c-1.09 1.89.273 4.252 2.455 4.252h44.452c2.182 0 3.546-2.362 2.455-4.252L38.455 15.252c-1.091-1.89-3.819-1.89-4.91 0z"/><path fill="none" stroke="#000" stroke-miterlimit="10" stroke-width="2" d="M33.545 15.252L11.32 53.748c-1.09 1.89.273 4.252 2.455 4.252h44.452c2.182 0 3.546-2.362 2.455-4.252L38.455 15.252c-1.091-1.89-3.819-1.89-4.91 0z"/></svg><svg viewBox="0 0 72 72" width="72" height="72" id="1F539" y="144" xmlns="http://www.w3.org/2000/svg"><path fill="#92d3f5" d="M16 36l19.5-19.5L55 36 35.5 55.5z"/><path fill="none" stroke="#000" stroke-linecap="round" stroke-linejoin="round" stroke-width="2" d="M16 36l19.5-19.5L55 36 35.5 55.5z"/></svg><svg viewBox="0 0 72 72" width="72" height="72" id="1F538" x="72" y="144" xmlns="http://www.w3.org/2000/svg"><path fill="#e27022" d="M17 36l19.5-19.5L56 36 36.5 55.5z"/><path fill="none" stroke="#000" stroke-linecap="round" stroke-linejoin="round" stroke-width="2" d="M17 36l19.5-19.5L56 36 36.5 55.5z"/></svg><svg viewBox="0 0 72 72" width="72" height="72" id="1F537" x="144" y="144" xmlns="http://www.w3.org/2000/svg"><path fill="#92d3f5" d="M12.065 35.5l24.218-24.217L60.5 35.5 36.283 59.718z"/><path fill="none" stroke="#000" stroke-linecap="round" stroke-linejoin="round" stroke-width="2" d="M12.065 35.5l24.218-24.217L60.5 35.5 36.283 59.718z"/></svg><svg viewBox="0 0 72 72" width="72" height="72" id="1F536" x="216" xmlns="http://www.w3.org/2000/svg"><path fill="#f4aa41" d="M36 10.984l24.974 24.974L36 60.932 11.027 35.958z"/><path fill="none" stroke="#000" stroke-linecap="round" stroke-linejoin="round" stroke-width="2" d="M36 10.984l24.974 24.974L36 60.932 11.027 35.958z"/></svg><svg viewBox="0 0 72 72" width="72" height="72" id="25AB" x="216" y="72" xmlns="http://www.w3.org/2000/svg"><path fill="#fff" d="M23.009 22.947H48.99v25.981H23.009z"/><path fill="none" stroke="#000" stroke-linecap="round" stroke-linejoin="round" stroke-width="2" d="M23.009 22.947H48.99v25.981H23.009z"/></svg><svg viewBox="0 0 72 72" width="72" height="72" id="25AA" x="216" y="144" xmlns="http://www.w3.org/2000/svg"><path d="M23.009 23.051H48.99v25.981H23.009z"/><path fill="none" stroke="#000" stroke-linecap="round" stroke-linejoin="round" stroke-width="2" d="M23.009 23.051H48.99v25.981H23.009z"/></svg><svg viewBox="0 0 72 72" width="72" height="72" id="25FD" y="216" xmlns="http://www.w3.org/2000/svg"><path fill="#fff" d="M20.264 20.202h31.471v31.471H20.264z"/><path fill="none" stroke="#000" stroke-linecap="round" stroke-linejoin="round" stroke-width="2" d="M20.264 20.202h31.471v31.471H20.264z"/></svg><svg viewBox="0 0 72 72" width="72" height="72" id="25FE" x="72" y="216" xmlns="http://www.w3.org/2000/svg"><path d="M20.264 20.306h31.471v31.471H20.264z"/><path fill="none" stroke="#000" stroke-linecap="round" stroke-linejoin="round" stroke-width="2" d="M20.264 20.306h31.471v31.471H20.264z"/></svg><svg viewBox="0 0 72 72" width="72" height="72" id="25FB" x="144" y="216" xmlns="http://www.w3.org/2000/svg"><path fill="#fff" d="M16.083 15.938h39.833v39.833H16.083z"/><path fill="none" stroke="#000" stroke-linecap="round" stroke-linejoin="round" stroke-width="2" d="M16.083 15.938h39.833v39.833H16.083z"/></svg><svg viewBox="0 0 72 72" width="72" height="72" id="25FC" x="216" y="216" xmlns="http://www.w3.org/2000/svg"><path d="M16.083 16.042h39.833v39.833H16.083z"/><path fill="none" stroke="#000" stroke-linecap="round" stroke-linejoin="round" stroke-width="2" d="M16.083 16.042h39.833v39.833H16.083z"/></svg><svg viewBox="0 0 72 72" width="72" height="72" id="2B1C" x="288" xmlns="http://www.w3.org/2000/svg"><path fill="#fff" d="M11 10.937h50v50H11z"/><path fill="none" stroke="#000" stroke-linecap="round" stroke-linejoin="round" stroke-width="2" d="M11 10.937h50v50H11z"/></svg><svg viewBox="0 0 72 72" width="72" height="72" id="2B1B" x="288" y="72" xmlns="http://www.w3.org/2000/svg"><path d="M11 11.042h50v50H11z"/><path fill="none" stroke="#000" stroke-linecap="round" stroke-linejoin="round" stroke-width="2" d="M11 11.042h50v50H11z"/></svg><svg viewBox="0 0 72 72" width="72" height="72" id="1F7EB" x="288" y="144" xmlns="http://www.w3.org/2000/svg"><path fill="#a57939" d="M59.035 60h-46.07a.968.968 0 01-.965-.965v-46.07a.968.968 0 01.965-.965h46.07a.968.968 0 01.965.965v46.07a.968.968 0 01-.965.965z"/><path fill="none" stroke="#000" stroke-linejoin="round" stroke-width="2" d="M59.035 60h-46.07a.968.968 0 01-.965-.965v-46.07a.968.968 0 01.965-.965h46.07a.968.968 0 01.965.965v46.07a.968.968 0 01-.965.965z"/></svg><svg viewBox="0 0 72 72" width="72" height="72" id="1F7EA" x="288" y="216" xmlns="http://www.w3.org/2000/svg"><path fill="#b399c8" d="M59.035 60h-46.07a.968.968 0 01-.965-.965v-46.07a.968.968 0 01.965-.965h46.07a.968.968 0 01.965.965v46.07a.968.968 0 01-.965.965z"/><path fill="none" stroke="#000" stroke-linejoin="round" stroke-width="2" d="M59.035 60h-46.07a.968.968 0 01-.965-.965v-46.07a.968.968 0 01.965-.965h46.07a.968.968 0 01.965.965v46.07a.968.968 0 01-.965.965z"/></svg><svg viewBox="0 0 72 72" width="72" height="72" id="1F7E6" y="288" xmlns="http://www.w3.org/2000/svg"><path fill="#92d3f5" d="M59.035 60h-46.07a.968.968 0 01-.965-.965v-46.07a.968.968 0 01.965-.965h46.07a.968.968 0 01.965.965v46.07a.968.968 0 01-.965.965z"/><path fill="none" stroke="#000" stroke-linejoin="round" stroke-width="2" d="M59.035 60h-46.07a.968.968 0 01-.965-.965v-46.07a.968.968 0 01.965-.965h46.07a.968.968 0 01.965.965v46.07a.968.968 0 01-.965.965z"/></svg><svg viewBox="0 0 72 72" width="72" height="72" id="1F7E9" x="72" y="288" xmlns="http://www.w3.org/2000/svg"><path fill="#b1cc33" d="M59.035 60h-46.07a.968.968 0 01-.965-.965v-46.07a.968.968 0 01.965-.965h46.07a.968.968 0 01.965.965v46.07a.968.968 0 01-.965.965z"/><path fill="none" stroke="#000" stroke-linejoin="round" stroke-width="2" d="M59.035 60h-46.07a.968.968 0 01-.965-.965v-46.07a.968.968 0 01.965-.965h46.07a.968.968 0 01.965.965v46.07a.968.968 0 01-.965.965z"/></svg><svg viewBox="0 0 72 72" width="72" height="72" id="1F7E8" x="144" y="288" xmlns="http://www.w3.org/2000/svg"><path fill="#fcea2b" d="M59.035 60h-46.07a.968.968 0 01-.965-.965v-46.07a.968.968 0 01.965-.965h46.07a.968.968 0 01.965.965v46.07a.968.968 0 01-.965.965z"/><path fill="none" stroke="#000" stroke-linejoin="round" stroke-width="2" d="M59.035 60h-46.07a.968.968 0 01-.965-.965v-46.07a.968.968 0 01.965-.965h46.07a.968.968 0 01.965.965v46.07a.968.968 0 01-.965.965z"/></svg><svg viewBox="0 0 72 72" width="72" height="72" id="1F7E7" x="216" y="288" xmlns="http://www.w3.org/2000/svg"><path fill="#f1b31c" d="M59.035 60h-46.07a.968.968 0 01-.965-.965v-46.07a.968.968 0 01.965-.965h46.07a.968.968 0 01.965.965v46.07a.968.968 0 01-.965.965z"/><path fill="none" stroke="#000" stroke-linejoin="round" stroke-width="2" d="M59.035 60h-46.07a.968.968 0 01-.965-.965v-46.07a.968.968 0 01.965-.965h46.07a.968.968 0 01.965.965v46.07a.968.968 0 01-.965.965z"/></svg><svg viewBox="0 0 72 72" width="72" height="72" id="1F7E5" x="288" y="288" xmlns="http://www.w3.org/2000/svg"><path fill="#ea5a47" d="M59.035 60h-46.07a.968.968 0 01-.965-.965v-46.07a.968.968 0 01.965-.965h46.07a.968.968 0 01.965.965v46.07a.968.968 0 01-.965.965z"/><path fill="none" stroke="#000" stroke-linejoin="round" stroke-width="2" d="M59.035 60h-46.07a.968.968 0 01-.965-.965v-46.07a.968.968 0 01.965-.965h46.07a.968.968 0 01.965.965v46.07a.968.968 0 01-.965.965z"/></svg><svg viewBox="0 0 72 72" width="72" height="72" id="26AA" x="360" xmlns="http://www.w3.org/2000/svg"><circle cx="36" cy="36" r="28" fill="#fff"/><circle cx="36" cy="36" r="28" fill="none" stroke="#000" stroke-linejoin="round" stroke-width="2"/></svg><svg viewBox="0 0 72 72" width="72" height="72" id="26AB" x="360" y="72" xmlns="http://www.w3.org/2000/svg"><circle cx="36" cy="36" r="28"/><circle cx="36" cy="36" r="28" fill="none" stroke="#000" stroke-linejoin="round" stroke-width="2"/></svg><svg viewBox="0 0 72 72" width="72" height="72" id="1F7E4" x="360" y="144" xmlns="http://www.w3.org/2000/svg"><circle cx="36" cy="36" r="28" fill="#a57939"/><circle cx="36" cy="36" r="28" fill="none" stroke="#000" stroke-linejoin="round" stroke-width="2"/></svg><svg viewBox="0 0 72 72" width="72" height="72" id="1F7E3" x="360" y="216" xmlns="http://www.w3.org/2000/svg"><circle cx="36" cy="36" r="28" fill="#b399c8"/><circle cx="36" cy="36" r="28" fill="none" stroke="#000" stroke-linejoin="round" stroke-width="2"/></svg><svg viewBox="0 0 72 72" width="72" height="72" id="1F535" x="360" y="288" xmlns="http://www.w3.org/2000/svg"><circle cx="36" cy="36" r="28" fill="#61b2e4"/><circle cx="36" cy="36" r="28" fill="none" stroke="#000" stroke-linejoin="round" stroke-width="2"/></svg><svg viewBox="0 0 72 72" width="72" height="72" id="1F7E2" y="360" xmlns="http://www.w3.org/2000/svg"><circle cx="36" cy="36" r="28" fill="#b1cc33"/><circle cx="36" cy="36" r="28" fill="none" stroke="#000" stroke-linejoin="round" stroke-width="2"/></svg><svg viewBox="0 0 72 72" width="72" height="72" id="1F7E1" x="72" y="360" xmlns="http://www.w3.org/2000/svg"><circle cx="36" cy="36" r="28" fill="#fcea2b"/><circle cx="36" cy="36" r="28" fill="none" stroke="#000" stroke-linejoin="round" stroke-width="2"/></svg><svg viewBox="0 0 72 72" width="72" height="72" id="1F7E0" x="144" y="360" xmlns="http://www.w3.org/2000/svg"><circle cx="36" cy="36" r="28" fill="#f1b31c"/><circle cx="36" cy="36" r="28" fill="none" stroke="#000" stroke-linejoin="round" stroke-width="2"/></svg><svg viewBox="0 0 72 72" width="72" height="72" id="1F534" x="216" y="360" xmlns="http://www.w3.org/2000/svg"><circle cx="36" cy="36" r="28" fill="#d22f27"/><circle cx="36" cy="36" r="28" fill="none" stroke="#000" stroke-linejoin="round" stroke-width="2"/></svg><svg viewBox="0 0 72 72" width="72" height="72" id="1F235" x="288" y="360" xmlns="http://www.w3.org/2000/svg"><path fill="#ea5a47" d="M59.035 60h-46.07a.968.968 0 01-.965-.965v-46.07a.968.968 0 01.965-.965h46.07a.968.968 0 01.965.965v46.07a.968.968 0 01-.965.965z"/><g fill="none" stroke="#000" stroke-width="2"><path stroke-miterlimit="10" d="M59.035 60h-46.07a.968.968 0 01-.965-.965v-46.07a.968.968 0 01.965-.965h46.07a.968.968 0 01.965.965v46.07a.968.968 0 01-.965.965z"/><path stroke-linecap="round" stroke-linejoin="round" d="M21.394 21.005l3 3M20.394 29.005l3 3M27.5 23.5h23M34.5 20.5v8M44.5 20.5v8M26.5 29.5h26M39.5 30.5v14h5v-5M34.5 39.5v7M39.5 44.5h-4M24.5 39.5s-1 7-4 9"/><path stroke-linecap="round" stroke-linejoin="round" d="M28.5 50.5v-16h21v15h-5"/></g><g fill="none" stroke="#fff" stroke-linecap="round" stroke-linejoin="round" stroke-width="2"><path d="M21.394 21.005l3 3M20.394 29.005l3 3M27.5 23.5h23M34.5 20.5v8M44.5 20.5v8M26.5 29.5h26M39.5 30.5v14h5v-5M34.5 39.5v7M39.5 44.5h-4M24.5 39.5s-1 7-4 9"/><path d="M28.5 50.5v-16h21v15h-5"/></g></svg><svg viewBox="0 0 72 72" width="72" height="72" id="1F23A" x="360" y="360" xmlns="http://www.w3.org/2000/svg"><path fill="#d0cfce" d="M59.035 60h-46.07a.968.968 0 01-.965-.965v-46.07a.968.968 0 01.965-.965h46.07a.968.968 0 01.965.965v46.07a.968.968 0 01-.965.965z"/><g fill="none" stroke="#000" stroke-width="2"><path stroke-miterlimit="10" d="M59.035 60h-46.07a.968.968 0 01-.965-.965v-46.07a.968.968 0 01.965-.965h46.07a.968.968 0 01.965.965v46.07a.968.968 0 01-.965.965z"/><path stroke-linecap="round" stroke-linejoin="round" d="M23 32v-5h25v5M27 22l3.104 5M34 22l3.144 5M44 22l-2.654 5"/><path stroke-linecap="round" stroke-linejoin="round" d="M28 31v6h15v-6H28zM33 41l2-4M25 50v-9h21v9M26 47h19"/></g></svg><svg viewBox="0 0 72 72" width="72" height="72" id="3299" x="432" xmlns="http://www.w3.org/2000/svg"><circle cx="36" cy="36" r="28" fill="#d0cfce"/><circle cx="36" cy="36" r="28" fill="none" stroke="#000" stroke-linejoin="round" stroke-miterlimit="10" stroke-width="2"/><path d="M35.334 33.44l-.663-.035-.677-.036a.587.587 0 00-.617.547 33.778 33.778 0 01-.457 3.549c-.881-1.324-2.04-2.608-2.695-3.297h2.318a.31.31 0 00.31-.311v-1.895a.31.31 0 00-.31-.311H30.05l-.03-3.772c.882-.243 1.743-.523 2.475-.851a.312.312 0 00.146-.423l-.822-1.695a.313.313 0 00-.412-.151c-2.204.966-5.958 1.545-7.043 1.698a.31.31 0 00-.263.347l.2 1.6c.041.326.336.557.661.51a50.579 50.579 0 002.546-.443l.025 3.18H24.16a.31.31 0 00-.31.31v1.896c0 .172.138.31.31.31h2.89c-.678 1.882-1.928 4.975-3.425 6.94a.59.59 0 00.073.81l.523.452.492.426c.252.217.64.19.843-.072.756-.977 1.443-2.17 2.04-3.375l.065 8.296a.31.31 0 00.313.309l1.896-.015a.31.31 0 00.308-.313l-.077-9.766c.267.342.528.695.76 1.047a.582.582 0 00.78.174l.594-.346.474-.277c-.169.71-.362 1.337-.58 1.77a.581.581 0 00.148.719l.577.473.473.386a.59.59 0 00.886-.158c1.16-2.042 1.558-5.926 1.678-7.583a.583.583 0 00-.556-.623zM38.857 26.459c1.023.654 3.09 2.103 3.969 3.256.1.13.272.167.41.079l1.604-1.02a.309.309 0 00.092-.44c-1.224-1.69-3.856-3.446-4.748-4.014a.307.307 0 00-.429.1l-.993 1.618a.307.307 0 00.095.42z"/><path d="M47.64 32.135a.559.559 0 00-.198-.216c.986-2.726 1.429-4.883 1.563-5.666a.305.305 0 00-.262-.352l-1.877-.279a.31.31 0 00-.351.252c-.242 1.3-1.413 6.669-4.757 11.883v-7.676a.31.31 0 00-.31-.31h-1.896a.31.31 0 00-.31.31v11.036a23.23 23.23 0 01-4.191 3.753.305.305 0 00-.083.422l1.057 1.573a.319.319 0 00.442.085 24.776 24.776 0 002.806-2.274 3.26 3.26 0 003.239 2.958h2.584a2.993 2.993 0 002.967-2.594l.334-2.484a.31.31 0 00-.267-.35l-1.878-.252a.31.31 0 00-.35.266l-.333 2.483a.477.477 0 01-.473.414h-2.861a.478.478 0 01-.477-.477v-2.59c1.893-2.286 3.325-4.714 4.385-6.983.421 1.165.823 2.636.843 4.08.003.166.13.3.297.304l1.897.044a.316.316 0 00.323-.314c-.024-2.95-1.287-5.865-1.864-7.046z"/></svg><svg viewBox="0 0 72 72" width="72" height="72" id="3297" x="432" y="72" xmlns="http://www.w3.org/2000/svg"><circle cx="36" cy="36" r="28" fill="#d0cfce"/><circle cx="36" cy="36" r="28" fill="none" stroke="#000" stroke-linejoin="round" stroke-miterlimit="10" stroke-width="2"/><path d="M27.879 24.528a.54.54 0 00-.551-.528H25.93a.54.54 0 00-.551.528v2H22.01a.602.602 0 00-.614.59v1.217c0 .325.275.59.614.59h6.902c-.742 2.272-2.766 6.527-7.516 6.527v2.396a9.296 9.296 0 003.982-.868v9.489c0 .293.248.531.554.531h1.391a.543.543 0 00.555-.531v-9.736c.627.478 1.44.921 2.48 1.242a.57.57 0 00.712-.387l.345-1.284c.074-.274-.096-.545-.376-.635-1.262-.403-1.899-.988-2.211-1.398 1.713-2.071 2.62-4.605 2.921-6.35l.24-1.393H27.88v-2zM49.195 40.124h-1.004a.757.757 0 00-.748.766v2.516c0 .235-.085.46-.24.634a.895.895 0 01-.655.302c-.241.023-.486-.092-.718-.328a.942.942 0 01-.267-.662v-9.817h.205c1.313 0 2.381-1.094 2.381-2.439V26.44c0-1.345-1.068-2.439-2.38-2.439h-7.675c-1.313 0-2.381 1.094-2.381 2.439v4.657c0 1.345 1.068 2.439 2.38 2.439h.294c.126 2.6-.1 9.115-5.288 11.152a.345.345 0 00-.206.42l.583 1.772a.357.357 0 00.462.221c5.995-2.311 7.195-9.19 6.97-13.565h2.155v9.817c0 .934.355 1.812 1.052 2.527a3.343 3.343 0 002.412 1.024h.074c1.275-.028 2.417-.758 3.03-2.005.222-.453.312-.963.312-1.468v-2.54a.757.757 0 00-.748-.766zM38.213 26.56h7.436v4.413h-7.436V26.56z"/></svg><svg viewBox="0 0 72 72" width="72" height="72" id="1F233" x="432" y="144" xmlns="http://www.w3.org/2000/svg"><path fill="#1e50a0" d="M59.035 60h-46.07a.968.968 0 01-.965-.965v-46.07a.968.968 0 01.965-.965h46.07a.968.968 0 01.965.965v46.07a.968.968 0 01-.965.965z"/><g fill="none" stroke="#000" stroke-width="2"><path stroke-miterlimit="10" d="M59.035 60h-46.07a.968.968 0 01-.965-.965v-46.07a.968.968 0 01.965-.965h46.07a.968.968 0 01.965.965v46.07a.968.968 0 01-.965.965z"/><path stroke-linecap="round" stroke-linejoin="round" d="M23 30v-4h25v4M35.5 22.5V26M31.5 26.5s2 8-9 10"/><path stroke-linecap="round" stroke-linejoin="round" d="M38.34 26l.16 8.5h5.586a3.414 3.414 0 002.414-1h0M25 41h21M35.5 41.5v8h-13M49.5 49.5h-14"/></g></svg><svg viewBox="0 0 72 72" width="72" height="72" id="1F234" x="432" y="216" xmlns="http://www.w3.org/2000/svg"><path fill="#ea5a47" d="M59.035 60h-46.07a.968.968 0 01-.965-.965v-46.07a.968.968 0 01.965-.965h46.07a.968.968 0 01.965.965v46.07a.968.968 0 01-.965.965z"/><g fill="none" stroke="#000" stroke-width="2"><path stroke-miterlimit="10" d="M59.035 60h-46.07a.968.968 0 01-.965-.965v-46.07a.968.968 0 01.965-.965h46.07a.968.968 0 01.965.965v46.07a.968.968 0 01-.965.965z"/><path stroke-linecap="round" stroke-linejoin="round" d="M20 31c7 0 15-11 15-11s9.5 10.5 15.5 11.5M28.5 30.5h14M25.5 50.5v-13h20v13M26.5 48.5h19"/></g><g fill="none" stroke="#fff" stroke-linecap="round" stroke-linejoin="round" stroke-width="2"><path d="M20 31c7 0 15-11 15-11s9.5 10.5 15.5 11.5M28.5 30.5h14M25.5 50.5v-13h20v13M26.5 48.5h19"/></g></svg><svg viewBox="0 0 72 72" width="72" height="72" id="1F238" x="432" y="288" xmlns="http://www.w3.org/2000/svg"><path fill="#d0cfce" d="M59.035 60h-46.07a.968.968 0 01-.965-.965v-46.07a.968.968 0 01.965-.965h46.07a.968.968 0 01.965.965v46.07a.968.968 0 01-.965.965z"/><g stroke="#000" stroke-width="2"><path fill="none" stroke-miterlimit="10" d="M59.035 60h-46.07a.968.968 0 01-.965-.965v-46.07a.968.968 0 01.965-.965h46.07a.968.968 0 01.965.965v46.07a.968.968 0 01-.965.965z"/><path fill="none" stroke-linecap="round" stroke-linejoin="round" d="M25.5 41.5h21M46.5 33.5h-21M47.5 43.5v-17h-23v17"/><path stroke-linecap="round" stroke-linejoin="round" d="M36.5 21.5v30"/></g></svg><svg viewBox="0 0 72 72" width="72" height="72" id="1F251" x="432" y="360" xmlns="http://www.w3.org/2000/svg"><circle cx="36.5" cy="36.5" r="27.5" fill="#d0cfce"/><path d="M36.5 11A25.5 25.5 0 1111 36.5 25.529 25.529 0 0136.5 11m0-2A27.5 27.5 0 1064 36.5 27.5 27.5 0 0036.5 9z"/><path fill="none" stroke="#000" stroke-linecap="round" stroke-linejoin="round" stroke-width="2" d="M21 25h31M37.5 52.5h8v-26M25.5 47.5v-14h12v10h-11"/></svg><svg viewBox="0 0 72 72" width="72" height="72" id="1F232" y="432" xmlns="http://www.w3.org/2000/svg"><path fill="#d0cfce" d="M59.035 60h-46.07a.968.968 0 01-.965-.965v-46.07a.968.968 0 01.965-.965h46.07a.968.968 0 01.965.965v46.07a.968.968 0 01-.965.965z"/><g stroke="#000" stroke-width="2"><path stroke-linecap="round" stroke-linejoin="round" d="M25 37h22M21.5 41.5h29"/><path fill="none" stroke-linecap="round" stroke-linejoin="round" d="M36.5 43v7.5h-5M29 44s-3 5-7 6M43 44s3 5 7 6"/><path stroke-linecap="round" stroke-linejoin="round" d="M28 22v10M21 24.574h12.5M21.5 32.5s6-4 6-8M28.852 24.5s1.648 5 4.648 6M43.5 22v10M50.5 24.574H38M50 32.5s-6-4-6-8M42.648 24.5S40.645 30.75 37 32"/><path fill="none" stroke-miterlimit="10" d="M59.035 60h-46.07a.968.968 0 01-.965-.965v-46.07a.968.968 0 01.965-.965h46.07a.968.968 0 01.965.965v46.07a.968.968 0 01-.965.965z"/></g></svg><svg viewBox="0 0 72 72" width="72" height="72" id="1F21A" x="72" y="432" xmlns="http://www.w3.org/2000/svg"><rect x="11.591" y="11.617" rx="1.699" width="48.984" height="48.984" fill="#d0cfce"/><g stroke="#000" stroke-width="2"><path fill="none" stroke-linecap="round" stroke-linejoin="round" d="M30.593 17.728s-2.769 7.54-8.462 10.309M50.518 23.498H27.355v18.54"/><path fill="#d0cfce" stroke-linecap="round" stroke-linejoin="round" d="M22.131 42.422h28.387M22.131 32.96h28.387"/><path fill="none" stroke-linejoin="round" d="M33.595 23.073v19.349M39.825 23.073v19.349M45.979 23.073v19.349"/><path fill="none" stroke-linecap="round" stroke-miterlimit="10" d="M26.043 46.926l-2.304 3.838M33.035 47.674l-.398 4.459M40.64 47.671l.313 4.465M47.905 47.124l2.271 3.858"/><rect x="11.591" y="11.617" rx="1.699" width="48.984" height="48.984" fill="none" stroke-miterlimit="10"/></g></svg><svg viewBox="0 0 72 72" width="72" height="72" id="1F239" x="144" y="432" xmlns="http://www.w3.org/2000/svg"><rect x="11.234" y="11.922" rx="1.699" width="48.984" height="48.984" fill="#d0cfce"/><g fill="none" stroke="#000" stroke-width="2"><path stroke-linecap="round" stroke-miterlimit="10" d="M22.98 31.429h12.992M22.98 25.418h14.107M22.223 25.418H36.33M23.396 35.547h12.14M24.11 50.707h10.915M21.728 40.115h15.465M29.476 28.885v11.23M42.222 25.621v17.383M29.476 21.951v3.205M37.087 25.418v3.467M22.223 25.418v3.467"/><path stroke-linecap="round" stroke-linejoin="round" d="M24.11 52.46v-8.072h11.058v8.072M49.416 21.951V51.87h-5.642"/><rect x="11.234" y="11.922" rx="1.699" width="48.984" height="48.984" stroke-miterlimit="10"/></g></svg><svg viewBox="0 0 72 72" width="72" height="72" id="1F250" x="216" y="432" xmlns="http://www.w3.org/2000/svg"><rect x="11.792" y="11.974" rx="1.699" width="48.984" height="48.984" fill="#d0cfce"/><g fill="none" stroke="#000" stroke-width="2"><path stroke-linecap="round" stroke-linejoin="round" d="M34.293 24.315h14.135v10.826H34.047V24.315h.246z"/><path stroke-miterlimit="10" d="M34.047 29.728h14.381"/><path stroke-linecap="round" stroke-miterlimit="10" d="M31.693 40.464h19.091M31.693 45.787h19.091M34.715 51.11h3.533M21.245 36.317l7.476-3.176M20.926 28.646l7.476-3.176"/><path stroke-linecap="round" stroke-linejoin="round" d="M42.521 52.493h3.533V40.696"/><path stroke-linecap="round" stroke-miterlimit="10" d="M25.465 34.525v17.968"/><rect x="11.792" y="11.974" rx="1.699" width="48.984" height="48.984" stroke-miterlimit="10"/></g></svg><svg viewBox="0 0 72 72" width="72" height="72" id="1F22F" x="288" y="432" xmlns="http://www.w3.org/2000/svg"><rect x="11.168" y="11.09" rx="1.699" width="48.984" height="48.984" fill="#d0cfce"/><g fill="none" stroke="#000" stroke-width="2"><path stroke-linecap="round" stroke-linejoin="round" d="M37.932 51.824V36.539h12.14v15.285"/><path stroke-miterlimit="5" d="M37.932 41.433h12.14"/><path stroke-linecap="round" stroke-miterlimit="5" d="M23.834 30.254h8.898M24.279 41.567l8.475-2.708"/><path stroke-linecap="round" stroke-linejoin="round" d="M50.072 26.257v3.997h-12.14V19.615M28.476 19.615v31.509h-7.229"/><path stroke-miterlimit="5" d="M37.932 46.736h12.14"/><path stroke-linecap="round" stroke-miterlimit="5" d="M37.932 25.533l10.056-3.013"/><rect x="11.168" y="11.09" rx="1.699" width="48.984" height="48.984" stroke-miterlimit="10"/></g></svg><svg viewBox="0 0 72 72" width="72" height="72" id="1F236" x="360" y="432" xmlns="http://www.w3.org/2000/svg"><rect x="11.472" y="11.042" rx="1.699" width="48.984" height="48.984" fill="#d0cfce"/><g fill="none" stroke="#000" stroke-width="2"><path stroke-linecap="round" stroke-miterlimit="5" d="M21.321 25.123h29.975M34.433 19.997a46.047 46.047 0 01-5.197 10.875 25.378 25.378 0 01-8.562 8.415M40.304 51.304h5.89a.6.6 0 00.661-.507V32.028a.6.6 0 00-.66-.507H30.606M29.85 37.9h17.005M29.225 32.083v19.005"/><path stroke-miterlimit="5" d="M29.225 43.228h17.63"/><rect x="11.472" y="11.042" rx="1.699" width="48.984" height="48.984" stroke-miterlimit="10"/></g></svg><svg viewBox="0 0 72 72" width="72" height="72" id="1F237" x="432" y="432" xmlns="http://www.w3.org/2000/svg"><path fill="#d0cfce" d="M13.7 12h44.7a1.685 1.685 0 011.7 1.7v44.7a1.685 1.685 0 01-1.7 1.7H13.7a1.685 1.685 0 01-1.7-1.7V13.7a1.627 1.627 0 011.7-1.7z"/><g fill="none" stroke="#000" stroke-width="2"><path stroke-miterlimit="10" d="M13.7 12h44.7a1.685 1.685 0 011.7 1.7v44.7a1.685 1.685 0 01-1.7 1.7H13.7a1.685 1.685 0 01-1.7-1.7V13.7a1.627 1.627 0 011.7-1.7z"/><path stroke-linecap="round" stroke-linejoin="round" d="M25 39h22M25 30h22M25 21h22M25 21v18c0 5-1 9-4 12M47 21v28a2.006 2.006 0 01-2 2h-6"/></g></svg><svg viewBox="0 0 72 72" width="72" height="72" id="1F202" x="504" xmlns="http://www.w3.org/2000/svg"><path fill="#d0cfce" d="M59.035 60h-46.07a.968.968 0 01-.965-.965v-46.07c0-.53.434-.965.965-.965h46.07c.53 0 .965.434.965.965v46.07c0 .53-.434.965-.965.965z"/><path fill="none" stroke="#000" stroke-miterlimit="10" stroke-width="2" d="M59.035 60h-46.07a.968.968 0 01-.965-.965v-46.07c0-.53.434-.965.965-.965h46.07c.53 0 .965.434.965.965v46.07c0 .53-.434.965-.965.965z"/><path d="M49.14 29.85H43.66v-4.782a.499.499 0 00-.499-.499h-1.73a.499.499 0 00-.5.499v4.782h-9.162v-4.782a.499.499 0 00-.498-.499h-1.73a.499.499 0 00-.5.499v4.782h-6.18a.499.499 0 00-.499.499v1.73c0 .276.223.499.498.499h6.182v7.58c0 .275.223.498.498.498h1.731a.499.499 0 00.498-.498v-7.58h9.163v4.91c0 2.956-1.112 5.764-3.05 7.703-1.29 1.289-2.702 2.003-4.206 2.126a.5.5 0 00-.473.491v1.736c0 .284.237.521.52.505 2.23-.132 4.275-1.116 6.088-2.93 2.446-2.446 3.849-5.956 3.849-9.632v-4.909h5.482a.499.499 0 00.498-.498v-1.731a.499.499 0 00-.498-.499z"/></svg><svg viewBox="0 0 72 72" width="72" height="72" id="1F201" x="504" y="72" xmlns="http://www.w3.org/2000/svg"><rect x="11.805" y="11.602" rx="1.699" width="48.984" height="48.984" fill="#d0cfce"/><g fill="none" stroke="#000" stroke-width="2"><path stroke-linecap="round" stroke-miterlimit="5" d="M17.368 26.219h16.53a.43.43 0 01.43.43v22.296M34.327 46.283H17.368M37.475 26.219h16.53a.43.43 0 01.43.43v22.296M54.434 46.283H37.475"/><rect x="11.805" y="11.602" rx="1.699" width="48.984" height="48.984" stroke-miterlimit="10"/></g></svg><svg viewBox="0 0 72 72" width="72" height="72" id="1F19A" x="504" y="144" xmlns="http://www.w3.org/2000/svg"><path fill="#d0cfce" d="M59.035 60h-46.07a.968.968 0 01-.965-.965v-46.07c0-.53.434-.965.965-.965h46.07c.53 0 .965.434.965.965v46.07c0 .53-.434.965-.965.965z"/><g fill="none" stroke="#000" stroke-linejoin="round" stroke-miterlimit="10" stroke-width="2"><path d="M59.035 60h-46.07a.968.968 0 01-.965-.965v-46.07c0-.53.434-.965.965-.965h46.07c.53 0 .965.434.965.965v46.07c0 .53-.434.965-.965.965z"/><path stroke-linecap="round" d="M44.168 33.244c-.293-1.138-1.557-1.994-3.073-1.994h0c-1.733 0-3.137 1.118-3.137 2.497s1.404 2.498 3.137 2.498l-.064.01c1.733 0 3.137 1.117 3.137 2.497s-1.404 2.498-3.137 2.498h0c-1.516 0-2.78-.856-3.073-1.995M35.232 31.259l-2.854 9.99-2.855-9.99"/></g></svg><svg viewBox="0 0 72 72" width="72" height="72" id="1F199" x="504" y="216" xmlns="http://www.w3.org/2000/svg"><path fill="#92d3f5" d="M59.035 60h-46.07a.968.968 0 01-.965-.965v-46.07a.968.968 0 01.965-.965h46.07a.968.968 0 01.965.965v46.07a.968.968 0 01-.965.965z"/><path fill="none" stroke="#000" stroke-miterlimit="10" stroke-width="2" d="M59.035 60h-46.07a.968.968 0 01-.965-.965v-46.07a.968.968 0 01.965-.965h46.07a.968.968 0 01.965.965v46.07a.968.968 0 01-.965.965z"/><path fill="none" stroke="#000" stroke-linecap="round" stroke-linejoin="round" stroke-width="2" d="M30.426 30.015v6.75a3.75 3.75 0 01-3.75 3.75h0a3.75 3.75 0 01-3.75-3.75v-6.75M35.648 40.47v-10.5h4.003a2.615 2.615 0 012.616 2.615h0A2.615 2.615 0 0139.65 35.2h-4.003M49.869 29.97v6.486"/><circle cx="49.869" cy="40.47" r="1.5"/></svg><svg viewBox="0 0 72 72" width="72" height="72" id="1F198" x="504" y="288" xmlns="http://www.w3.org/2000/svg"><path fill="#D22F27" d="M59.035 60h-46.07a.968.968 0 01-.965-.965v-46.07c0-.53.434-.965.965-.965h46.07c.53 0 .965.434.965.965v46.07c0 .53-.434.965-.965.965z"/><g fill="none" stroke="#000" stroke-miterlimit="10" stroke-width="2"><path d="M59.035 60h-46.07a.968.968 0 01-.965-.965v-46.07c0-.53.434-.965.965-.965h46.07c.53 0 .965.434.965.965v46.07c0 .53-.434.965-.965.965z"/><path stroke-linecap="round" stroke-linejoin="round" d="M36.5 39.471h0a2.857 2.857 0 01-2.857-2.857v-2.286a2.857 2.857 0 012.857-2.857h0a2.857 2.857 0 012.857 2.857v2.286a2.857 2.857 0 01-2.857 2.857zM29.984 33.062c-.234-.91-1.246-1.595-2.458-1.595h0c-1.386 0-2.51.894-2.51 1.998 0 1.103 1.123 1.998 2.51 1.998l-.051.007c1.386 0 2.51.895 2.51 1.998 0 1.104-1.124 1.998-2.51 1.998h0c-1.213 0-2.225-.684-2.459-1.595M47.984 33.062c-.234-.91-1.246-1.595-2.458-1.595h0c-1.387 0-2.51.894-2.51 1.998s1.123 1.998 2.51 1.998l-.052.007c1.387 0 2.51.895 2.51 1.998 0 1.104-1.123 1.998-2.51 1.998h0c-1.212 0-2.224-.684-2.458-1.595"/></g></svg><svg viewBox="0 0 72 72" width="72" height="72" id="1F17F" x="504" y="360" xmlns="http://www.w3.org/2000/svg"><path fill="#d0cfce" d="M59.035 60h-46.07a.968.968 0 01-.965-.965v-46.07c0-.53.434-.965.965-.965h46.07c.53 0 .965.434.965.965v46.07c0 .53-.434.965-.965.965z"/><g fill="none" stroke="#000" stroke-linejoin="round" stroke-miterlimit="10" stroke-width="2"><path d="M59.035 60h-46.07a.968.968 0 01-.965-.965v-46.07c0-.53.434-.965.965-.965h46.07c.53 0 .965.434.965.965v46.07c0 .53-.434.965-.965.965z"/><path stroke-linecap="round" d="M30.11 47.005v-22h8.389a5.48 5.48 0 015.479 5.48h0a5.48 5.48 0 01-5.48 5.479H30.11"/></g></svg><svg viewBox="0 0 72 72" width="72" height="72" id="1F197" x="504" y="432" xmlns="http://www.w3.org/2000/svg"><path fill="#d0cfce" d="M59.035 60h-46.07a.968.968 0 01-.965-.965v-46.07c0-.53.434-.965.965-.965h46.07c.53 0 .965.434.965.965v46.07c0 .53-.434.965-.965.965z"/><g fill="none" stroke="#000" stroke-miterlimit="10" stroke-width="2"><path d="M59.035 60h-46.07a.968.968 0 01-.965-.965v-46.07c0-.53.434-.965.965-.965h46.07c.53 0 .965.434.965.965v46.07c0 .53-.434.965-.965.965z"/><path stroke-linecap="round" stroke-linejoin="round" d="M39.052 31.152v9.446M39.052 37.277l5.397-6.125M41.65 34.329l3.234 6.269M31.49 40.598h0a3.373 3.373 0 01-3.374-3.374v-2.698a3.373 3.373 0 013.373-3.374h0a3.373 3.373 0 013.374 3.374v2.698a3.373 3.373 0 01-3.373 3.374z"/></g></svg><svg viewBox="0 0 72 72" width="72" height="72" id="1F17E" y="504" xmlns="http://www.w3.org/2000/svg"><g fill="none" stroke="#000" stroke-width="2"><path stroke-miterlimit="10" d="M59.035 60h-46.07a.968.968 0 01-.965-.965v-46.07a.968.968 0 01.965-.965h46.07a.968.968 0 01.965.965v46.07a.968.968 0 01-.965.965z"/><path stroke-linecap="round" stroke-linejoin="round" d="M35.75 46.512h0a7.857 7.857 0 01-7.857-7.857v-6.286a7.857 7.857 0 017.857-7.857h0a7.857 7.857 0 017.857 7.857v6.286a7.857 7.857 0 01-7.857 7.857z"/></g><path fill="#d22f27" d="M59.035 60h-46.07a.968.968 0 01-.965-.965v-46.07a.968.968 0 01.965-.965h46.07a.968.968 0 01.965.965v46.07a.968.968 0 01-.965.965z"/><g fill="none" stroke="#fff" stroke-width="2"><path stroke-miterlimit="10" d="M59.035 60h-46.07a.968.968 0 01-.965-.965v-46.07a.968.968 0 01.965-.965h46.07a.968.968 0 01.965.965v46.07a.968.968 0 01-.965.965z"/><path stroke-linecap="round" stroke-linejoin="round" d="M35.75 46.512h0a7.857 7.857 0 01-7.857-7.857v-6.286a7.857 7.857 0 017.857-7.857h0a7.857 7.857 0 017.857 7.857v6.286a7.857 7.857 0 01-7.857 7.857z"/></g></svg><svg viewBox="0 0 72 72" width="72" height="72" id="1F196" x="72" y="504" xmlns="http://www.w3.org/2000/svg"><path fill="#92d3f5" d="M59.035 59h-46.07a.968.968 0 01-.965-.965v-46.07a.968.968 0 01.965-.965h46.07a.968.968 0 01.965.965v46.07a.968.968 0 01-.965.965z"/><g fill="none" stroke="#000" stroke-width="2"><path stroke-miterlimit="10" d="M59.035 59.333h-46.07a.968.968 0 01-.965-.965v-46.07a.968.968 0 01.965-.965h46.07a.968.968 0 01.965.965v46.07a.968.968 0 01-.965.965z"/><path stroke-linecap="round" stroke-linejoin="round" d="M22 42.833v-15l10.714 15v-15M50.196 29.182a5.337 5.337 0 00-3.553-1.349h0a5.357 5.357 0 00-5.357 5.358v4.285a5.357 5.357 0 005.357 5.357h0A5.357 5.357 0 0052 37.476v-2.17h-4.286"/></g></svg><svg viewBox="0 0 72 72" width="72" height="72" id="1F195" x="144" y="504" xmlns="http://www.w3.org/2000/svg"><path fill="#d0cfce" d="M59.035 60h-46.07a.968.968 0 01-.965-.965v-46.07c0-.53.434-.965.965-.965h46.07c.53 0 .965.434.965.965v46.07c0 .53-.434.965-.965.965z"/><g fill="none" stroke="#000" stroke-miterlimit="10" stroke-width="2"><path d="M59.035 60h-46.07a.968.968 0 01-.965-.965v-46.07c0-.53.434-.965.965-.965h46.07c.53 0 .965.434.965.965v46.07c0 .53-.434.965-.965.965z"/><path stroke-linecap="round" stroke-linejoin="round" d="M37.486 32.47h-4.572v8h4.572M32.914 36.47h3.429M23 40.47v-8l5.714 8v-8M50 32.47l-2.286 8-2.285-8-2.286 8-2.286-8"/></g></svg><svg viewBox="0 0 72 72" width="72" height="72" id="24C2" x="216" y="504" xmlns="http://www.w3.org/2000/svg"><g fill="none" stroke="#000" stroke-linejoin="round" stroke-width="2"><circle cx="36" cy="35.958" r="28"/><path stroke-linecap="round" d="M45.429 46.458v-22L36 43.315l-9.429-18.857v22"/></g><circle cx="36" cy="36" r="28" fill="#1e50a0"/><g fill="none" stroke="#fff" stroke-linejoin="round" stroke-width="2"><circle cx="36" cy="36" r="28"/><path stroke-linecap="round" d="M45.429 46.5v-22L36 43.357 26.571 24.5v22"/></g></svg><svg viewBox="0 0 72 72" width="72" height="72" id="1F194" xmlns="http://www.w3.org/2000/svg"><path fill="#d0cfce" d="M59.035 60h-46.07a.968.968 0 01-.965-.965v-46.07c0-.53.434-.965.965-.965h46.07c.53 0 .965.434.965.965v46.07c0 .53-.434.965-.965.965z"/><g fill="none" stroke="#000" stroke-miterlimit="10" stroke-width="2"><path d="M59.035 60h-46.07a.968.968 0 01-.965-.965v-46.07c0-.53.434-.965.965-.965h46.07c.53 0 .965.434.965.965v46.07c0 .53-.434.965-.965.965z"/><path stroke-linecap="round" stroke-linejoin="round" d="M31.466 30.875v10M40.065 40.856H36.42v-9.962h3.644a2.08 2.08 0 012.08 2.08v5.803a2.08 2.08 0 01-2.08 2.08z"/></g></svg><svg viewBox="0 0 72 72" width="72" height="72" id="2139" x="360" y="504" xmlns="http://www.w3.org/2000/svg"><path fill="#d0cfce" d="M59.035 60h-46.07a.968.968 0 01-.965-.965v-46.07c0-.53.434-.965.965-.965h46.07c.53 0 .965.434.965.965v46.07c0 .53-.434.965-.965.965z"/><path fill="none" stroke="#000" stroke-linejoin="round" stroke-miterlimit="10" stroke-width="2" d="M59.035 60h-46.07a.968.968 0 01-.965-.965v-46.07c0-.53.434-.965.965-.965h46.07c.53 0 .965.434.965.965v46.07c0 .53-.434.965-.965.965z"/><path fill="none" stroke="#000" stroke-linecap="round" stroke-miterlimit="10" stroke-width="2" d="M36.5 31.5v15"/><circle cx="36.5" cy="26" r="1.5"/></svg><svg viewBox="0 0 72 72" width="72" height="72" id="1F193" x="432" y="504" xmlns="http://www.w3.org/2000/svg"><path fill="#92d3f5" d="M59.035 60h-46.07a.968.968 0 01-.965-.965v-46.07a.968.968 0 01.965-.965h46.07a.968.968 0 01.965.965v46.07a.968.968 0 01-.965.965z"/><g fill="none" stroke="#000" stroke-linejoin="round" stroke-width="2"><path d="M59.035 60h-46.07a.968.968 0 01-.965-.965v-46.07a.968.968 0 01.965-.965h46.07a.968.968 0 01.965.965v46.07a.968.968 0 01-.965.965z"/><path stroke-linecap="round" d="M23.83 36.376h-3v3.5-7h4"/><g stroke-linecap="round"><path d="M29.008 39.876v-7h2.67a1.743 1.743 0 011.743 1.743h0a1.743 1.743 0 01-1.744 1.744h-2.669M31.69 36.363l1.517 3.513"/></g><g stroke-linecap="round"><path d="M42.83 32.876h-4v7h4M38.83 36.376h3"/></g><g stroke-linecap="round"><path d="M51.83 32.876h-4v7h4M47.83 36.376h3"/></g></g></svg><svg viewBox="0 0 72 72" width="72" height="72" id="1F192" x="504" y="504" xmlns="http://www.w3.org/2000/svg"><path fill="#d0cfce" d="M59.035 60h-46.07a.968.968 0 01-.965-.965v-46.07c0-.53.434-.965.965-.965h46.07c.53 0 .965.434.965.965v46.07c0 .53-.434.965-.965.965z"/><g fill="none" stroke="#000" stroke-miterlimit="10" stroke-width="2"><path d="M59.035 60h-46.07a.968.968 0 01-.965-.965v-46.07c0-.53.434-.965.965-.965h46.07c.53 0 .965.434.965.965v46.07c0 .53-.434.965-.965.965z"/><path stroke-linecap="round" stroke-linejoin="round" d="M47.946 32.027v8h3.429M31.955 40.027h0a2.857 2.857 0 01-2.857-2.857v-2.286a2.857 2.857 0 012.857-2.857h0a2.857 2.857 0 012.857 2.857v2.286a2.857 2.857 0 01-2.857 2.857zM41.085 40.027h0a2.857 2.857 0 01-2.857-2.857v-2.286a2.857 2.857 0 012.857-2.857h0a2.857 2.857 0 012.857 2.857v2.286a2.857 2.857 0 01-2.857 2.857zM26.378 39.308a2.847 2.847 0 01-1.896.719h0a2.857 2.857 0 01-2.857-2.857v-2.286 2.286-2.286a2.857 2.857 0 012.857-2.857h0c.728 0 1.391.271 1.896.719"/></g></svg><svg viewBox="0 0 72 72" width="72" height="72" id="1F191" x="576" xmlns="http://www.w3.org/2000/svg"><g fill="none" stroke="#000" stroke-linejoin="round" stroke-width="2"><path d="M59.035 60h-46.07a.968.968 0 01-.965-.965v-46.07a.968.968 0 01.965-.965h46.07a.968.968 0 01.965.965v46.07a.968.968 0 01-.965.965z"/><path stroke-linecap="round" d="M32.07 42.578a5.314 5.314 0 01-3.538 1.343h0a5.334 5.334 0 01-5.334-5.334v-4.268a5.334 5.334 0 015.334-5.334h0a5.313 5.313 0 013.538 1.343M42.401 29.049v14.936h6.401"/></g><path fill="#d22f27" d="M59.035 60.453h-46.07a.968.968 0 01-.965-.965v-46.07a.968.968 0 01.965-.965h46.07a.968.968 0 01.965.965v46.07a.968.968 0 01-.965.965z"/><g fill="none" stroke="#fff" stroke-linejoin="round" stroke-width="2"><path d="M59.035 60h-46.07a.968.968 0 01-.965-.965v-46.07a.968.968 0 01.965-.965h46.07a.968.968 0 01.965.965v46.07a.968.968 0 01-.965.965z"/><path stroke-linecap="round" d="M32.07 42.578a5.314 5.314 0 01-3.538 1.343h0a5.334 5.334 0 01-5.334-5.334v-4.268a5.334 5.334 0 015.334-5.334h0a5.313 5.313 0 013.538 1.343M42.401 29.049v14.936h6.401"/></g></svg><svg viewBox="0 0 72 72" width="72" height="72" id="1F171" x="576" y="72" xmlns="http://www.w3.org/2000/svg"><g fill="none" stroke="#000" stroke-linejoin="round" stroke-width="2"><path d="M59.035 60h-46.07a.968.968 0 01-.965-.965v-46.07a.968.968 0 01.965-.965h46.07a.968.968 0 01.965.965v46.07a.968.968 0 01-.965.965z"/><path stroke-linecap="round" d="M37.763 35.228h-8.42v-11h8.42a5.5 5.5 0 015.5 5.5h0a5.5 5.5 0 01-5.5 5.5zM37.763 46.228h-8.42v-11h8.42a5.5 5.5 0 015.5 5.5h0a5.5 5.5 0 01-5.5 5.5z"/></g><path fill="#d22f27" d="M59.035 60h-46.07a.968.968 0 01-.965-.965v-46.07a.968.968 0 01.965-.965h46.07a.968.968 0 01.965.965v46.07a.968.968 0 01-.965.965z"/><g fill="none" stroke="#fff" stroke-linejoin="round" stroke-width="2"><path d="M59.035 60h-46.07a.968.968 0 01-.965-.965v-46.07a.968.968 0 01.965-.965h46.07a.968.968 0 01.965.965v46.07a.968.968 0 01-.965.965z"/><path stroke-linecap="round" d="M37.763 35.228h-8.42v-11h8.42a5.5 5.5 0 015.5 5.5h0a5.5 5.5 0 01-5.5 5.5zM37.763 46.228h-8.42v-11h8.42a5.5 5.5 0 015.5 5.5h0a5.5 5.5 0 01-5.5 5.5z"/></g></svg><svg viewBox="0 0 72 72" width="72" height="72" id="1F18E" x="576" y="144" xmlns="http://www.w3.org/2000/svg"><g fill="none" stroke="#000" stroke-linejoin="round" stroke-width="2"><path d="M59.035 60.137h-46.07a.968.968 0 01-.965-.965v-46.07a.968.968 0 01.965-.965h46.07a.968.968 0 01.965.965v46.07a.968.968 0 01-.965.965z"/><g stroke-linecap="round"><path d="M33.287 43.637l-6.429-15-6.428 15M22.572 40.046h8.572"/><g><path d="M46.655 36.137h-5.72v-7.472h5.72a3.736 3.736 0 013.736 3.736h0a3.736 3.736 0 01-3.736 3.736zM46.655 43.61h-5.72v-7.473h5.72a3.736 3.736 0 013.736 3.736h0a3.736 3.736 0 01-3.736 3.736z"/></g></g></g><path fill="#d22f27" d="M59.035 60.137h-46.07a.968.968 0 01-.965-.965v-46.07a.968.968 0 01.965-.965h46.07a.968.968 0 01.965.965v46.07a.968.968 0 01-.965.965z"/><g fill="none" stroke="#fff" stroke-linejoin="round" stroke-width="2"><path d="M59.035 60.137h-46.07a.968.968 0 01-.965-.965v-46.07a.968.968 0 01.965-.965h46.07a.968.968 0 01.965.965v46.07a.968.968 0 01-.965.965z"/><g stroke-linecap="round"><path d="M33.287 43.637l-6.429-15-6.428 15M22.572 40.046h8.572"/><g><path d="M46.655 36.137h-5.72v-7.472h5.72a3.736 3.736 0 013.736 3.736h0a3.736 3.736 0 01-3.736 3.736zM46.655 43.61h-5.72v-7.473h5.72a3.736 3.736 0 013.736 3.736h0a3.736 3.736 0 01-3.736 3.736z"/></g></g></g></svg><svg viewBox="0 0 72 72" width="72" height="72" id="1F170" x="576" y="216" xmlns="http://www.w3.org/2000/svg"><g fill="none" stroke="#000" stroke-linejoin="round" stroke-width="2"><path d="M59.035 60.137h-46.07a.968.968 0 01-.965-.965v-46.07a.968.968 0 01.965-.965h46.07a.968.968 0 01.965.965v46.07a.968.968 0 01-.965.965z"/><g stroke-linecap="round"><path d="M45.429 46.313l-9.429-22-9.429 22M29.714 41.046h12.572"/></g></g><path fill="#d22f27" d="M59.035 60h-46.07a.968.968 0 01-.965-.965v-46.07a.968.968 0 01.965-.965h46.07a.968.968 0 01.965.965v46.07a.968.968 0 01-.965.965z"/><g fill="none" stroke="#fff" stroke-linejoin="round" stroke-width="2"><path d="M59.035 60h-46.07a.968.968 0 01-.965-.965v-46.07a.968.968 0 01.965-.965h46.07a.968.968 0 01.965.965v46.07a.968.968 0 01-.965.965z"/><g stroke-linecap="round"><path d="M45.429 46.176l-9.429-22-9.429 22M29.714 40.908h12.572"/></g></g></svg><svg viewBox="0 0 72 72" width="72" height="72" id="1F524" x="576" y="288" xmlns="http://www.w3.org/2000/svg"><path fill="#d0cfce" d="M59.035 60h-46.07a.968.968 0 01-.965-.965v-46.07c0-.53.434-.965.965-.965h46.07c.53 0 .965.434.965.965v46.07c0 .53-.434.965-.965.965z"/><g fill="none" stroke="#000" stroke-linejoin="round" stroke-miterlimit="10" stroke-width="2"><path d="M59.035 60h-46.07a.968.968 0 01-.965-.965v-46.07c0-.53.434-.965.965-.965h46.07c.53 0 .965.434.965.965v46.07c0 .53-.434.965-.965.965z"/><path stroke-linecap="round" d="M47.566 40.87a2.49 2.49 0 01-1.658.63h0a2.5 2.5 0 01-2.5-2.5v-2 2-2a2.5 2.5 0 012.5-2.5h0a2.49 2.49 0 011.658.63M36.363 41.75h0a2.5 2.5 0 002.5-2.5v-2a2.5 2.5 0 00-2.5-2.5h0a2.5 2.5 0 00-2.5 2.5v2a2.5 2.5 0 002.5 2.5zM33.863 38.78v-9M23.434 39.958h0c0 .99.852 1.792 1.903 1.792h1.523c1.052 0 1.904-.802 1.904-1.792h0c0-.99-.852-1.791-1.904-1.791h-1.523c-1.051 0-1.903.802-1.903 1.791z"/><path stroke-linecap="round" d="M23.837 35.52c.418-.562 1.162-.937 2.01-.937h.83c1.308 0 2.368.892 2.368 1.991h0v5.176"/></g></svg><svg viewBox="0 0 72 72" width="72" height="72" id="1F523" x="576" y="360" xmlns="http://www.w3.org/2000/svg"><path fill="#d0cfce" d="M59.035 60h-46.07a.968.968 0 01-.965-.965v-46.07c0-.53.434-.965.965-.965h46.07c.53 0 .965.434.965.965v46.07c0 .53-.434.965-.965.965z"/><path fill="none" stroke="#000" stroke-linejoin="round" stroke-miterlimit="10" stroke-width="2" d="M59.035 60h-46.07a.968.968 0 01-.965-.965v-46.07c0-.53.434-.965.965-.965h46.07c.53 0 .965.434.965.965v46.07c0 .53-.434.965-.965.965z"/><path d="M23.441 27.048h4.485v7.175h1.75v-7.175h4.484v-1.786H23.441zM23.441 21.776H34.16v1.769H23.441zM33.246 44.165l.015-.264h-1.665l-.01.24c-.04.956-.22 1.584-.627 2.165l-2.52-3.005.87-.603c.877-.603 1.285-1.28 1.285-2.13 0-1.58-1.174-2.686-2.854-2.686-1.758 0-2.94 1.073-2.94 2.67 0 1.137.749 2.003 1.244 2.577-1.148.756-2.372 1.705-2.372 3.39 0 2.207 1.488 3.579 3.883 3.579 1.845 0 2.84-.861 3.32-1.279l.975 1.177h2.223l-2.01-2.4c.722-.844 1.098-1.934 1.183-3.431zm-5.506-4.768c.7 0 1.19.49 1.19 1.19 0 .57-.42.934-.873 1.24l-.569.386c-.611-.715-.922-1.166-.922-1.644 0-.712.46-1.172 1.174-1.172zm-.744 4.822l2.842 3.378c-.725.646-1.408.921-2.283.921-1.257 0-2.169-.855-2.169-2.033 0-1.15.818-1.717 1.61-2.266zM46.081 43.538c-1.311 0-2.227 1.05-2.227 2.551v1.698c0 1.503.916 2.552 2.227 2.552 1.313 0 2.229-1.05 2.229-2.552V46.09c0-1.502-.916-2.55-2.229-2.55zm.64 2.602v1.597c0 .959-.465.959-.64.959s-.64 0-.64-.96V46.14c0-.96.465-.96.64-.96.158 0 .64 0 .64.96zM44.555 37.76l-4.946 12.46h1.697l4.931-12.46zM42.008 41.89v-1.697c0-1.502-.916-2.551-2.229-2.551-1.311 0-2.227 1.049-2.227 2.551v1.697c0 1.493.916 2.535 2.227 2.535 1.313 0 2.229-1.042 2.229-2.535zm-2.868-.05v-1.596c0-.96.464-.96.64-.96.157 0 .64 0 .64.96v1.595c0 .943-.466.943-.64.943-.192 0-.64 0-.64-.943zM41.528 34.326c1.447 0 2.636-1.177 2.656-2.654V23.29h1.152v.845a.5.5 0 00.5.5h.539a.5.5 0 00.5-.5v-1.15c0-.68-.554-1.235-1.234-1.235H43.88c-.682 0-1.236.555-1.236 1.236v6.284a2.602 2.602 0 00-1.116-.251c-1.463 0-2.653 1.19-2.653 2.653s1.19 2.654 2.653 2.654zm0-3.77c.616 0 1.117.501 1.117 1.116a1.118 1.118 0 01-2.232 0c0-.615.5-1.116 1.115-1.116z"/></svg><svg viewBox="0 0 72 72" width="72" height="72" id="1F522" x="576" y="432" xmlns="http://www.w3.org/2000/svg"><path fill="#d0cfce" d="M59.035 60h-46.07a.968.968 0 01-.965-.965v-46.07c0-.53.434-.965.965-.965h46.07c.53 0 .965.434.965.965v46.07c0 .53-.434.965-.965.965z"/><g fill="none" stroke="#000" stroke-linejoin="round" stroke-miterlimit="10" stroke-width="2"><path d="M59.035 60h-46.07a.968.968 0 01-.965-.965v-46.07c0-.53.434-.965.965-.965h46.07c.53 0 .965.434.965.965v46.07c0 .53-.434.965-.965.965z"/><path stroke-linecap="round" d="M39.49 24.923a3.073 3.073 0 013.01-2.453h0c.848 0 1.616.344 2.172.9.865.864.785 2.301-.026 3.216l-5.218 5.884h6.144M27.709 46.474c.263 1.14 1.4 1.996 2.762 1.996h0c1.558 0 2.82-1.12 2.82-2.5s-1.262-2.5-2.82-2.5c1.558 0 2.82-1.12 2.82-2.5s-1.262-2.5-2.82-2.5h0c-1.362 0-2.5.857-2.762 1.996M28.116 24.544l2.768-2.074v10M43.291 38.47l-3.716 8.4h5.85M44.461 43.774v4.696"/></g></svg><svg viewBox="0 0 72 72" width="72" height="72" id="1F521" x="576" y="504" xmlns="http://www.w3.org/2000/svg"><path fill="#d0cfce" d="M59.035 60h-46.07a.968.968 0 01-.965-.965v-46.07c0-.53.434-.965.965-.965h46.07c.53 0 .965.434.965.965v46.07c0 .53-.434.965-.965.965z"/><g fill="none" stroke="#000" stroke-linejoin="round" stroke-miterlimit="10" stroke-width="2"><path d="M59.035 60h-46.07a.968.968 0 01-.965-.965v-46.07c0-.53.434-.965.965-.965h46.07c.53 0 .965.434.965.965v46.07c0 .53-.434.965-.965.965z"/><path stroke-linecap="round" d="M32.91 48.606a2.49 2.49 0 01-1.658.629h0a2.5 2.5 0 01-2.5-2.5v-2 2-2a2.5 2.5 0 012.5-2.5h0a2.49 2.49 0 011.659.63M42.474 49.235h0a2.5 2.5 0 01-2.5-2.5v-2a2.5 2.5 0 012.5-2.5h0a2.5 2.5 0 012.5 2.5v2a2.5 2.5 0 01-2.5 2.5zM44.974 46.265v-9M42.474 32.485h0a2.5 2.5 0 002.5-2.5v-2a2.5 2.5 0 00-2.5-2.5h0a2.5 2.5 0 00-2.5 2.5v2a2.5 2.5 0 002.5 2.5zM39.974 29.515v-9M28.026 30.693h0c0 .99.852 1.792 1.903 1.792h1.523c1.051 0 1.904-.802 1.904-1.792h0c0-.99-.852-1.791-1.904-1.791H29.93c-1.051 0-1.903.802-1.903 1.791z"/><path stroke-linecap="round" d="M28.429 26.256c.418-.563 1.162-.938 2.01-.938h.83c1.308 0 2.368.892 2.368 1.991h0v5.176"/></g></svg><svg viewBox="0 0 72 72" width="72" height="72" id="1F520" y="576" xmlns="http://www.w3.org/2000/svg"><path fill="#d0cfce" d="M59.035 60h-46.07a.968.968 0 01-.965-.965v-46.07c0-.53.434-.965.965-.965h46.07c.53 0 .965.434.965.965v46.07c0 .53-.434.965-.965.965z"/><g fill="none" stroke="#000" stroke-linejoin="round" stroke-miterlimit="10" stroke-width="2"><path d="M59.035 60h-46.07a.968.968 0 01-.965-.965v-46.07c0-.53.434-.965.965-.965h46.07c.53 0 .965.434.965.965v46.07c0 .53-.434.965-.965.965z"/><path stroke-linecap="round" d="M33.611 33.175l-4.628-10.8-4.629 10.8M25.897 30.589h6.171M32.19 48.404c-.68.604-1.576.971-2.558.971h0a3.857 3.857 0 01-3.857-3.857v-3.086 3.086-3.086a3.857 3.857 0 013.857-3.857h0c.982 0 1.878.367 2.558.97M44.817 27.775h-4.118v-5.38h4.118a2.69 2.69 0 012.69 2.69h0a2.69 2.69 0 01-2.69 2.69zM44.817 33.155h-4.118v-5.38h4.118a2.69 2.69 0 012.69 2.69h0a2.69 2.69 0 01-2.69 2.69zM45.5 49.355h-4.874v-10.76H45.5a2.08 2.08 0 012.08 2.08v6.6a2.08 2.08 0 01-2.08 2.08z"/></g></svg><svg viewBox="0 0 72 72" width="72" height="72" id="1F51F" x="72" y="576" xmlns="http://www.w3.org/2000/svg"><path fill="#d0cfce" d="M11.875 12.166h48V60h-48z"/><g fill="none" stroke="#000" stroke-linecap="round" stroke-linejoin="round" stroke-width="2"><path d="M12.125 11.916h48v48h-48z"/><path d="M39.822 44.442h0a4.643 4.643 0 01-4.643-4.643v-7.681a4.643 4.643 0 014.643-4.643h0a4.643 4.643 0 014.643 4.643v7.681a4.643 4.643 0 01-4.643 4.643zM25.535 31.05l4.644-3.48v16.776"/></g></svg><svg viewBox="0 0 72 72" width="72" height="72" id="0039-FE0F-20E3" x="144" y="576" xmlns="http://www.w3.org/2000/svg"><path fill="#d0cfce" d="M11.875 12.38h48v47.834h-48z"/><g fill="none" stroke="#000" stroke-linecap="round" stroke-linejoin="round" stroke-width="2"><path d="M12.125 12.13h48v48h-48z"/><circle cx="36.125" cy="32.092" r="4.659"/><path d="M36.125 44.828l3.816-10.066"/></g></svg><svg viewBox="0 0 72 72" width="72" height="72" id="0038-FE0F-20E3" x="216" y="576" xmlns="http://www.w3.org/2000/svg"><path fill="#d0cfce" d="M11.75 12.416h48V60.25h-48z"/><g fill="none" stroke="#000" stroke-linecap="round" stroke-linejoin="round" stroke-width="2"><path d="M12 12.166h48v48H12z"/><path d="M31.34 40.518h0a4.346 4.346 0 004.345 4.346h.63a4.346 4.346 0 004.346-4.346h0a4.346 4.346 0 00-4.346-4.346h-.63a4.346 4.346 0 00-4.346 4.346zM31.34 31.814h0a4.346 4.346 0 004.345 4.346h.63a4.346 4.346 0 004.346-4.346h0a4.346 4.346 0 00-4.346-4.346h-.63a4.346 4.346 0 00-4.346 4.346z"/></g></svg><svg viewBox="0 0 72 72" width="72" height="72" id="0037-FE0F-20E3" x="288" y="576" xmlns="http://www.w3.org/2000/svg"><path fill="#d0cfce" d="M11.875 12.166h48V60h-48z"/><g fill="none" stroke="#000" stroke-linecap="round" stroke-linejoin="round" stroke-width="2"><path d="M12.125 11.916h48v48h-48z"/><path d="M30.984 31.679v-4.293h9.782l-6.044 17.395"/></g></svg><svg viewBox="0 0 72 72" width="72" height="72" id="0036-FE0F-20E3" x="360" y="576" xmlns="http://www.w3.org/2000/svg"><path fill="#d0cfce" d="M11.875 12.124h48v47.834h-48z"/><g fill="none" stroke="#000" stroke-linecap="round" stroke-linejoin="round" stroke-width="2"><path d="M12.125 11.874h48v48h-48z"/><circle cx="36.125" cy="39.913" r="4.659"/><path d="M36.125 27.177l-3.816 10.066"/></g></svg><svg viewBox="0 0 72 72" width="72" height="72" id="0035-FE0F-20E3" x="432" y="576" xmlns="http://www.w3.org/2000/svg"><path fill="#d0cfce" d="M11.75 12.166h48V60h-48z"/><g fill="none" stroke="#000" stroke-linecap="round" stroke-linejoin="round" stroke-width="2"><path d="M12 11.916h48v48H12z"/><path d="M31.867 41.804a4.203 4.203 0 003.95 2.767h.115a4.201 4.201 0 004.201-4.202v-.901a4.201 4.201 0 00-4.201-4.201h-4.065v-8.005h8.266"/></g></svg><svg viewBox="0 0 72 72" width="72" height="72" id="0034-FE0F-20E3" x="504" y="576" xmlns="http://www.w3.org/2000/svg"><path fill="#d0cfce" d="M11.875 12.291h48v47.834h-48z"/><g fill="none" stroke="#000" stroke-linecap="round" stroke-linejoin="round" stroke-width="2"><path d="M12.125 12.041h48v48h-48z"/><path d="M37.502 27.34l-6.466 14.62h10.178M39.538 36.571v8.171"/></g></svg><svg viewBox="0 0 72 72" width="72" height="72" id="0033-FE0F-20E3" x="576" y="576" xmlns="http://www.w3.org/2000/svg"><path fill="#d0cfce" d="M12 12.166h48V60H12z"/><g fill="none" stroke="#000" stroke-linecap="round" stroke-linejoin="round" stroke-width="2"><path d="M12.25 11.916h48v48h-48z"/><path d="M31.419 41.115A4.776 4.776 0 0036.2 44.57h0a4.629 4.629 0 004.88-4.327 4.629 4.629 0 00-4.88-4.327 4.629 4.629 0 004.88-4.327 4.629 4.629 0 00-4.88-4.327h0a4.776 4.776 0 00-4.781 3.455"/></g></svg><svg viewBox="0 0 72 72" width="72" height="72" id="0032-FE0F-20E3" x="648" xmlns="http://www.w3.org/2000/svg"><path fill="#d0cfce" d="M12 12.166h48V60H12z"/><g fill="none" stroke="#000" stroke-linecap="round" stroke-linejoin="round" stroke-width="2"><path d="M12.25 11.916h48v48h-48z"/><path d="M31.03 31.498a5.33 5.33 0 015.22-4.255h0a5.312 5.312 0 013.768 1.561 4.115 4.115 0 01-.046 5.58l-9.05 10.205h10.656"/></g></svg><svg viewBox="0 0 72 72" width="72" height="72" id="0031-FE0F-20E3" x="648" y="72" xmlns="http://www.w3.org/2000/svg"><path fill="#d0cfce" d="M11.875 12.291h48v47.834h-48z"/><g fill="none" stroke="#000" stroke-linecap="round" stroke-linejoin="round" stroke-width="2"><path d="M12.125 12.041h48v48h-48z"/><path d="M31.664 30.895l4.8-3.59.122 17.472"/></g></svg><svg viewBox="0 0 72 72" width="72" height="72" id="0030-FE0F-20E3" x="648" y="144" xmlns="http://www.w3.org/2000/svg"><path fill="#d0cfce" d="M11.875 12.166h48V60h-48z"/><g fill="none" stroke="#000" stroke-linecap="round" stroke-linejoin="round" stroke-width="2"><path d="M12.125 11.916h48v48h-48z"/><path d="M35.875 44.78h0a4.76 4.76 0 01-4.76-4.76v-7.874a4.76 4.76 0 014.76-4.76h0a4.76 4.76 0 014.76 4.76v7.874a4.76 4.76 0 01-4.76 4.76z"/></g></svg><svg viewBox="0 0 72 72" width="72" height="72" id="002A-FE0F-20E3" x="648" y="216" xmlns="http://www.w3.org/2000/svg"><path fill="#d0cfce" d="M11.875 12.166h48V60h-48z"/><g fill="none" stroke="#000" stroke-linecap="round" stroke-linejoin="round" stroke-width="2"><path d="M12.125 11.916h48v48h-48zM36.125 24.916v22M26.923 29.89l18.404 12.053M26.912 41.926l18.426-12.02"/></g></svg><svg viewBox="0 0 72 72" width="72" height="72" id="0023-FE0F-20E3" x="648" y="288" xmlns="http://www.w3.org/2000/svg"><path fill="#d0cfce" d="M11.875 12.208h48v47.834h-48z"/><g fill="none" stroke="#000" stroke-linecap="round" stroke-linejoin="round" stroke-width="2"><path d="M12.125 11.958h48v48h-48zM33.453 27.616L30.94 44.634M40.81 27.616l-2.513 17.018M28.066 32.357l16.717-.017M26.967 39.847l16.717-.017"/></g></svg><svg viewBox="0 0 72 72" width="72" height="72" id="2122" x="648" y="360" xmlns="http://www.w3.org/2000/svg"><circle cx="36" cy="36.001" r="23" fill="#d0cfce"/><g fill="none" stroke="#000" stroke-linecap="round" stroke-linejoin="round" stroke-width="2"><circle cx="36" cy="36.001" r="23"/><path d="M48 44.334v-15.5L41.357 42.12l-6.643-13.286v15.5M22 28.834h8.857M26.429 28.834v15.5"/></g></svg><svg viewBox="0 0 72 72" width="72" height="72" id="00AE" x="648" y="432" xmlns="http://www.w3.org/2000/svg"><circle cx="36" cy="36.166" r="23" fill="#D0CFCE"/><g fill="none" stroke="#000" stroke-linecap="round" stroke-linejoin="round" stroke-miterlimit="10" stroke-width="2"><circle cx="36" cy="36.166" r="23"/><path d="M28 48.407v-25h9.678c3.492 0 6.322 2.787 6.322 6.226h0c0 3.44-2.83 6.227-6.322 6.227H28M37.724 35.86l5.501 12.547"/></g></svg><svg viewBox="0 0 72 72" width="72" height="72" id="00A9" x="648" y="504" xmlns="http://www.w3.org/2000/svg"><circle cx="36" cy="36.166" r="23" fill="#D0CFCE"/><g fill="none" stroke="#000" stroke-linecap="round" stroke-linejoin="round" stroke-miterlimit="10" stroke-width="2"><circle cx="36" cy="35.907" r="23"/><path d="M43.425 46.16a8.895 8.895 0 01-5.922 2.247h0a8.929 8.929 0 01-8.929-8.93v-7.142 7.143-7.143a8.929 8.929 0 018.929-8.929h0c2.272 0 4.346.85 5.923 2.248"/></g></svg><svg viewBox="0 0 72 72" width="72" height="72" id="2747" x="648" y="576" xmlns="http://www.w3.org/2000/svg"><path fill="none" stroke="#000" stroke-linecap="round" stroke-linejoin="round" stroke-width="2" d="M35.106 18.815s-.754 16.324-16.128 16.37a.648.648 0 100 1.296h.004s16.324 1.1 16.37 16.474v.147a.648.648 0 001.296 0c.046-15.375 16.37-16.62 16.37-16.62h.005a.648.648 0 100-1.297c-15.375-.045-16.62-16.37-16.62-16.37a.648.648 0 00-1.297 0z"/><path fill="#5c9e31" d="M60 61H12a.945.945 0 01-1-1V12a.945.945 0 011-1h48a.945.945 0 011 1v48a.945.945 0 01-1 1z"/><path fill="#fff" stroke="#fff" stroke-linecap="round" stroke-linejoin="round" stroke-width="2" d="M35.106 18.857s-.754 16.324-16.128 16.37a.648.648 0 100 1.296h.004s16.324 1.1 16.37 16.474v.146a.648.648 0 001.296 0c.046-15.375 16.37-16.62 16.37-16.62h.005a.648.648 0 100-1.296c-15.375-.046-16.62-16.37-16.62-16.37a.648.648 0 00-1.297 0z"/><g><path fill="none" stroke="#000" stroke-linecap="round" stroke-linejoin="round" stroke-width="2" d="M60 60.958H12a.945.945 0 01-1-1v-48a.945.945 0 011-1h48a.945.945 0 011 1v48a.945.945 0 01-1 1z"/></g></svg><svg viewBox="0 0 72 72" width="72" height="72" id="2734" y="648" xmlns="http://www.w3.org/2000/svg"><path fill="none" stroke="#000" stroke-miterlimit="10" stroke-width="2" d="M42.976 39.075l5.886 9.295a.494.494 0 01-.696.674l-8.907-6.048a.495.495 0 00-.764.316l-2.008 10.529a.495.495 0 01-.972 0l-2.01-10.529a.495.495 0 00-.764-.316l-8.905 6.048a.495.495 0 01-.696-.674l5.884-9.295a.495.495 0 00-.33-.751l-10.145-1.836a.495.495 0 010-.974l10.146-1.838a.495.495 0 00.33-.751L23.14 23.63a.495.495 0 01.696-.674l8.905 6.048a.495.495 0 00.764-.316l2.01-10.529a.495.495 0 01.972 0l2.008 10.529a.495.495 0 00.764.316l8.907-6.048a.494.494 0 01.696.674l-5.886 9.295a.494.494 0 00.33.751l10.146 1.838a.495.495 0 010 .974l-10.146 1.836a.494.494 0 00-.33.751z"/><path fill="#f4aa41" d="M60 60.958H12a.945.945 0 01-1-1v-48a.945.945 0 011-1h48a.945.945 0 011 1v48a.945.945 0 01-1 1z"/><path fill="#fff" stroke="#fff" stroke-miterlimit="10" stroke-width="2" d="M42.976 39.034l5.886 9.294a.494.494 0 01-.696.674l-8.907-6.048a.495.495 0 00-.764.317l-2.008 10.528a.495.495 0 01-.972 0l-2.01-10.528a.495.495 0 00-.764-.317l-8.905 6.048a.495.495 0 01-.696-.674l5.884-9.294a.495.495 0 00-.33-.752L18.55 36.446a.495.495 0 010-.973l10.146-1.839a.495.495 0 00.33-.75l-5.885-9.296a.495.495 0 01.696-.674l8.905 6.048a.495.495 0 00.764-.316l2.01-10.529a.495.495 0 01.972 0l2.008 10.529a.495.495 0 00.764.316l8.907-6.047a.494.494 0 01.696.673l-5.886 9.295a.494.494 0 00.33.751l10.146 1.839a.495.495 0 010 .973l-10.146 1.836a.494.494 0 00-.33.752z"/><g><path fill="none" stroke="#000" stroke-linecap="round" stroke-linejoin="round" stroke-width="2" d="M60 60.958H12a.945.945 0 01-1-1v-48a.945.945 0 011-1h48a.945.945 0 011 1v48a.945.945 0 01-1 1z"/></g></svg><svg viewBox="0 0 72 72" width="72" height="72" id="2733" x="72" y="648" xmlns="http://www.w3.org/2000/svg"><g fill="none" stroke="#000" stroke-linecap="round" stroke-linejoin="round" stroke-width="4"><path d="M36 20.981v30.038M51.019 36H20.981M46.62 25.38L25.38 46.62M46.62 46.62L25.38 25.38"/></g><path fill="#5c9e31" d="M60 60.958H12a.945.945 0 01-1-1v-48a.945.945 0 011-1h48a.945.945 0 011 1v48a.945.945 0 01-1 1z"/><path fill="none" stroke="#fff" stroke-linecap="round" stroke-linejoin="round" stroke-width="4" d="M36 20.939v30.038M51.019 35.958H20.981M46.62 25.338l-21.24 21.24M46.62 46.578l-21.24-21.24"/><g><path fill="none" stroke="#000" stroke-linecap="round" stroke-linejoin="round" stroke-width="2" d="M60 61H12a.945.945 0 01-1-1V12a.945.945 0 011-1h48a.945.945 0 011 1v48a.945.945 0 01-1 1z"/></g></svg><svg viewBox="0 0 72 72" width="72" height="72" id="303D" x="144" y="648" xmlns="http://www.w3.org/2000/svg"><path fill="#fcea2b" d="M57.31 54.81L46.927 19.198c-2.33-4.338-6.266-1.526-6.266-1.526l-6.91 5.704-3.134-5.898c-3.937-5.576-7.63 0-7.63 0l-7.598 8.729s-2.337 2.387.616 5.34 6.623-1.54 6.623-1.54l3.286-3.748 3.953 6.52s2.362 3.337 6.161-.77l4.027-3.619 9.062 28.34a4.229 4.229 0 002.14 2.515c1.451.715 3.56 1.263 5.138-.388a4.167 4.167 0 00.915-4.047z"/><path fill="none" stroke="#000" stroke-miterlimit="10" stroke-width="2" d="M57.31 54.34L46.927 18.73c-2.33-4.339-6.266-1.527-6.266-1.527l-6.91 5.705-3.133-5.898c-3.937-5.577-7.63 0-7.63 0l-7.599 8.728s-2.336 2.388.616 5.34 6.623-1.54 6.623-1.54l3.286-3.748 3.954 6.52s2.361 3.338 6.16-.77l4.027-3.618 9.061 28.34a4.229 4.229 0 002.141 2.515c1.451.716 3.56 1.263 5.138-.387a4.167 4.167 0 00.915-4.049z"/></svg><svg viewBox="0 0 72 72" width="72" height="72" id="27BF" x="216" y="648" xmlns="http://www.w3.org/2000/svg"><path fill="#3f3f3f" d="M65.156 24.864a47.777 47.777 0 00-14.42 2.875A34.625 34.625 0 0036 24.864a34.566 34.566 0 00-14.735 2.875 47.814 47.814 0 00-14.43-2.875 1.761 1.761 0 00-1.842 1.743 1.798 1.798 0 001.743 1.85 44.192 44.192 0 0110.476 1.717c-4.564 3.46-6.325 7.844-6.325 10.638 0 4.556 2.893 9.875 11.07 9.875 3.9 0 7.529-1.752 9.02-4.367a11.276 11.276 0 00.512-9.893 14.566 14.566 0 00-5.885-6.523A33.939 33.939 0 0136 28.458a34.024 34.024 0 0110.396 1.446 14.464 14.464 0 00-5.885 6.523 11.246 11.246 0 00.512 9.893c1.491 2.615 5.112 4.367 9.02 4.367 8.168 0 11.07-5.32 11.07-9.875 0-2.794-1.77-7.188-6.352-10.656a48.416 48.416 0 0110.503-1.698 1.798 1.798 0 00-.108-3.594zM28.174 37.82a7.633 7.633 0 01-.323 6.72c-.728 1.268-2.983 2.552-5.895 2.552-6.747 0-7.475-4.393-7.475-6.28 0-1.536 1.491-5.966 6.918-9.084 3.046 1.411 5.634 3.388 6.775 6.092zm29.345 2.992c0 1.887-.728 6.28-7.476 6.28-2.92 0-5.175-1.284-5.903-2.551a7.663 7.663 0 01-.323-6.721c1.177-2.776 3.756-4.744 6.73-6.119 5.472 3.118 6.972 7.575 6.972 9.111z"/><path fill="none" stroke="#000" stroke-linecap="round" stroke-linejoin="round" stroke-width="1.797" d="M65.156 24.864a47.777 47.777 0 00-14.42 2.875A34.625 34.625 0 0036 24.864a34.566 34.566 0 00-14.735 2.875 47.814 47.814 0 00-14.43-2.875 1.761 1.761 0 00-1.842 1.743 1.798 1.798 0 001.743 1.85 44.192 44.192 0 0110.476 1.717c-4.564 3.46-6.325 7.844-6.325 10.638 0 4.556 2.893 9.875 11.07 9.875 3.9 0 7.529-1.752 9.02-4.367a11.276 11.276 0 00.512-9.893 14.566 14.566 0 00-5.885-6.523A33.939 33.939 0 0136 28.458a34.024 34.024 0 0110.396 1.446 14.464 14.464 0 00-5.885 6.523 11.246 11.246 0 00.512 9.893c1.491 2.615 5.112 4.367 9.02 4.367 8.168 0 11.07-5.32 11.07-9.875 0-2.794-1.77-7.188-6.352-10.656a48.416 48.416 0 0110.503-1.698 1.798 1.798 0 00-.108-3.594zM28.174 37.82a7.633 7.633 0 01-.323 6.72c-.728 1.268-2.983 2.552-5.895 2.552-6.747 0-7.475-4.393-7.475-6.28 0-1.536 1.491-5.966 6.918-9.084 3.046 1.411 5.634 3.388 6.775 6.092zm29.345 2.992c0 1.887-.728 6.28-7.476 6.28-2.92 0-5.175-1.284-5.903-2.551a7.663 7.663 0 01-.323-6.721c1.177-2.776 3.756-4.744 6.73-6.119 5.472 3.118 6.972 7.575 6.972 9.111z"/></svg><svg viewBox="0 0 72 72" width="72" height="72" id="27B0" x="288" y="648" xmlns="http://www.w3.org/2000/svg"><path fill="#3f3f3f" d="M60.99 21.717a1.042 1.042 0 00-.626-1.017 25.474 25.474 0 00-9.87-2.075 27.293 27.293 0 00-14.39 3.874h-.363a27.292 27.292 0 00-14.39-3.874 25.422 25.422 0 00-9.696 2.002 1.042 1.042 0 00-.635.958l-.012 1.374a.971.971 0 001.331.917 17.822 17.822 0 016.909-1.377 24.796 24.796 0 0110.033 1.73 1.008 1.008 0 01.182 1.731c-2.834 2.126-9.33 7.745-9.33 14.582 0 8.745 7.417 14.833 15.386 14.833h.806c7.97 0 15.386-6.088 15.386-14.833 0-6.837-6.495-12.456-9.33-14.582a1.008 1.008 0 01.183-1.732A24.796 24.796 0 0152.597 22.5a17.823 17.823 0 016.959 1.398.978.978 0 001.367-.843zM47.254 40.309a11.068 11.068 0 01-11.27 10.968c-6.12 0-11.575-3.575-11.575-11.029 0-6.48 8.612-11.77 10.86-13.04a1.003 1.003 0 011.044.034c2.239 1.449 11.047 7.512 10.941 13.067z"/><path fill="none" stroke="#000" stroke-linecap="round" stroke-linejoin="round" stroke-width="2" d="M60.99 21.717a1.042 1.042 0 00-.626-1.017 25.474 25.474 0 00-9.87-2.075 27.293 27.293 0 00-14.39 3.874h-.363a27.292 27.292 0 00-14.39-3.874 25.422 25.422 0 00-9.696 2.002 1.042 1.042 0 00-.635.958l-.012 1.374a.971.971 0 001.331.917 17.822 17.822 0 016.909-1.377 24.796 24.796 0 0110.033 1.73 1.008 1.008 0 01.182 1.731c-2.834 2.126-9.33 7.745-9.33 14.582 0 8.745 7.417 14.833 15.386 14.833h.806c7.97 0 15.386-6.088 15.386-14.833 0-6.837-6.495-12.456-9.33-14.582a1.008 1.008 0 01.183-1.732A24.796 24.796 0 0152.597 22.5a17.823 17.823 0 016.959 1.398.978.978 0 001.367-.843zM47.254 40.309a11.068 11.068 0 01-11.27 10.968c-6.12 0-11.575-3.575-11.575-11.029 0-6.48 8.612-11.77 10.86-13.04a1.003 1.003 0 011.044.034c2.239 1.449 11.047 7.512 10.941 13.067z"/></svg><svg viewBox="0 0 72 72" width="72" height="72" id="274E" x="360" y="648" xmlns="http://www.w3.org/2000/svg"><path fill="#B1CC33" d="M59.04 60.166H12.96a.96.96 0 01-.96-.96v-46.08c0-.53.43-.96.96-.96h46.08c.53 0 .96.43.96.96v46.08c0 .53-.43.96-.96.96z"/><path fill="#D0CFCE" d="M42.837 35.575l2.481-2.521 8.66-8.811-6.679-6.796-8.666 8.816-2.358 2.397-.305.306L24.71 17.51l-6.68 6.796 11.066 11.258.193.195-2.649 2.691-9.407 9.57 6.68 6.796 9.409-9.572 2.419-2.458.226-.232 12.122 12.332 6.68-6.796L42.65 35.762z"/><g fill="none" stroke="#000" stroke-linecap="round" stroke-linejoin="round" stroke-miterlimit="10" stroke-width="2"><path d="M59.04 60.166H12.96a.96.96 0 01-.96-.96v-46.08c0-.53.43-.96.96-.96h46.08c.53 0 .96.43.96.96v46.08c0 .53-.43.96-.96.96z"/><path d="M42.837 35.575l2.481-2.521 8.66-8.811-6.679-6.796-8.666 8.816-2.358 2.397-.305.306L24.71 17.51l-6.68 6.796 11.066 11.258.193.195-2.649 2.691-9.407 9.57 6.68 6.796 9.409-9.572 2.419-2.458.226-.232 12.122 12.332 6.68-6.796L42.65 35.762z"/></g></svg><svg viewBox="0 0 72 72" width="72" height="72" id="274C" x="432" y="648" xmlns="http://www.w3.org/2000/svg"><path fill="#EA5A47" d="M43.832 36.082l2.926-2.973L56.97 22.72l-7.876-8.013-10.218 10.395-2.781 2.826-.359.361-13.28-13.509-7.875 8.013 13.048 13.275.227.23-3.123 3.173-11.092 11.285 7.876 8.013 11.095-11.286 2.852-2.899.267-.274 14.293 14.542 7.877-8.013-14.288-14.536z"/><path fill="none" stroke="#000" stroke-linecap="round" stroke-linejoin="round" stroke-miterlimit="10" stroke-width="2" d="M43.832 36.082l2.926-2.973L56.97 22.72l-7.876-8.013-10.218 10.395-2.781 2.826-.359.361-13.28-13.509-7.875 8.013 13.048 13.275.227.23-3.123 3.173-11.092 11.285 7.876 8.013 11.095-11.286 2.852-2.899.267-.274 14.293 14.542 7.877-8.013-14.288-14.536z"/></svg><svg viewBox="0 0 72 72" width="72" height="72" id="2714" x="504" y="648" xmlns="http://www.w3.org/2000/svg"><path d="M19.341 39.65c3.194 4.506 5.868 9.25 7.913 14.385.831 2.087 4.226 2.646 4.821 0 2.838-12.61 8.212-27.176 20.687-33.006 2.912-1.362.376-5.673-2.524-4.318-13.618 6.365-19.88 22.202-22.984 35.994h4.821c-2.211-5.552-4.958-10.699-8.416-15.579-1.846-2.604-6.184-.109-4.318 2.524z"/></svg><svg viewBox="0 0 72 72" width="72" height="72" id="2611" x="576" y="648" xmlns="http://www.w3.org/2000/svg"><path fill="#D0CFCE" stroke="#D0CFCE" stroke-linecap="round" stroke-linejoin="round" stroke-miterlimit="10" stroke-width="2" d="M45 29.077v21.241a.46.46 0 01-.46.46H22.46a.46.46 0 01-.46-.46v-22.08a.46.46 0 01.46-.46H45v1.3z"/><g fill="none" stroke="#000" stroke-linecap="round" stroke-linejoin="round" stroke-miterlimit="10" stroke-width="2"><path d="M51.23 14.778c-15.23 18-18 30.462-18 30.462s-2.768-6.924-5.538-9.693"/><path d="M45 29.077v21.241a.46.46 0 01-.46.46H22.46a.46.46 0 01-.46-.46v-22.08a.46.46 0 01.46-.46h14.391"/></g></svg><svg viewBox="0 0 72 72" width="72" height="72" id="2705" x="648" y="648" xmlns="http://www.w3.org/2000/svg"><path fill="#B1CC33" d="M53.189 52.843h-32.61a.67.67 0 01-.679-.66v-31.68a.67.67 0 01.68-.66h32.609a.67.67 0 01.68.66v31.68a.67.67 0 01-.68.66z"/><path fill="#FFF" d="M30.66 30.538c-1.85-2.61-6.18-.11-4.32 2.52 3.19 4.51 5.87 9.25 7.91 14.38.84 2.09 4.23 2.65 4.83 0 2.83-12.6 8.21-27.17 20.68-33 2.91-1.36.38-5.67-2.52-4.32-11.43 5.35-17.68 17.36-21.23 29.25a70.837 70.837 0 00-5.35-8.83z"/><g fill="none" stroke="#000" stroke-linecap="round" stroke-linejoin="round" stroke-miterlimit="10" stroke-width="2"><path d="M53 22.642v30.476a.66.66 0 01-.66.66H20.66a.66.66 0 01-.66-.66v-31.68a.66.66 0 01.66-.66h20.649"/><path d="M30.66 30.538c-1.85-2.61-6.18-.11-4.32 2.52 3.19 4.51 5.87 9.25 7.91 14.38.84 2.09 4.23 2.65 4.83 0 2.83-12.6 8.21-27.17 20.68-33 2.91-1.36.38-5.67-2.52-4.32-11.43 5.35-17.68 17.36-21.23 29.25a70.837 70.837 0 00-5.35-8.83z"/></g></svg><svg viewBox="0 0 72 72" width="72" height="72" id="2B55" x="720" xmlns="http://www.w3.org/2000/svg"><path fill="#EA5A47" d="M35.566 6.407c-16.016 0-29 12.983-29 29 0 16.016 12.984 29 29 29s29-12.984 29-29c0-16.017-12.984-29-29-29zm0 49c-11.046 0-20-8.955-20-20s8.954-20 20-20 20 8.954 20 20-8.954 20-20 20z"/><g fill="none" stroke="#000" stroke-linecap="round" stroke-linejoin="round" stroke-width="2"><circle cx="35.795" cy="35.937" r="29"/><circle cx="35.795" cy="35.937" r="20"/></g></svg><svg viewBox="0 0 72 72" width="72" height="72" id="1F530" x="720" y="72" xmlns="http://www.w3.org/2000/svg"><path fill="#fcea2b" d="M17 12.007l-1 36 19 16v-40l-18-12z"/><path fill="#5c9e31" d="M55 12.007l1 36-19 16v-40l18-12z"/><g fill="none" stroke="#000" stroke-linecap="round" stroke-miterlimit="10" stroke-width="2"><path d="M17.677 12.097c-.922-.6-1.677-.19-1.677.91v34a4.735 4.735 0 001.56 3.252l16.819 13.496a2.624 2.624 0 003.123.005l16.934-13.506A4.715 4.715 0 0056 47.007v-34c0-1.1-.755-1.51-1.677-.91l-16.646 10.82a3.352 3.352 0 01-3.354 0zM36 24.007v40"/></g></svg><svg viewBox="0 0 72 72" width="72" height="72" id="1F4DB" x="720" y="144" xmlns="http://www.w3.org/2000/svg"><path fill="#ea5a47" d="M52.158 7.41l-7.652 17.148L36.156 7l-8.222 17.557L19.45 7.474S6.652 23.664 6.652 38.8 22.32 65 35.84 65h.761c13.52 0 27.965-11.064 27.965-26.2S52.158 7.41 52.158 7.41z"/><path fill="#d22f27" d="M25.452 31.01h26.506a2.918 2.918 0 012.918 2.918v17.133a2.918 2.918 0 01-2.918 2.919H20.832a2.918 2.918 0 01-2.919-2.918V38.548a7.539 7.539 0 017.539-7.538z"/><rect x="19.022" y="31.726" rx="2.918" ry="2.918" width="33.071" height="19.731" fill="#fff"/><g fill="none" stroke="#000" stroke-linecap="round" stroke-linejoin="round" stroke-width="2"><path d="M52.158 7.41l-7.652 17.148L36.156 7l-8.222 17.557L19.45 7.474S6.652 23.664 6.652 38.8 22.32 65 35.84 65h.761c13.52 0 27.965-11.064 27.965-26.2S52.158 7.41 52.158 7.41z"/><rect x="19.022" y="31.726" rx="2.918" ry="2.918" width="33.071" height="19.731"/></g></svg><svg viewBox="0 0 72 72" width="72" height="72" id="1F531" x="720" y="216" xmlns="http://www.w3.org/2000/svg"><path fill="#FCEA2B" d="M40.154 68l.002-8.659a10.786 10.786 0 005.501 1.502c4.784 0 9.192-2.05 10.496-7.078.31-1.201.35-2.458.235-3.695l-.176-.797a69.137 69.137 0 01-1.555-18.006h3l-4.503-7.996-4.497 7.996h3l-.48 9.306-.267 5.177a11.164 11.164 0 01-.99 4.056c-1.702 3.73-6.902 3.732-8.606.003a12.152 12.152 0 01-1.057-4.06l-1.6-19.581-.033-.347h3l-4.497-7.996-4.503 7.996h3v.2l-1.6 19.583a12.152 12.152 0 01-1.057 4.059c-1.703 3.73-6.904 3.727-8.605-.003a11.164 11.164 0 01-.99-4.056l-.267-5.178-.48-9.305h3l-4.497-7.996-4.504 7.996h3a69.137 69.137 0 01-1.555 18.005l-.176.798c-.114 1.236-.075 2.494.236 3.694 1.303 5.029 5.71 7.078 10.495 7.078 2.004 0 3.883-.546 5.5-1.5l.014 8.744 6.017.06z"/><path fill="none" stroke="#000" stroke-linecap="round" stroke-linejoin="round" stroke-miterlimit="10" stroke-width="2" d="M40.157 67.005v-8.472a10.95 10.95 0 005.5 1.472c4.784 0 9.192-2.01 10.496-6.94.31-1.177.35-2.41.235-3.623l-.176-.781a66.513 66.513 0 01-1.555-17.656h3l-4.503-7.84-4.497 7.84h3l-.48 9.125-.267 5.077a10.774 10.774 0 01-.99 3.977h0c-1.702 3.658-6.902 3.66-8.606.002h0a11.732 11.732 0 01-1.057-3.98l-1.6-19.2-.033-.34h3l-4.497-7.841-4.503 7.84h3v.197l-1.6 19.2a11.731 11.731 0 01-1.057 3.98h0c-1.703 3.658-6.904 3.656-8.605-.002h0c-.582-1.25-.918-2.6-.99-3.977l-.267-5.077-.48-9.124h3l-4.497-7.84-4.504 7.84h3a66.513 66.513 0 01-1.555 17.655l-.176.782c-.114 1.212-.075 2.445.236 3.622 1.303 4.931 5.71 6.94 10.495 6.94a10.95 10.95 0 005.5-1.471l.012 8.573"/></svg><svg viewBox="0 0 72 72" width="72" height="72" id="269C" x="720" y="288" xmlns="http://www.w3.org/2000/svg"><path fill="#fcea2b" stroke="#fcea2b" stroke-miterlimit="10" stroke-width=".954" d="M26.589 46.453h19.083v3.543H26.589z"/><path fill="#fcea2b" d="M38.36 53.301c.719 2.888 1.936 3.03 1.936 6.216 0 4.522-4.213 6.974-4.213 6.974l-.016.009-.015-.009s-4.213-2.452-4.213-6.974c0-3.185 1.216-3.328 1.936-6.214M33.78 42.898c-1.782-7.103-7.612-13.29-7.612-19.588 0-7.433 9.884-17.794 9.884-17.794l.015-.016.016.016s9.884 10.36 9.884 17.794c0 6.298-5.83 12.485-7.612 19.588"/><path fill="#fcea2b" d="M42.398 42.898c2.107-3.01 5.677-5.88 8.498-5.88 4.28 0 5.43 1.93 5.43 3.77a19.467 19.467 0 01-1.303 5.138s8.64-.46 8.64-6.9-5.113-9.282-10.787-9.282c-4.877 0-12.547 4.299-14.521 13.154M38.36 53.301c2.18 6.604 9.302 5.157 9.302 5.157a5.732 5.732 0 004.6-6.21 10.232 10.232 0 01-5.98 1.917 6.105 6.105 0 01-3.322-.861M33.775 53.303c-2.18 6.601-9.202 5.155-9.202 5.155a5.732 5.732 0 01-4.6-6.21 10.232 10.232 0 005.98 1.917 6.106 6.106 0 003.321-.86M29.837 42.898c-2.107-3.01-5.678-5.88-8.498-5.88-4.28 0-5.43 1.93-5.43 3.77a19.467 19.467 0 001.303 5.138s-8.641-.46-8.641-6.9 5.114-9.282 10.788-9.282c4.877 0 12.447 4.298 14.42 13.153"/><path fill="#f1b31c" d="M36.083 66.491s4.213-2.452 4.213-6.974c0-3.185-1.217-3.328-1.937-6.216h-2.292zM36.067 42.898h2.288c1.782-7.103 7.612-13.29 7.612-19.588 0-7.433-9.884-17.794-9.884-17.794zM54.402 45.926a19.466 19.466 0 001.303-5.137c0-1.84-1.15-3.77-5.43-3.77-2.82 0-6.391 2.87-8.498 5.88h-1.543s3.283-8.489 9.958-8.489c0 0 8.55-.75 8.55 6.337 0 0 .22 5.18-4.34 5.18zM17.86 45.926a19.467 19.467 0 01-1.303-5.137c0-1.84 1.15-3.77 5.43-3.77 2.82 0 6.39 2.87 8.498 5.88h1.542s-3.283-8.489-9.957-8.489c0 0-8.55-.75-8.55 6.337 0 0-.22 5.18 4.34 5.18zM51.514 52.694a10.232 10.232 0 01-5.98 1.917 4.243 4.243 0 01-3.376-1.31h-1.564s1.852 3.195 4.904 3.195c0 0 6.016.234 6.016-3.802zM20.557 52.694a10.233 10.233 0 005.98 1.917 4.244 4.244 0 003.375-1.31h1.564s-1.852 3.195-4.904 3.195c0 0-6.015.234-6.015-3.802z"/><g fill="none" stroke="#000" stroke-linecap="round" stroke-linejoin="round" stroke-width="1.908"><path d="M38.36 53.301c.719 2.888 1.936 3.03 1.936 6.216 0 4.522-4.213 6.974-4.213 6.974l-.016.009-.015-.009s-4.213-2.452-4.213-6.974c0-3.185 1.216-3.328 1.936-6.214M33.78 42.898c-1.782-7.103-7.612-13.29-7.612-19.588 0-7.433 9.884-17.794 9.884-17.794l.015-.016.016.016s9.884 10.36 9.884 17.794c0 6.298-5.83 12.485-7.612 19.588"/><path d="M42.398 42.898c2.107-3.01 5.677-5.88 8.498-5.88 4.28 0 5.43 1.93 5.43 3.77a19.467 19.467 0 01-1.303 5.138s8.64-.46 8.64-6.9-5.113-9.282-10.787-9.282c-4.877 0-12.547 4.299-14.521 13.154M38.36 53.301c2.18 6.604 9.302 5.157 9.302 5.157a5.732 5.732 0 004.6-6.21 10.232 10.232 0 01-5.98 1.917 6.105 6.105 0 01-3.322-.861M33.775 53.303c-2.18 6.601-9.202 5.155-9.202 5.155a5.732 5.732 0 01-4.6-6.21 10.232 10.232 0 005.98 1.917 6.106 6.106 0 003.321-.86M29.837 42.898c-2.107-3.01-5.678-5.88-8.498-5.88-4.28 0-5.43 1.93-5.43 3.77a19.467 19.467 0 001.303 5.138s-8.641-.46-8.641-6.9 5.114-9.282 10.788-9.282c4.877 0 12.447 4.298 14.42 13.153M45.672 49.996H26.589M26.589 46.453h19.083"/></g></svg><svg viewBox="0 0 72 72" width="72" height="72" id="267B" x="720" y="360" xmlns="http://www.w3.org/2000/svg"><g stroke-linecap="round" stroke-linejoin="round" stroke-miterlimit="10" stroke-width="2"><path fill="#5C9E31" stroke="#5C9E31" d="M34.6 22.955L30.975 28.9l-10-6 2.993-5.047a5.002 5.002 0 016.207-1.414c.49.247.889.645 1.172 1.115l3.22 5.349.031.05zM44.595 41.732l-3.482-6.03L51.172 29.8l2.994 5.046c.98 2.231.201 4.79-1.733 6.125-.451.311-.993.47-1.54.494l-6.238.263-.06.003z"/><path fill="#B1CC33" stroke="#b1cc33" d="M15.174 40.477l6.378 11.716.09.167c.458.834 1.023.801 1.796.801h1.776l5.927-.02-.174-11.66-3.601.029-9.908-.03h-.017c-.008-.003-1.626.004-1.634 0l-.633-1.003zM31.372 17.56L37 26.906l-1.904 1.252 8.904.748 5-8-2 1-3-5-.097-.163c-.487-.817-1.121-.83-1.86-.83l-14.368-.006s2.603-.177 3.697 1.653z"/><path fill="#5C9E31" stroke="#5C9E31" d="M28 37.906l-2-1-.46.66-2.37 3.93-5.71-.02h-.02c-.01 0-.02 0-.02-.01-2.14-.95-3.7-3.47-2.69-5.7l3.03-4.98-1.82-1.31 9.41.7 2.65 7.73z"/><path fill="#b1cc33" stroke="#b1cc33" d="M53.787 39.533l-6.595 12.041c-.355.648-.69 1.544-1.64 1.578h-.29l-5.747-.007-.048 2.125-4.607-8.232 4.754-7.761v2.214l6.64-.038 5.91.138 1.623-2.058z"/></g><g fill="none" stroke="#000" stroke-linecap="round" stroke-linejoin="round" stroke-miterlimit="10" stroke-width="2"><path d="M32.261 26.836L31 28.906l-10-6 2.994-5.047a5.002 5.002 0 016.206-1.414c.49.247.889.645 1.172 1.115L37 26.906l-1.904 1.252 8.904.748 5-8-2 1-3-5-.097-.163c-.487-.817-1.121-.83-1.86-.83l-7.092-.006M14.734 35.766c-1.014 2.229-.262 4.76 1.876 5.715 0 0 .748-.005.757-.001h.091l9.908.03 3.601-.03.174 11.661-5.927.02h-1.776c-.772 0-1.338.033-1.795-.801l-.09-.167-3.662-6.784M14.734 35.766l3.026-4.984-1.817-1.304 9.409.696L28 37.906l-2-1-.463.66M42.327 37.75l-1.212-2.108 10.072-5.88 2.984 5.053a5.002 5.002 0 01-1.747 6.122c-.452.31-.994.468-1.541.49l-11.27.064v-2.214l-4.753 7.76 4.607 8.234.048-2.126 5.748.008h.289c.95-.035 1.285-.93 1.64-1.578l3.336-6.067"/></g></svg><svg viewBox="0 0 72 72" width="72" height="72" id="2695" x="720" y="432" xmlns="http://www.w3.org/2000/svg"><path fill="#B1CC33" stroke="#B1CC33" stroke-linecap="round" stroke-linejoin="round" stroke-miterlimit="10" stroke-width="1.8" d="M31.88 32.544h3.075a1.957 1.957 0 110 3.915H22.093a6.291 6.291 0 100 12.583h5.82l.152-4.194h-5.692c-1.081 0-2.115-.892-2.115-1.973 0-1.08 1.034-1.942 2.115-1.942h12.443a6.291 6.291 0 100-12.583H31.88v4.194z"/><path fill="#5C9E31" stroke="#5C9E31" stroke-linecap="round" stroke-linejoin="round" stroke-miterlimit="10" stroke-width="1.8" d="M25.681 52.957h6.257c1.072 0 2.006-.826 2.038-1.897a1.957 1.957 0 00-1.956-2.018v-4.194h.269c3.411 0 6.317 2.653 6.438 6.062a6.292 6.292 0 01-6.288 6.52H21.394h0a6.104 6.104 0 013.063-4.161h0a2.557 2.557 0 011.224-.312z"/><path fill="#B1CC33" stroke="#B1CC33" stroke-linecap="round" stroke-linejoin="round" stroke-miterlimit="10" stroke-width="2" d="M38.526 49.554a6.292 6.292 0 01-6.086 7.877H21.393h0a6.104 6.104 0 013.063-4.162h0a2.557 2.557 0 011.225-.312h6.256c.626 0 1.205-.282 1.585-.73l5.002-2.673z"/><path fill="#5C9E31" stroke="#5C9E31" stroke-linecap="round" stroke-linejoin="round" stroke-miterlimit="10" stroke-width="1.8" d="M32.02 49.042h-3.756v-4.194h3.756"/><path fill="#5C9E31" d="M22.017 39.95s-7.083 1.372-6.698 5.557c0 0 1.502 2.853 3.324 3.317l5.413 1.227h2.993v-6.2l-5.183-.039-1.493-.648 1.426-1.743.218-1.47z"/><path fill="#B1CC33" stroke="#B1CC33" stroke-linecap="round" stroke-linejoin="round" stroke-miterlimit="10" stroke-width="1.8" d="M53.129 19.883c0 4.333-7.5 4.5-7.5 4.5l-9.034.048-.212.004H19.417c-.975 0-1.878.667-2.035 1.629a1.959 1.959 0 001.93 2.286H28.1l-.066 4.194h-8.737c-3.444 0-6.448-2.654-6.551-6.097a6.292 6.292 0 016.288-6.485H35.88a2.072 2.072 0 001.89-1.609 6.573 6.573 0 016.397-5.062"/><path fill="#B1CC33" d="M44.167 13.291c3.628 0 8.962 2.964 8.962 6.592"/><path fill="#5C9E31" d="M40.055 35.097s.311-2.144-.55-3.253c-1.12-1.443-2.66-3.905-5.027-4.498h-6.024l.184 6.203h6.604c.813-.273 1.262-.228 1.79-.07.875.263 1.693.689 2.443 1.213l.58.405zM17.318 27.843c.963.79 2.403.548 3.055-.515l6.877.018-.08 6.19c-1.798-.03-3.685.107-5.022-.125-7.325-1.267-8.036-5.282-8.036-5.282s.449-4.693 5.382-4.693l-1.556 1.56a2.098 2.098 0 00-1.508 1.906l.888.94z"/><g><path fill="none" stroke="#000" stroke-linecap="round" stroke-linejoin="round" stroke-miterlimit="10" stroke-width="2" d="M24.13 44.848h-1.8a1.957 1.957 0 110-3.915H34.774a6.291 6.291 0 100-12.583h-2.937"/><path fill="none" stroke="#000" stroke-linecap="round" stroke-linejoin="round" stroke-miterlimit="10" stroke-width="2" d="M31.837 32.544h3.076a1.957 1.957 0 110 3.915H22.05a6.291 6.291 0 100 12.583h2.08"/><path fill="none" stroke="#000" stroke-linecap="round" stroke-linejoin="round" stroke-width="2" d="M24.066 32.544h-4.77c-3.444 0-6.448-2.654-6.551-6.097a6.292 6.292 0 016.288-6.485H35.88a2.072 2.072 0 001.89-1.609 6.573 6.573 0 016.397-5.062"/><path fill="none" stroke="#000" stroke-linecap="round" stroke-linejoin="round" stroke-width="2" d="M53.129 19.883c0 4.333-7.5 4.5-7.5 4.5l-9.034.048-.212.004H19.417c-.975 0-1.878.667-2.035 1.629a1.959 1.959 0 001.93 2.286h4.754"/><path fill="none" stroke="#000" stroke-linecap="round" stroke-linejoin="round" stroke-width="1.8" d="M44.167 13.291c3.628 0 8.962 2.964 8.962 6.592"/><path fill="none" stroke="#000" stroke-linecap="round" stroke-miterlimit="10" stroke-width="2" d="M50.98 23.838s3.794 4.054 7.586 4.577M58.069 28.415l4.838-2.223M59.115 32.992l-1.046-4.577"/><path fill="none" stroke="#000" stroke-linecap="round" stroke-linejoin="round" stroke-width="2" d="M28.065 58.237v4.725M28.065 41.858v10.019M28.065 25.398v10.178M28.065 15.038v3.843"/><circle cx="28.065" cy="12.038" r="3"/><path fill="none" stroke="#000" stroke-linecap="round" stroke-linejoin="round" stroke-miterlimit="10" stroke-width="2" d="M32.02 44.848h.269c3.411 0 6.317 2.653 6.438 6.062a6.292 6.292 0 01-6.288 6.52H21.394h0a6.104 6.104 0 013.063-4.161h0a2.557 2.557 0 011.225-.312h6.256c1.072 0 2.006-.826 2.038-1.897a1.957 1.957 0 00-1.956-2.018"/></g></svg><svg viewBox="0 0 72 72" width="72" height="72" id="1F4B2" x="720" y="504" xmlns="http://www.w3.org/2000/svg"><path fill="#9b9b9a" d="M35.5 33c-1.76 0-7.5-.397-7.5-5.5s5.74-5.5 7.5-5.5c8.5 0 8.5 3.996 8.5 5.5a3.5 3.5 0 007 0c0-6.68-4.23-11.05-11.5-12.192V12.5a4 4 0 00-8 0v2.904C25.088 16.719 21 21.244 21 27.5 21 34.977 26.827 40 35.5 40c2.94 0 8.5 1.15 8.5 5.5S38.44 51 35.5 51c-1.76 0-7.5-.397-7.5-5.5a3.5 3.5 0 00-7 0c0 6.255 4.088 10.78 10.5 12.096V59.5a4 4 0 008 0v-1.899C45.686 56.373 51 52.273 51 45.5 51 37.294 43.202 33 35.5 33z"/><path fill="none" stroke="#000" stroke-miterlimit="10" stroke-width="2" d="M35.5 33c-1.76 0-7.5-.397-7.5-5.5s5.74-5.5 7.5-5.5c8.5 0 8.5 3.996 8.5 5.5a3.5 3.5 0 007 0c0-6.68-4.23-11.05-11.5-12.192V12.5a4 4 0 00-8 0v2.904C25.088 16.719 21 21.244 21 27.5 21 34.977 26.827 40 35.5 40c2.94 0 8.5 1.15 8.5 5.5S38.44 51 35.5 51c-1.76 0-7.5-.397-7.5-5.5a3.5 3.5 0 00-7 0c0 6.255 4.088 10.78 10.5 12.096V59.5a4 4 0 008 0v-1.899C45.686 56.373 51 52.273 51 45.5 51 37.294 43.202 33 35.5 33z"/></svg><svg viewBox="0 0 72 72" width="72" height="72" id="1F4B1" x="720" y="576" xmlns="http://www.w3.org/2000/svg"><path fill="#ea5a47" d="M14.689 14.805h23.904v14.051H14.689z"/><path fill="#d0cfce" d="M27.956 13.411v17.012a.592.592 0 01-.598.407h-9.143a.72.72 0 01-.598-.407V13.237a.593.593 0 01.598-.406h9.143a.72.72 0 01.598.406z"/><ellipse cx="44.881" cy="49.88" rx="9.681" ry="5.806" fill="#5c9e31" stroke="#5c9e31" stroke-miterlimit="10" stroke-width="1.5"/><path fill="#5c9e31" d="M58.088 40.59v.348h-1.853a.583.583 0 00-.597-.522H36.575a.583.583 0 00-.598.522h-5.319v.407H30.3V59.11h5.677a.634.634 0 00.598.581h19.063a.59.59 0 00.597-.58h3.586V40.59zm0 14.632h-.24a2.402 2.402 0 00-2.45 2.206H34.723a2.386 2.386 0 00-2.39-2.206h-.24V44.828h.24a2.346 2.346 0 002.39-2.206h20.617a2.402 2.402 0 002.45 2.206h.239v10.393z"/><path fill="#5c9e31" d="M35.917 56.847h18.585v1.684H35.917zM34.423 41.519h18.585v1.684H34.423z"/><path fill="#d0cfce" d="M50.08 41.577v17.186a.593.593 0 01-.598.406H40.34a.72.72 0 01-.597-.406v-17.36a.593.593 0 01.597-.407h9.144a.72.72 0 01.597.406z"/><g><g stroke="#000"><g fill="none" stroke-linecap="round" stroke-linejoin="round" stroke-width="1.5"><path d="M48.485 26.717l-2.36-3.983 4.1-2.293M47.072 22.888a14.706 14.706 0 0110.822 11.384"/></g><g fill="none" stroke-linecap="round" stroke-linejoin="round" stroke-width="1.5"><path d="M23.094 45.255l2.359 3.983-4.099 2.292M24.507 49.084A14.706 14.706 0 0113.685 37.7"/></g><path fill="#f4aa41" stroke-miterlimit="10" d="M38.892 12.598h2.749v.116h-2.749z"/><ellipse cx="33.214" cy="20.727" rx="3.526" ry="3.426" fill="#fff" stroke-miterlimit="10" stroke-width="1.5"/><path fill="none" stroke-linecap="round" stroke-linejoin="round" stroke-width="1.5" d="M27.956 13.411v17.012a.592.592 0 01-.598.407h-9.143a.72.72 0 01-.598-.407V13.237a.593.593 0 01.598-.406h9.143a.72.72 0 01.598.406z"/><g fill="none" stroke-linecap="round" stroke-linejoin="round" stroke-width="1.5"><path d="M22.876 24.443v-2.264l1.554-2.962-1.554 2.962-1.494-2.962M21.442 21.83h2.928"/></g><path fill="none" stroke-linecap="round" stroke-linejoin="round" stroke-width="1.5" d="M14.928 30.888h-2.151a.557.557 0 01-.598-.58V13.352a.557.557 0 01.598-.58h2.151M30.645 12.83l10.398-.057a.557.557 0 01.598.58v16.954a.557.557 0 01-.598.58l-10.398-.057"/><path fill="none" stroke-linecap="round" stroke-linejoin="round" stroke-width="1.5" d="M30.645 15.269h8.247v13.122h-8.247M14.928 28.507V15.269M52.47 42.68H55.4a2.402 2.402 0 002.45 2.206h.239V55.28h-.24a2.402 2.402 0 00-2.45 2.207H52.47m-14.88-.058h-2.868a2.386 2.386 0 00-2.39-2.207h-.24V44.828h.24a2.346 2.346 0 002.39-2.206h2.63M50.08 41.577v17.186a.593.593 0 01-.598.406H40.34a.72.72 0 01-.597-.406v-17.36a.593.593 0 01.597-.407h9.144a.72.72 0 01.597.406z"/><path fill="none" stroke-linecap="round" stroke-linejoin="round" stroke-width="1.5" d="M37.59 59.111h-6.693a.557.557 0 01-.597-.58V41.577a.557.557 0 01.597-.581h6.454M52.35 40.996h6.873a.557.557 0 01.598.58v16.955a.557.557 0 01-.598.58h-6.872"/><g fill="none" stroke-linecap="round" stroke-miterlimit="10" stroke-width="1.5"><path d="M51.753 45.757c1.733 1.045 2.869 2.497 2.869 4.123s-1.136 3.077-2.869 4.122M37.351 53.48A4.72 4.72 0 0135.2 49.82a4.926 4.926 0 012.45-3.89"/></g><g fill="none" stroke-linecap="round" stroke-linejoin="round" stroke-width="1.5"><path d="M46.315 48.428a1.34 1.34 0 00-1.374-.871h0a1.23 1.23 0 00-1.375 1.103 1.267 1.267 0 001.375 1.103h0a1.23 1.23 0 011.374 1.103 1.311 1.311 0 01-1.374 1.104h0a1.34 1.34 0 01-1.375-.87M44.881 47.557v-1.045M44.881 52.957v-1.045"/></g></g></g></svg><svg viewBox="0 0 72 72" width="72" height="72" id="3030" x="720" y="648" xmlns="http://www.w3.org/2000/svg"><path fill="#3F3F3F" d="M16 37.166c1 3 2.239 5 5 5 2.75 0 3.99-1.983 4.987-4.961l.013-.039.017-.051c1.797-5.372 4.028-8.949 8.983-8.949 4.97 0 7.2 3.6 9 9l.038.114c1.12 2.906 2.236 4.886 4.962 4.886 2.761 0 4-2 5-5l.02-.062.024-.069c1.792-5.327 4.026-8.869 8.956-8.869v5.001c-2.634.33-4.275 1.825-5 4l-.081.241c-1.786 5.265-4.023 8.758-8.919 8.758-4.946 0-7.178-3.565-8.973-8.92l-.115-.34c-.946-2.855-2.231-4.74-4.912-4.74-2.761 0-4 2-5 5l-.06.179c-1.79 5.3-4.024 8.821-8.94 8.821-4.97 0-7.2-3.6-9-9l-.03-.089c-.74-2.126-2.372-3.584-4.97-3.91v-5.001c4.97 0 7.2 3.6 9 9"/><path fill="none" stroke="#000" stroke-linecap="round" stroke-linejoin="round" stroke-width="2" d="M16 37.166c1 3 2.239 5 5 5 2.75 0 3.99-1.983 4.987-4.961l.013-.039.017-.051c1.797-5.372 4.028-8.949 8.983-8.949 4.97 0 7.2 3.6 9 9l.038.114c1.12 2.906 2.236 4.886 4.962 4.886 2.761 0 4-2 5-5h0l.02-.062.024-.069c1.792-5.327 4.026-8.869 8.956-8.869v5.001c-2.634.33-4.275 1.825-5 4l-.081.241c-1.786 5.265-4.023 8.758-8.919 8.758-4.946 0-7.178-3.565-8.973-8.92l-.115-.34c-.946-2.855-2.231-4.74-4.912-4.74-2.761 0-4 2-5 5l-.06.179c-1.79 5.3-4.024 8.821-8.94 8.821-4.97 0-7.2-3.6-9-9l-.03-.089c-.74-2.126-2.372-3.584-4.97-3.91v-5.001c4.97 0 7.2 3.6 9 9"/></svg><svg viewBox="0 0 72 72" width="72" height="72" id="2757" y="720" xmlns="http://www.w3.org/2000/svg"><g fill="#D22F27"><circle cx="36.093" cy="58.842" r="3"/><path d="M35.987 49.373a2.5 2.5 0 01-2.5-2.5v-35.21a2.5 2.5 0 115 0v35.21a2.5 2.5 0 01-2.5 2.5z"/></g><g fill="none" stroke="#000" stroke-linecap="round" stroke-linejoin="round" stroke-miterlimit="10" stroke-width="2"><circle cx="36.093" cy="58.842" r="3"/><path d="M35.987 49.373a2.5 2.5 0 01-2.5-2.5v-35.21a2.5 2.5 0 115 0v35.21a2.5 2.5 0 01-2.5 2.5z"/></g></svg><svg viewBox="0 0 72 72" width="72" height="72" id="2755" x="72" y="720" xmlns="http://www.w3.org/2000/svg"><g fill="#FFF"><circle cx="36.093" cy="58.842" r="3"/><path d="M35.987 49.373a2.5 2.5 0 01-2.5-2.5v-35.21a2.5 2.5 0 115 0v35.21a2.5 2.5 0 01-2.5 2.5z"/></g><g fill="none" stroke="#000" stroke-linecap="round" stroke-linejoin="round" stroke-miterlimit="10" stroke-width="2"><circle cx="36.093" cy="58.842" r="3"/><path d="M35.987 49.373a2.5 2.5 0 01-2.5-2.5v-35.21a2.5 2.5 0 115 0v35.21a2.5 2.5 0 01-2.5 2.5z"/></g></svg><svg viewBox="0 0 72 72" width="72" height="72" id="2754" x="144" y="720" xmlns="http://www.w3.org/2000/svg"><g fill="#FFF"><path d="M51.367 24.19c0 7.62-5.58 13.97-12.88 15.17v7.565c0 1.39-1.11 2.5-2.5 2.5-1.38 0-2.5-1.11-2.5-2.5v-9.866a2.5 2.5 0 012.5-2.5c5.72 0 10.38-4.65 10.38-10.37 0-5.66-4.56-10.27-10.2-10.37h-.05c-4.92.02-9.11 3.37-10.22 8.14l-.12.57a2.496 2.496 0 01-2.46 2.07c-.14 0-.29-.02-.44-.04a2.498 2.498 0 01-2.02-2.9c.05-.28.1-.56.17-.83.59-2.54 1.78-4.82 3.4-6.68 2.71-3.14 6.65-5.11 11.01-5.32.24 0 .49-.01.73-.01.09 0 .18 0 .27.01 8.27.24 14.93 7.03 14.93 15.36z"/><circle cx="36.093" cy="58.842" r="3"/></g><g fill="none" stroke="#000" stroke-linecap="round" stroke-linejoin="round" stroke-miterlimit="10" stroke-width="2"><path d="M51.367 24.19c0 7.62-5.58 13.97-12.88 15.17v7.565c0 1.39-1.11 2.5-2.5 2.5-1.38 0-2.5-1.11-2.5-2.5v-9.866a2.5 2.5 0 012.5-2.5c5.72 0 10.38-4.65 10.38-10.37 0-5.66-4.56-10.27-10.2-10.37h-.05c-4.92.02-9.11 3.37-10.22 8.14l-.12.57a2.496 2.496 0 01-2.46 2.07c-.14 0-.29-.02-.44-.04a2.498 2.498 0 01-2.02-2.9c.05-.28.1-.56.17-.83.59-2.54 1.78-4.82 3.4-6.68 2.71-3.14 6.65-5.11 11.01-5.32.24 0 .49-.01.73-.01.09 0 .18 0 .27.01 8.27.24 14.93 7.03 14.93 15.36z"/><circle cx="36.093" cy="58.842" r="3"/></g></svg><svg viewBox="0 0 72 72" width="72" height="72" id="2753" x="216" y="720" xmlns="http://www.w3.org/2000/svg"><g fill="#D22F27"><path d="M51.367 24.19c0 7.62-5.58 13.97-12.88 15.17v7.565c0 1.39-1.11 2.5-2.5 2.5-1.38 0-2.5-1.11-2.5-2.5v-9.866a2.5 2.5 0 012.5-2.5c5.72 0 10.38-4.65 10.38-10.37 0-5.66-4.56-10.27-10.2-10.37h-.05c-4.92.02-9.11 3.37-10.22 8.14l-.12.57a2.496 2.496 0 01-2.46 2.07c-.14 0-.29-.02-.44-.04a2.498 2.498 0 01-2.02-2.9c.05-.28.1-.56.17-.83.59-2.54 1.78-4.82 3.4-6.68 2.71-3.14 6.65-5.11 11.01-5.32.24 0 .49-.01.73-.01.09 0 .18 0 .27.01 8.27.24 14.93 7.03 14.93 15.36z"/><circle cx="36.093" cy="58.842" r="3"/></g><g fill="none" stroke="#000" stroke-linecap="round" stroke-linejoin="round" stroke-miterlimit="10" stroke-width="2"><path d="M51.367 24.19c0 7.62-5.58 13.97-12.88 15.17v7.565c0 1.39-1.11 2.5-2.5 2.5-1.38 0-2.5-1.11-2.5-2.5v-9.866a2.5 2.5 0 012.5-2.5c5.72 0 10.38-4.65 10.38-10.37 0-5.66-4.56-10.27-10.2-10.37h-.05c-4.92.02-9.11 3.37-10.22 8.14l-.12.57a2.496 2.496 0 01-2.46 2.07c-.14 0-.29-.02-.44-.04a2.498 2.498 0 01-2.02-2.9c.05-.28.1-.56.17-.83.59-2.54 1.78-4.82 3.4-6.68 2.71-3.14 6.65-5.11 11.01-5.32.24 0 .49-.01.73-.01.09 0 .18 0 .27.01 8.27.24 14.93 7.03 14.93 15.36z"/><circle cx="36.093" cy="58.842" r="3"/></g></svg><svg viewBox="0 0 72 72" width="72" height="72" id="2049" x="288" y="720" xmlns="http://www.w3.org/2000/svg"><g fill="#d22f27"><ellipse cx="43.824" cy="58.38" rx="3.147" ry="3.153"/><path d="M43.713 49.316a1.476 1.476 0 01-1.476-1.464c0-.082-.06-2.56.004-8.415.036-3.231 3.63-6.127 8.385-10.876 2.178-2.174 2.474-4.716 2.474-7.127 0-3.282-2.965-7.587-8.983-7.587-5.339 0-8.5 3.467-8.5 9.552a1.434 1.434 0 01-1.394 1.587 1.552 1.552 0 01-1.505-1.759c0-9.882 7.29-12.269 11.365-12.269 6.57 0 12.028 3.432 12.028 10.207 0 3.671-.48 6.526-3.71 9.755-3.956 3.956-7.184 6.346-7.208 8.549-.065 5.826-.005 8.278-.004 8.36a1.476 1.476 0 01-1.465 1.487z"/><ellipse cx="22.421" cy="58.25" rx="3" ry="3.023"/><path d="M22.321 50.778a2.485 2.485 0 01-2.5-2.519V12.792a2.5 2.5 0 115 0v35.467a2.485 2.485 0 01-2.5 2.52z"/></g><ellipse cx="43.824" cy="58.38" rx="3.147" ry="3.153" fill="none" stroke="#000" stroke-linecap="round" stroke-linejoin="round" stroke-width="2"/><path d="M44.082 10.958c6.57 0 12.028 3.432 12.028 10.207 0 3.671-.48 6.526-3.71 9.755-3.955 3.956-7.183 6.346-7.208 8.549-.065 5.826-.005 8.278-.004 8.36a1.476 1.476 0 01-1.464 1.487h-.012a1.476 1.476 0 01-1.475-1.464c0-.082-.061-2.561.004-8.416.036-3.23 3.63-6.127 8.385-10.875 2.178-2.174 2.474-4.716 2.474-7.127 0-3.282-2.965-7.587-8.983-7.587-5.339 0-8.5 3.467-8.5 9.552a1.434 1.434 0 01-1.394 1.587 1.552 1.552 0 01-1.505-1.759c0-9.882 7.29-12.269 11.365-12.269m0-2c-4.964 0-13.365 3.006-13.365 14.27a3.519 3.519 0 003.505 3.758 3.418 3.418 0 003.394-3.587c0-3.445 1.128-7.552 6.5-7.552 4.816 0 6.983 3.267 6.983 5.587 0 2.364-.316 4.144-1.886 5.712a250.26 250.26 0 01-2.157 2.12c-3.934 3.833-6.776 6.602-6.815 10.149-.055 4.945-.022 7.539-.005 8.424a3.476 3.476 0 106.952-.025l-.002-.075c-.016-.86-.048-3.384.006-8.248.01-.838 2.102-2.821 3.948-4.571.809-.767 1.726-1.637 2.674-2.585 3.577-3.577 4.296-6.926 4.296-11.17 0-7.3-5.638-12.206-14.028-12.206z"/><ellipse cx="22.421" cy="58.895" rx="3" ry="3.023" fill="none" stroke="#000" stroke-linecap="round" stroke-linejoin="round" stroke-width="2"/><path fill="none" stroke="#000" stroke-linecap="round" stroke-linejoin="round" stroke-width="2" d="M22.421 50.778a2.485 2.485 0 01-2.5-2.519V12.792a2.5 2.5 0 115 0v35.467a2.485 2.485 0 01-2.5 2.52z"/></svg><svg viewBox="0 0 72 72" width="72" height="72" id="203C" x="360" y="720" xmlns="http://www.w3.org/2000/svg"><g fill="#d22f27"><ellipse cx="26.669" cy="59.435" rx="3" ry="3.023"/><path d="M26.57 49.964a2.485 2.485 0 01-2.5-2.519V11.977a2.5 2.5 0 115 0v35.468a2.485 2.485 0 01-2.5 2.519z"/><ellipse cx="45.331" cy="59.435" rx="3" ry="3.023"/><path d="M45.23 49.964a2.485 2.485 0 01-2.5-2.519V11.977a2.5 2.5 0 115 0v35.468a2.485 2.485 0 01-2.5 2.519z"/></g><g fill="none" stroke="#000" stroke-linecap="round" stroke-linejoin="round" stroke-width="2"><ellipse cx="26.669" cy="60.081" rx="3" ry="3.023"/><ellipse cx="45.331" cy="60.081" rx="3" ry="3.023"/><path d="M26.67 49.964a2.485 2.485 0 01-2.5-2.519V11.977a2.5 2.5 0 115 0v35.468a2.485 2.485 0 01-2.5 2.519zM45.33 49.964a2.485 2.485 0 01-2.5-2.519V11.977a2.5 2.5 0 115 0v35.468a2.485 2.485 0 01-2.5 2.519z"/></g></svg><svg viewBox="0 0 72 72" width="72" height="72" id="267E" x="432" y="720" xmlns="http://www.w3.org/2000/svg"><path fill="#9b9b9a" d="M36 39.444c-4.335 4.335-8.84 9.095-15.727 9.095-7.14 0-12.24-5.27-12.24-12.58a12.683 12.683 0 0112.921-12.582c6.29 0 10.966 5.015 15.046 9.096 4.335-4.336 8.84-9.096 15.727-9.096 7.225 0 12.24 5.27 12.24 12.581A12.684 12.684 0 0151.046 48.54c-6.29 0-10.966-5.015-15.046-9.095zm-3.4-3.486c-3.315-3.06-6.8-7.48-11.73-7.48a7.49 7.49 0 00-7.48 7.48 7.127 7.127 0 007.225 7.48c4.844 0 8.754-4.165 11.985-7.48zm26.013 0a7.127 7.127 0 00-7.226-7.48c-4.846 0-8.756 4.165-11.986 7.48 3.315 3.06 6.8 7.48 11.73 7.48a7.491 7.491 0 007.481-7.48z"/><g stroke="#000" stroke-width="2"><path fill="none" d="M36 39.485c-4.335 4.335-8.84 9.096-15.727 9.096-7.14 0-12.24-5.27-12.24-12.581a12.683 12.683 0 0112.921-12.581c6.29 0 10.966 5.015 15.046 9.096 4.335-4.336 8.84-9.096 15.727-9.096 7.225 0 12.24 5.27 12.24 12.581a12.684 12.684 0 01-12.921 12.581c-6.29 0-10.966-5.016-15.046-9.096zM32.6 36c-3.315-3.06-6.8-7.48-11.73-7.48A7.49 7.49 0 0013.39 36a7.127 7.127 0 007.225 7.48c4.844 0 8.754-4.165 11.985-7.48zm26.013 0a7.127 7.127 0 00-7.226-7.48c-4.846 0-8.756 4.165-11.987 7.48 3.315 3.06 6.8 7.48 11.73 7.48A7.491 7.491 0 0058.612 36z"/><path stroke-linecap="round" stroke-linejoin="round" d="M32.6 36l3.4-3.485M36 39.485L39.4 36"/></g></svg><svg viewBox="0 0 72 72" width="72" height="72" id="2797" x="504" y="720" xmlns="http://www.w3.org/2000/svg"><g fill="#d0cfce"><path d="M60 40.648H14v-9h45.992"/><circle cx="36" cy="51.648" r="5"/><circle cx="36" cy="21.648" r="5"/></g><g fill="none" stroke="#000" stroke-linecap="round" stroke-linejoin="round" stroke-miterlimit="10" stroke-width="2"><path d="M13.836 41.648V31.352h46.33v10.296z"/><circle cx="36" cy="51.648" r="5"/><circle cx="36" cy="21.648" r="5"/></g></svg><svg viewBox="0 0 72 72" width="72" height="72" id="2796" x="576" y="720" xmlns="http://www.w3.org/2000/svg"><path fill="#D0CFCE" d="M59.966 40.667h-46V30.76h45.991"/><path fill="none" stroke="#000" stroke-linecap="round" stroke-linejoin="round" stroke-miterlimit="10" stroke-width="2" d="M13.486 40.908V30.612h46.33v10.296z"/></svg><svg viewBox="0 0 72 72" width="72" height="72" id="2795" x="648" y="720" xmlns="http://www.w3.org/2000/svg"><path fill="#D0CFCE" d="M31.853 29.874V12.521H42.15v17.36h.048l4.051.002h13.357V40.18H46.256l-4.107-.003v18.675H31.853V40.17h-.1l-3.817-.002H14V29.87h13.933l3.836.003z"/><path fill="none" stroke="#000" stroke-linecap="round" stroke-linejoin="round" stroke-miterlimit="10" stroke-width="2" d="M31.853 29.874V12.521H42.15v17.36h.048l4.051.002h13.357V40.18H46.256l-4.107-.003v18.675H31.853V40.17h-.1l-3.817-.002H14V29.87h13.933l3.836.003z"/></svg><svg viewBox="0 0 72 72" width="72" height="72" id="2716" x="720" y="720" xmlns="http://www.w3.org/2000/svg"><path fill="#D0CFCE" d="M29.4 36.162l-2.844-2.84-8.136-8.136 6.275-6.275 8.14 8.14 2.699 2.695.146.146 2.844-2.84 8.14-8.141 6.276 6.275-8.136 8.136-2.845 2.84.1.1 2.044 2.042 8.837 8.837-6.275 6.275-8.839-8.839-2.148-2.145-.06.063-2.085 2.082-8.838 8.839-6.275-6.275 8.836-8.837 2.113-2.11z"/><path fill="none" stroke="#000" stroke-linecap="round" stroke-linejoin="round" stroke-miterlimit="10" stroke-width="2" d="M29.4 36.162l-2.844-2.84-8.136-8.136 6.275-6.275 8.14 8.14 2.699 2.695.146.146 2.844-2.84 8.14-8.141 6.276 6.275-8.136 8.136-2.845 2.84.1.1 2.044 2.042 8.837 8.837-6.275 6.275-8.839-8.839-2.148-2.145-.06.063-2.085 2.082-8.838 8.839-6.275-6.275 8.836-8.837 2.113-2.11z"/></svg></svg>