<?xml version="1.0" encoding="utf-8"?><svg width="576" height="576" viewBox="0 0 576 576" xmlns="http://www.w3.org/2000/svg" xmlns:xlink="http://www.w3.org/1999/xlink"><svg viewBox="0 0 72 72" width="72" height="72" id="1F3AA" x="72" xmlns="http://www.w3.org/2000/svg"><path fill="#FFF" d="M11.5 39h49v16h-49zM36 25L11.5 39h49z"/><path fill="#EA5A47" d="M36 25L20.5 39h31z"/><path fill="#FFF" d="M36 25l-5.5 14h11z"/><path fill="#EA5A47" d="M21 39h30v16H21z"/><path fill="#FFF" d="M30.5 39h11v16h-11z"/><path fill="#3F3F3F" d="M36 44l-3 11h6z"/><g fill="none" stroke="#000" stroke-linecap="round" stroke-linejoin="round" stroke-miterlimit="10" stroke-width="2"><path d="M11.5 39h49v16h-49zM36 25L11.5 39h49z"/><path d="M36 25L20.5 39h31z"/><path d="M36 25l-5.5 14h11zM21 39h30v16H21z"/><path d="M30.5 39h11v16h-11z"/><path d="M36 44l-3 11h6z"/></g></svg><svg viewBox="0 0 72 72" width="72" height="72" id="1F488" x="72" y="360" xmlns="http://www.w3.org/2000/svg"><path fill="#D0CFCE" d="M48.5 16h-23a2 2 0 110-4h23a2 2 0 110 4zM48.5 60h-23a2 2 0 110-4h23a2 2 0 110 4z"/><path fill="#EA5A47" d="M26 16h22v40H26z"/><path fill="#FFF" d="M41.822 16L26 25v-4l8.462-5zM26 37l22-13v-4L26 33zM48 32L26 45v4l22-13zM48 44L27.692 56h6.77L48 48z"/><path fill="#92D3F5" d="M48 16h-6.178L26 25v8l22-13zM48 44L27.692 56H26v-7l22-13z"/><g fill="none" stroke="#000" stroke-linecap="round" stroke-linejoin="round" stroke-miterlimit="10" stroke-width="2"><path d="M48.5 16h-23a2 2 0 01-2-2h0a2 2 0 012-2h23a2 2 0 012 2h0a2 2 0 01-2 2zM48.5 60h-23a2 2 0 01-2-2h0a2 2 0 012-2h23a2 2 0 012 2h0a2 2 0 01-2 2zM26 16h22v40H26z"/><path d="M41.822 16L26 25v-4l8.462-5zM26 37l22-13v-4L26 33zM48 32L26 45v4l22-13zM48 44L27.692 56h6.77L48 48z"/><path d="M48 16h-6.178L26 25v8l22-13zM48 44L27.692 56H26v-7l22-13z"/></g></svg><svg viewBox="0 0 72 72" width="72" height="72" id="1F3A2" y="72" xmlns="http://www.w3.org/2000/svg"><path fill="#fcea2b" d="M39.478 16.493c5.549-3.93 8.754-.634 8.754-.634a2.323 2.323 0 01.232 3.267L38.498 30.62a2.323 2.323 0 01-3.267.233l-3.713-3.22a2.323 2.323 0 01-.233-3.267l1.631-1.882 3.235 2.805 5.811-6.703z"/><path fill="#f4aa41" d="M45.966 22.194L38.86 30.39a2.323 2.323 0 01-3.267.233l-3.713-3.22a2.323 2.323 0 01-.233-3.267l1.632-1.882 3.234 2.804 2.417-2.788"/><path fill="#ea5a47" d="M14.271 50.034l-6.405-2.562v16.421h6.405V50.034z"/><path fill="#d22f27" d="M10.38 49.63v14.083h3.203V50.9l-3.203-1.27z"/><path fill="#ea5a47" d="M30.613 48.78l-6.405 1.693v13.42h6.405V48.78z"/><path fill="#d22f27" d="M27.41 50.111v14.083h3.203V48.78l-3.203 1.331z"/><path fill="#ea5a47" d="M48.353 36.383l-6.405 6.413v21.139h6.405V36.383z"/><path fill="#d22f27" d="M44.515 40.249v23.945h3.203V37.986l-3.203 2.263z"/><path fill="#ea5a47" d="M64.822 11.896l-6.405 10.482v41.515h6.405V11.896z"/><path fill="#d22f27" d="M61.62 17.866v45.492h3.202V13.565l-3.202 4.301z"/><g><path fill="none" stroke="#000" stroke-linecap="round" stroke-miterlimit="10" stroke-width="2" d="M62.359 6.195S36.534 62.135 7.178 42.17"/><path fill="none" stroke="#000" stroke-linecap="round" stroke-linejoin="round" stroke-width="2" d="M47.718 36.383l-6.405 6.413v21.139h6.405V36.383zM30.613 48.78l-6.405 1.693v13.42h6.405V48.78zM13.583 50.034l-6.405-2.562v16.421h6.405V50.034zM39.86 16.45c5.55-3.93 8.755-.634 8.755-.634a2.323 2.323 0 01.232 3.267l-9.966 11.495a2.323 2.323 0 01-3.267.233l-3.713-3.22a2.323 2.323 0 01-.233-3.267l1.632-1.882 3.234 2.804 5.812-6.703z"/><circle cx="48.575" cy="20.77" r="1.55"/><circle cx="46.884" cy="22.991" r="1.55"/><circle cx="40.021" cy="30.636" r="1.55"/><circle cx="42.21" cy="28.608" r="1.55"/><path fill="none" stroke="#000" stroke-linecap="round" stroke-linejoin="round" stroke-width="2" d="M64.822 11.896l-6.405 10.482v41.515h6.405V11.896z"/></g></svg><svg viewBox="0 0 72 72" width="72" height="72" id="1F3A1" x="72" y="72" xmlns="http://www.w3.org/2000/svg"><path fill="#61b2e4" d="M33.636 37.325L17.31 66.846h12.788l3.538-29.521zM36.386 37.606l16.261 29.24H39.859l-3.473-29.24z"/><path fill="#92d3f5" d="M46.53 55.464l-7.563-14.071-1.208.699 8.209 24.754h6.679l-5.442-10.127M31.703 42.584L24.001 66.24h6.182l3.304-23.424-1.784-.232z"/><path fill="none" stroke="#9b9b9a" stroke-linecap="round" stroke-linejoin="round" stroke-width="2" d="M38.327 29.961l12.272-12.272M19.267 49.049L32.36 35.956M56.918 32.927H38.901M50.612 48.676L37.63 35.694M31.149 32.946h-18.56M32.207 30.299L19.253 17.345M35.532 29.051V10.492"/><circle cx="34.734" cy="33.066" r="24.855" fill="none" stroke="#9b9b9a" stroke-miterlimit="10"/><circle cx="11.682" cy="20.785" r="4.588" fill="#f4aa41"/><circle cx="42.121" cy="9.418" r="4.588" fill="#f4aa41"/><circle cx="60.916" cy="32.206" r="4.64" fill="#f4aa41"/><circle cx="47.91" cy="55.464" r="4.64" fill="#f4aa41"/><circle cx="13.141" cy="47.132" r="4.588" fill="#f4aa41"/><g fill="none" stroke="#000" stroke-width="2"><path stroke-linecap="round" stroke-linejoin="round" d="M31.703 55.464l1.473-18.139M30.692 62.634l-.594 4.212H17.31l5.268-9.802M33.176 37.325l-8.679 16.148M38.254 55.464l-2.162-18.371M39.289 62.804l.57 4.042h12.788L48.929 60M36.092 37.093l8.184 14.294M60.646 36.838a26.132 26.132 0 01-8.409 15.7M47.281 10.081a26.226 26.226 0 0113.022 17.327M14.44 16.524a26.13 26.13 0 0120.294-9.64 26.484 26.484 0 012.677.135M10.457 42.887A26.305 26.305 0 019.7 25.373M43.763 57.65a26.215 26.215 0 01-28.123-6.67"/><path stroke-linecap="round" stroke-miterlimit="10" d="M37.163 36.16a3.876 3.876 0 111.738-3.234"/><path stroke-linecap="round" stroke-linejoin="round" d="M37.969 29.602L50.24 17.331M18.909 48.69l13.093-13.092M31.849 30.657L18.895 17.703M50.254 49.035L37.271 36.052M31.149 33.453h-18.56M56.276 33.433H38.901M35.025 29.051V10.492"/><circle cx="11.682" cy="20.785" r="4.588" stroke-miterlimit="10"/><circle cx="42.121" cy="9.418" r="4.588" stroke-miterlimit="10"/><path stroke-miterlimit="10" d="M65.556 32.206a4.64 4.64 0 01-4.64 4.64q-.137 0-.27-.008a4.64 4.64 0 114.91-4.632zM52.55 55.464a4.64 4.64 0 11-4.64-4.64 4.641 4.641 0 014.64 4.64z"/><circle cx="13.141" cy="47.132" r="4.588" stroke-miterlimit="10"/></g></svg><svg viewBox="0 0 72 72" width="72" height="72" id="1F3A0" x="144" xmlns="http://www.w3.org/2000/svg"><path fill="#f4aa41" d="M37.549 22.707l-5 .893L32.491 4h5.058v18.707zM32.549 45.571l4.942-1.071.058 23.5h-5V45.571z"/><path fill="#fcea2b" d="M34.959 45.049l2.187-.549.022 23.5h-2.209V45.049zM37.238 22.762l-2.209.402V4.028h2.209v18.734z"/><path fill="#d0cfce" d="M48.548 39s-2.1 6.8-3 9a68.387 68.387 0 00-2 8l4.2-1.2 2.4-4.9-1.2-.2v-2.6l2.9-3M56.548 25h2c3 0 7 3 6 7-.7 2.9-4.1 5.6.9 10.6 0 0 .7 2.8-2 2a6.358 6.358 0 01-3.4-4.1c-1.8-5.5 1.7-8.2 1-10.2-.4-1.2-2.3-1.1-2.3-1.1M21.849 42.1l-1.1 2.9c-.6.2-4.4 1.5-4.3 2.7.2 1.9-.9 7.3-.9 7.3l-2 1s-2-8-2-9a3.881 3.881 0 011-3 61.25 61.25 0 016-4"/><path fill="#e67a94" d="M42.548 28c.073 3.48.114 5.413-1 6-1.408.743-3.942-1.052-5-2-1.134-1.017-1.012-1.458-2-2-1.68-.922-2.923-.136-4-1-.5-.402-1.022-1.208-1-3"/><path fill="#ffa7c0" d="M30.539 24.906l11.344-1.645a.582.582 0 01.665.576V28l-13-2z"/><g fill="none" stroke="#000" stroke-linecap="round" stroke-width="2"><path stroke-miterlimit="10" d="M32.549 5v18.164M37.549 5v17"/><path stroke-linejoin="round" d="M26.549 24c-1-1-2.5-3.5-5-6a14.385 14.385 0 00-3-2l-2-3M46.548 30s-1 3 0 5c1.2 2.4 5.8 8 5.8 9l-2.8 3s-1.1.7-1.1 1.4a1.563 1.563 0 001.9 1.6s6.4-5.6 6.2-6c-.5-1.3-1.4-3.7-2-5-1-2 4-5 4-8 0-1.6-1-6-5-7a19.324 19.324 0 00-6-.3M24.549 54a19.438 19.438 0 01-5-3 3.054 3.054 0 010-3l3-6a7.813 7.813 0 01-3-2c-1-1-.9-5-1-7-.1-1.8-2-8-2-8a37.464 37.464 0 00-8 1c-.7.2-2.6-1.6-2-2a79.74 79.74 0 018-6M26.549 51a11.354 11.354 0 011.2 1.2 1.758 1.758 0 01-2.2 2.7c-.6-.5-1-.9-1-.9"/><path stroke-linejoin="round" d="M47.548 38s-7.4 3.4-10 4a79.17 79.17 0 01-9 1c-4 4-5 6-5 6a20.035 20.035 0 003 2M48.548 39s-2.1 6.8-3 9c-.5 1.2-.6 1.9-1.5 4-.8 1.8-.9 2.1-.9 2.1a1.85 1.85 0 001 2.4 2.158 2.158 0 002.4-1.3l1-2.1M15.549 52v2c0 1.1-.7 2-1.5 2a1.56 1.56 0 01-1.5-1.6V52M18.549 40a61.25 61.25 0 00-6 4 3.881 3.881 0 00-1 3 46.187 46.187 0 001 5M56.548 25h2c3 0 7 3 6 7-.7 2.9-5 6 0 11"/><path stroke-miterlimit="10" d="M32.549 46v21M37.549 45v22"/><path stroke-linejoin="round" d="M29.549 25c-.2 2.269.385 3.392 1 4 1.432 1.416 3.388.387 5 2 1.148 1.15.812 2.332 2 3a3.719 3.719 0 003 0M15.549 48v4"/></g></svg><svg viewBox="0 0 72 72" width="72" height="72" id="2668" x="144" y="72" xmlns="http://www.w3.org/2000/svg"><path fill="none" stroke="#ea5a47" stroke-linecap="round" stroke-linejoin="round" stroke-width="2" d="M31.961 12.387s-9.403 7.407-1.796 16.337-1.796 16.336-1.796 16.336h-2s9.403-7.406 1.796-16.336 1.796-16.337 1.796-16.337z"/><path fill="none" stroke="#ea5a47" stroke-linecap="round" stroke-linejoin="round" stroke-width="2" d="M40.277 12.099s-9.404 7.406-1.796 16.336-1.797 16.337-1.797 16.337h-2s9.404-7.406 1.797-16.337S38.277 12.1 38.277 12.1z"/><path fill="#ea5a47" d="M20.201 31.772c-6.445 2.662-8.29 6.141-8.29 11.195 0 8.156 11.008 14.768 24.588 14.768s24.588-6.612 24.588-14.768c0-4.928-2.572-8.288-8.749-10.97 7.012 2.99 11.575 7.852 11.575 13.344C63.913 54.431 51.416 61.8 36 61.8S8.087 54.431 8.087 45.341c0-5.631 4.797-10.602 12.114-13.57z"/><path fill="#d22f27" d="M36 57.62q.249.003.5.003c13.58 0 24.587-6.612 24.587-14.768 0-4.929-2.572-8.288-8.748-10.97 7.012 2.99 11.574 7.852 11.574 13.344 0 9.09-12.497 16.458-27.913 16.458"/><path fill="none" stroke="#ea5a47" stroke-linecap="round" stroke-miterlimit="10" stroke-width="2" d="M26.781 45.06s9.404-7.406 1.797-16.336 1.796-16.337 1.796-16.337"/><path fill="none" stroke="#ea5a47" stroke-linecap="round" stroke-linejoin="round" stroke-width="2" d="M48.782 12.099s-9.404 7.406-1.796 16.336-1.797 16.337-1.797 16.337h-2s9.404-7.406 1.797-16.337S46.782 12.1 46.782 12.1z"/><path fill="none" stroke="#ea5a47" stroke-linecap="round" stroke-miterlimit="10" stroke-width="2" d="M35.204 44.772S44.607 37.365 37 28.435 38.796 12.1 38.796 12.1"/><g fill="none" stroke="#000" stroke-linecap="round" stroke-linejoin="round" stroke-width="2"><path d="M20.201 31.772c-6.445 2.662-8.29 6.141-8.29 11.195 0 8.156 11.008 14.768 24.588 14.768s24.588-6.612 24.588-14.768c0-4.928-2.572-8.288-8.749-10.97 7.012 2.99 11.575 7.852 11.575 13.344C63.913 54.431 51.416 61.8 36 61.8S8.087 54.431 8.087 45.341c0-5.631 4.797-10.602 12.114-13.57zM29.374 12.387s-9.403 7.407-1.796 16.337M25.781 45.06s9.404-7.406 1.797-16.336M46.219 12.099s-9.404 7.406-1.797 16.336M42.626 44.772s9.403-7.406 1.796-16.337M37.796 12.099S28.393 19.505 36 28.435M34.204 44.772S43.607 37.365 36 28.435"/></g></svg><svg viewBox="0 0 72 72" width="72" height="72" id="1F309" y="144" xmlns="http://www.w3.org/2000/svg"><g stroke="#000"><g fill="none" stroke-linecap="round" stroke-miterlimit="10" stroke-width="2"><path d="M41.773 19.473a7.218 7.218 0 01-5.695 9.864M41.773 19.473a6.054 6.054 0 01-5.695 9.864"/></g><path stroke-linejoin="round" stroke-width="2" d="M22 22.381l1.854 1.325-.688-2.173L25 20.18l-2.279-.107L22 18l-.721 2.162L19 20.18l1.834 1.353-.688 2.173L22 22.381z"/><path stroke-linejoin="round" stroke-width=".75" d="M27 32.46l.618.442-.229-.724.611-.451-.76-.006L27 31l-.24.721-.76.006.611.361-.229.814.618-.442z"/><path stroke-linejoin="round" d="M51.5 26.337l.927.663-.344-1.087.917-.676-1.14-.099-.36-.991-.36 1.081-1.14.009.917.676L50.573 27l.927-.663z"/></g><rect x="12" y="12" rx="1" width="48" height="48" fill="#1e50a0"/><g stroke="#f1b31c"><g fill="none" stroke-linecap="round" stroke-miterlimit="10" stroke-width="2"><path d="M41.773 19.473a7.218 7.218 0 01-5.695 9.864M41.773 19.473a6.054 6.054 0 01-5.695 9.864"/></g><path fill="#f1b31c" stroke-linejoin="round" stroke-width="2" d="M22 22.381l1.854 1.325-.688-2.173L25 20.18l-2.279-.107L22 18l-.721 2.162L19 20.18l1.834 1.353-.688 2.173L22 22.381z"/><path fill="#f1b31c" stroke-linejoin="round" stroke-width=".75" d="M27 32.46l.618.442-.229-.724.611-.451-.76-.006L27 31l-.24.721-.76.006.611.361-.229.814.618-.442z"/><path fill="#f1b31c" stroke-linejoin="round" d="M51.5 26.337l.927.663-.344-1.087.917-.676-1.14-.099-.36-.991-.36 1.081-1.14.009.917.676L50.573 27l.927-.663z"/></g><g><g fill="none" stroke="#000" stroke-width="2"><path stroke-linecap="round" stroke-miterlimit="10" d="M12.923 48.038h46.154M24 36.962L12 48.038"/><path stroke-miterlimit="10" d="M24 36.962v23.076M48 60.038V36.962"/><g stroke-miterlimit="10"><path d="M24 41.222l-7.385 6.816M24 45.482l-2.769 2.556"/></g><path stroke-linecap="round" stroke-miterlimit="10" d="M48 36.962L36 48.038"/><g stroke-miterlimit="10"><path d="M48 41.222l-7.385 6.816M48 45.482l-2.769 2.556"/></g><path stroke-linecap="round" stroke-miterlimit="10" d="M24 36.962l12 11.076"/><g stroke-miterlimit="10"><path d="M24 41.222l7.385 6.816M24 45.482l2.769 2.556"/></g><path stroke-linecap="round" stroke-miterlimit="10" d="M48 36.962l12 11.076"/><g stroke-miterlimit="10"><path d="M48 41.222l7.385 6.816M48 45.482l2.769 2.556"/></g><rect x="12" y="12" rx="1" width="48" height="48" stroke-linejoin="round"/></g></g></svg><svg viewBox="0 0 72 72" width="72" height="72" id="1F307" x="72" y="144" xmlns="http://www.w3.org/2000/svg"><path fill="#e27022" d="M4 4h64.09v64H4z"/><path fill="#f4aa41" d="M4 31.112l21.09 5.515-.443 4.98L4 41.035M68.09 31.112L47 36.627l.443 4.98 20.647-.572M68.09 11.879l-17 20-4-3L59.927 4.008 68.09 4M4 4l.001 9.364 2.108 1.991 18.531 18.59 3.75-3.307L12.1 4M32.502 4l1.936 22.255 4.983.411L42.692 4"/><circle cx="37.09" cy="35.879" r="15" fill="#fcea2b"/><path fill="#9b9b9a" d="M10.013 45.981v-17h10v17M34.013 32.981h13V68h-13z"/><path fill="#d0cfce" d="M51.013 68V36.981h16V68M5.013 68V45.981h34V68"/><path fill="#fcea2b" d="M9.013 48.985h2.991v5.997H9.013zM15.013 48.985h2.991v5.997h-2.991zM27.013 48.985h2.991v5.997h-2.991zM33.013 48.985h2.991v5.997h-2.991zM55.013 39.985h2.991v5.997h-2.991zM61.013 49.985h2.991v5.997h-2.991zM61.013 59.985h2.991v5.997h-2.991zM55.013 59.985h2.991v5.997h-2.991zM33.013 58.985h2.991v5.997h-2.991zM21.013 58.985h2.991v5.997h-2.991zM9.013 58.985h2.991v5.997H9.013z"/><g fill="none" stroke="#000" stroke-linecap="round" stroke-width="2"><path stroke-linejoin="round" d="M51.013 66.981v-30h16v30M5.013 66.981v-21h34v21"/><path stroke-linejoin="round" d="M35.013 42.981v-10h12v34M11.013 42.981v-14h8v14M57.013 45.981h-2v-5M63.013 55.981h-2v-5M29.013 54.981h-2v-5M35.013 54.981h-2v-5M35.013 64.981h-2v-5M17.013 54.981h-2v-5M11.013 54.981h-2v-5M11.013 64.981h-2v-5M23.013 64.981h-2v-5M57.013 65.981h-2v-5M63.013 65.981h-2v-5M15.013 31.981v11M39.013 35.981v7M43.013 35.981v31"/><path stroke-miterlimit="10" d="M23.875 42.982a15.002 15.002 0 1128.091-9.037"/></g></svg><svg viewBox="0 0 72 72" width="72" height="72" id="1F306" x="144" y="144" xmlns="http://www.w3.org/2000/svg"><path fill="#e27022" d="M4 3.898h64V68H4z"/><path fill="#9b9b9a" d="M9.923 46V29h10v17M33.923 33h13v35h-13z"/><path fill="#d0cfce" d="M50.923 68V37h16v31M4.923 68V46h34v22"/><path fill="#fcea2b" d="M8.923 49.004h2.991v5.997H8.923zM14.923 49.004h2.991v5.997h-2.991zM26.923 49.004h2.991v5.997h-2.991zM32.923 49.004h2.991v5.997h-2.991zM54.923 40.004h2.991v5.997h-2.991zM60.923 50.004h2.991v5.997h-2.991zM60.923 60.004h2.991v5.997h-2.991zM54.923 60.004h2.991v5.997h-2.991zM32.923 59.004h2.991v5.997h-2.991zM20.923 59.004h2.991v5.997h-2.991zM8.923 59.004h2.991v5.997H8.923z"/><g fill="none" stroke="#000" stroke-linecap="round" stroke-linejoin="round" stroke-width="2"><path d="M50.924 66.629v-30h16v30M4.924 66.629v-21h34v21"/><path d="M34.924 42.629v-10h12v34M10.924 42.629v-14h8v14M56.924 45.629h-2v-5M62.924 55.629h-2v-5M28.924 54.629h-2v-5M34.924 54.629h-2v-5M34.924 64.629h-2v-5M16.924 54.629h-2v-5M10.924 54.629h-2v-5M10.924 64.629h-2v-5M22.924 64.629h-2v-5M56.924 65.629h-2v-5M62.924 65.629h-2v-5M14.924 31.629v11M38.924 35.629v7M42.924 35.629v31"/></g></svg><svg viewBox="0 0 72 72" width="72" height="72" id="1F305" x="216" xmlns="http://www.w3.org/2000/svg"><path fill="#61b2e4" d="M4 47.292h64v20.787H4z"/><path fill="#e27022" d="M4 4.079h64v43.213H4z"/><path fill="#f4aa41" d="M68 4.079h-8l-16 31 4 3 17-20 3-3.231M4 17.641l2.019 1.913L24.55 38.145l3.75-3.308L9 4.079H4v13.562zM30.879 4.079l2.469 28.375 4.983.412 3.749-25.98.486-2.807M68 34.719l-21.932 6.999.707 4.95L68 44.947M4 34.899l21.933 6.999-.707 4.95L4 45.127"/><path fill="#fcea2b" d="M21.48 47.292a15.68 15.68 0 1129.04 0"/><g><path fill="#fff" d="M67.964 24.049L68 47.292H49.932l5.087-10.284 3.622-3.575 1.002-5.65 1.284-2.879 7.037-.855zM4.037 24.049L4 47.292h17.48l-3.153-11.213-3.479-3.988.119-3.245-3.894-3.942-7.036-.855z"/><path fill="none" stroke="#000" stroke-linecap="round" stroke-miterlimit="10" stroke-width="2" d="M8.48 32.188a7.753 7.753 0 019.848 4.82M5 24.026a7.753 7.753 0 019.848 4.82M54.475 40.583a7.753 7.753 0 018.332-7.127M58.641 30.756a7.753 7.753 0 018.332-7.127M5.124 47.293h61.753M20.49 43.963a15.68 15.68 0 1130.775.253"/></g></svg><svg viewBox="0 0 72 72" width="72" height="72" id="1F304" x="216" y="72" xmlns="http://www.w3.org/2000/svg"><path fill="#e27022" d="M4 4h64v64H4z"/><path fill="#f4aa41" d="M68 4h-8L44 35l4 3 17-20 3-3.231M4 17.562l2.019 1.913L24.55 38.066l3.75-3.308L9 4H4v13.562zM30.879 4l2.469 28.375 4.983.412 3.749-25.98L42.566 4"/><path fill="#fcea2b" d="M50.961 49.078c-.267 3.131-5.203 14.664-16.04 13.883a15 15 0 01-13.882-16.04c.627-8.7 8.662-14.341 16.04-13.882 6.991.435 11.089 6.206 11.654 7.03a14.632 14.632 0 012.107 5.547 16.402 16.402 0 01.121 3.462z"/><path fill="#d0cfce" d="M4 42.636l11.889-9.226L54.869 68H4V42.636z"/><path fill="#9b9b9a" d="M41.492 54.869L68 27.944V68H54.869"/><g fill="none" stroke="#000" stroke-linecap="round" stroke-width="2"><path stroke-miterlimit="10" d="M25.75 37.049a15.025 15.025 0 0114.712-3.374 15.362 15.362 0 017.586 5.388 11.518 11.518 0 011.694 2.88"/><path stroke-linejoin="round" d="M5 42.416l11.34-9.561L54.746 67M42.983 53.445L66.755 28.22"/></g></svg><svg viewBox="0 0 72 72" width="72" height="72" id="1F3D9" x="216" y="144" xmlns="http://www.w3.org/2000/svg"><path fill="#9B9B9A" d="M10 34V17h10v17M34 21h13v35H34z"/><path fill="#D0CFCE" d="M51 56V25h16v31M5 56V34h34v22"/><g fill="none" stroke="#000" stroke-miterlimit="10"><path d="M51 56V25h16v31M5 56V34h34v22"/><path stroke-linecap="round" stroke-linejoin="round" stroke-width="2" d="M51 55V25h16v30M5 55V34h34v21"/><path stroke-linecap="round" stroke-linejoin="round" stroke-width="2" d="M35 31V21h12v34M11 31V17h8v14M57 34h-2v-5M63 34h-2v-5M57 44h-2v-5M63 44h-2v-5M29 43h-2v-5M35 43h-2v-5M29 53h-2v-5M35 53h-2v-5M17 43h-2v-5M23 43h-2v-5M17 53h-2v-5M11 43H9v-5M11 53H9v-5M23 53h-2v-5M57 54h-2v-5M63 54h-2v-5M15 20v11M39 24v7M43 24v31"/></g></svg><svg viewBox="0 0 72 72" width="72" height="72" id="1F303" y="216" xmlns="http://www.w3.org/2000/svg"><path fill="#8967aa" d="M4 3.985h64v64H4z"/><path fill="#9b9b9a" d="M9.923 45.944v-17h10v17M33.923 32.944h13v35.041h-13z"/><path fill="#d0cfce" d="M50.923 67.985V36.944h16v31.041M4.923 67.985V45.944h34v22.041"/><path fill="#fcea2b" d="M8.923 48.948h2.991v5.997H8.923zM14.923 48.948h2.991v5.997h-2.991zM26.923 48.948h2.991v5.997h-2.991zM32.923 48.948h2.991v5.997h-2.991zM54.923 39.948h2.991v5.997h-2.991zM60.923 49.948h2.991v5.997h-2.991zM60.923 59.948h2.991v5.997h-2.991zM54.923 59.948h2.991v5.997h-2.991zM32.923 58.948h2.991v5.997h-2.991zM20.923 58.948h2.991v5.997h-2.991zM8.923 58.948h2.991v5.997H8.923z"/><circle cx="22" cy="20.842" r="2" fill="#fcea2b"/><circle cx="34" cy="25.842" r="2" fill="#fcea2b"/><circle cx="33" cy="14.842" r="2" fill="#fcea2b"/><circle cx="14" cy="10.842" r="2" fill="#fcea2b"/><path fill="#fcea2b" d="M56 25.842c-.484.527-9.016-2.397-9-9 .01-4.4 3.813-8.554 9-9a22.137 22.137 0 00-2.078 2.087A10.451 10.451 0 0051 16.842c.063 2.889 1.758 5.223 3.16 6.797 1.102 1.235 2.024 2.003 1.84 2.203z"/><g fill="none" stroke="#000" stroke-linecap="round" stroke-linejoin="round" stroke-width="2"><path d="M50.923 66.944v-30h16v30M4.923 66.944v-21h34v21"/><path d="M34.923 42.944v-10h12v34M10.923 42.944v-14h8v14M56.923 45.944h-2v-5M62.923 55.944h-2v-5M28.923 54.944h-2v-5M34.923 54.944h-2v-5M34.923 64.944h-2v-5M16.923 54.944h-2v-5M10.923 54.944h-2v-5M10.923 64.944h-2v-5M22.923 64.944h-2v-5M56.923 65.944h-2v-5M62.923 65.944h-2v-5M14.923 31.944v11M38.923 35.944v7M42.923 35.944v31M14 12.842a2 2 0 010-4M22 22.842a2 2 0 010-4M33 16.842a2 2 0 110-4M34 27.842a2 2 0 010-4M56 25.842c-.484.527-9.016-2.397-9-9 .01-4.4 3.813-8.554 9-9a22.137 22.137 0 00-2.078 2.087A10.451 10.451 0 0051 16.842c.063 2.889 1.758 5.223 3.16 6.797 1.102 1.235 2.024 2.003 1.84 2.203z"/></g></svg><svg viewBox="0 0 72 72" width="72" height="72" id="1F301" x="72" y="216" xmlns="http://www.w3.org/2000/svg"><path fill="#fff" stroke="#000" stroke-linecap="round" stroke-linejoin="round" stroke-width="2" d="M27 31l3-1 2 2 3-2 2 1 2-1 2 2 1-1"/><path fill="#3f3f3f" d="M16.763 45.057l2.898-10.627 1.932 4.831 5.797-15.458 2.488 2.995 5.434-14.347 2.705 5.555 2.898 9.661 1.932-3.864 2.899 12.559 2.898-6.762 2.898 15.457"/><path fill="#fff" d="M44.047 29l-3.132 1.566-2.898-.966-1.932-.967-3.865 1.933-1.932-1.933-2.898.967-1.242-2.485 1.242-3.312 2.488 2.995 5.434-14.347 2.705 5.555 2.898 9.661 1.932-3.864 1.2 5.197zM38.362 40.227h3.52s3.864-1.932 6.762-.966a8.76 8.76 0 015.797 8.695 11.572 11.572 0 01-2.899 7.728l-3.355.84a5.014 5.014 0 01-4.373 3.025 4.186 4.186 0 01-3.865-1.933l-2.716-1.358a8.017 8.017 0 01-5.979 3.29 7.246 7.246 0 01-5.796-2.898l-2.483-1.655a3.676 3.676 0 01-3.314 1.655c-1.932 0-5.797-.966-5.797-5.797a6.428 6.428 0 015.797-6.762h3.357c-.626-2.6 2.221-7.73 7.27-7.73 2.325.001 6.507.629 8.074 3.866z"/><g><g fill="none" stroke="#000" stroke-linecap="round" stroke-width="2"><path stroke-linejoin="round" d="M61.203 34.43A6.428 6.428 0 0167 41.193c0 4.83-3.864 5.796-5.797 5.796a3.539 3.539 0 01-3.864-3.864M21.593 28.634s-3.864-.967-6.763 0S10 31.532 10 36.361a11.572 11.572 0 002.898 7.73M16.763 45.057l2.898-10.627 1.932 4.831 5.797-15.458 2.488 2.995 5.434-14.347 2.705 5.555 2.898 9.661 1.932-3.864 2.899 12.559 2.898-6.762L51 40"/><path stroke-linejoin="round" d="M19.661 44.091a6.428 6.428 0 00-5.797 6.763c0 4.83 3.865 5.796 5.797 5.796a3.539 3.539 0 003.864-3.864M25.458 56.65a7.246 7.246 0 005.796 2.898c3.865 0 6.763-3.864 6.763-4.83M39.95 57.617a4.186 4.186 0 003.864 1.932 5.175 5.175 0 004.83-4.83M23.525 45.057c-1.932-1.932.967-8.695 6.763-8.695 2.898 0 8.695.966 8.695 6.763M41.881 40.227s3.865-1.932 6.763-.966a8.76 8.76 0 015.797 8.695 11.572 11.572 0 01-2.899 7.728"/><path stroke-miterlimit="10" d="M57.339 35.396c1.932-1.932-.966-8.695-6.763-8.695a10.77 10.77 0 00-6.6 1.993"/></g></g></svg><svg viewBox="0 0 72 72" width="72" height="72" id="26FA" x="144" y="216" xmlns="http://www.w3.org/2000/svg"><path fill="#FCEA2B" d="M36 18L14.54 55h42.92z"/><path fill="#F1B31C" d="M36 18L14.54 55H36z"/><path fill="#8967AA" d="M36 46.12c-1.48 0-4.44 1.48-7.4 1.48a7.4 7.4 0 00-7.4 7.4H36v-8.88z"/><g fill="none" stroke="#000" stroke-linecap="round" stroke-linejoin="round" stroke-miterlimit="10" stroke-width="2"><path d="M36 18L14.54 55h42.92z"/><path d="M36 18L14.54 55H36zM36 55V18"/><path d="M36 46.12c-1.48 0-4.44 1.48-7.4 1.48a7.4 7.4 0 00-7.4 7.4H36v-8.88zM36 55V18"/></g></svg><svg viewBox="0 0 72 72" width="72" height="72" id="26F2" x="216" y="216" xmlns="http://www.w3.org/2000/svg"><path fill="#d0cfce" d="M35.955 41.28v-8.545l-5.02-.621 1.793 4.973.717 4.348 2.51-.155z"/><path fill="#9b9b9a" d="M35.955 41.7v-8.544l5.02-.621-1.793 4.972-.717 4.349-2.51-.156z"/><path fill="#d0cfce" d="M36 42.239l-.045 17.777H30.98s-.377-7.726-1.69-10.945-9.6-9.297-9.6-9.297 11.731 2.47 14.02 2.467"/><path fill="#d0cfce" d="M36 60.622v5.551H5.742V54.228s19.259 6.74 23.892 6.253 6.366.141 6.366.141z"/><path fill="#9b9b9a" d="M36 60.622v5.551h30.257V54.228S47 60.968 42.367 60.48 36 60.622 36 60.622z"/><path fill="none" stroke="#61b2e4" stroke-linecap="round" stroke-linejoin="round" stroke-width="2" d="M53.578 35.819v-4.177M53.046 35.82v-5.717a5.662 5.662 0 0110.735-.087v20.917h-.717v-19.29"/><path fill="#9b9b9a" d="M35.955 42.239v17.777h5.02s.377-7.726 1.69-10.945 9.6-9.297 9.6-9.297-11.731 2.47-14.02 2.467"/><path fill="none" stroke="#61b2e4" stroke-linecap="round" stroke-linejoin="round" stroke-width="2" d="M48.014 16.12a4.51 4.51 0 00-4.743-4.233 4.51 4.51 0 00-4.743 4.232v10.608h-.625V14.689a5.662 5.662 0 0110.735-.087v20.917h-.717v-19.29l.093.023v19.29"/><path fill="none" stroke="#92d3f5" stroke-linecap="round" stroke-linejoin="round" stroke-width="2" d="M18.638 35.82v-5.717a5.393 5.393 0 00-5.274-3.902 5.407 5.407 0 00-5.46 3.815v20.917h.717v-19.29M33.157 16.251v10.476h.624V14.689a5.393 5.393 0 00-5.274-3.902 5.407 5.407 0 00-5.46 3.815v20.917h.717"/><g fill="none" stroke="#000" stroke-linecap="round" stroke-linejoin="round" stroke-width="2"><path d="M67.015 66.713H4.985V53.32A75.625 75.625 0 0036 60.016a75.504 75.504 0 0031.015-6.696zM16 38.867a58.01 58.01 0 0020.41 3.367A57.997 57.997 0 0056 38.484M28.57 31.474a21.163 21.163 0 0014.617-.14M16 38.867a22.456 22.456 0 0115.025 20.408M56 38.484a22.456 22.456 0 00-15.025 20.408"/><path d="M28.57 31.498a13.081 13.081 0 012.643 3.383 13.33 13.33 0 011.585 6.554M43.09 31.498a13.084 13.084 0 00-2.643 3.383 13.332 13.332 0 00-1.585 6.554M54.232 35.82v-3.673a4.088 4.088 0 018.176 0V50.91M39.182 26.727v-9.971a4.088 4.088 0 018.176 0v18.763M17.453 35.82v-3.673a4.088 4.088 0 10-8.177 0V50.91M32.503 26.727v-9.971a4.088 4.088 0 10-8.177 0v18.763"/></g></svg><svg viewBox="0 0 72 72" width="72" height="72" id="1F54B" x="288" xmlns="http://www.w3.org/2000/svg"><path fill="#3F3F3F" d="M16.5 16h39v39h-39z"/><path fill="#F1B31C" d="M16.5 23h39v4h-39z"/><path fill="#9B9B9A" d="M22.5 47h5v8h-5z"/><path fill="#F1B31C" d="M36 31l-2 3.5 2 3.5 2-3.5z"/><circle cx="25" cy="34.5" r="2.5" fill="#F1B31C"/><circle cx="46.5" cy="34.5" r="2.5" fill="#F1B31C"/><g fill="none" stroke="#000" stroke-linecap="round" stroke-linejoin="round" stroke-miterlimit="10" stroke-width="2"><path d="M16.5 16h39v39h-39z"/><path d="M16.5 23h39v4h-39zM22.5 47h5v8h-5zM36 31l-2 3.5 2 3.5 2-3.5z"/><circle cx="25" cy="34.5" r="2.5"/><circle cx="46.5" cy="34.5" r="2.5"/></g></svg><svg viewBox="0 0 72 72" width="72" height="72" id="26E9" x="288" y="72" xmlns="http://www.w3.org/2000/svg"><path fill="#D22F27" d="M16 33h40v4H16z"/><path fill="#EA5A47" d="M22 27h4v28h-4zM46 27h4v28h-4z"/><path fill="#3F3F3F" d="M20.5 55h7v5h-7zM44.5 55h7v5h-7zM34 27h4v6h-4z"/><path fill="#EA5A47" d="M12.5 21s11.25 2 15 2H46c3.375 0 13.5-2 13.5-2l-4 3-2 3h-35l-2-3-4-3z"/><g fill="none" stroke="#000" stroke-linecap="round" stroke-linejoin="round" stroke-miterlimit="10" stroke-width="2"><path d="M16 33h6v4h-6zM26 33h20v4H26zM50 33h6v4h-6zM22 27h4v28h-4zM46 27h4v28h-4zM20.5 55h7v5h-7zM44.5 55h7v5h-7zM34 27h4v6h-4zM59.5 21l-4 3-2 3h-35l-2-3-4-3s11.25 2 15 2H46c3.38 0 13.5-2 13.5-2z"/></g></svg><svg viewBox="0 0 72 72" width="72" height="72" id="1F54D" x="288" y="144" xmlns="http://www.w3.org/2000/svg"><path fill="#F4AA41" d="M52 33.78V60H18V33.78a1 1 0 01.408-.805L34.38 21.23a.946.946 0 011.238 0l15.973 11.744a1 1 0 01.408.806zM8 39h10v21H8zM52 39h10v21H52z"/><path fill="#A57939" d="M39 60h-8v-6a3 3 0 013-3h2a3 3 0 013 3v6z"/><path fill="#3F3F3F" d="M57 30l-5 9h10zM13 30l-5 9h10z"/><path fill="#FFF" d="M35 27l-8.66 15h17.32z"/><path fill="#D0CFCE" d="M35 47l8.66-15H26.34z"/><path fill="#D0CFCE" d="M35 27l-8.66 15h17.32z"/><g fill="none" stroke="#000" stroke-miterlimit="10" stroke-width="2"><path d="M52 33.78V60H18V33.78a1 1 0 01.408-.805L34.38 21.23a.946.946 0 011.238 0l15.973 11.744a1 1 0 01.408.806z"/><path stroke-linecap="round" stroke-linejoin="round" d="M8 39h10v21H8zM52 39h10v21H52zM39 60h-8v-6a3 3 0 013-3h2a3 3 0 013 3v6z"/><path stroke-linecap="round" stroke-linejoin="round" d="M14 47h-2v-3a1 1 0 011-1h0M58 47h-2v-3a1 1 0 011-1h0M35 60v-9M57 30l-5 9h10zM13 30l-5 9h10zM35 27l-8.66 15h17.32z"/><path stroke-linecap="round" stroke-linejoin="round" d="M35 47l8.66-15H26.34z"/><path stroke-linecap="round" stroke-linejoin="round" d="M35 27l-8.66 15h17.32z"/><path stroke-linecap="round" stroke-linejoin="round" d="M35 47l8.66-15H26.34z"/></g></svg><svg viewBox="0 0 72 72" width="72" height="72" id="1F6D5" x="288" y="216" xmlns="http://www.w3.org/2000/svg"><path fill="#f4aa41" d="M17 52.759h38v10.7H17zM17 43.458h38v9.3H17z"/><path fill="#92d3f5" stroke="#92d3f5" stroke-linecap="round" stroke-linejoin="round" stroke-width="2" d="M47 56.458h2v4h-2zM23 56.458h2v4h-2zM48 47.436h2v2h-2zM41.5 47.436h2v2h-2zM35 47.436h2v2h-2zM28.5 47.436h2v2h-2zM22 47.436h2v2h-2z"/><circle cx="36.063" cy="12.381" r="5" fill="#f4aa41"/><path fill="#f4aa41" d="M21.129 38.437h29.995v5.022H21.129zM27 23.408h18v4.05H27zM25 28.487h22v6.971H25z"/><path fill="#f4aa41" d="M22.587 33.521H50v3.875H22.587zM29.5 19.78h13v4.05h-13z"/><path fill="#e27022" d="M37.583 7.511a4.969 4.969 0 01-5 8.32 4.99 4.99 0 105-8.32zM25.311 42.651l10.751-10.752 10.752 10.752M41.5 63.458h-11v-7h11v7z"/><g fill="none" stroke="#000" stroke-linecap="round" stroke-linejoin="round" stroke-width="2"><path d="M17 43.458h38v9.3H17zM17 52.759h38v10.7H17zM43.5 38.436h7.624v5.022H21.129v-5.022h7.049M27 24.408h18v4.05H27zM25 32.613v-4.126h22v4.126M37.517 32.947H50v5.022h-7.37M29.092 20.344h13.842v4.05H29.092z"/><path d="M25.311 42.651l10.751-10.752 10.752 10.752M29.485 37.969h-6.898v-5.022h11.937M41.5 63.458h-11v-7h11v7z"/><path d="M34.062 63.458v-7h4v7M49 60.458h-2v-4M24 49.458h-2v-2M50 49.458h-2v-2M43.5 49.458h-2v-2M37 49.458h-2v-2M30.5 49.458h-2v-2M25 60.458h-2v-4"/><circle cx="36.063" cy="12.381" r="5"/><path d="M36.063 17.669v2.386"/></g></svg><svg viewBox="0 0 72 72" width="72" height="72" id="1F54C" y="288" xmlns="http://www.w3.org/2000/svg"><path fill="#D0CFCE" d="M17.5 26h7v34h-7z"/><ellipse cx="42" cy="36" rx="12.5" ry="10" fill="#F4AA41"/><path fill="#D0CFCE" d="M29 40h26v20H29z"/><path fill="#F4AA41" d="M21 17l-3.5 9h7z"/><path fill="#3F3F3F" d="M24.5 36h-7l-2-5h11z"/><circle cx="42" cy="24" r="2" fill="#F4AA41"/><path fill="#9B9B9A" d="M42 45l-3.496 5.244A3 3 0 0038 51.908V60h8v-8.092a3 3 0 00-.504-1.664L42 45z"/><g fill="none" stroke="#000" stroke-linecap="round" stroke-linejoin="round" stroke-miterlimit="10" stroke-width="2"><path d="M17.5 26h7v5h-7zM17.5 36h7v24h-7zM54.5 36c0 1.42-.37 2.78-1.04 4H30.54a8.28 8.28 0 01-1.04-4c0-5.52 5.6-10 12.5-10s12.5 4.48 12.5 10zM55 40v20h-9v-8.09c0-.59-.18-1.17-.5-1.67l-2.84-4.25L42 45l-.66.99-2.84 4.25c-.32.5-.5 1.08-.5 1.67V60h-9V40h26zM21 17l-3.5 9h7zM26.5 31l-2 5h-7l-2-5z"/><circle cx="42" cy="24" r="2"/><path d="M46 51.91V60h-8v-8.09c0-.59.18-1.17.5-1.67l2.84-4.25L42 45l.66.99 2.84 4.25c.32.5.5 1.08.5 1.67z"/></g></svg><svg viewBox="0 0 72 72" width="72" height="72" id="26EA" x="72" y="288" xmlns="http://www.w3.org/2000/svg"><path fill="#D0CFCE" d="M44 36V20.492l-7.294-5.27a1.238 1.238 0 00-1.412 0L28 20.491V36"/><path fill="#FFF" d="M18.947 66L19 42.102l17.045-15.117 16.963 15.128L53 66z"/><path fill="#A57939" d="M41 57.943c0-3.85-3.348-6.126-4.565-6.825a.86.86 0 00-.87 0c-1.217.7-4.565 2.974-4.565 6.825v7.09c0 .534.41.967.914.967h8.172c.505 0 .914-.433.914-.968v-7.089z"/><circle cx="36" cy="42" r="5" fill="#92D3F5"/><g><path d="M36 28.36l16 14.196V65H20V42.556L36 28.36M36 26a.93.93 0 00-.62.237L18.329 41.365a.984.984 0 00-.328.737v23.925a.96.96 0 00.947.973h34.106a.96.96 0 00.947-.973V42.102a.984.984 0 00-.328-.737L36.619 26.237A.93.93 0 0036 26z"/><path fill="none" stroke="#000" stroke-linecap="round" stroke-linejoin="round" stroke-miterlimit="10" stroke-width="2" d="M43 29v-8.508l-6.382-5.27a.974.974 0 00-1.236 0L29 20.491V29"/><path fill="none" stroke="#000" stroke-linecap="round" stroke-miterlimit="10" stroke-width="2" d="M36 14V6M32.5 10h7M41 57.943c0-3.85-3.348-6.126-4.565-6.825a.86.86 0 00-.87 0c-1.217.7-4.565 2.974-4.565 6.825v7.09c0 .534.41.967.914.967h8.172c.505 0 .914-.433.914-.968v-7.089z"/><circle cx="36" cy="42" r="5" fill="none" stroke="#000" stroke-miterlimit="10" stroke-width="2"/></g></svg><svg viewBox="0 0 72 72" width="72" height="72" id="1F5FD" x="144" y="288" xmlns="http://www.w3.org/2000/svg"><path fill="#92d3f5" d="M16.598 20.026c.239 1.888.574 4.446 1.011 7.492.364 2.53.55 3.684.945 3.724.818.084 1.882-4.52 2.073-5.349a35.42 35.42 0 00.848-5.867"/><path fill="#61b2e4" d="M13.781 15.056h9.686v4.408h-9.686zM23.332 29.871c.509.07.866.774 2.272 6.456 1.446 5.84 1.265 5.89 1.824 6.985 1.581 3.099 3.03 2.699 5.603 6.57 2.219 3.34 1.508 4.189 2.974 5.16 2.966 1.964 6.397-.533 11.366.989a9.802 9.802 0 015.124 3.083c1.02 1.27 3.491 4.343 2.58 5.994-1.403 2.541-8.693-2.146-19.68-.229-4.453.777-8.145 2.4-8.907 1.173-.843-1.356 3.239-4.033 2.728-7.733-.304-2.203-2.628-4.566-4.042-7.564-2.441-5.175-5.87-9.498-4.725-15.051.651-3.154 1.73-5.992 2.883-5.833z"/><ellipse cx="41.903" cy="46.206" rx="4.857" ry="5.806" fill="#92d3f5"/><path fill="#f4aa41" d="M16.141 13.355a2.821 2.821 0 01.096-2.424c.514-1.012 1.378-1.142 2.645-1.925 2.725-1.683 3.14-3.806 4.049-3.567.937.246 1.034 2.638 1.06 3.276.06 1.511.166 4.128-1.716 5.465-1.943 1.381-5.282.884-6.134-.825z"/><path fill="none" stroke="#92d3f5" stroke-linecap="round" stroke-miterlimit="10" stroke-width="2" d="M41.028 30.513v6.101M50.422 33.3l-4.314 4.314M33.218 33.11l4.314 4.314M29.912 41.239h3.605M50.289 41.239h6.101"/><g fill="none" stroke="#000" stroke-linecap="round" stroke-linejoin="round" stroke-width="2"><path d="M13.364 15.056h10.102v4.408H13.364zM16.282 13.737a3.543 3.543 0 01-.231-2.35c.348-1.192 1.336-1.56 3.178-2.913 2.84-2.088 3.307-3.284 4.006-3.013.942.365.96 2.898.53 4.601a7.437 7.437 0 01-.729 1.821M16.578 19.842q1.313 11.966 2.482 11.952 1.02-.012 1.93-9.148M19.572 35.457c.58 1.981 1.17 4 2.34 8.04 1.437 4.966 1.481 5.164 1.794 5.922 2.437 5.899 5.014 6.542 4.666 9.6a43.512 43.512 0 01-1.436 5.563c-.182.619-.34 1.128-.448 1.47M22.987 29.1a51.056 51.056 0 012.872 8.116c1.276 4.519.834 4.78 1.885 6.73 2.274 4.223 5.048 4.298 7.088 8.793a6.001 6.001 0 001.615 2.392 6.777 6.777 0 004.845 1.286c1.968-.203 3.216-1.083 4.897-1.342a5.382 5.382 0 015.063 2.24c1.096 1.003 1.912 3.135 3.5 7.357"/><ellipse cx="41.903" cy="46.206" rx="5" ry="6.101"/><path d="M50.289 41.717h6.101M46.618 37.877l4.314-4.314M41.618 36.614v-6.101M33.517 41.717h-3.605M37.188 37.861l-4.314-4.314"/></g></svg><svg viewBox="0 0 72 72" width="72" height="72" id="1F5FC" x="216" y="288" xmlns="http://www.w3.org/2000/svg"><path fill="#d22f27" d="M36.118 7h.999v9.498h-.999z"/><path fill="#ea5a47" d="M35.068 7h1.05v9.498h-1.05z"/><path fill="#d0cfce" d="M41.824 22.646h-5.682v-4.252h4.918l.764 4.252z"/><path fill="#ea5a47" d="M36.16 48.84l-.018 2.607s-3.098.077-5.355 3.693a14.11 14.11 0 00-1.615 6.582l-10.541-.245s6.835-3.138 8.883-6.754a50.835 50.835 0 002.52-5.712"/><path fill="#d22f27" d="M36.121 49.178l-.003 2.27s3.098.076 5.355 3.692a14.111 14.111 0 011.615 6.582l10.54-.245s-6.834-3.138-8.882-6.754a48.79 48.79 0 01-2.398-5.397"/><path fill="#b1cc33" d="M5.96 63.413h30.041V66H5.96z"/><path fill="#5c9e31" d="M36 63.413h30.041V66H36z"/><path fill="#ea5a47" d="M36.111 42.5H30.13l2.673-18.413 3.308.109V42.5z"/><path fill="#d22f27" d="M40.931 42.5h-4.82V24.196h4.232l.588 18.304z"/><path fill="#d0cfce" d="M43.031 47.984h-6.853v-4.077h7.862l-1.009 4.077z"/><g fill="none" stroke="#000" stroke-width="2"><path stroke-linecap="round" stroke-linejoin="round" d="M27.44 43.196h17.12l-1.041 5.5H28.385l-.945-5.5zM5.019 62.5h61.962V67H5.019z"/><path stroke-miterlimit="10" d="M29.786 62c0-5.314 2.845-9.622 6.356-9.622s6.356 4.308 6.356 9.622"/><path stroke-linecap="round" stroke-linejoin="round" d="M42.877 49.5a17.042 17.042 0 003.03 5.827A25.634 25.634 0 0054.57 62M40.255 34.591c-.1-.929-.255-2.521-.36-4.527-.176-3.41-.1-6.118-.084-6.14a104.18 104.18 0 001.61 19.158M28.832 49.325a17.874 17.874 0 01-3.364 7.002 18.536 18.536 0 01-7.691 5.537M31.947 34.591c.1-.929.255-2.521.359-4.527.177-3.41.1-6.118.085-6.14a104.18 104.18 0 01-1.61 19.158M36.182 17.5h-5.437l-.543 5.886h11.96l-.543-5.886h-5.437M34.444 17V6h3.348v11"/></g></svg><svg viewBox="0 0 72 72" width="72" height="72" id="1F492" x="288" y="288" xmlns="http://www.w3.org/2000/svg"><path fill="#D0CFCE" d="M44 34V19.435l-7.294-5.216a1.248 1.248 0 00-1.412 0L28 19.435V34"/><path fill="#FFF" d="M53 41.495v24.508c0 .55-.4.997-.895.997h-32.21c-.494 0-.895-.446-.895-.997V41.495c0-.29.113-.565.31-.755l16.105-15.498a.827.827 0 011.17 0L52.69 40.74c.197.19.31.465.31.755z"/><path fill="#A57939" d="M41 58.943c0-3.85-3.348-6.126-4.565-6.825a.86.86 0 00-.87 0c-1.217.7-4.565 2.974-4.565 6.825v7.09c0 .534.41.967.914.967h8.172c.505 0 .914-.433.914-.968v-7.089z"/><path fill="#EA5A47" d="M36 45.825l-4.87-6.244-.156-.232A2.863 2.863 0 1136 36.621a2.863 2.863 0 114.888 2.936L36 45.825z"/><g fill="none" stroke="#000" stroke-linecap="round" stroke-width="2"><path stroke-linejoin="round" stroke-miterlimit="10" d="M53 41.495v24.508c0 .55-.4.997-.895.997h-32.21c-.494 0-.895-.446-.895-.997V41.495c0-.29.113-.565.31-.755l16.105-15.498a.827.827 0 011.17 0L52.69 40.74c.197.19.31.465.31.755z"/><path stroke-linejoin="round" stroke-miterlimit="10" d="M43 27v-8.565l-6.382-5.216a.981.981 0 00-1.236 0L29 18.435V27"/><path stroke-miterlimit="10" d="M36 13V5M32.5 8h7M41 58.943c0-3.85-3.348-6.126-4.565-6.825a.86.86 0 00-.87 0c-1.217.7-4.565 2.974-4.565 6.825v7.09c0 .534.41.967.914.967h8.172c.505 0 .914-.433.914-.968v-7.089z"/><path stroke-linejoin="round" d="M36 45.825l-4.87-6.244-.156-.232A2.863 2.863 0 1136 36.621a2.863 2.863 0 114.888 2.936L36 45.825z"/></g></svg><svg viewBox="0 0 72 72" width="72" height="72" id="1F3F0" x="360" xmlns="http://www.w3.org/2000/svg"><path fill="#9B9B9A" d="M30 27h12v14H30z"/><path fill="#D0CFCE" d="M52 55H20V39h7v2h5v-2h8v2h5v-2h7v2-2zM10 32h10v23H10zM52 32h10v23H52zM8 26h14v6H8zM29.5 22h13v6h-13zM50 26h14v6H50z"/><path fill="#EA5A47" d="M36 12l-4.5 10h9zM15 16L9.5 26h11zM57 16l-5.5 10h11z"/><path fill="#A57939" d="M40.5 55h-9v-6a3 3 0 013-3h3a3 3 0 013 3v6z"/><g fill="none" stroke="#000" stroke-linecap="round" stroke-linejoin="round" stroke-miterlimit="10" stroke-width="2"><path d="M31 35v-7h10v7"/><path d="M37 35h-2v-3a1 1 0 011-1h0M52 55H20V39h7v2h5v-2h8v2h5v-2h7v2-2zM10 32h10v23H10zM52 32h10v23H52zM8 26h14v6H8zM29.5 22h13v6h-13zM50 26h14v6H50zM36 12l-4.5 10h9zM15 16L9.5 26h11zM57 16l-5.5 10h11z"/><path d="M40.5 55h-9v-6a3 3 0 013-3h3a3 3 0 013 3v6zM36 46v9M16 40h-2v-3a1 1 0 011-1h0M58 40h-2v-3a1 1 0 011-1h0"/></g></svg><svg viewBox="0 0 72 72" width="72" height="72" id="1F3EF" x="360" y="72" xmlns="http://www.w3.org/2000/svg"><path fill="#FFF" d="M17 50h38v10H17zM22 33h28v10H22zM27 16h18v10H27z"/><path fill="#3F3F3F" d="M54 33H18l4-3 2-4h24l2 4zM59.5 50h-47l4-3 2-4h35l2 4zM49 16H23l4-3 2-4h14l2 4z"/><path fill="#A57939" d="M41.5 60h-11v-7h11z"/><path fill="none" stroke="#92D3F5" stroke-linecap="round" stroke-linejoin="round" stroke-miterlimit="10" stroke-width="2" d="M23 53h2v4h-2zM31 19h2v4h-2zM39 19h2v4h-2zM47 53h2v4h-2z"/><path fill="#D0CFCE" d="M36 31L23 45h26z"/><path fill="none" stroke="#92D3F5" stroke-linecap="round" stroke-linejoin="round" stroke-miterlimit="10" stroke-width="2" d="M32 40h2v2h-2zM38 40h2v2h-2z"/><g fill="none" stroke="#000" stroke-linecap="round" stroke-linejoin="round" stroke-miterlimit="10" stroke-width="2"><path d="M17 50h38v10H17zM34.14 33l-9.28 10H22V33zM50 33v10h-2.86l-9.28-10zM27 16h18v10H27zM54 33H37.86L36 31l-1.86 2H18l4-3 2-4h24l2 4zM59.5 50h-47l4-3 2-4h6.36L23 45h26l-1.86-2h6.36l2 4zM49 16H23l4-3 2-4h14l2 4z"/><path d="M41.5 60h-11v-7h11z"/><path d="M34.063 60v-7h4v7M49 45H23l1.86-2 9.28-10L36 31l1.86 2 9.28 10zM25 57h-2v-4M33 23h-2v-4M41 23h-2v-4M49 57h-2v-4"/><path d="M34 42h-2v-2M40 42h-2v-2"/></g></svg><svg viewBox="0 0 72 72" width="72" height="72" id="1F3ED" x="360" y="144" xmlns="http://www.w3.org/2000/svg"><path fill="#EA5A47" d="M9.5 38h53v17h-53z"/><path fill="#D0CFCE" d="M14.5 43h13v12h-13z"/><path fill="#92D3F5" d="M32.5 43h5v5h-5zM37.5 43h5v5h-5zM42.5 43h5v5h-5zM47.5 43h5v5h-5zM52.5 43h5v5h-5z"/><path fill="#3F3F3F" d="M56 38h-6l1-16h4z"/><path fill="#D0CFCE" d="M14.497 31l.005 7h9.995zM25 31l.005 7H35zM35 31l.005 7H45z"/><g fill="none" stroke="#000" stroke-linecap="round" stroke-miterlimit="10" stroke-width="2"><path stroke-linejoin="round" d="M9.5 38h53v17h-53z"/><path stroke-linejoin="round" d="M14.5 43h13v12h-13zM14.5 47h13M14.5 51h13M32.5 43h5v5h-5zM37.5 43h5v5h-5zM42.5 43h5v5h-5zM47.5 43h5v5h-5zM52.5 43h5v5h-5zM56 38h-6l1-16h4zM14.497 31l.005 7h9.995zM25 31l.005 7H35zM35 31l.005 7H45z"/><path d="M54 19c.043-1.956-.325-4.002-2.079-5.566-1.487-1.327-3.042-1.05-5.619-2.103C44.783 10.709 45 7 42.085 5.48M51 19c-.645-1.847-.81-3.15-3-4-1.858-.721-6 0-7-2"/></g></svg><svg viewBox="0 0 72 72" width="72" height="72" id="1F3EC" x="360" y="216" xmlns="http://www.w3.org/2000/svg"><path fill="#D0CFCE" d="M16 12h40v48H16z"/><path fill="#92D3F5" d="M20 50h8v10h-8zM44 50h8v10h-8zM32 50h8v10h-8zM16 36h10v10H16zM26 36h10v10H26zM36 36h10v10H36zM46 36h10v10H46zM16 26h10v10H16zM26 26h10v10H26zM36 26h10v10H36zM46 26h10v10H46zM16 16h10v10H16zM26 16h10v10H26zM36 16h10v10H36zM46 16h10v10H46z"/><g fill="none" stroke="#000" stroke-linecap="round" stroke-linejoin="round" stroke-miterlimit="10" stroke-width="2"><path d="M16 12h40v48H16z"/><path d="M20 50h8v10h-8zM44 50h8v10h-8zM32 50h8v10h-8zM16 36h10v10H16zM26 36h10v10H26zM36 36h10v10H36zM46 36h10v10H46zM16 26h10v10H16zM26 26h10v10H26zM36 26h10v10H36zM46 26h10v10H46zM16 16h10v10H16zM26 16h10v10H26zM36 16h10v10H36zM46 16h10v10H46z"/></g></svg><svg viewBox="0 0 72 72" width="72" height="72" id="1F3EB" x="360" y="288" xmlns="http://www.w3.org/2000/svg"><path fill="#D0CFCE" d="M8.5 18h55v35h-55z"/><path fill="#A57939" d="M27.5 40h17v13h-17z"/><circle cx="36" cy="28.5" r="6.5" fill="#FFF"/><path fill="none" stroke="#92D3F5" stroke-linecap="round" stroke-linejoin="round" stroke-miterlimit="10" stroke-width="2" d="M20 43h2v5h-2zM13 43h2v5h-2zM20 33h2v5h-2zM13 33h2v5h-2zM20 23h2v5h-2zM13 23h2v5h-2zM57 43h2v5h-2zM50 43h2v5h-2zM57 33h2v5h-2zM50 33h2v5h-2zM57 23h2v5h-2zM50 23h2v5h-2z"/><g fill="none" stroke="#000" stroke-linecap="round" stroke-linejoin="round" stroke-width="2"><path stroke-miterlimit="10" d="M8.5 18h55v35h-55z"/><path stroke-miterlimit="10" d="M27.5 40h17v13h-17zM36 53V40"/><circle cx="36" cy="28.5" r="6.5"/><path d="M36 29v-4M36 29l2-1"/><path stroke-miterlimit="10" d="M22 48h-2v-5M15 48h-2v-5M22 38h-2v-5M15 38h-2v-5M22 28h-2v-5M15 28h-2v-5M59 48h-2v-5M52 48h-2v-5M59 38h-2v-5M52 38h-2v-5M59 28h-2v-5M52 28h-2v-5"/></g></svg><svg viewBox="0 0 72 72" width="72" height="72" id="1F3EA" y="360" xmlns="http://www.w3.org/2000/svg"><path fill="#E27022" d="M9 38h53v17H9z"/><path fill="#92D3F5" d="M14 45h10v10H14zM28 45h10v10H28zM38 45h10v10H38zM48 45h10v10H48z"/><ellipse cx="19" cy="37" rx="7" ry="5" fill="#FFF"/><g fill="none" stroke="#000" stroke-miterlimit="10"><path stroke-linecap="round" stroke-linejoin="round" stroke-width="2" d="M26 38h36v17H9V38h3"/><path stroke-linecap="round" stroke-linejoin="round" stroke-width="2" d="M14 45h10v10H14zM19 55V45M28 45h10v10H28zM38 45h10v10H38zM48 45h10v10H48z"/><ellipse cx="19" cy="37" rx="7" ry="5" stroke-width="2"/><path stroke-linecap="round" stroke-linejoin="round" stroke-width=".857" d="M16.577 35.99a.922.922 0 01.903-.737h0c.254 0 .485.104.651.27.26.26.236.69-.008.965l-1.565 1.765h1.843M20.778 35.253l-1.115 2.52h1.755M21.129 36.845v1.408"/></g></svg><svg viewBox="0 0 72 72" width="72" height="72" id="1F3E9" xmlns="http://www.w3.org/2000/svg"><path fill="#FFA7C0" d="M22.5 10h27v52h-27z"/><path fill="#92D3F5" d="M27 52h10v10H27z"/><path fill="none" stroke="#92D3F5" stroke-linecap="round" stroke-linejoin="round" stroke-miterlimit="10" stroke-width="2" d="M35 42h2v5h-2zM43 42h2v5h-2zM43 53h2v5h-2zM27 42h2v5h-2zM35 31h2v5h-2zM43 31h2v5h-2zM27 31h2v5h-2z"/><path fill="#EA5A47" d="M36 25.825l-4.87-6.244-.156-.232A2.863 2.863 0 1136 16.621a2.863 2.863 0 114.888 2.936L36 25.825z"/><g fill="none" stroke="#000" stroke-linecap="round" stroke-linejoin="round" stroke-width="2"><path stroke-miterlimit="10" d="M22.5 10h27v52h-27z"/><path stroke-miterlimit="10" d="M27 52h10v10H27zM32 62V52"/><path d="M36 25.825l-4.87-6.244-.156-.232A2.863 2.863 0 1136 16.621a2.863 2.863 0 114.888 2.936L36 25.825z"/><path stroke-miterlimit="10" d="M37 36h-2v-5M29 36h-2v-5M45 36h-2v-5M37 47h-2v-5M29 47h-2v-5M45 47h-2v-5M45 58h-2v-5"/></g></svg><svg viewBox="0 0 72 72" width="72" height="72" id="1F3E8" x="144" y="360" xmlns="http://www.w3.org/2000/svg"><path fill="#D0CFCE" d="M17 17h38v38H17zM55 20h11.5v35H55z"/><path fill="none" stroke="#92D3F5" stroke-linecap="round" stroke-linejoin="round" stroke-miterlimit="10" stroke-width="2" d="M60 25h2v5h-2zM60 35h2v5h-2zM60 45h2v5h-2z"/><path fill="#D0CFCE" d="M5 20h12.5v35H5z"/><path fill="none" stroke="#92D3F5" stroke-linecap="round" stroke-linejoin="round" stroke-miterlimit="10" stroke-width="2" d="M10 25h2v5h-2zM10 35h2v5h-2zM10 45h2v5h-2zM31 22h2v5h-2zM39 22h2v5h-2zM47 22h2v5h-2zM23 22h2v5h-2z"/><path fill="#9B9B9A" d="M23 41h26v14H23z"/><path fill="#FCEA2B" d="M21.5 32h29v9h-29z"/><path fill="#92D3F5" d="M31.5 45h9v10h-9z"/><g fill="none" stroke="#000" stroke-linecap="round" stroke-linejoin="round" stroke-miterlimit="10"><path stroke-width="2" d="M17 17h38v38H17zM55 20h11.5v35H55zM5 20h11.5v35H5z"/><path stroke-width="2" d="M23 41h26v14H23zM21.5 32h29v9h-29zM27 55V41M45 55V41"/><path stroke-width="2" d="M31.5 45h9v10h-9zM36 55V45M49 27h-2v-5M41 27h-2v-5M33 27h-2v-5M25 27h-2v-5M12 30h-2v-5M12 40h-2v-5M62 40h-2v-5M62 30h-2v-5M62 50h-2v-5M12 50h-2v-5"/><path d="M42.045 34.499h-2.26v3.955h2.26M39.785 36.476h1.695M25.659 34.499v3.955M27.919 34.499v3.955M27.919 36.469h-2.26M44.305 34.499v3.955H46M31.688 38.454h0c-.78 0-1.412-.632-1.412-1.413v-1.13c0-.78.632-1.412 1.412-1.412h0c.78 0 1.413.632 1.413 1.412v1.13c0 .78-.633 1.413-1.413 1.413zM35.361 34.516h2.26M36.491 34.516v3.955"/></g></svg><svg viewBox="0 0 72 72" width="72" height="72" id="1F3E6" x="216" y="360" xmlns="http://www.w3.org/2000/svg"><path fill="#9B9B9A" d="M16 26h40v34H16z"/><path fill="#D0CFCE" d="M14 22h44v4H14z"/><path fill="#FFF" d="M19.5 26h2.052v34H19.5M24.933 26h2.038v34h-2.038M47.067 60h-2.05V26h2.05M52.5 60h-2.018V26H52.5"/><path fill="#D0CFCE" d="M36 12L19 22h34z"/><path fill="#92D3F5" d="M31.5 50h9v10h-9z"/><circle cx="36" cy="35" r="5" fill="#FCEA2B"/><path fill="none" stroke="#F4AA41" stroke-linecap="round" stroke-linejoin="round" stroke-miterlimit="10" d="M36.948 34.262c-.098-.38-.52-.666-1.027-.666h0c-.579 0-1.048.373-1.048.834 0 .461.47.835 1.048.835l-.021.003c.579 0 1.048.374 1.048.835 0 .46-.469.835-1.048.835h0c-.507 0-.93-.287-1.027-.667M35.911 33.596V32.8M35.911 37.733v-.795"/><g fill="none" stroke="#000" stroke-miterlimit="10"><path stroke-linecap="round" stroke-linejoin="round" stroke-width="2" d="M16 26h40v34H16zM14 22h44v4H14z"/><path stroke-linecap="round" stroke-linejoin="round" stroke-width="2" d="M19.5 26h3v34h-3M24.933 26h3v34h-3M47.067 60h-3V26h3M52.5 60h-3V26h3M36 12l-17 9.75h34zM31.5 50h9v10h-9zM36 60V50"/><circle cx="36" cy="35" r="5" stroke-width="2"/><path stroke-linecap="round" stroke-linejoin="round" d="M36.948 34.262c-.098-.38-.52-.666-1.027-.666h0c-.579 0-1.048.373-1.048.834 0 .461.47.835 1.048.835l-.021.003c.579 0 1.048.374 1.048.835 0 .46-.469.835-1.048.835h0c-.507 0-.93-.287-1.027-.667M35.911 33.596V32.8M35.911 37.733v-.795"/></g></svg><svg viewBox="0 0 72 72" width="72" height="72" id="1F3E5" x="288" y="360" xmlns="http://www.w3.org/2000/svg"><path fill="#FFF" d="M22.5 12h27v48h-27zM13.5 25h9v35h-9zM49.5 25h9v35h-9z"/><path fill="#92D3F5" d="M29.5 44h13v16h-13z"/><path fill="#EA5A47" d="M43.5 23h-5v-5h-5v5h-5v5h5v5h5v-5h5z"/><path fill="none" stroke="#92D3F5" stroke-linecap="round" stroke-linejoin="round" stroke-miterlimit="10" stroke-width="2" d="M17 30h2v5h-2zM17 40h2v5h-2zM17 50h2v5h-2zM53 30h2v5h-2zM53 40h2v5h-2zM53 50h2v5h-2z"/><g fill="none" stroke="#000" stroke-linecap="round" stroke-linejoin="round" stroke-miterlimit="10" stroke-width="2"><path d="M22.5 12h27v48h-27zM13.5 25h9v35h-9zM49.5 25h9v35h-9z"/><path d="M29.5 44h13v16h-13zM36 60V44M43.5 23h-5v-5h-5v5h-5v5h5v5h5v-5h5zM19 35h-2v-5M19 45h-2v-5M19 55h-2v-5M55 35h-2v-5M55 45h-2v-5M55 55h-2v-5"/></g></svg><svg viewBox="0 0 72 72" width="72" height="72" id="1F3E4" x="360" y="360" xmlns="http://www.w3.org/2000/svg"><path fill="#d0cfce" d="M13 14h46v46H13z"/><circle cx="37" cy="37" r="6" fill="#fcea2b"/><path fill="#92d3f5" d="M29.5 50h13v10h-13z"/><path fill="none" stroke="#92d3f5" stroke-linecap="round" stroke-linejoin="round" stroke-width="2" d="M51 30h2v5h-2zM51 20h2v5h-2zM35 20h2v5h-2zM43 20h2v5h-2zM27 20h2v5h-2zM51 40h2v5h-2zM51 50h2v5h-2zM19 30h2v5h-2zM19 20h2v5h-2zM19 40h2v5h-2zM19 50h2v5h-2z"/><circle cx="37" cy="37" r="3" fill="#d0cfce"/><path fill="#fcea2b" d="M31 34.5l-4.3 4.3L32 41l1-1-2-5.5zM47 37l-4 4-2-2 3.9-4 2.1 2z"/><path fill="#fcea2b" d="M43 41a8.89 8.89 0 01-6 2 8.89 8.89 0 01-6-2l2-2a10.718 10.718 0 004 1 10.718 10.718 0 004-1z"/><g fill="none" stroke="#000" stroke-linecap="round" stroke-linejoin="round" stroke-width="2"><path d="M13 14h46v46H13z"/><path d="M43 36.9L41 39a11.184 11.184 0 01-3.8 1 3 3 0 10-.4 0 9.289 9.289 0 01-3.8-1l-.3.3-1.5-4A6.027 6.027 0 0143 36.9zM29.5 50h13v10h-13zM36 60V50"/><path d="M32.7 39.3l-1.4 1.4-4.6-1.9 4.3-4.3.2.8 1.5 4zM47 37l-4 4-2-2 2-2.1 1.9-1.9 2.1 2z"/><path d="M43 41a8.813 8.813 0 01-5.5 2h-.9a8.88 8.88 0 01-5.6-2l2-2a11.184 11.184 0 003.8 1h.4a9.289 9.289 0 003.8-1zM21 25h-2v-5M53 35h-2v-5M45 25h-2v-5M53 25h-2v-5M37 25h-2v-5M29 25h-2v-5M21 35h-2v-5M21 45h-2v-5M53 45h-2v-5M53 55h-2v-5M21 55h-2v-5"/></g></svg><svg viewBox="0 0 72 72" width="72" height="72" id="1F3E3" x="432" xmlns="http://www.w3.org/2000/svg"><path fill="#D0CFCE" d="M12.5 12h27v48h-27zM39.5 25h19v35h-19z"/><path fill="#92D3F5" stroke="#92D3F5" stroke-linecap="round" stroke-linejoin="round" stroke-miterlimit="10" stroke-width="2" d="M17 40h2v5h-2zM25 40h2v5h-2zM33 40h2v5h-2zM44 30h2v5h-2zM52 30h2v5h-2zM44 40h2v5h-2zM52 40h2v5h-2zM44 50h2v5h-2zM52 50h2v5h-2z"/><path fill="#92D3F5" d="M19.5 50h13v10h-13z"/><g stroke="#000" stroke-linecap="round" stroke-linejoin="round" stroke-miterlimit="10" stroke-width="2"><path fill="none" d="M12.5 12h27v48h-27zM39.5 25h19v35h-19z"/><path fill="none" d="M19.5 50h13v10h-13zM26 60V50M54 35h-2v-5M54 45h-2v-5M54 55h-2v-5M46 35h-2v-5M27 45h-2v-5M35 45h-2v-5M19 45h-2v-5M46 45h-2v-5M46 55h-2v-5"/><path d="M18 18h16v2H18zM18 24h16v2H18zM25 26h2v7h-2z"/></g></svg><svg viewBox="0 0 72 72" width="72" height="72" id="1F3E2" x="432" y="72" xmlns="http://www.w3.org/2000/svg"><path fill="#D0CFCE" d="M8.5 19h55v35h-55z"/><path fill="#92D3F5" d="M29.5 44h13v10h-13z"/><path fill="none" stroke="#92D3F5" stroke-linecap="round" stroke-linejoin="round" stroke-miterlimit="10" stroke-width="2" d="M22 44h2v5h-2zM14 44h2v5h-2zM22 34h2v5h-2zM14 34h2v5h-2zM22 24h2v5h-2zM14 24h2v5h-2zM39 34h2v5h-2zM31 34h2v5h-2zM39 24h2v5h-2zM31 24h2v5h-2zM56 44h2v5h-2zM48 44h2v5h-2zM56 34h2v5h-2zM48 34h2v5h-2zM56 24h2v5h-2zM48 24h2v5h-2z"/><g fill="none" stroke="#000" stroke-linecap="round" stroke-linejoin="round" stroke-miterlimit="10" stroke-width="2"><path d="M8.5 19h55v35h-55z"/><path d="M29.5 44h13v10h-13zM36 54V44M16 29h-2v-5M24 49h-2v-5M16 49h-2v-5M24 39h-2v-5M16 39h-2v-5M24 29h-2v-5M41 39h-2v-5M33 39h-2v-5M41 29h-2v-5M33 29h-2v-5M58 49h-2v-5M50 49h-2v-5M58 39h-2v-5M50 39h-2v-5M58 29h-2v-5M50 29h-2v-5"/></g></svg><svg viewBox="0 0 72 72" width="72" height="72" id="1F3E1" x="432" y="144" xmlns="http://www.w3.org/2000/svg"><path fill="#FFF" d="M37.075 36.053h26.884v18.114H37.075z"/><path fill="#EA5A47" stroke="#EA5A47" stroke-linecap="round" stroke-linejoin="round" stroke-miterlimit="10" stroke-width="2" d="M50.235 23.2L38.1 36h25.4z"/><path fill="#EA5A47" d="M47.3 26l-6.4 6.06v-8.574c0-.931.755-1.416 1.686-1.416h3.028c.931 0 1.686.485 1.686 1.416V26z"/><path fill="#A57939" d="M43 42h6v12h-6z"/><path fill="#92D3F5" d="M54 42h6v5h-6z"/><path fill="#B1CC33" d="M41.006 28.34c0-3.313-3.445-6.003-7.694-6.003-.355.003-.71.025-1.062.066-1.8-3.455-5.707-5.855-10.25-5.855-6.248 0-11.312 4.528-11.312 10.114.001.37.025.738.07 1.104C7.966 28.666 6 30.81 6 33.314c0 3.312 3.445 6.002 7.694 6.002a9.136 9.136 0 004.613-1.207c1.818 1.477 4.727 2.439 8.016 2.439 5.51 0 9.977-2.688 9.977-6.003 0-.219-.021-.438-.06-.653 2.796-.902 4.766-3.047 4.766-5.553z"/><g fill="none" stroke="#000" stroke-linecap="round" stroke-width="2"><path stroke-linejoin="round" stroke-miterlimit="10" d="M46 27l4.235-4L64 35.098V54H38V41.548"/><path stroke-linejoin="round" stroke-miterlimit="10" d="M43 42h6v12h-6zM54 42h6v5h-6zM43.5 23h3v3"/><path stroke-linejoin="round" d="M22.5 54v-7.173L17.5 42M23.041 46.727l2.844-2.961"/><path stroke-miterlimit="10" d="M41.006 28.34c0-3.313-3.445-6.003-7.694-6.003-.355.003-.71.025-1.062.066-1.8-3.455-5.707-5.855-10.25-5.855-6.248 0-11.312 4.528-11.312 10.114.001.37.025.738.07 1.104C7.966 28.666 6 30.81 6 33.314c0 3.312 3.445 6.002 7.694 6.002a9.136 9.136 0 004.613-1.207c1.818 1.477 4.727 2.439 8.016 2.439 5.51 0 9.977-2.688 9.977-6.003 0-.219-.021-.438-.06-.653 2.796-.902 4.766-3.047 4.766-5.553z"/><path stroke-linejoin="round" stroke-miterlimit="10" d="M63.5 36h-21"/></g></svg><svg viewBox="0 0 72 72" width="72" height="72" id="1F3E0" x="432" y="216" xmlns="http://www.w3.org/2000/svg"><path fill="#FFF" d="M19 32h34v24H19z"/><path fill="#A57939" d="M25 40h9v16h-9z"/><path fill="#92D3F5" d="M40 40h8v7h-8z"/><path fill="#EA5A47" d="M53 32H19v-1l16-16 18 16z"/><path fill="#EA5A47" d="M29 21l-5 5v-9h5z"/><g fill="none" stroke="#000" stroke-linecap="round" stroke-linejoin="round" stroke-miterlimit="10" stroke-width="2"><path d="M25 40h9v16h-9zM40 40h8v7h-8zM53 32H19v-1l16-16 18 16z"/><path d="M19 32h34v24H19zM29 21l-5 5v-9h5z"/></g></svg><svg viewBox="0 0 72 72" width="72" height="72" id="1F3DA" x="432" y="288" xmlns="http://www.w3.org/2000/svg"><path fill="#FFF" d="M18.5 31.5h35v25h-35z"/><path fill="#EA5A47" d="M28.5 22.059l-5 4.706V17h5z"/><path fill="#A57939" d="M25.5 40h9v16h-9z"/><path fill="#6A462F" d="M37.45 40.38L24.26 53.57l-2.92-2.91 4.16-4.16L32 40l2.53-2.53z"/><path fill="#9B9B9A" d="M48 47h-8v-7h8z"/><path fill="#92D3F5" d="M42.792 47L46 43l-3-1-1-2h6v7z"/><path fill="#EA5A47" d="M36 15L19 31v1h34v-1l-6-5-7 1-8 1 2-4-2-2 6.6-4.4z"/><g fill="none" stroke="#000" stroke-linecap="round" stroke-linejoin="round" stroke-miterlimit="10" stroke-width="2"><path d="M28.5 22.059l-5 4.706V17h5zM32 40l-6.5 6.5V40zM34.5 43.33V56h-9v-3.67zM48 47h-8v-7h8z"/><path d="M21.342 50.656l13.192-13.191 2.914 2.914-13.191 13.192z" stroke-width="1.99998"/><path d="M42.792 47L46 43l-3-1-1-2h6v7zM42 22v4M45 25v1M39 19v7M40 19l-4-4-17 16v1h34v-1l-6-5-7 1-8 1 2-4-2-2 6.6-4.4M36 20v7"/><path d="M19 32h34v24H19z"/></g></svg><svg viewBox="0 0 72 72" width="72" height="72" id="1F3D8" x="432" y="360" xmlns="http://www.w3.org/2000/svg"><path fill="#FFF" d="M14.5 41.5h23v16h-23z"/><path fill="#FFF" d="M33.61 26.9h23v16h-23z"/><path fill="#92D3F5" d="M48.5 32h5v4h-5z"/><path fill="#EA5A47" d="M57.5 27h-23v-1.463L46 15l11.5 10.537zM21 34.581l-4 3.665V32h4zM41 19.581l-4 3.665V17h4z"/><path fill="#A57939" d="M38 33h8v9.992h-8zM19 47h6v10h-6z"/><path fill="#92D3F5" d="M28.5 47h5v4h-5z"/><path fill="#EA5A47" d="M37.5 42h-23v-1.463L26 30l11.5 10.537z"/><g fill="none" stroke="#000" stroke-linecap="round" stroke-linejoin="round" stroke-miterlimit="10" stroke-width="2"><path d="M48.5 32h5v4h-5zM57.5 27h-23v-1.463L46 15l11.5 10.537zM21 34.581l-4 3.665V32h4zM41 19.581l-4 3.665V17h4z"/><path d="M34.5 33v-7.463L46 15l11.5 10.537V42h-16"/><path d="M45 42V32h-6v4.088M19 47h6v10h-6zM28.5 47h5v4h-5zM37.5 42h-23v-1.463L26 30l11.5 10.537z"/><path d="M14.5 42h23v15h-23z"/></g></svg><svg viewBox="0 0 72 72" width="72" height="72" id="1F9F1" y="432" xmlns="http://www.w3.org/2000/svg"><g fill="#d22f27" stroke="#d22f27" stroke-linecap="round" stroke-linejoin="round" stroke-width="2"><path d="M15 45h17v9H15zM33 46h16v8H33zM40 36h17v9H40zM23 37h16v7H23zM15 27h17v9H15zM32 27h17v9H32zM40 18h17v9H40zM23 18h17v9H23z"/></g><g fill="none" stroke="#000" stroke-linecap="round" stroke-linejoin="round" stroke-width="2"><path d="M32 36v-9M54 27H15M40 19v8M58 36H19M40 45v-9M52 45H19M32 53v-8M47 18H20M23 18v9M23 45v-4M32 36v-9M49 46v5M44 54H26M57 40v-4"/></g></svg><svg viewBox="0 0 72 72" width="72" height="72" id="1F3D7" x="72" y="432" xmlns="http://www.w3.org/2000/svg"><path fill="#FCEA2B" d="M58 25.833L12 27v-7l46 1.167z"/><path fill="#FCEA2B" d="M28 59H18l2-46h6z"/><path fill="#D0CFCE" d="M40.5 37h19v4h-19z"/><g fill="none" stroke="#000" stroke-linecap="round" stroke-linejoin="round" stroke-miterlimit="10" stroke-width="2"><path d="M58 25.833L12 27v-7l46 1.167z"/><path d="M28 59H18l2-46h6zM19 50h8M19 41h8M19.5 34h7M34 26v-5M42 26v-5M50 37V21M40.5 37h19v4h-19z"/><path d="M58 25.833L12 27v-7l46 1.167z"/></g></svg><svg viewBox="0 0 72 72" width="72" height="72" id="1F3DB" x="144" y="432" xmlns="http://www.w3.org/2000/svg"><path fill="#D0CFCE" d="M14 56h44v4H14zM16 22h40v4H16zM17 52h38v4H17z"/><path fill="#9B9B9A" d="M20 26h6v26h-6zM33 26h6v26h-6zM46 26h6v26h-6z"/><path fill="#D0CFCE" d="M36 12l-17 9.75h34z"/><g fill="none" stroke="#000" stroke-linecap="round" stroke-linejoin="round" stroke-miterlimit="10" stroke-width="2"><path d="M14 56h44v4H14zM16 22h40v4H16zM17 52h38v4H17zM20 26h6v26h-6zM33 26h6v26h-6zM46 26h6v26h-6zM36 12l-17 9.75h34z"/></g></svg><svg viewBox="0 0 72 72" width="72" height="72" id="1F3DF" x="216" y="432" xmlns="http://www.w3.org/2000/svg"><path fill="#D0CFCE" d="M66 34l-4 15H10L6 34zM66 34c0-10.493-19.507-8-30-8S6 23.507 6 34h60z"/><path fill="#D0CFCE" d="M14 31c0-10.493 15.704-6 22-6s22-4.493 22 6H14z"/><path fill="#D0CFCE" d="M25 33.573c0-18.382 8.482-9.172 11-9.172 2.518 0 12-9.21 12 9.172H25z"/><path fill="#92D3F5" d="M41 49c0-10.493-2.901-12-5-12s-5 1.507-5 12h10z"/><g fill="none" stroke="#000" stroke-linecap="round" stroke-linejoin="round" stroke-miterlimit="10" stroke-width="2"><path d="M66 34l-4 15H41c0-10.49-2.9-12-5-12s-5 1.51-5 12H10L6 34c0-4.88 4.23-6.95 9.81-7.78 2.31-2.16 6.51-2.36 10.68-2.08 2.55-4.75 7.65.26 9.51.26 1.85 0 7.47-4.98 10.32-.31 3.9-.19 7.71.11 9.87 2.13 5.58.83 9.81 2.9 9.81 7.78zM41 49H31M58 31c0-2.18-.68-3.71-1.81-4.78M15.81 26.22C14.68 27.29 14 28.82 14 31"/><path d="M48 33.57c0-3.54-.35-6.06-.94-7.82l-.74-1.66M26.49 24.14l-.64 1.61c-.53 1.76-.85 4.28-.85 7.82M13 49v-6c0-.55.45-1 1-1M19 49v-6c0-.55.45-1 1-1M25 49v-6c0-.55.45-1 1-1M57 49v-6c0-.55.45-1 1-1M51 49v-6c0-.55.45-1 1-1M45 49v-6c0-.55.45-1 1-1M41 49H31c0-10.49 2.9-12 5-12s5 1.51 5 12z"/></g></svg><svg viewBox="0 0 72 72" width="72" height="72" id="1F3DE" x="288" y="432" xmlns="http://www.w3.org/2000/svg"><path fill="#FFF" d="M45 56.435V52M58 53.435V49"/><path fill="#9B9B9A" stroke="#9b9b9a" stroke-linecap="round" stroke-linejoin="round" stroke-miterlimit="10" stroke-width=".9" d="M37.922 35.11l2.469 6.565 5.359 5.55-35.5-.1 3.792-4.875 1.625-8.172 4.764-12.93 2.722 2.722 2.722 2.041 2.722 5.445H32l5.444 4.083"/><path fill="#92D3F5" stroke="#92D3F5" stroke-linecap="round" stroke-linejoin="round" stroke-miterlimit="10" stroke-width="1.9" d="M37 52c-2.699-2.773-4.67-3.179-6-3-3.005.405-4.338 4.018-8 4-.386-.002-1.304-.007-2.333-.454C18.057 51.41 17.61 48.576 14 49c-4.053.477-4.909 4.591-8 4h29.688"/><path fill="#B1CC33" stroke="#B1CC33" stroke-linecap="round" stroke-miterlimit="10" stroke-width="1.9" d="M66.28 39.646c0-1.586-1.63-2.874-3.64-2.874a4.59 4.59 0 00-.502.032c-.851-1.655-2.7-2.804-4.849-2.804-2.956 0-5.351 2.168-5.351 4.843 0 .177.011.354.033.529-1.321.431-2.251 1.458-2.251 2.656 0 1.586 1.63 2.875 3.64 2.875a4.282 4.282 0 002.182-.578c.86.707 2.236 1.167 3.792 1.167 2.607 0 4.72-1.287 4.72-2.874 0-.105-.01-.21-.029-.313 1.323-.431 2.255-1.459 2.255-2.659z"/><path fill="#B1CC33" d="M52.898 42.9c0-1.586-1.63-2.874-3.64-2.874a4.59 4.59 0 00-.502.032c-.851-1.655-2.7-2.804-4.849-2.804-2.955 0-5.351 2.168-5.351 4.843 0 .177.011.353.033.529-1.321.43-2.251 1.457-2.251 2.656 0 1.586 1.63 2.874 3.64 2.874a4.282 4.282 0 002.182-.578c.86.708 2.236 1.168 3.792 1.168 2.607 0 4.72-1.287 4.72-2.874 0-.105-.01-.21-.029-.313 1.323-.432 2.255-1.459 2.255-2.659z"/><g fill="none" stroke="#000" stroke-linecap="round"><path stroke-linejoin="round" stroke-width="2" d="M45 56.435V52M58 53.435V49"/><path stroke-linejoin="round" stroke-miterlimit="10" stroke-width="2" d="M28.676 31.135l-2.703-5.405-2.703-2.027L20.568 21l-4.73 12.838-1.351 8.108L11.784 46"/><path stroke-linejoin="round" stroke-miterlimit="10" stroke-width="2" d="M24.622 25.054l.675 6.081h6.757l5.405 4.054"/><path stroke-linejoin="round" stroke-miterlimit="10" stroke-width="2" d="M32.054 31.135l2.027 4.054.676 4.054-2.703 4.057L28 46"/><path stroke-miterlimit="10" stroke-width="2" d="M55.542 44.325c.86.707 2.236 1.167 3.792 1.167 2.607 0 4.72-1.287 4.72-2.874 0-.105-.01-.21-.029-.313 1.323-.431 2.255-1.458 2.255-2.659 0-1.586-1.63-2.874-3.64-2.874a4.59 4.59 0 00-.502.032c-.851-1.655-2.7-2.804-4.849-2.804-2.509 0-4.614 1.562-5.193 3.67"/><path stroke-miterlimit="10" stroke-width="1.9" d="M52.898 42.9c0-1.586-1.63-2.874-3.64-2.874a4.59 4.59 0 00-.502.032c-.851-1.655-2.7-2.804-4.849-2.804-2.955 0-5.351 2.168-5.351 4.843 0 .177.011.353.033.529-1.321.43-2.251 1.457-2.251 2.656 0 1.586 1.63 2.874 3.64 2.874a4.282 4.282 0 002.182-.578c.86.708 2.236 1.168 3.792 1.168 2.607 0 4.72-1.287 4.72-2.874 0-.105-.01-.21-.029-.313 1.323-.432 2.255-1.459 2.255-2.659z"/><path stroke-linejoin="round" stroke-miterlimit="10" stroke-width="2" d="M6 53c3.091.591 3.947-3.523 8-4 3.61-.425 4.056 2.411 6.667 3.546 1.03.447 1.947.452 2.333.454 3.662.018 4.995-3.595 8-4 1.33-.179 3.301.227 6 3"/></g></svg><svg viewBox="0 0 72 72" width="72" height="72" id="1F3DD" x="360" y="432" xmlns="http://www.w3.org/2000/svg"><path fill="#F1B31C" stroke="#F1B31C" stroke-linecap="round" stroke-linejoin="round" stroke-miterlimit="10" stroke-width="1.8" d="M55 50c-1.532-2.298-6-6-11-6-1 0-1.648.107-2.474.252L30.688 45H27c-4.123 0-7.518 3.036-9 6 0 0-.953 1.696-.755 2.23.101.272.755.187.755.187h37.833s1.75.5.917-1S55 50 55 50z"/><path fill="#92D3F5" stroke="#92D3F5" stroke-linecap="round" stroke-linejoin="round" stroke-miterlimit="10" stroke-width="1.8" d="M66 55c-2-3-5.215-4.218-7-4-3.454.423-5.605 3.647-8.5 3-3.069-.686-3.567-3.328-6-3-3.005.405-4.338 4.018-8 4-.386-.002-1.304-.007-2.333-.454-2.61-1.135-3.056-3.97-6.667-3.546-4.053.477-5.909 4.591-9 4-2.697-.516-3.112-3.538-6-4-2.662-.426-5.258 1.97-7 4H66z"/><path fill="#5C9E31" stroke="#5C9E31" stroke-linecap="round" stroke-linejoin="round" stroke-miterlimit="10" stroke-width="1.8" d="M44 11c-.69-.365-2.14-1.036-4-1-.72.014-4.172.183-6 3-1.058 1.63-1.045 3.316-1 4 0 0 2.705-3.876 5.896-4.458 2.182-.399 3.456-.458 4.317-.646.896-.196 1.05-.757.787-.896zM32.12 20.097c-1.297-.862-3.427-2.007-6.256-2.421-1.291-.19-5.65-.654-9.862 1.938a13.934 13.934 0 00-2.798 2.274s6.985 2.029 18.916-1.791"/><path fill="#B1CC33" stroke="#B1CC33" stroke-linecap="round" stroke-linejoin="round" stroke-miterlimit="10" stroke-width="1.8" d="M57 17c-1.004-.772-1.724-1.28-3.035-1.972C52.84 14.434 50.394 13.13 47 13c-1.568-.06-4.873-.194-8 2-2.466 1.73-3.574 3.982-4 5 0 0 4.708-1.458 6.125-1.667 1.417-.208 4.08-.605 5.625-.605 1.57 0 3.708-.02 5.542.189 1.833.208 3.413.424 4.237.742.671.259.977.384 1.063-.424.025-.232-.04-.81-.592-1.235zM50 30c-.299-1.05-1.058-3.151-3-5-.619-.59-3.124-2.834-7-3a10.853 10.853 0 00-5 1s.847 1.03 2.486 1.953c1.639.922 5.097 3.163 7.222 3.938S48.5 29.791 50 30M31 23c-.694-.224-1.712-.751-3-1-3.555-.686-8.99-.052-12 4-1.968 2.65-2.058 5.63-2 7 0 0 2.547-1.916 6.833-4.555 4.04-2.488 5.757-2.677 9.782-3.314 1.447-.23 1.04-1.92.385-2.131z"/><path fill="#A57939" d="M36.257 31.485l-2.576.69-1.938-4.657 3.864-1.036z"/><path fill="#A57939" d="M37.486 36.069l-3.283.579-1.689-4.78L37.438 31z"/><path fill="#A57939" d="M38.428 41.068l-3.985.349-1.432-4.894L38.99 36z"/><path fill="#A57939" d="M37.995 46.157h-4l-1-5h6z"/><g fill="none" stroke="#000" stroke-linecap="round" stroke-linejoin="round" stroke-miterlimit="10" stroke-width="2"><path d="M36.257 31.485l-2.576.69-1.938-4.657 3.864-1.036z"/><path d="M37.486 36.069l-3.283.579-1.689-4.78L37.438 31zM5.5 55c1.742-2.03 4.338-4.426 7-4 2.888.462 3.303 3.484 6 4 3.091.591 4.947-3.523 9-4 3.61-.425 4.056 2.411 6.667 3.546 1.03.447 1.947.452 2.333.454 3.662.018 4.995-3.595 8-4 2.433-.328 2.931 2.314 6 3 2.895.647 5.046-2.577 8.5-3 1.785-.218 5 1 7 4M41.526 44.252C42.352 44.107 43 44 44 44c5 0 9.468 3.702 11 6"/><path d="M18 51c1.482-2.964 4.877-6 9-6h3.688M14 33c-.058-1.37.032-4.35 2-7 3.01-4.052 8.445-4.686 12-4 1.288.249 2.311.667 3 1M38.428 41.068l-3.985.349-1.432-4.894L38.99 36zM35 20c.426-1.018 1.534-3.27 4-5 3.127-2.194 6.432-2.06 8-2 3.394.13 5.876 1.407 7 2a17.703 17.703 0 013 2M32.12 20.097c-1.297-.862-3.427-2.007-6.256-2.421-1.291-.19-5.65-.654-9.862 1.938a13.934 13.934 0 00-2.798 2.274M44 11c-.713-.388-2.14-1.036-4-1-.72.014-4.172.183-6 3-1.058 1.63-1.045 3.316-1 4M35 23a10.853 10.853 0 015-1c3.876.166 6.381 2.41 7 3 1.942 1.849 2.701 3.95 3 5M28.955 28.03a5.701 5.701 0 00-1.91-3.058M25.146 28.891a5.696 5.696 0 00-2.293-2.783M22.225 30.822a5.707 5.707 0 00-2.45-2.645M20.183 33.86a5.702 5.702 0 00-2.366-2.72M42.845 19.44a5.702 5.702 0 011.134-3.423M46.75 19.378a5.703 5.703 0 011.57-3.245M50.044 20.565a5.701 5.701 0 011.757-3.148M52.746 23.035a5.704 5.704 0 011.657-3.202"/><path d="M37.995 46.157h-4l-1-5h6zM39.009 27.063a5.696 5.696 0 012.924-2.11M42.21 29.3a5.7 5.7 0 013.174-1.71M44.184 32.191a5.697 5.697 0 013.268-1.523"/></g></svg><svg viewBox="0 0 72 72" width="72" height="72" id="1F3DC" x="432" y="432" xmlns="http://www.w3.org/2000/svg"><path fill="#F1B31C" stroke="#F1B31C" stroke-linecap="round" stroke-linejoin="round" stroke-miterlimit="10" stroke-width="2" d="M65 39s-3 0-6 1c-.865.288-2 0-2 0-8.417 0-12-1.583-12-1.583s-5.833-3.5-7.917-4.417C35 33.083 33 29 33 29c-1-3-3.28-5.989-5-6-4.208-.028-6.254 5.836-11 9-3 2-3.39 2.814-6 4-2.272 1.033-3.474 2.98-4 4 0 0-2.98 1.938-3.063 5.688C3.854 49.438 7 52 7 52s5 6.75 13.75 3.875c9.187-3.019 10.204-1.485 13.65-.765 4.604.962 15.725-.297 19.183 1.223C59.895 59.11 64.363 53.877 65 53c1.188-1.633.79-4.122 1.833-5.542 3-4.083 2.042-5.083-1.833-8.458z"/><path fill="#5c9e31" stroke="#5c9e31" stroke-linecap="round" stroke-linejoin="round" stroke-miterlimit="10" stroke-width="2" d="M48 49V26a3 3 0 00-3-3h0a3 3 0 00-3 3v23h6z"/><path fill="#5C9E31" d="M41 35a2 2 0 01-2-2v-2a2 2 0 10-4 0v2a6 6 0 006 6M49 39a2 2 0 002-2v-5a2 2 0 114 0v5a6 6 0 01-6 6"/><g fill="none" stroke="#000" stroke-linecap="round" stroke-linejoin="round" stroke-miterlimit="10" stroke-width="2"><path d="M48 49V26a3 3 0 00-3-3h0a3 3 0 00-3 3v23M41 35a2 2 0 01-2-2v-2a2 2 0 00-2-2h0a2 2 0 00-2 2v2a6 6 0 006 6M49 39a2 2 0 002-2v-5a2 2 0 012-2h0a2 2 0 012 2v5a6 6 0 01-6 6M65 53c-1 0-5.177-.836-6-1-5-1-9.15-1.194-15 1-8 3-8.943 2.26-10 2-2.158-.53-5.197-3.87-9-5-4.706-1.399-6.102-1.111-9-1-1.848.07-5.126.523-9 3M7 40c.526-1.02 1.728-2.967 4-4 2.61-1.186 3-2 6-4 4.746-3.164 6.792-9.028 11-9 1.72.011 4 3 5 6M65 39s-3 0-6 1c-.865.288-2 0-2 0"/></g></svg><svg viewBox="0 0 72 72" width="72" height="72" id="1F3D6" x="504" xmlns="http://www.w3.org/2000/svg"><path fill="#F1B31C" d="M10 50c0-1 10.925-10.68 24-8.5.331.055.66.112.989.17l5.503 1.122C49.528 44.855 59 49 60 49.495c0 0 1.059 1.118.667 2.422-.396 1.316-3.51 2.083-3.51 2.083h-5.602l-5.83 1.243L27.584 55l-12.498-1H11.75s-1.22-.576-1.75-1.833C9.469 50.907 10 50 10 50z"/><path fill="#92D3F5" d="M12 55.5c1.742-2.03 4.338-5.426 7-5 2.888.462 4.647 4.065 6.423 4.065 2.883 0 4.524-3.588 8.577-4.065 3.61-.425 3.594 2.281 6.016 3.672.973.559 2.598.326 2.984.328 3.662.018 4.968-3.973 8-4 4.063-.037 7.406 1.563 8 5"/><path fill="#FFF" d="M52.226 33.488C53.377 26.962 48.8 20.698 42 19.5s-13.243 3.12-14.394 9.647l24.62 4.341z"/><path fill="#EA5A47" d="M44.84 32.186C45.991 25.659 44.72 19.98 42 19.5s-5.857 4.423-7.008 10.95l9.848 1.736z"/><g fill="none" stroke="#000" stroke-linecap="round" stroke-linejoin="round" stroke-miterlimit="10" stroke-width="2"><path d="M12 54.5c1.742-2.03 4.338-4.426 7-4 2.888.462 3.303 3.484 6 4 3.091.591 4.947-3.523 9-4 3.61-.425 4.056 2.411 6.667 3.546 1.03.447 1.947.452 2.333.454 3.662.018 4.995-3.595 8-4 1.33-.179 3.301.227 6 3M41.687 44.08C50.723 46.144 56.747 48.5 60 48.5M10 49c3.572-.357 9.749-8.879 22.823-6.7l.989.17M52.226 33.488C53.377 26.962 48.8 20.698 42 19.5s-13.243 3.12-14.394 9.647l24.62 4.341z"/><path d="M44.84 32.186C45.991 25.659 44.72 19.98 42 19.5s-5.857 4.423-7.008 10.95l9.848 1.736zM37.312 46.09h0l2.604-14.772h0z"/></g></svg><svg viewBox="0 0 72 72" width="72" height="72" id="1F3D5" x="504" y="72" xmlns="http://www.w3.org/2000/svg"><path fill="#FCEA2B" stroke="#FCEA2B" stroke-linecap="round" stroke-linejoin="round" stroke-miterlimit="10" stroke-width="2" d="M27 35L12.5 60h29L27 35"/><path fill="#F1B31C" stroke="#F1B31C" stroke-linecap="round" stroke-linejoin="round" stroke-miterlimit="10" stroke-width="2" d="M27 35v25H12.5L27 35"/><path fill="#B1CC33" d="M66.5 32.616c0-3.544-3.64-6.422-8.132-6.422-.375.003-.75.027-1.123.07C55.343 22.569 51.214 20 46.412 20c-6.604 0-11.957 4.845-11.957 10.821.001.395.026.79.074 1.182-2.952.963-5.029 3.256-5.029 5.935 0 3.544 3.64 6.422 8.132 6.422a9.567 9.567 0 004.876-1.292c1.922 1.58 4.996 2.61 8.472 2.61 5.825 0 10.546-2.876 10.546-6.423a3.985 3.985 0 00-.064-.699c2.956-.964 5.038-3.259 5.038-5.94z"/><path fill="#8967AA" d="M27 54c-1 0-3 1-5 1a5 5 0 00-5 5h10v-6z"/><g fill="none" stroke="#000" stroke-linecap="round" stroke-width="2"><path stroke-linejoin="round" d="M46.94 60v-7.675l-5.285-5.164M47.512 52.218l3.006-3.168"/><path stroke-linejoin="round" stroke-miterlimit="10" d="M27 35L12.5 60h29l-6.934-11.956M27 60V44.25M27 44.25V60"/><path stroke-miterlimit="10" d="M66.5 32.616c0-3.544-3.64-6.422-8.132-6.422-.375.003-.75.027-1.123.07C55.343 22.569 51.214 20 46.412 20c-6.604 0-11.957 4.845-11.957 10.821.001.395.026.79.074 1.182-2.952.963-5.029 3.256-5.029 5.935 0 3.544 3.64 6.422 8.132 6.422a9.567 9.567 0 004.876-1.292c1.922 1.58 4.996 2.61 8.472 2.61 5.825 0 10.546-2.876 10.546-6.423a3.985 3.985 0 00-.064-.699c2.956-.964 5.038-3.259 5.038-5.94z"/><path stroke-linejoin="round" stroke-miterlimit="10" d="M27 54c-1 0-3 1-5 1a5 5 0 00-5 5h10v-6z"/></g></svg><svg viewBox="0 0 72 72" width="72" height="72" id="1F5FB" x="504" y="144" xmlns="http://www.w3.org/2000/svg"><path fill="#9B9B9A" d="M66.97 53.808l-5.301-4.577-3.889-4.856a1.02 1.02 0 00-.155-.156l-4.922-3.938-2.918-3.485a1.057 1.057 0 00-.11-.113l-5.12-4.447-6.24-5.093a.996.996 0 00-.681-.224L36 27h-4a1 1 0 00-.707.293l-7.933 7.94-6 4.999a.988.988 0 00-.149.154l-5.343 6.858-7.304 6.577a1 1 0 00.669 1.744h61.084a1 1 0 00.653-1.757z"/><path fill="#FFF" d="M52.557 40.104l-2.7-3.338-5.934-5.269-6.24-5.093-1.683.082h-4l-3 3-5.84 5.73-5.842 5.045c.43.394 3.682 1.225 4.682.225.932-.931 1.774-1.159 2-1 .288.204-.444 1.537-1 4-.283 1.254-.276 2.718 0 3 .443.454 1 0 2-1l1-1c1-1 2-3 3-3s1 1.2 1 2c0 1-.117 1.99 0 3 .101.873 0 2 1 2 .945 0 2-4 3-5s3-1 4 0 3 4 4 3c3-1 1-4 2-4 .802 0 1.545.685 3 2 .96.87 1.103 1.358 2 2 .825.592 1.61 1.24 2 1 .622-.382.307-3.025-1-5-.52-.784-.537-1.428 0-2 .59-.627 1.087-.812 1.442-.676l1.115.294z"/><g fill="none" stroke="#000" stroke-linecap="round" stroke-linejoin="round" stroke-miterlimit="10" stroke-width="2"><path d="M66.316 54.565l-5.37-4.636L57 45M52 41l5 4M5.233 54.565l7.37-6.636L18 41M18 41l6-5 5-5 3-3h4l1.683-.082 6.24 5.093 5.096 4.426L52 41"/><path d="M42 47c3-1 1-4 2-4 .802 0 1.545.684 3 2 .96.869 1.103 1.357 2 2 .825.591 1.61 1.24 2 1 .622-.383.307-3.026-1-5-.52-.785-.555-1.445 0-2 1-1 1-.734 1-1M18 41c.43.394 3 1 4 0 .932-.932 1.774-1.16 2-1 .288.203-.444 1.536-1 4-.283 1.253-.276 2.717 0 3 .443.454 1 0 2-1l1-1c1-1 2-3 3-3s1 1.2 1 2c0 1-.117 1.989 0 3 .101.872 0 2 1 2 .945 0 2-4 3-5s3-1 4 0 3 4 4 3"/><path d="M52 41l-2.981-3.563-5.096-4.426-6.24-5.093L36 28h-4l-3 3-5 5-6 5c.43.394 3 1 4 0 .932-.932 1.774-1.16 2-1 .288.203-.444 1.536-1 4-.283 1.253-.276 2.717 0 3 .443.454 1 0 2-1l1-1c1-1 2-3 3-3s1 1.2 1 2c0 1-.117 1.989 0 3 .101.872 0 2 1 2 .945 0 2-4 3-5s3-1 4 0 3 4 4 3c3-1 1-4 2-4 .802 0 1.545.684 3 2 .96.869 1.103 1.357 2 2 .825.591 1.61 1.24 2 1 .622-.383.307-3.026-1-5-.52-.785-.555-1.445 0-2 1-1 1-.734 1-1"/></g></svg><svg viewBox="0 0 72 72" width="72" height="72" id="1F30B" x="504" y="216" xmlns="http://www.w3.org/2000/svg"><path fill="#D0CFCE" stroke="#D0CFCE" stroke-linecap="round" stroke-linejoin="round" stroke-miterlimit="10" stroke-width="1.8" d="M28.8 9.1c-.4-.7 1.6-4.2 4.6-4.4 3-.3 5.2 1.5 4.4 3.6s-2.1 2.2-2.8 2.3l3.2 1.7c-.8 2.1-7.8 2.7-6.5 5.6l-4 .4c.1-1.5 0-3.7-1.5-4.9-1.1-.9-2.8-1.1-4.2-1.6-2-.7-2-2.7-1.4-4C21.3 6.4 22.4 5 24 5c1 0 2 0 3 1l1.8 3.1z"/><path fill="#9B9B9A" d="M63 57l-6.6-7.9L53 40l-8-6h-5l-4-12 4 12-4-12-4 2-7.8-1.9L19 34l-2 12-8 11z"/><path fill="#EA5A47" d="M33.7 22.3c1.4.4.8 2.1 1.5 4.4.4 1.4.3 1.8.3 2-.5 1.3-1.2 1.2-1.7 2.4-.4 1.1.7 1.6.4 3s-1.7 2.7-2.7 2.4c-.8-.2-1.1-1.3-1.3-1.8-.5-1.8.2-3.5.4-4.1.8-1.8 1.7-2.2 1.5-3.3-.1-1-1-1.6-1.3-1.8-.8-.6-2.1-1-3.1-.6-1.9.8-2.4 4.6-2 7.4.4 2.2 2.8 7 2.2 8.7-.2.7-2-3.1-3.2-1.5-1.1 1.4.4 5.3-1.8 6.6-1.3.7-1.7-3.9-1.8-3.9-.3 0-1 1.5-.3-2.1.4-2.4 1.7-1.4 2.1-4 .2-1.5.1-4-.1-6-.3-3-1.4-2.7-1.1-5.1.1-.8.8-1.5 2-2.1.5-.2.2-1.9 2.4-1.8 3.6.2 4.1 1.4 5.2 1.3 1.4-.1 1.7-.3 2.4-.1z"/><g fill="none" stroke="#000" stroke-linecap="round" stroke-linejoin="round" stroke-miterlimit="10"><path stroke-width="2" d="M63 56l-6.6-6.9L53 40M24 22l-5 12-2 12-8 10M40 34l-4-12-1.6.8M40 34h5l8 6-1 6 1 5-2 2-3 3"/><path stroke-width="1.8" d="M33.7 22.3c1.4.4.8 2.1 1.5 4.4.4 1.4.3 1.8.3 2-.5 1.3-1.2 1.2-1.7 2.4-.4 1.1.7 1.6.4 3s-1.7 2.7-2.7 2.4c-.8-.2-1.1-1.3-1.3-1.8-.5-1.8.2-3.5.4-4.1.8-1.8 1.7-2.2 1.5-3.3-.1-1-1-1.6-1.3-1.8-.8-.6-2.1-1-3.1-.6-1.9.8-2.4 4.6-2 7.4.4 2.2 2.8 7 2.2 8.7-.2.7-2-3.1-3.2-1.5-1.1 1.4.4 5.3-1.8 6.6-1.3.7-1.7-3.9-1.8-3.9-.3 0-1 1.5-.3-2.1.4-2.4 1.7-1.4 2.1-4 .2-1.5.1-4-.1-6-.3-3-1.4-2.7-1.1-5.1.1-.8.8-1.5 2-2.1.5-.2.2-1.9 2.4-1.8 3.6.2 4.1 1.4 5.2 1.3 1.4-.1 1.7-.3 2.4-.1z"/><path stroke-width="2" d="M24.2 16.3c-.4-1.6-3.3-2.4-6.5-1.7M35 18.9c2.7-1.9 6.7-.9 8.9 2.3M22.8 19.9c-1.5-1.6-8.5-4.1-9.8 4.2M27 6c-1-1-2-1-3-1-1.6 0-2.7 1.4-3.4 2.7C20 9 20 11 22 11.7c1.3.5 3.1.7 4.2 1.6 1.5 1.2 1.5 3.4 1.5 4.9M34.9 10.5c.7-.1 2-.2 2.8-2.3s-1.4-3.9-4.4-3.6-5 3.8-4.6 4.4M31.6 17.9c-1.3-2.9 5.7-3.5 6.5-5.6"/></g></svg><svg viewBox="0 0 72 72" width="72" height="72" id="26F0" x="504" y="288" xmlns="http://www.w3.org/2000/svg"><path fill="#3F3F3F" d="M52 42.2s-.2-6.2-.3-6.8-.7-1.6-1-2.1L48.2 29 42 24.5l-7.2 5.4 2.6 4.5 4.9-.4 10.2 13.3-.5-5.1z"/><path fill="#9B9B9A" d="M50 39l3.4 9.1L60 56H12l4-7 2-12 7-19 4 4 4 3 4 8h5l8 6"/><g fill="none" stroke="#000" stroke-linecap="round" stroke-linejoin="round" stroke-miterlimit="10" stroke-width="2"><path d="M60 55l-6.6-6.9L50 39M37 33l-4-8-4-3-4-4-7 19-2 12-4 6"/><path d="M31 24l1 9h10l8 6-1 6 1 5-2 2-3 3M39 28l4-3 4 4 3 5"/></g></svg><svg viewBox="0 0 72 72" width="72" height="72" id="1F3D4" x="504" y="360" xmlns="http://www.w3.org/2000/svg"><path fill="#3F3F3F" d="M53 46s-.8-10.9-1.1-11.5-1-2.1-1.3-2.5l-1.8-3-5.5-4.1-3.9 4.9-.8 2.2 3.4 2"/><path fill="#9B9B9A" d="M22.2 29.8h8.5L41 32.5l9 6.5 3.4 9.1L60 56H12l4-7 2-12c.5-3 4.2-7.2 4.2-7.2z"/><path fill="#FFF" d="M29 31s-.8.7-1.3.9C26 33 25.8 34.8 25 35c-1.3.4-.9-2.7-3-3-2-.3-2.1 1.5-3 1-1.2-.7-.2-4.4 0-5 .3-1.1 1.2-2.7 3-6 1.6-2.8 1.7-3.1 2-4 .4-1.6.3-1.6 1-2 .9-.5 2.3.3 3 1 1 1 .4.7 2 2 1.3 1 1.5.8 3 2 .3.2 1.1.9 2 2 .6.7 1.4 1.6 2 3 .7 1.5.4 1.7 1 3 .9 1.9 2.2 2.6 2 3-.3.5-2.7-1-4 0-.4.3-.3.6-1 2-.8 1.7-1.2 3.6-2 4-1.2.6-3-.9-4-2-1.6-1.8 0-5 0-5zM44 23c.8-.8 1.9 1.3 3 3 .9 1.4 2.4 3.2 2 4-.5 1-3 .4-4 0-.3-.2-.4-.3-1-1-1.3-1.5-1.7-1.4-2-2-.6-1.3 1-3 2-4z"/><g fill="none" stroke="#000" stroke-linecap="round" stroke-linejoin="round" stroke-miterlimit="10" stroke-width="2"><path d="M60 55l-6.6-6.9L50 39M19.4 33.1L18 37l-2 12-4 6M40 32l10 7-1 6 1 5-2 2-3 3M48.7 30.3L51 35M41.2 29l1.2-1.5"/><path d="M29 31s-.8.7-1.3.9C26 33 25.8 34.8 25 35c-1.3.4-.9-2.7-3-3-2-.3-2.1 1.5-3 1-1.2-.7-.2-4.4 0-5 .3-1.1 1.2-2.7 3-6 1.6-2.8 1.7-3.1 2-4 .4-1.6.3-1.6 1-2 .9-.5 2.3.3 3 1 1 1 .4.7 2 2 1.3 1 1.5.8 3 2 .3.2 1.1.9 2 2 .6.7 1.4 1.6 2 3 .7 1.5.4 1.7 1 3 .9 1.9 2.2 2.6 2 3-.3.5-2.7-1-4 0-.4.3-.3.6-1 2-.8 1.7-1.2 3.6-2 4-1.2.6-3-.9-4-2-1.6-1.8 0-5 0-5zM44 23c.8-.8 1.9 1.3 3 3 .9 1.4 2.4 3.2 2 4-.5 1-3 .4-4 0-.3-.2-.4-.3-1-1-1.3-1.5-1.7-1.4-2-2-.6-1.3 1-3 2-4z"/></g></svg><svg viewBox="0 0 72 72" width="72" height="72" id="1F9ED" x="504" y="432" xmlns="http://www.w3.org/2000/svg"><path d="M33.2 33.2L48 24l-9.2 14.8"/><circle cx="36" cy="36" r="24" fill="#fcea2b"/><path fill="#f1b31c" d="M53 19a24.042 24.042 0 01-17 41 24.302 24.302 0 01-17-7"/><path fill="#fff" d="M33.2 33.2L24 48l14.8-9.2"/><path fill="#ea5a47" d="M33.2 33.2L48 24l-9.2 14.8"/><g fill="none" stroke="#000" stroke-linecap="round" stroke-linejoin="round" stroke-width="2"><circle cx="36" cy="36" r="24"/><path d="M33.2 33.2L24 48l14.8-9.2"/><path d="M33.2 33.2L48 24l-9.2 14.8M36 21v-5M36 56v-5M51 36h5M16 36h5"/></g></svg><svg viewBox="0 0 72 72" width="72" height="72" id="1F5FE" y="504" xmlns="http://www.w3.org/2000/svg"><path fill="#92d3f5" d="M11.011 11H61v49.767a.233.233 0 01-.233.233H11.233a.233.233 0 01-.233-.233V11.011a.011.011 0 01.011-.011z"/><path fill="#d22f27" d="M54.462 47.429v5.274h2.067l-2.067-5.274z"/><path fill="#d0cfce" d="M54.462 57.485v-4.782h2.067l-2.067 4.782z"/><path fill="#ea5a47" d="M52.394 52.703l2.068-5.274v5.274"/><path fill="#fff" d="M52.394 52.703l2.068 4.782v-4.782"/><path fill="#b1cc33" d="M25.06 50.701c.238.475.674.422.85.85.169.41-.087.811 0 .85.167.076.703-1.573 1.7-1.7.34-.043.474.124.85 0a1.384 1.384 0 00.85-.85c.054-.155.205-.587 0-.85-.308-.396-1.236-.173-1.7 0-.891.334-1.004.837-1.7.85-.418.008-.673-.168-.85 0-.18.172-.14.572 0 .85z"/><path fill="#b1cc33" d="M22.51 48.151c-.074.255-.193.66 0 .85.295.292 1.095-.148 2.55-.85a20.166 20.166 0 014.25-1.7c.096-.022 2.324-.525 2.55 0 .15.348-.758.728-.85 1.7a1.706 1.706 0 00.85 1.7 1.445 1.445 0 00.85 0 4.048 4.048 0 001.7-.85c.585-.41.876-.62.85-.85-.037-.323-.601-.317-.85-.85a.905.905 0 010-.85c.285-.4 1.15-.347 1.7 0 .527.333.445.731.85.85.664.196 1.533-.682 1.7-.85.485-.49.582-.866.85-.85.39.024.48.84.85.85.316.009.341-.582.85-.85.611-.321 1.122.243 1.7 0 .344-.144.489-.48.85-1.7a18.23 18.23 0 00.85-3.4c.064-1.451-.333-1.663 0-2.55.278-.738.659-.87.85-1.7.176-.762-.098-.86 0-1.7.16-1.376.948-1.571.85-2.55-.053-.525-.275-.423-.85-1.7-.518-1.15-.508-1.613-.85-1.7-.567-.143-1.063 1.005-1.7.85-.48-.116-.497-.838-.85-.85-.392-.012-.893.86-.85 1.7.04.79.537 1.112.85 1.7 1.107 2.079-1.23 5.303-1.7 5.95-1.35 1.862-2.838 2.547-3.4 2.55-.614.004-.85 0-.85 0-.715-.011-.736-.04-.85 0-.411.147-.45.646-.85 1.7a4.916 4.916 0 01-.85 1.7 3.254 3.254 0 01-1.7.85c-1.803.442-2.376-.25-4.25 0a7.42 7.42 0 00-2.55.85 4.69 4.69 0 00-2.55 2.55zM44.61 26.05c-.361.288-1.622 1.287-2.55.85-.83-.39-.989-1.737-.85-2.55a3.993 3.993 0 01.85-1.7c.337-.462.514-.705.85-.85.749-.32 1.301.274 1.7 0 .314-.214.239-.765 0-2.55-.241-1.801-.354-2.716 0-3.4.142-.273.432-.83.85-.85.917-.04.902 2.577 2.55 3.4 1.642.82 3.635-.787 4.25 0 .51.653-.503 2.21 0 2.55.269.182.687-.174.85 0 .207.223-.136 1.157-.85 1.7-.97.74-1.818.146-2.55.85-.662.638-.314 1.455-.85 1.7-.723.332-1.508-1.08-2.55-.85-.697.156-.632.854-1.7 1.7zM16.985 51.127a1.41 1.41 0 00.85 1.7c.362.109.513-.114.85 0a1.688 1.688 0 01.85 1.7c-.12 1.137-1.403 1.456-1.275 2.125.097.513.968.927 1.7.85 1.661-.175 2.401-2.862 2.55-3.4.25-.91.515-1.87 0-2.55-.43-.567-1.195-.67-2.55-.85a6.798 6.798 0 00-1.7 0c-.721.089-1.106.136-1.275.425z"/><g fill="none" stroke="#000"><path stroke-linejoin="round" stroke-width="2" d="M10.5 10.5h51v51h-51z"/><path stroke-miterlimit="10" d="M25.06 50.701c.238.475.674.422.85.85.169.41-.087.811 0 .85.167.076.703-1.573 1.7-1.7.34-.043.474.124.85 0a1.384 1.384 0 00.85-.85c.054-.155.205-.587 0-.85-.308-.396-1.236-.173-1.7 0-.891.334-1.004.837-1.7.85-.418.008-.673-.168-.85 0-.18.172-.14.572 0 .85z"/><path stroke-miterlimit="10" d="M22.51 48.151c-.074.255-.193.66 0 .85.295.292 1.095-.148 2.55-.85a20.166 20.166 0 014.25-1.7c.096-.022 2.324-.525 2.55 0 .15.348-.758.728-.85 1.7a1.706 1.706 0 00.85 1.7 1.445 1.445 0 00.85 0 4.048 4.048 0 001.7-.85c.585-.41.876-.62.85-.85-.037-.323-.601-.317-.85-.85a.905.905 0 010-.85c.285-.4 1.15-.347 1.7 0 .527.333.445.731.85.85.664.196 1.533-.682 1.7-.85.485-.49.582-.866.85-.85.39.024.48.84.85.85.316.009.341-.582.85-.85.611-.321 1.122.243 1.7 0 .344-.144.489-.48.85-1.7a18.23 18.23 0 00.85-3.4c.064-1.451-.333-1.663 0-2.55.278-.738.659-.87.85-1.7.176-.762-.098-.86 0-1.7.16-1.376.948-1.571.85-2.55-.053-.525-.275-.423-.85-1.7-.518-1.15-.508-1.613-.85-1.7-.567-.143-1.063 1.005-1.7.85-.48-.116-.497-.838-.85-.85-.392-.012-.893.86-.85 1.7.04.79.537 1.112.85 1.7 1.107 2.079-1.23 5.303-1.7 5.95-1.35 1.862-2.838 2.547-3.4 2.55-.614.004-.85 0-.85 0-.715-.011-.736-.04-.85 0-.411.147-.45.646-.85 1.7a4.916 4.916 0 01-.85 1.7 3.254 3.254 0 01-1.7.85c-1.803.442-2.376-.25-4.25 0a7.42 7.42 0 00-2.55.85 4.69 4.69 0 00-2.55 2.55zM44.61 26.05c-.361.288-1.622 1.287-2.55.85-.83-.39-.989-1.737-.85-2.55a3.993 3.993 0 01.85-1.7c.337-.462.514-.705.85-.85.749-.32 1.301.274 1.7 0 .314-.214.239-.765 0-2.55-.241-1.801-.354-2.716 0-3.4.142-.273.432-.83.85-.85.917-.04.902 2.577 2.55 3.4 1.642.82 3.635-.787 4.25 0 .51.653-.503 2.21 0 2.55.269.182.687-.174.85 0 .207.223-.136 1.157-.85 1.7-.97.74-1.818.146-2.55.85-.662.638-.314 1.455-.85 1.7-.723.332-1.508-1.08-2.55-.85-.697.156-.632.854-1.7 1.7zM16.985 51.127a1.41 1.41 0 00.85 1.7c.362.109.513-.114.85 0a1.688 1.688 0 01.85 1.7c-.12 1.137-1.403 1.456-1.275 2.125.097.513.968.927 1.7.85 1.661-.175 2.401-2.862 2.55-3.4.25-.91.515-1.87 0-2.55-.43-.567-1.195-.67-2.55-.85a6.798 6.798 0 00-1.7 0c-.721.089-1.106.136-1.275.425z"/><path stroke-linejoin="round" stroke-width=".793" d="M52.014 52.744l2.486-5.315 2.41 5.315L54.5 57.5l-2.486-4.756z"/></g></svg><svg viewBox="0 0 72 72" width="72" height="72" id="1F5FA" x="72" y="504" xmlns="http://www.w3.org/2000/svg"><path fill="#92D3F5" d="M5 17h62v38H5z"/><path fill="#B1CC33" d="M28.5 30.5c-.042.583-1.667 2.586-2.083 2.875-.869.603-1.207.327-1.964.922-.48.377-1.078.78-1.812.922-.407.078-.227-.306-1.141.281-.51.327-.057.679 0 1 .077.432.134.172 1 1 .452.433.492.818 1 1 .317.114.548.051 1 0 .948-.108.526.827 1 1 1.09.399.997 1.832 2 2 .405.068.55-.144 1 0 .411.132.883.5 1 1 .154.657-.372 1.27-1 2-.508.591-.602.5-1 1-.531.668-.389.864-1 2-.618 1.15-.958 1.311-1 2-.017.288 0 .97 0 1 .018.695.056.787 0 1-.13.497-1.14.932-1.52.875-.75-.113-.737-2.703-.772-3.104-.07-.81.262-1.263.292-1.771.104-1.757.397-2.302 0-3-.253-.446-.387-.25-1-1-.346-.424-.87-1.082-1-2-.082-.579.089-.582 0-1-.165-.775-.808-1.026-2-2-.735-.601-1.387-1.134-2-2-.319-.45-.77-1.087-1-2-.304-1.202.149-1.399 0-3a7.064 7.064 0 00-1-3c-.348-.562-.594-.946-1-1-.774-.103-1.19 1.115-2 1-.484-.069-.858-.579-1-1-.038-.113-.176-.544 0-1 .098-.253.399-.502 1-1 .614-.508.922-.767 1-1 .146-.439-.117-.595 0-1 .2-.693 1.265-1.244 2-1 .422.14.331.408 1 1 .325.287 1.026.827 2 1 .492.088.738.131 1 0 .647-.324.338-1.18 1-2 .61-.753 1.6-.929 2-1 .99-.175 1.125.2 2 0 .94-.216.913-.68 2-1 .476-.14 1.315-.388 2 0 .617.349.535.888 1 1 .649.157.967-.855 2-1 .789-.11 1.727.321 2 1 .136.337.072.647 0 1-.218 1.065-.795 1.13-1 2-.222.946.254 1.175 0 2-.167.542-.5.375-1.031.813-.243.2-.302.52-.969 1.187-.333.333-.68.654-1 1-.73.788-.847.847-1 1M34.5 35.5c-.233-.296-1.228-1.826-1-2 .282-.215.78.208 1 0 .182-.172-.117-.504 0-1 .112-.478.556-.877 1-1 .528-.146.897.145 1 0 .198-.279-1.238-1.262-1-2 .147-.458.803-.402 1-1 .132-.402-.127-.54 0-1 .129-.465.537-.845 1-1 .132-.044.572-.192 1 0 .542.243.458.757 1 1 .305.137.695.137 1 0 .541-.242.483-.767 1-1 .343-.154.513.01 1 0 1.117-.024 1.94-.931 2-1 .503-.571.248-.8 1-2 .401-.641.665-.88 1-1 .095-.034.556-.199 1 0 .54.241.485.764 1 1 .267.122.44.055 1 0 .071-.007.714-.005 2 0 1.905.007 1.82.044 2 0 1.01-.247.991-.753 2-1 .698-.17.683.077 2 0 1.198-.07 1.775-.308 2 0 .086.117.021.178 0 1-.009.335.27.65.276 1.042.011.891.043.835-.005.958-.208.53-.362.659-.604 1.188-.09.197-.12.274-.084 1.02.053 1.097.356.848.417 1.792.048.738.125.886 0 1-.336.305-2.173-.264-2.583-1.125-.431-.905-.122-1.673-.417-1.875-.404-.278-2.233 1.126-2.5 2.016-.053.176-.284.452.578 1.234.872.79 1.249 1.084 1.328 1.156.485.438 1.008 1.028.594 1.594-.557.76-1.615.316-2 1-.345.613.386 1.185 0 2-.111.235-.407.49-1 1-.66.568-.904.65-1 1-.128.467.185.783 0 1-.237.279-.967.013-1 0-1.29-.484-1.342-1.97-2-2-.789-.036-1.221 2.078-2 2-.175-.018-.45-.345-1-1-.53-.63-.642-.862-1-1-.458-.177-.891-.037-1 0-.18.061-.503.222-1 1-.707 1.108-.438 1.395-1 2-.476.513-.858.509-1 1-.03.104-.02.403 0 1 .02.614.03.922 0 1-.208.531-.762.47-1 1-.163.363.026.551 0 1-.06 1.034-1.19 2.148-2 2-.322-.059-.548-.373-1-1-.4-.555-.828-1.15-1-2-.184-.915.154-1.01 0-2-.078-.502-.253-1.632-1-2-.716-.353-1.245.348-2 0-.702-.324-1.023-1.29-1-2 .025-.76.444-1.293 1-2 .436-.554.654-.831 1-1M54.5 44.5c-1.18.58-1.744.453-2 1-.199.424-.04.886 0 1 .243.704.925.972 1 1 .864.324 1.339-.354 2 0 .504.27.426.771 1 1 .316.126.597.076 1 0 .693-.131 1.583-.3 2-1 .3-.501.198-1.01 0-2-.153-.768-.355-1.778-1-2-.126-.043-.138-.012-1 0-.731.01-.806-.012-1 0-.765.046-.904.462-2 1z"/><g fill="none" stroke="#000" stroke-linecap="round" stroke-linejoin="round" stroke-miterlimit="10" stroke-width="2"><path d="M5 17h62v38H5z"/><path d="M28.5 30.5c-.042.583-1.667 2.586-2.083 2.875-.869.603-1.207.327-1.964.922-.48.377-1.078.78-1.812.922-.407.078-.227-.306-1.141.281-.51.327-.057.679 0 1 .077.432.134.172 1 1 .452.433.492.818 1 1 .317.114.548.051 1 0 .948-.108.526.827 1 1 1.09.399.997 1.832 2 2 .405.068.55-.144 1 0 .411.132.883.5 1 1 .154.657-.372 1.27-1 2-.508.591-.602.5-1 1-.531.668-.389.864-1 2-.618 1.15-.958 1.311-1 2-.017.288 0 .97 0 1 .018.695.056.787 0 1-.13.497-1.14.932-1.52.875-.75-.113-.737-2.703-.772-3.104-.07-.81.262-1.263.292-1.771.104-1.757.397-2.302 0-3-.253-.446-.387-.25-1-1-.346-.424-.87-1.082-1-2-.082-.579.089-.582 0-1-.165-.775-.808-1.026-2-2-.735-.601-1.387-1.134-2-2-.319-.45-.77-1.087-1-2-.304-1.202.149-1.399 0-3a7.064 7.064 0 00-1-3c-.348-.562-.594-.946-1-1-.774-.103-1.19 1.115-2 1-.484-.069-.858-.579-1-1-.038-.113-.176-.544 0-1 .098-.253.399-.502 1-1 .614-.508.922-.767 1-1 .146-.439-.117-.595 0-1 .2-.693 1.265-1.244 2-1 .422.14.331.408 1 1 .325.287 1.026.827 2 1 .492.088.738.131 1 0 .647-.324.338-1.18 1-2 .61-.753 1.6-.929 2-1 .99-.175 1.125.2 2 0 .94-.216.913-.68 2-1 .476-.14 1.315-.388 2 0 .617.349.535.888 1 1 .649.157.967-.855 2-1 .789-.11 1.727.321 2 1 .136.337.072.647 0 1-.218 1.065-.795 1.13-1 2-.222.946.254 1.175 0 2-.167.542-.5.375-1.031.813-.243.2-.302.52-.969 1.187-.333.333-.68.654-1 1-.73.788-.847.847-1 1M34.5 35.5c-.233-.296-1.228-1.826-1-2 .282-.215.78.208 1 0 .182-.172-.117-.504 0-1 .112-.478.556-.877 1-1 .528-.146.897.145 1 0 .198-.279-1.238-1.262-1-2 .147-.458.803-.402 1-1 .132-.402-.127-.54 0-1 .129-.465.537-.845 1-1 .132-.044.572-.192 1 0 .542.243.458.757 1 1 .305.137.695.137 1 0 .541-.242.483-.767 1-1 .343-.154.513.01 1 0 1.117-.024 1.94-.931 2-1 .503-.571.248-.8 1-2 .401-.641.665-.88 1-1 .095-.034.556-.199 1 0 .54.241.485.764 1 1 .267.122.44.055 1 0 .071-.007.714-.005 2 0 1.905.007 1.82.044 2 0 1.01-.247.991-.753 2-1 .698-.17.683.077 2 0 1.198-.07 1.775-.308 2 0 .086.117.021.178 0 1-.009.335.27.65.276 1.042.011.891.043.835-.005.958-.208.53-.362.659-.604 1.188-.09.197-.12.274-.084 1.02.053 1.097.356.848.417 1.792.048.738.125.886 0 1-.336.305-2.173-.264-2.583-1.125-.431-.905-.122-1.673-.417-1.875-.404-.278-2.233 1.126-2.5 2.016-.053.176-.284.452.578 1.234.872.79 1.249 1.084 1.328 1.156.485.438 1.008 1.028.594 1.594-.557.76-1.615.316-2 1-.345.613.386 1.185 0 2-.111.235-.407.49-1 1-.66.568-.904.65-1 1-.128.467.185.783 0 1-.237.279-.967.013-1 0-1.29-.484-1.342-1.97-2-2-.789-.036-1.221 2.078-2 2-.175-.018-.45-.345-1-1-.53-.63-.642-.862-1-1-.458-.177-.891-.037-1 0-.18.061-.503.222-1 1-.707 1.108-.438 1.395-1 2-.476.513-.858.509-1 1-.03.104-.02.403 0 1 .02.614.03.922 0 1-.208.531-.762.47-1 1-.163.363.026.551 0 1-.06 1.034-1.19 2.148-2 2-.322-.059-.548-.373-1-1-.4-.555-.828-1.15-1-2-.184-.915.154-1.01 0-2-.078-.502-.253-1.632-1-2-.716-.353-1.245.348-2 0-.702-.324-1.023-1.29-1-2 .025-.76.444-1.293 1-2 .436-.554.654-.831 1-1M54.5 44.5c-1.18.58-1.744.453-2 1-.199.424-.04.886 0 1 .243.704.925.972 1 1 .864.324 1.339-.354 2 0 .504.27.426.771 1 1 .316.126.597.076 1 0 .693-.131 1.583-.3 2-1 .3-.501.198-1.01 0-2-.153-.768-.355-1.778-1-2-.126-.043-.138-.012-1 0-.731.01-.806-.012-1 0-.765.046-.904.462-2 1z"/></g></svg><svg viewBox="0 0 72 72" width="72" height="72" id="1F310" x="144" y="504" xmlns="http://www.w3.org/2000/svg"><circle cx="36" cy="36" r="28" fill="#92D3F5"/><g fill="none" stroke="#000" stroke-linecap="round" stroke-linejoin="round" stroke-miterlimit="10" stroke-width="2"><circle cx="36" cy="36" r="28"/><path d="M36 8v56c-8.56 0-15.5-12.536-15.5-28S27.44 8 36 8c8.56 0 15.5 12.536 15.5 28S44.56 64 36 64M64 36H8M60 22H12M60 50H12"/></g></svg><svg viewBox="0 0 72 72" width="72" height="72" id="1F30F" x="216" y="504" xmlns="http://www.w3.org/2000/svg"><circle cx="36" cy="36" r="28" fill="#92D3F5"/><path fill="#B1CC33" d="M9 34c.536.13 2.303.396 3 1 .88.763-.079 1.435 1 3 .875 1.27 1.438 3.086 2 3 .743-.113.556-2.66 2-4 .465-.432 1.227-2.14 2-2 1.492.27 1.22 3.371 3 4 1.036.366 2.334.741 3 0 .852-.948.337-1.715 1-3 .828-1.604 2.075-1.274 4-3 2.01-1.802-.735-2.714 1-4 2.099-1.555 4.522-.469 6-2 1.379-1.428-.45-2.799 1-4 .638-.529 3.077-.494 6-1 1.283-.222 3.239-.56 5-1 1.418-.354 2.064-1.265 2-2-.063-.722-.683-.978-1-1-2.017-.142-2.27.19-4 0-1.99-.22-1.95-.693-4-1-.945-.142-1.086-.061-5 0-2.265.035-3.41.052-4 0a24.017 24.017 0 01-5-1c-2.032-.656-2-.977-3-1-1.51-.035-2.109.687-4 1a9.34 9.34 0 01-3 0l-1.004-.562-2.83 3.033-2.26 3.26-1.547 3.005L9.16 28l-.848 3.811-.231 2.06L9 34zM32 47a7.246 7.246 0 00-3 1c-.703.43-1.555.952-2 2-.465 1.095-.214 2.124 0 3 .247 1.012.429 1.755 1 2 .728.313 1.233.45 3 0 .771-.196 1.94-.494 3 0 .995.464.816.124 2 1 .418.31 1.539 1.139 3 1 1.272-.12 2.404-.937 3-2 .745-1.327.588-2.921 0-4-.834-1.53-2.09-1.205-3-3-.412-.814-.363-1.294-1-2-.652-.722-1.652-1.27-2-1-.401.312.455 1.413 0 2-.486.628-1.77-.238-4 0zM27 41c-1.013.543-1.956 1.547-2 2-.025.258.316.509 1 1 1.059.76 1.088 1.808 1.5 1.667.555-.19 1.346-1.79 2.043-2.834.814-1.219 3.077-1.197 3.29-2.083.197-.818-2.22-2.676-2.833-2.75-.86-.103-.998 1.927-3 3z"/><path fill="#B1CC33" d="M9 34c.536.13 2.303.396 3 1 .88.763-.079 1.435 1 3 .875 1.27 1.438 3.086 2 3 .743-.113.556-2.66 2-4 .465-.432 1.227-2.14 2-2 1.492.27 1.22 3.371 3 4 1.036.366 2.334.741 3 0 .852-.948.337-1.715 1-3 .828-1.604 2.075-1.274 4-3 2.01-1.802-.735-2.714 1-4 2.099-1.555 4.522-.469 6-2 1.379-1.428-.45-2.799 1-4 .638-.529 3.077-.494 6-1 1.283-.222 2.239.44 4 0 1.418-.354 4.064-2.265 4-3-.063-.722-1.683-.978-2-1-2.017-.142-2.27.19-4 0-1.99-.22-1.95-.693-4-1-.945-.142-1.086-.061-5 0-2.265.035-3.41.052-4 0a24.017 24.017 0 01-5-1c-2.032-.656-2-.977-3-1-1.51-.035-2.109.687-4 1a9.34 9.34 0 01-3 0"/><g fill="none" stroke="#000" stroke-linecap="round" stroke-linejoin="round" stroke-miterlimit="10" stroke-width="2"><circle cx="36" cy="36" r="28"/><path d="M32 47a7.246 7.246 0 00-3 1c-.703.43-1.555.952-2 2-.465 1.095-.214 2.124 0 3 .247 1.012.429 1.755 1 2 .728.313 1.233.45 3 0 .771-.196 1.94-.494 3 0 .995.464.816.124 2 1 .418.31 1.539 1.139 3 1 1.272-.12 2.404-.937 3-2 .745-1.327.588-2.921 0-4-.834-1.53-2.09-1.205-3-3-.412-.814-.363-1.294-1-2-.652-.722-1.652-1.27-2-1-.401.312.455 1.413 0 2-.486.628-1.77-.238-4 0zM27 41c-1.013.543-1.956 1.547-2 2-.025.258.316.509 1 1 1.059.76 1.088 1.808 1.5 1.667.555-.19 1.346-1.79 2.043-2.834.814-1.219 3.077-1.197 3.29-2.083.197-.818-2.22-2.676-2.833-2.75-.86-.103-.998 1.927-3 3zM9 34c.536.13 2.303.396 3 1 .88.763-.079 1.435 1 3 .875 1.27 1.438 3.086 2 3 .743-.113.556-2.66 2-4 .465-.432 1.227-2.14 2-2 1.492.27 1.22 3.371 3 4 1.036.366 2.334.741 3 0 .852-.948.337-1.715 1-3 .828-1.604 2.075-1.274 4-3 2.01-1.802-.735-2.714 1-4 2.099-1.555 4.522-.469 6-2 1.379-1.428-.45-2.799 1-4 .638-.529 3.077-.494 6-1 1.283-.222 2.239.44 4 0 1.418-.354 4.064-2.265 4-3-.063-.722-1.683-.978-2-1-2.017-.142-2.27.19-4 0-1.99-.22-1.95-.693-4-1-.945-.142-1.086-.061-5 0-2.265.035-3.41.052-4 0a24.017 24.017 0 01-5-1c-2.032-.656-2-.977-3-1-1.51-.035-2.109.687-4 1a9.34 9.34 0 01-3 0"/><circle cx="36" cy="36" r="28"/></g></svg><svg viewBox="0 0 72 72" width="72" height="72" id="1F30E" x="288" y="504" xmlns="http://www.w3.org/2000/svg"><circle cx="36" cy="36" r="28" fill="#92D3F5"/><path fill="#B1CC33" d="M41.688 29.197c-.057.794-2.27 3.522-2.838 3.916-1.183.821-1.644.445-2.675 1.255-.653.514-1.469 1.064-2.468 1.256-.554.106-.31-.417-1.554.383-.694.445-.078.925 0 1.362.104.588.183.234 1.362 1.362.616.59.67 1.115 1.362 1.362.432.155.746.07 1.362 0 1.291-.146.717 1.126 1.362 1.362 1.484.544 2.032.317 3.399.545.552.092 1.312-.18 2 1 .296.508 0 2 .05 2.542.084.916-.506 1.729-1.362 2.724-.692.806-.82.681-1.362 1.362-.724.91-.53 1.177-1.362 2.725-.843 1.566-1.306 1.786-1.362 2.724-.024.392-.001 1.32 0 1.362.023.947.076 1.072 0 1.362-.178.677-1.553 1.27-2.072 1.192-1.021-.153-1.003-3.682-1.05-4.228-.096-1.104.356-1.72.397-2.412.142-2.393.541-3.135 0-4.087-.345-.607-.527-.34-1.362-1.362-.471-.577-1.185-1.473-1.362-2.724-.111-.788.121-.793 0-1.362-.225-1.056-1.101-1.397-2.724-2.724-1.001-.82-1.89-1.545-2.724-2.725-.434-.613-1.048-1.48-1.363-2.724-.413-1.638.203-1.905 0-4.086a9.624 9.624 0 00-1.362-4.087c-.474-.766-.808-1.288-1.362-1.362-1.055-.14-1.62 1.52-2.724 1.362-.66-.094-1.169-.788-1.362-1.362-.052-.153-.24-.74 0-1.362.133-.345.543-.684 1.362-1.362.836-.693 1.256-1.045 1.362-1.362.2-.598-.16-.81 0-1.362.274-.944 1.723-1.694 2.724-1.362.576.19.451.555 1.362 1.362.443.391 1.399 1.126 2.725 1.362.67.12 1.004.179 1.362 0 .88-.441.46-1.609 1.362-2.725.83-1.026 2.179-1.265 2.724-1.362 1.349-.239 1.533.274 2.725 0 1.28-.293 1.243-.925 2.724-1.362.648-.19 1.79-.528 2.724 0 .84.475.729 1.21 1.362 1.362.884.214 1.317-1.164 2.725-1.362 1.074-.15 2.352.438 2.724 1.362.185.46.098.882 0 1.362-.297 1.452-1.084 1.54-1.362 2.725-.303 1.288.346 1.6 0 2.724-.227.738-.681.51-1.405 1.107-.331.272-.411.71-1.32 1.617-.454.454-.925.892-1.362 1.362-.995 1.073-1.154 1.154-1.362 1.363"/><g fill="none" stroke="#000" stroke-linecap="round" stroke-linejoin="round" stroke-miterlimit="10" stroke-width="2"><circle cx="36" cy="36" r="28"/><path d="M41.688 29.197c-.057.794-2.27 3.522-2.838 3.916-1.183.821-1.644.445-2.675 1.255-.653.514-1.469 1.064-2.468 1.256-.554.106-.31-.417-1.554.383-.694.445-.078.925 0 1.362.104.588.183.234 1.362 1.362.616.59.67 1.115 1.362 1.362.432.155.746.07 1.362 0 1.291-.146.717 1.126 1.362 1.362 1.484.544 2.032.317 3.399.545.552.092 1.312-.18 2 1 .296.508 0 2 .05 2.542.084.916-.506 1.729-1.362 2.724-.692.806-.82.681-1.362 1.362-.724.91-.53 1.177-1.362 2.725-.843 1.566-1.306 1.786-1.362 2.724-.024.392-.001 1.32 0 1.362.023.947.076 1.072 0 1.362-.178.677-1.553 1.27-2.072 1.192-1.021-.153-1.003-3.682-1.05-4.228-.096-1.104.356-1.72.397-2.412.142-2.393.541-3.135 0-4.087-.345-.607-.527-.34-1.362-1.362-.471-.577-1.185-1.473-1.362-2.724-.111-.788.121-.793 0-1.362-.225-1.056-1.101-1.397-2.724-2.724-1.001-.82-1.89-1.545-2.724-2.725-.434-.613-1.048-1.48-1.363-2.724-.413-1.638.203-1.905 0-4.086a9.624 9.624 0 00-1.362-4.087c-.474-.766-.808-1.288-1.362-1.362-1.055-.14-1.62 1.52-2.724 1.362-.66-.094-1.169-.788-1.362-1.362-.052-.153-.24-.74 0-1.362.133-.345.543-.684 1.362-1.362.836-.693 1.256-1.045 1.362-1.362.2-.598-.16-.81 0-1.362.274-.944 1.723-1.694 2.724-1.362.576.19.451.555 1.362 1.362.443.391 1.399 1.126 2.725 1.362.67.12 1.004.179 1.362 0 .88-.441.46-1.609 1.362-2.725.83-1.026 2.179-1.265 2.724-1.362 1.349-.239 1.533.274 2.725 0 1.28-.293 1.243-.925 2.724-1.362.648-.19 1.79-.528 2.724 0 .84.475.729 1.21 1.362 1.362.884.214 1.317-1.164 2.725-1.362 1.074-.15 2.352.438 2.724 1.362.185.46.098.882 0 1.362-.297 1.452-1.084 1.54-1.362 2.725-.303 1.288.346 1.6 0 2.724-.227.738-.681.51-1.405 1.107-.331.272-.411.71-1.32 1.617-.454.454-.925.892-1.362 1.362-.995 1.073-1.154 1.154-1.362 1.363"/></g></svg><svg viewBox="0 0 72 72" width="72" height="72" id="1F30D" x="360" y="504" xmlns="http://www.w3.org/2000/svg"><circle cx="36" cy="36" r="28" fill="#92D3F5"/><path fill="#B1CC33" d="M49.44 11.43c-.539.906-1.645 2.143-2.44 2.57-1.245.67-1.904.267-3 1-1.269.848-1.21 1.938-2 2-.802.063-.688-1.993-1-3-.452-1.458-.23-1.527-1-2-1.083-.666-3.212-1.05-5 0-.71.417-.75.682-3 4-1.71 2.522-2.188 3.11-2 4 .199.942.043 1.747 1 2 1.187.313 1.366-.272 2-1 1.328-1.525 2.358-3.783 3-4 .571-.193 2.066 1.35 2 3-.046 1.165-.852 1.922-2 3-.742.697-2.875 1.5-6 2-1.719.275-1.408.852-2.063 1.594-.842.955-.461 2.169-1.28 3.312-1.026 1.43-3.473 1.792-3.657 2.72-.157.79 1.96 1.358 3 1.374.85.013 1.064-.772 3-2 .74-.47 1.75-1.281 2.688-1.25.504.017 1.828.285 2.343.719.594.5-.156 1.844-.406 3.156s-2.897 1.865-3.854 2.02c-1.574.258-4.144-.522-5.604.938-1 1-1.116 1.766-1.167 3.417-.013.417.937 3.032 2 4 1.144 1.042 2.294-.836 4 0 1.746.855 2.493 2.729 3 4 .508 1.273.176 1.168 1 5 .415 1.927.32 1.12 1 4 .563 2.383.589 2.768 1 3 1.173.663 3.9-.816 5-3 .69-1.368.211-1.962 1-5 .393-1.512.59-2.268 1-3 1.733-3.086 4.883-3.126 5-5 .08-1.282-1.357-1.851-1-3 .342-1.1 1.81-1.06 2-2 .258-1.275-2.25-2.316-2-3 .282-.775 4.07-1.01 6 1 .64.666.498.978 2 4 1.384 2.785 1.764 3.043 2 3 .429-.078.322-1.135 1-3 .324-.892 1.093-3.006 2-3 .625.004.739 1.01 2 2 .71.558 1.79.88 2.347 1.038.428-1.945.653-3.965.653-6.038 0-10.632-5.925-19.88-14.653-24.62"/><g fill="none" stroke="#000" stroke-linecap="round" stroke-linejoin="round" stroke-miterlimit="10" stroke-width="2"><circle cx="36" cy="36" r="28"/><path d="M49.44 11.43c-.539.906-1.645 2.143-2.44 2.57-1.245.67-1.904.267-3 1-1.269.848-1.21 1.938-2 2-.802.063-.688-1.993-1-3-.452-1.458-.23-1.527-1-2-1.083-.666-3.212-1.05-5 0-.71.417-.75.682-3 4-1.71 2.522-2.188 3.11-2 4 .199.942.043 1.747 1 2 1.187.313 1.366-.272 2-1 1.328-1.525 2.358-3.783 3-4 .571-.193 2.066 1.35 2 3-.046 1.165-.852 1.922-2 3-.742.697-2.875 1.5-6 2-1.719.275-1.408.852-2.063 1.594-.842.955-.461 2.169-1.28 3.312-1.026 1.43-3.473 1.792-3.657 2.72-.157.79 1.96 1.358 3 1.374.85.013 1.064-.772 3-2 .74-.47 1.75-1.281 2.688-1.25.504.017 1.828.285 2.343.719.594.5-.156 1.844-.406 3.156s-2.897 1.865-3.854 2.02c-1.574.258-4.144-.522-5.604.938-1 1-1.116 1.766-1.167 3.417-.013.417.937 3.032 2 4 1.144 1.042 2.294-.836 4 0 1.746.855 2.493 2.729 3 4 .508 1.273.176 1.168 1 5 .415 1.927.32 1.12 1 4 .563 2.383.589 2.768 1 3 1.173.663 3.9-.816 5-3 .69-1.368.211-1.962 1-5 .393-1.512.59-2.268 1-3 1.733-3.086 4.883-3.126 5-5 .08-1.282-1.357-1.851-1-3 .342-1.1 1.81-1.06 2-2 .258-1.275-2.25-2.316-2-3 .282-.775 4.07-1.01 6 1 .64.666.498.978 2 4 1.384 2.785 1.764 3.043 2 3 .429-.078.322-1.135 1-3 .324-.892 1.093-3.006 2-3 .625.004.739 1.01 2 2 .71.558 1.79.88 2.347 1.038.428-1.945.653-3.965.653-6.038 0-10.632-5.925-19.88-14.653-24.62"/></g></svg></svg>